<?xml version="1.0" encoding="utf-8" standalone="no"?>
<!DOCTYPE svg PUBLIC "-//W3C//DTD SVG 1.1//EN"
  "http://www.w3.org/Graphics/SVG/1.1/DTD/svg11.dtd">
<svg xmlns:xlink="http://www.w3.org/1999/xlink" width="648pt" height="288pt" viewBox="0 0 648 288" xmlns="http://www.w3.org/2000/svg" version="1.1">
 <metadata>
  <rdf:RDF xmlns:dc="http://purl.org/dc/elements/1.1/" xmlns:cc="http://creativecommons.org/ns#" xmlns:rdf="http://www.w3.org/1999/02/22-rdf-syntax-ns#">
   <cc:Work>
    <dc:type rdf:resource="http://purl.org/dc/dcmitype/StillImage"/>
    <dc:date>2026-03-30T12:44:02.876293</dc:date>
    <dc:format>image/svg+xml</dc:format>
    <dc:creator>
     <cc:Agent>
      <dc:title>Matplotlib v3.10.8, https://matplotlib.org/</dc:title>
     </cc:Agent>
    </dc:creator>
   </cc:Work>
  </rdf:RDF>
 </metadata>
 <defs>
  <style type="text/css">*{stroke-linejoin: round; stroke-linecap: butt}</style>
 </defs>
 <g id="figure_1">
  <g id="patch_1">
   <path d="M 0 288 
L 648 288 
L 648 0 
L 0 0 
z
" style="fill: #ffffff"/>
  </g>
  <g id="axes_1">
   <g id="patch_2">
    <path d="M 59.33 245.93875 
L 629.325 245.93875 
L 629.325 41.856 
L 59.33 41.856 
z
" style="fill: #ffffff"/>
   </g>
   <g id="matplotlib.axis_1">
    <g id="xtick_1">
     <g id="line2d_1">
      <path d="M 59.33 245.93875 
L 59.33 41.856 
" clip-path="url(#pd54d13487f)" style="fill: none; stroke: #b0b0b0; stroke-width: 0.3; stroke-linecap: square"/>
     </g>
     <g id="line2d_2">
      <defs>
       <path id="m40102619e3" d="M 0 0 
L 0 3.5 
" style="stroke: #000000; stroke-width: 0.8"/>
      </defs>
      <g>
       <use xlink:href="#m40102619e3" x="59.33" y="245.93875" style="stroke: #000000; stroke-width: 0.8"/>
      </g>
     </g>
     <g id="text_1">
      <!-- 0.0 -->
      <g transform="translate(51.378438 260.537188) scale(0.1 -0.1)">
       <defs>
        <path id="DejaVuSans-30" d="M 2034 4250 
Q 1547 4250 1301 3770 
Q 1056 3291 1056 2328 
Q 1056 1369 1301 889 
Q 1547 409 2034 409 
Q 2525 409 2770 889 
Q 3016 1369 3016 2328 
Q 3016 3291 2770 3770 
Q 2525 4250 2034 4250 
z
M 2034 4750 
Q 2819 4750 3233 4129 
Q 3647 3509 3647 2328 
Q 3647 1150 3233 529 
Q 2819 -91 2034 -91 
Q 1250 -91 836 529 
Q 422 1150 422 2328 
Q 422 3509 836 4129 
Q 1250 4750 2034 4750 
z
" transform="scale(0.015625)"/>
        <path id="DejaVuSans-2e" d="M 684 794 
L 1344 794 
L 1344 0 
L 684 0 
L 684 794 
z
" transform="scale(0.015625)"/>
       </defs>
       <use xlink:href="#DejaVuSans-30"/>
       <use xlink:href="#DejaVuSans-2e" transform="translate(63.623047 0)"/>
       <use xlink:href="#DejaVuSans-30" transform="translate(95.410156 0)"/>
      </g>
     </g>
    </g>
    <g id="xtick_2">
     <g id="line2d_3">
      <path d="M 173.329 245.93875 
L 173.329 41.856 
" clip-path="url(#pd54d13487f)" style="fill: none; stroke: #b0b0b0; stroke-width: 0.3; stroke-linecap: square"/>
     </g>
     <g id="line2d_4">
      <g>
       <use xlink:href="#m40102619e3" x="173.329" y="245.93875" style="stroke: #000000; stroke-width: 0.8"/>
      </g>
     </g>
     <g id="text_2">
      <!-- 0.1 -->
      <g transform="translate(165.377438 260.537188) scale(0.1 -0.1)">
       <defs>
        <path id="DejaVuSans-31" d="M 794 531 
L 1825 531 
L 1825 4091 
L 703 3866 
L 703 4441 
L 1819 4666 
L 2450 4666 
L 2450 531 
L 3481 531 
L 3481 0 
L 794 0 
L 794 531 
z
" transform="scale(0.015625)"/>
       </defs>
       <use xlink:href="#DejaVuSans-30"/>
       <use xlink:href="#DejaVuSans-2e" transform="translate(63.623047 0)"/>
       <use xlink:href="#DejaVuSans-31" transform="translate(95.410156 0)"/>
      </g>
     </g>
    </g>
    <g id="xtick_3">
     <g id="line2d_5">
      <path d="M 287.328 245.93875 
L 287.328 41.856 
" clip-path="url(#pd54d13487f)" style="fill: none; stroke: #b0b0b0; stroke-width: 0.3; stroke-linecap: square"/>
     </g>
     <g id="line2d_6">
      <g>
       <use xlink:href="#m40102619e3" x="287.328" y="245.93875" style="stroke: #000000; stroke-width: 0.8"/>
      </g>
     </g>
     <g id="text_3">
      <!-- 0.2 -->
      <g transform="translate(279.376437 260.537188) scale(0.1 -0.1)">
       <defs>
        <path id="DejaVuSans-32" d="M 1228 531 
L 3431 531 
L 3431 0 
L 469 0 
L 469 531 
Q 828 903 1448 1529 
Q 2069 2156 2228 2338 
Q 2531 2678 2651 2914 
Q 2772 3150 2772 3378 
Q 2772 3750 2511 3984 
Q 2250 4219 1831 4219 
Q 1534 4219 1204 4116 
Q 875 4013 500 3803 
L 500 4441 
Q 881 4594 1212 4672 
Q 1544 4750 1819 4750 
Q 2544 4750 2975 4387 
Q 3406 4025 3406 3419 
Q 3406 3131 3298 2873 
Q 3191 2616 2906 2266 
Q 2828 2175 2409 1742 
Q 1991 1309 1228 531 
z
" transform="scale(0.015625)"/>
       </defs>
       <use xlink:href="#DejaVuSans-30"/>
       <use xlink:href="#DejaVuSans-2e" transform="translate(63.623047 0)"/>
       <use xlink:href="#DejaVuSans-32" transform="translate(95.410156 0)"/>
      </g>
     </g>
    </g>
    <g id="xtick_4">
     <g id="line2d_7">
      <path d="M 401.327 245.93875 
L 401.327 41.856 
" clip-path="url(#pd54d13487f)" style="fill: none; stroke: #b0b0b0; stroke-width: 0.3; stroke-linecap: square"/>
     </g>
     <g id="line2d_8">
      <g>
       <use xlink:href="#m40102619e3" x="401.327" y="245.93875" style="stroke: #000000; stroke-width: 0.8"/>
      </g>
     </g>
     <g id="text_4">
      <!-- 0.3 -->
      <g transform="translate(393.375437 260.537188) scale(0.1 -0.1)">
       <defs>
        <path id="DejaVuSans-33" d="M 2597 2516 
Q 3050 2419 3304 2112 
Q 3559 1806 3559 1356 
Q 3559 666 3084 287 
Q 2609 -91 1734 -91 
Q 1441 -91 1130 -33 
Q 819 25 488 141 
L 488 750 
Q 750 597 1062 519 
Q 1375 441 1716 441 
Q 2309 441 2620 675 
Q 2931 909 2931 1356 
Q 2931 1769 2642 2001 
Q 2353 2234 1838 2234 
L 1294 2234 
L 1294 2753 
L 1863 2753 
Q 2328 2753 2575 2939 
Q 2822 3125 2822 3475 
Q 2822 3834 2567 4026 
Q 2313 4219 1838 4219 
Q 1578 4219 1281 4162 
Q 984 4106 628 3988 
L 628 4550 
Q 988 4650 1302 4700 
Q 1616 4750 1894 4750 
Q 2613 4750 3031 4423 
Q 3450 4097 3450 3541 
Q 3450 3153 3228 2886 
Q 3006 2619 2597 2516 
z
" transform="scale(0.015625)"/>
       </defs>
       <use xlink:href="#DejaVuSans-30"/>
       <use xlink:href="#DejaVuSans-2e" transform="translate(63.623047 0)"/>
       <use xlink:href="#DejaVuSans-33" transform="translate(95.410156 0)"/>
      </g>
     </g>
    </g>
    <g id="xtick_5">
     <g id="line2d_9">
      <path d="M 515.326 245.93875 
L 515.326 41.856 
" clip-path="url(#pd54d13487f)" style="fill: none; stroke: #b0b0b0; stroke-width: 0.3; stroke-linecap: square"/>
     </g>
     <g id="line2d_10">
      <g>
       <use xlink:href="#m40102619e3" x="515.326" y="245.93875" style="stroke: #000000; stroke-width: 0.8"/>
      </g>
     </g>
     <g id="text_5">
      <!-- 0.4 -->
      <g transform="translate(507.374437 260.537188) scale(0.1 -0.1)">
       <defs>
        <path id="DejaVuSans-34" d="M 2419 4116 
L 825 1625 
L 2419 1625 
L 2419 4116 
z
M 2253 4666 
L 3047 4666 
L 3047 1625 
L 3713 1625 
L 3713 1100 
L 3047 1100 
L 3047 0 
L 2419 0 
L 2419 1100 
L 313 1100 
L 313 1709 
L 2253 4666 
z
" transform="scale(0.015625)"/>
       </defs>
       <use xlink:href="#DejaVuSans-30"/>
       <use xlink:href="#DejaVuSans-2e" transform="translate(63.623047 0)"/>
       <use xlink:href="#DejaVuSans-34" transform="translate(95.410156 0)"/>
      </g>
     </g>
    </g>
    <g id="xtick_6">
     <g id="line2d_11">
      <path d="M 629.325 245.93875 
L 629.325 41.856 
" clip-path="url(#pd54d13487f)" style="fill: none; stroke: #b0b0b0; stroke-width: 0.3; stroke-linecap: square"/>
     </g>
     <g id="line2d_12">
      <g>
       <use xlink:href="#m40102619e3" x="629.325" y="245.93875" style="stroke: #000000; stroke-width: 0.8"/>
      </g>
     </g>
     <g id="text_6">
      <!-- 0.5 -->
      <g transform="translate(621.373437 260.537188) scale(0.1 -0.1)">
       <defs>
        <path id="DejaVuSans-35" d="M 691 4666 
L 3169 4666 
L 3169 4134 
L 1269 4134 
L 1269 2991 
Q 1406 3038 1543 3061 
Q 1681 3084 1819 3084 
Q 2600 3084 3056 2656 
Q 3513 2228 3513 1497 
Q 3513 744 3044 326 
Q 2575 -91 1722 -91 
Q 1428 -91 1123 -41 
Q 819 9 494 109 
L 494 744 
Q 775 591 1075 516 
Q 1375 441 1709 441 
Q 2250 441 2565 725 
Q 2881 1009 2881 1497 
Q 2881 1984 2565 2268 
Q 2250 2553 1709 2553 
Q 1456 2553 1204 2497 
Q 953 2441 691 2322 
L 691 4666 
z
" transform="scale(0.015625)"/>
       </defs>
       <use xlink:href="#DejaVuSans-30"/>
       <use xlink:href="#DejaVuSans-2e" transform="translate(63.623047 0)"/>
       <use xlink:href="#DejaVuSans-35" transform="translate(95.410156 0)"/>
      </g>
     </g>
    </g>
    <g id="text_7">
     <!-- Normalised frequency  (× f_s) -->
     <g transform="translate(269.6025 274.215312) scale(0.1 -0.1)">
      <defs>
       <path id="DejaVuSans-4e" d="M 628 4666 
L 1478 4666 
L 3547 763 
L 3547 4666 
L 4159 4666 
L 4159 0 
L 3309 0 
L 1241 3903 
L 1241 0 
L 628 0 
L 628 4666 
z
" transform="scale(0.015625)"/>
       <path id="DejaVuSans-6f" d="M 1959 3097 
Q 1497 3097 1228 2736 
Q 959 2375 959 1747 
Q 959 1119 1226 758 
Q 1494 397 1959 397 
Q 2419 397 2687 759 
Q 2956 1122 2956 1747 
Q 2956 2369 2687 2733 
Q 2419 3097 1959 3097 
z
M 1959 3584 
Q 2709 3584 3137 3096 
Q 3566 2609 3566 1747 
Q 3566 888 3137 398 
Q 2709 -91 1959 -91 
Q 1206 -91 779 398 
Q 353 888 353 1747 
Q 353 2609 779 3096 
Q 1206 3584 1959 3584 
z
" transform="scale(0.015625)"/>
       <path id="DejaVuSans-72" d="M 2631 2963 
Q 2534 3019 2420 3045 
Q 2306 3072 2169 3072 
Q 1681 3072 1420 2755 
Q 1159 2438 1159 1844 
L 1159 0 
L 581 0 
L 581 3500 
L 1159 3500 
L 1159 2956 
Q 1341 3275 1631 3429 
Q 1922 3584 2338 3584 
Q 2397 3584 2469 3576 
Q 2541 3569 2628 3553 
L 2631 2963 
z
" transform="scale(0.015625)"/>
       <path id="DejaVuSans-6d" d="M 3328 2828 
Q 3544 3216 3844 3400 
Q 4144 3584 4550 3584 
Q 5097 3584 5394 3201 
Q 5691 2819 5691 2113 
L 5691 0 
L 5113 0 
L 5113 2094 
Q 5113 2597 4934 2840 
Q 4756 3084 4391 3084 
Q 3944 3084 3684 2787 
Q 3425 2491 3425 1978 
L 3425 0 
L 2847 0 
L 2847 2094 
Q 2847 2600 2669 2842 
Q 2491 3084 2119 3084 
Q 1678 3084 1418 2786 
Q 1159 2488 1159 1978 
L 1159 0 
L 581 0 
L 581 3500 
L 1159 3500 
L 1159 2956 
Q 1356 3278 1631 3431 
Q 1906 3584 2284 3584 
Q 2666 3584 2933 3390 
Q 3200 3197 3328 2828 
z
" transform="scale(0.015625)"/>
       <path id="DejaVuSans-61" d="M 2194 1759 
Q 1497 1759 1228 1600 
Q 959 1441 959 1056 
Q 959 750 1161 570 
Q 1363 391 1709 391 
Q 2188 391 2477 730 
Q 2766 1069 2766 1631 
L 2766 1759 
L 2194 1759 
z
M 3341 1997 
L 3341 0 
L 2766 0 
L 2766 531 
Q 2569 213 2275 61 
Q 1981 -91 1556 -91 
Q 1019 -91 701 211 
Q 384 513 384 1019 
Q 384 1609 779 1909 
Q 1175 2209 1959 2209 
L 2766 2209 
L 2766 2266 
Q 2766 2663 2505 2880 
Q 2244 3097 1772 3097 
Q 1472 3097 1187 3025 
Q 903 2953 641 2809 
L 641 3341 
Q 956 3463 1253 3523 
Q 1550 3584 1831 3584 
Q 2591 3584 2966 3190 
Q 3341 2797 3341 1997 
z
" transform="scale(0.015625)"/>
       <path id="DejaVuSans-6c" d="M 603 4863 
L 1178 4863 
L 1178 0 
L 603 0 
L 603 4863 
z
" transform="scale(0.015625)"/>
       <path id="DejaVuSans-69" d="M 603 3500 
L 1178 3500 
L 1178 0 
L 603 0 
L 603 3500 
z
M 603 4863 
L 1178 4863 
L 1178 4134 
L 603 4134 
L 603 4863 
z
" transform="scale(0.015625)"/>
       <path id="DejaVuSans-73" d="M 2834 3397 
L 2834 2853 
Q 2591 2978 2328 3040 
Q 2066 3103 1784 3103 
Q 1356 3103 1142 2972 
Q 928 2841 928 2578 
Q 928 2378 1081 2264 
Q 1234 2150 1697 2047 
L 1894 2003 
Q 2506 1872 2764 1633 
Q 3022 1394 3022 966 
Q 3022 478 2636 193 
Q 2250 -91 1575 -91 
Q 1294 -91 989 -36 
Q 684 19 347 128 
L 347 722 
Q 666 556 975 473 
Q 1284 391 1588 391 
Q 1994 391 2212 530 
Q 2431 669 2431 922 
Q 2431 1156 2273 1281 
Q 2116 1406 1581 1522 
L 1381 1569 
Q 847 1681 609 1914 
Q 372 2147 372 2553 
Q 372 3047 722 3315 
Q 1072 3584 1716 3584 
Q 2034 3584 2315 3537 
Q 2597 3491 2834 3397 
z
" transform="scale(0.015625)"/>
       <path id="DejaVuSans-65" d="M 3597 1894 
L 3597 1613 
L 953 1613 
Q 991 1019 1311 708 
Q 1631 397 2203 397 
Q 2534 397 2845 478 
Q 3156 559 3463 722 
L 3463 178 
Q 3153 47 2828 -22 
Q 2503 -91 2169 -91 
Q 1331 -91 842 396 
Q 353 884 353 1716 
Q 353 2575 817 3079 
Q 1281 3584 2069 3584 
Q 2775 3584 3186 3129 
Q 3597 2675 3597 1894 
z
M 3022 2063 
Q 3016 2534 2758 2815 
Q 2500 3097 2075 3097 
Q 1594 3097 1305 2825 
Q 1016 2553 972 2059 
L 3022 2063 
z
" transform="scale(0.015625)"/>
       <path id="DejaVuSans-64" d="M 2906 2969 
L 2906 4863 
L 3481 4863 
L 3481 0 
L 2906 0 
L 2906 525 
Q 2725 213 2448 61 
Q 2172 -91 1784 -91 
Q 1150 -91 751 415 
Q 353 922 353 1747 
Q 353 2572 751 3078 
Q 1150 3584 1784 3584 
Q 2172 3584 2448 3432 
Q 2725 3281 2906 2969 
z
M 947 1747 
Q 947 1113 1208 752 
Q 1469 391 1925 391 
Q 2381 391 2643 752 
Q 2906 1113 2906 1747 
Q 2906 2381 2643 2742 
Q 2381 3103 1925 3103 
Q 1469 3103 1208 2742 
Q 947 2381 947 1747 
z
" transform="scale(0.015625)"/>
       <path id="DejaVuSans-20" transform="scale(0.015625)"/>
       <path id="DejaVuSans-66" d="M 2375 4863 
L 2375 4384 
L 1825 4384 
Q 1516 4384 1395 4259 
Q 1275 4134 1275 3809 
L 1275 3500 
L 2222 3500 
L 2222 3053 
L 1275 3053 
L 1275 0 
L 697 0 
L 697 3053 
L 147 3053 
L 147 3500 
L 697 3500 
L 697 3744 
Q 697 4328 969 4595 
Q 1241 4863 1831 4863 
L 2375 4863 
z
" transform="scale(0.015625)"/>
       <path id="DejaVuSans-71" d="M 947 1747 
Q 947 1113 1208 752 
Q 1469 391 1925 391 
Q 2381 391 2643 752 
Q 2906 1113 2906 1747 
Q 2906 2381 2643 2742 
Q 2381 3103 1925 3103 
Q 1469 3103 1208 2742 
Q 947 2381 947 1747 
z
M 2906 525 
Q 2725 213 2448 61 
Q 2172 -91 1784 -91 
Q 1150 -91 751 415 
Q 353 922 353 1747 
Q 353 2572 751 3078 
Q 1150 3584 1784 3584 
Q 2172 3584 2448 3432 
Q 2725 3281 2906 2969 
L 2906 3500 
L 3481 3500 
L 3481 -1331 
L 2906 -1331 
L 2906 525 
z
" transform="scale(0.015625)"/>
       <path id="DejaVuSans-75" d="M 544 1381 
L 544 3500 
L 1119 3500 
L 1119 1403 
Q 1119 906 1312 657 
Q 1506 409 1894 409 
Q 2359 409 2629 706 
Q 2900 1003 2900 1516 
L 2900 3500 
L 3475 3500 
L 3475 0 
L 2900 0 
L 2900 538 
Q 2691 219 2414 64 
Q 2138 -91 1772 -91 
Q 1169 -91 856 284 
Q 544 659 544 1381 
z
M 1991 3584 
L 1991 3584 
z
" transform="scale(0.015625)"/>
       <path id="DejaVuSans-6e" d="M 3513 2113 
L 3513 0 
L 2938 0 
L 2938 2094 
Q 2938 2591 2744 2837 
Q 2550 3084 2163 3084 
Q 1697 3084 1428 2787 
Q 1159 2491 1159 1978 
L 1159 0 
L 581 0 
L 581 3500 
L 1159 3500 
L 1159 2956 
Q 1366 3272 1645 3428 
Q 1925 3584 2291 3584 
Q 2894 3584 3203 3211 
Q 3513 2838 3513 2113 
z
" transform="scale(0.015625)"/>
       <path id="DejaVuSans-63" d="M 3122 3366 
L 3122 2828 
Q 2878 2963 2633 3030 
Q 2388 3097 2138 3097 
Q 1578 3097 1268 2742 
Q 959 2388 959 1747 
Q 959 1106 1268 751 
Q 1578 397 2138 397 
Q 2388 397 2633 464 
Q 2878 531 3122 666 
L 3122 134 
Q 2881 22 2623 -34 
Q 2366 -91 2075 -91 
Q 1284 -91 818 406 
Q 353 903 353 1747 
Q 353 2603 823 3093 
Q 1294 3584 2113 3584 
Q 2378 3584 2631 3529 
Q 2884 3475 3122 3366 
z
" transform="scale(0.015625)"/>
       <path id="DejaVuSans-79" d="M 2059 -325 
Q 1816 -950 1584 -1140 
Q 1353 -1331 966 -1331 
L 506 -1331 
L 506 -850 
L 844 -850 
Q 1081 -850 1212 -737 
Q 1344 -625 1503 -206 
L 1606 56 
L 191 3500 
L 800 3500 
L 1894 763 
L 2988 3500 
L 3597 3500 
L 2059 -325 
z
" transform="scale(0.015625)"/>
       <path id="DejaVuSans-28" d="M 1984 4856 
Q 1566 4138 1362 3434 
Q 1159 2731 1159 2009 
Q 1159 1288 1364 580 
Q 1569 -128 1984 -844 
L 1484 -844 
Q 1016 -109 783 600 
Q 550 1309 550 2009 
Q 550 2706 781 3412 
Q 1013 4119 1484 4856 
L 1984 4856 
z
" transform="scale(0.015625)"/>
       <path id="DejaVuSans-d7" d="M 4488 3438 
L 3059 2003 
L 4488 575 
L 4116 197 
L 2681 1631 
L 1247 197 
L 878 575 
L 2303 2003 
L 878 3438 
L 1247 3816 
L 2681 2381 
L 4116 3816 
L 4488 3438 
z
" transform="scale(0.015625)"/>
       <path id="DejaVuSans-5f" d="M 3263 -1063 
L 3263 -1509 
L -63 -1509 
L -63 -1063 
L 3263 -1063 
z
" transform="scale(0.015625)"/>
       <path id="DejaVuSans-29" d="M 513 4856 
L 1013 4856 
Q 1481 4119 1714 3412 
Q 1947 2706 1947 2009 
Q 1947 1309 1714 600 
Q 1481 -109 1013 -844 
L 513 -844 
Q 928 -128 1133 580 
Q 1338 1288 1338 2009 
Q 1338 2731 1133 3434 
Q 928 4138 513 4856 
z
" transform="scale(0.015625)"/>
      </defs>
      <use xlink:href="#DejaVuSans-4e"/>
      <use xlink:href="#DejaVuSans-6f" transform="translate(74.804688 0)"/>
      <use xlink:href="#DejaVuSans-72" transform="translate(135.986328 0)"/>
      <use xlink:href="#DejaVuSans-6d" transform="translate(175.349609 0)"/>
      <use xlink:href="#DejaVuSans-61" transform="translate(272.761719 0)"/>
      <use xlink:href="#DejaVuSans-6c" transform="translate(334.041016 0)"/>
      <use xlink:href="#DejaVuSans-69" transform="translate(361.824219 0)"/>
      <use xlink:href="#DejaVuSans-73" transform="translate(389.607422 0)"/>
      <use xlink:href="#DejaVuSans-65" transform="translate(441.707031 0)"/>
      <use xlink:href="#DejaVuSans-64" transform="translate(503.230469 0)"/>
      <use xlink:href="#DejaVuSans-20" transform="translate(566.707031 0)"/>
      <use xlink:href="#DejaVuSans-66" transform="translate(598.494141 0)"/>
      <use xlink:href="#DejaVuSans-72" transform="translate(633.699219 0)"/>
      <use xlink:href="#DejaVuSans-65" transform="translate(672.5625 0)"/>
      <use xlink:href="#DejaVuSans-71" transform="translate(734.085938 0)"/>
      <use xlink:href="#DejaVuSans-75" transform="translate(797.5625 0)"/>
      <use xlink:href="#DejaVuSans-65" transform="translate(860.941406 0)"/>
      <use xlink:href="#DejaVuSans-6e" transform="translate(922.464844 0)"/>
      <use xlink:href="#DejaVuSans-63" transform="translate(985.84375 0)"/>
      <use xlink:href="#DejaVuSans-79" transform="translate(1040.824219 0)"/>
      <use xlink:href="#DejaVuSans-20" transform="translate(1100.003906 0)"/>
      <use xlink:href="#DejaVuSans-20" transform="translate(1131.791016 0)"/>
      <use xlink:href="#DejaVuSans-28" transform="translate(1163.578125 0)"/>
      <use xlink:href="#DejaVuSans-d7" transform="translate(1202.591797 0)"/>
      <use xlink:href="#DejaVuSans-20" transform="translate(1286.380859 0)"/>
      <use xlink:href="#DejaVuSans-66" transform="translate(1318.167969 0)"/>
      <use xlink:href="#DejaVuSans-5f" transform="translate(1353.373047 0)"/>
      <use xlink:href="#DejaVuSans-73" transform="translate(1403.373047 0)"/>
      <use xlink:href="#DejaVuSans-29" transform="translate(1455.472656 0)"/>
     </g>
    </g>
   </g>
   <g id="matplotlib.axis_2">
    <g id="ytick_1">
     <g id="line2d_13">
      <path d="M 59.33 245.93875 
L 629.325 245.93875 
" clip-path="url(#pd54d13487f)" style="fill: none; stroke: #b0b0b0; stroke-width: 0.3; stroke-linecap: square"/>
     </g>
     <g id="line2d_14">
      <defs>
       <path id="mee58e235c4" d="M 0 0 
L -3.5 0 
" style="stroke: #000000; stroke-width: 0.8"/>
      </defs>
      <g>
       <use xlink:href="#mee58e235c4" x="59.33" y="245.93875" style="stroke: #000000; stroke-width: 0.8"/>
      </g>
     </g>
     <g id="text_8">
      <!-- −160 -->
      <g transform="translate(24.862813 249.737969) scale(0.1 -0.1)">
       <defs>
        <path id="DejaVuSans-2212" d="M 678 2272 
L 4684 2272 
L 4684 1741 
L 678 1741 
L 678 2272 
z
" transform="scale(0.015625)"/>
        <path id="DejaVuSans-36" d="M 2113 2584 
Q 1688 2584 1439 2293 
Q 1191 2003 1191 1497 
Q 1191 994 1439 701 
Q 1688 409 2113 409 
Q 2538 409 2786 701 
Q 3034 994 3034 1497 
Q 3034 2003 2786 2293 
Q 2538 2584 2113 2584 
z
M 3366 4563 
L 3366 3988 
Q 3128 4100 2886 4159 
Q 2644 4219 2406 4219 
Q 1781 4219 1451 3797 
Q 1122 3375 1075 2522 
Q 1259 2794 1537 2939 
Q 1816 3084 2150 3084 
Q 2853 3084 3261 2657 
Q 3669 2231 3669 1497 
Q 3669 778 3244 343 
Q 2819 -91 2113 -91 
Q 1303 -91 875 529 
Q 447 1150 447 2328 
Q 447 3434 972 4092 
Q 1497 4750 2381 4750 
Q 2619 4750 2861 4703 
Q 3103 4656 3366 4563 
z
" transform="scale(0.015625)"/>
       </defs>
       <use xlink:href="#DejaVuSans-2212"/>
       <use xlink:href="#DejaVuSans-31" transform="translate(83.789062 0)"/>
       <use xlink:href="#DejaVuSans-36" transform="translate(147.412109 0)"/>
       <use xlink:href="#DejaVuSans-30" transform="translate(211.035156 0)"/>
      </g>
     </g>
    </g>
    <g id="ytick_2">
     <g id="line2d_15">
      <path d="M 59.33 221.929015 
L 629.325 221.929015 
" clip-path="url(#pd54d13487f)" style="fill: none; stroke: #b0b0b0; stroke-width: 0.3; stroke-linecap: square"/>
     </g>
     <g id="line2d_16">
      <g>
       <use xlink:href="#mee58e235c4" x="59.33" y="221.929015" style="stroke: #000000; stroke-width: 0.8"/>
      </g>
     </g>
     <g id="text_9">
      <!-- −140 -->
      <g transform="translate(24.862813 225.728233) scale(0.1 -0.1)">
       <use xlink:href="#DejaVuSans-2212"/>
       <use xlink:href="#DejaVuSans-31" transform="translate(83.789062 0)"/>
       <use xlink:href="#DejaVuSans-34" transform="translate(147.412109 0)"/>
       <use xlink:href="#DejaVuSans-30" transform="translate(211.035156 0)"/>
      </g>
     </g>
    </g>
    <g id="ytick_3">
     <g id="line2d_17">
      <path d="M 59.33 197.919279 
L 629.325 197.919279 
" clip-path="url(#pd54d13487f)" style="fill: none; stroke: #b0b0b0; stroke-width: 0.3; stroke-linecap: square"/>
     </g>
     <g id="line2d_18">
      <g>
       <use xlink:href="#mee58e235c4" x="59.33" y="197.919279" style="stroke: #000000; stroke-width: 0.8"/>
      </g>
     </g>
     <g id="text_10">
      <!-- −120 -->
      <g transform="translate(24.862813 201.718498) scale(0.1 -0.1)">
       <use xlink:href="#DejaVuSans-2212"/>
       <use xlink:href="#DejaVuSans-31" transform="translate(83.789062 0)"/>
       <use xlink:href="#DejaVuSans-32" transform="translate(147.412109 0)"/>
       <use xlink:href="#DejaVuSans-30" transform="translate(211.035156 0)"/>
      </g>
     </g>
    </g>
    <g id="ytick_4">
     <g id="line2d_19">
      <path d="M 59.33 173.909544 
L 629.325 173.909544 
" clip-path="url(#pd54d13487f)" style="fill: none; stroke: #b0b0b0; stroke-width: 0.3; stroke-linecap: square"/>
     </g>
     <g id="line2d_20">
      <g>
       <use xlink:href="#mee58e235c4" x="59.33" y="173.909544" style="stroke: #000000; stroke-width: 0.8"/>
      </g>
     </g>
     <g id="text_11">
      <!-- −100 -->
      <g transform="translate(24.862813 177.708763) scale(0.1 -0.1)">
       <use xlink:href="#DejaVuSans-2212"/>
       <use xlink:href="#DejaVuSans-31" transform="translate(83.789062 0)"/>
       <use xlink:href="#DejaVuSans-30" transform="translate(147.412109 0)"/>
       <use xlink:href="#DejaVuSans-30" transform="translate(211.035156 0)"/>
      </g>
     </g>
    </g>
    <g id="ytick_5">
     <g id="line2d_21">
      <path d="M 59.33 149.899809 
L 629.325 149.899809 
" clip-path="url(#pd54d13487f)" style="fill: none; stroke: #b0b0b0; stroke-width: 0.3; stroke-linecap: square"/>
     </g>
     <g id="line2d_22">
      <g>
       <use xlink:href="#mee58e235c4" x="59.33" y="149.899809" style="stroke: #000000; stroke-width: 0.8"/>
      </g>
     </g>
     <g id="text_12">
      <!-- −80 -->
      <g transform="translate(31.225313 153.699028) scale(0.1 -0.1)">
       <defs>
        <path id="DejaVuSans-38" d="M 2034 2216 
Q 1584 2216 1326 1975 
Q 1069 1734 1069 1313 
Q 1069 891 1326 650 
Q 1584 409 2034 409 
Q 2484 409 2743 651 
Q 3003 894 3003 1313 
Q 3003 1734 2745 1975 
Q 2488 2216 2034 2216 
z
M 1403 2484 
Q 997 2584 770 2862 
Q 544 3141 544 3541 
Q 544 4100 942 4425 
Q 1341 4750 2034 4750 
Q 2731 4750 3128 4425 
Q 3525 4100 3525 3541 
Q 3525 3141 3298 2862 
Q 3072 2584 2669 2484 
Q 3125 2378 3379 2068 
Q 3634 1759 3634 1313 
Q 3634 634 3220 271 
Q 2806 -91 2034 -91 
Q 1263 -91 848 271 
Q 434 634 434 1313 
Q 434 1759 690 2068 
Q 947 2378 1403 2484 
z
M 1172 3481 
Q 1172 3119 1398 2916 
Q 1625 2713 2034 2713 
Q 2441 2713 2670 2916 
Q 2900 3119 2900 3481 
Q 2900 3844 2670 4047 
Q 2441 4250 2034 4250 
Q 1625 4250 1398 4047 
Q 1172 3844 1172 3481 
z
" transform="scale(0.015625)"/>
       </defs>
       <use xlink:href="#DejaVuSans-2212"/>
       <use xlink:href="#DejaVuSans-38" transform="translate(83.789062 0)"/>
       <use xlink:href="#DejaVuSans-30" transform="translate(147.412109 0)"/>
      </g>
     </g>
    </g>
    <g id="ytick_6">
     <g id="line2d_23">
      <path d="M 59.33 125.890074 
L 629.325 125.890074 
" clip-path="url(#pd54d13487f)" style="fill: none; stroke: #b0b0b0; stroke-width: 0.3; stroke-linecap: square"/>
     </g>
     <g id="line2d_24">
      <g>
       <use xlink:href="#mee58e235c4" x="59.33" y="125.890074" style="stroke: #000000; stroke-width: 0.8"/>
      </g>
     </g>
     <g id="text_13">
      <!-- −60 -->
      <g transform="translate(31.225313 129.689292) scale(0.1 -0.1)">
       <use xlink:href="#DejaVuSans-2212"/>
       <use xlink:href="#DejaVuSans-36" transform="translate(83.789062 0)"/>
       <use xlink:href="#DejaVuSans-30" transform="translate(147.412109 0)"/>
      </g>
     </g>
    </g>
    <g id="ytick_7">
     <g id="line2d_25">
      <path d="M 59.33 101.880338 
L 629.325 101.880338 
" clip-path="url(#pd54d13487f)" style="fill: none; stroke: #b0b0b0; stroke-width: 0.3; stroke-linecap: square"/>
     </g>
     <g id="line2d_26">
      <g>
       <use xlink:href="#mee58e235c4" x="59.33" y="101.880338" style="stroke: #000000; stroke-width: 0.8"/>
      </g>
     </g>
     <g id="text_14">
      <!-- −40 -->
      <g transform="translate(31.225313 105.679557) scale(0.1 -0.1)">
       <use xlink:href="#DejaVuSans-2212"/>
       <use xlink:href="#DejaVuSans-34" transform="translate(83.789062 0)"/>
       <use xlink:href="#DejaVuSans-30" transform="translate(147.412109 0)"/>
      </g>
     </g>
    </g>
    <g id="ytick_8">
     <g id="line2d_27">
      <path d="M 59.33 77.870603 
L 629.325 77.870603 
" clip-path="url(#pd54d13487f)" style="fill: none; stroke: #b0b0b0; stroke-width: 0.3; stroke-linecap: square"/>
     </g>
     <g id="line2d_28">
      <g>
       <use xlink:href="#mee58e235c4" x="59.33" y="77.870603" style="stroke: #000000; stroke-width: 0.8"/>
      </g>
     </g>
     <g id="text_15">
      <!-- −20 -->
      <g transform="translate(31.225313 81.669822) scale(0.1 -0.1)">
       <use xlink:href="#DejaVuSans-2212"/>
       <use xlink:href="#DejaVuSans-32" transform="translate(83.789062 0)"/>
       <use xlink:href="#DejaVuSans-30" transform="translate(147.412109 0)"/>
      </g>
     </g>
    </g>
    <g id="ytick_9">
     <g id="line2d_29">
      <path d="M 59.33 53.860868 
L 629.325 53.860868 
" clip-path="url(#pd54d13487f)" style="fill: none; stroke: #b0b0b0; stroke-width: 0.3; stroke-linecap: square"/>
     </g>
     <g id="line2d_30">
      <g>
       <use xlink:href="#mee58e235c4" x="59.33" y="53.860868" style="stroke: #000000; stroke-width: 0.8"/>
      </g>
     </g>
     <g id="text_16">
      <!-- 0 -->
      <g transform="translate(45.9675 57.660086) scale(0.1 -0.1)">
       <use xlink:href="#DejaVuSans-30"/>
      </g>
     </g>
    </g>
    <g id="text_17">
     <!-- Amplitude (dBFS) -->
     <g transform="translate(18.783125 187.577844) rotate(-90) scale(0.1 -0.1)">
      <defs>
       <path id="DejaVuSans-41" d="M 2188 4044 
L 1331 1722 
L 3047 1722 
L 2188 4044 
z
M 1831 4666 
L 2547 4666 
L 4325 0 
L 3669 0 
L 3244 1197 
L 1141 1197 
L 716 0 
L 50 0 
L 1831 4666 
z
" transform="scale(0.015625)"/>
       <path id="DejaVuSans-70" d="M 1159 525 
L 1159 -1331 
L 581 -1331 
L 581 3500 
L 1159 3500 
L 1159 2969 
Q 1341 3281 1617 3432 
Q 1894 3584 2278 3584 
Q 2916 3584 3314 3078 
Q 3713 2572 3713 1747 
Q 3713 922 3314 415 
Q 2916 -91 2278 -91 
Q 1894 -91 1617 61 
Q 1341 213 1159 525 
z
M 3116 1747 
Q 3116 2381 2855 2742 
Q 2594 3103 2138 3103 
Q 1681 3103 1420 2742 
Q 1159 2381 1159 1747 
Q 1159 1113 1420 752 
Q 1681 391 2138 391 
Q 2594 391 2855 752 
Q 3116 1113 3116 1747 
z
" transform="scale(0.015625)"/>
       <path id="DejaVuSans-74" d="M 1172 4494 
L 1172 3500 
L 2356 3500 
L 2356 3053 
L 1172 3053 
L 1172 1153 
Q 1172 725 1289 603 
Q 1406 481 1766 481 
L 2356 481 
L 2356 0 
L 1766 0 
Q 1100 0 847 248 
Q 594 497 594 1153 
L 594 3053 
L 172 3053 
L 172 3500 
L 594 3500 
L 594 4494 
L 1172 4494 
z
" transform="scale(0.015625)"/>
       <path id="DejaVuSans-42" d="M 1259 2228 
L 1259 519 
L 2272 519 
Q 2781 519 3026 730 
Q 3272 941 3272 1375 
Q 3272 1813 3026 2020 
Q 2781 2228 2272 2228 
L 1259 2228 
z
M 1259 4147 
L 1259 2741 
L 2194 2741 
Q 2656 2741 2882 2914 
Q 3109 3088 3109 3444 
Q 3109 3797 2882 3972 
Q 2656 4147 2194 4147 
L 1259 4147 
z
M 628 4666 
L 2241 4666 
Q 2963 4666 3353 4366 
Q 3744 4066 3744 3513 
Q 3744 3084 3544 2831 
Q 3344 2578 2956 2516 
Q 3422 2416 3680 2098 
Q 3938 1781 3938 1306 
Q 3938 681 3513 340 
Q 3088 0 2303 0 
L 628 0 
L 628 4666 
z
" transform="scale(0.015625)"/>
       <path id="DejaVuSans-46" d="M 628 4666 
L 3309 4666 
L 3309 4134 
L 1259 4134 
L 1259 2759 
L 3109 2759 
L 3109 2228 
L 1259 2228 
L 1259 0 
L 628 0 
L 628 4666 
z
" transform="scale(0.015625)"/>
       <path id="DejaVuSans-53" d="M 3425 4513 
L 3425 3897 
Q 3066 4069 2747 4153 
Q 2428 4238 2131 4238 
Q 1616 4238 1336 4038 
Q 1056 3838 1056 3469 
Q 1056 3159 1242 3001 
Q 1428 2844 1947 2747 
L 2328 2669 
Q 3034 2534 3370 2195 
Q 3706 1856 3706 1288 
Q 3706 609 3251 259 
Q 2797 -91 1919 -91 
Q 1588 -91 1214 -16 
Q 841 59 441 206 
L 441 856 
Q 825 641 1194 531 
Q 1563 422 1919 422 
Q 2459 422 2753 634 
Q 3047 847 3047 1241 
Q 3047 1584 2836 1778 
Q 2625 1972 2144 2069 
L 1759 2144 
Q 1053 2284 737 2584 
Q 422 2884 422 3419 
Q 422 4038 858 4394 
Q 1294 4750 2059 4750 
Q 2388 4750 2728 4690 
Q 3069 4631 3425 4513 
z
" transform="scale(0.015625)"/>
      </defs>
      <use xlink:href="#DejaVuSans-41"/>
      <use xlink:href="#DejaVuSans-6d" transform="translate(68.408203 0)"/>
      <use xlink:href="#DejaVuSans-70" transform="translate(165.820312 0)"/>
      <use xlink:href="#DejaVuSans-6c" transform="translate(229.296875 0)"/>
      <use xlink:href="#DejaVuSans-69" transform="translate(257.080078 0)"/>
      <use xlink:href="#DejaVuSans-74" transform="translate(284.863281 0)"/>
      <use xlink:href="#DejaVuSans-75" transform="translate(324.072266 0)"/>
      <use xlink:href="#DejaVuSans-64" transform="translate(387.451172 0)"/>
      <use xlink:href="#DejaVuSans-65" transform="translate(450.927734 0)"/>
      <use xlink:href="#DejaVuSans-20" transform="translate(512.451172 0)"/>
      <use xlink:href="#DejaVuSans-28" transform="translate(544.238281 0)"/>
      <use xlink:href="#DejaVuSans-64" transform="translate(583.251953 0)"/>
      <use xlink:href="#DejaVuSans-42" transform="translate(646.728516 0)"/>
      <use xlink:href="#DejaVuSans-46" transform="translate(715.332031 0)"/>
      <use xlink:href="#DejaVuSans-53" transform="translate(771.101562 0)"/>
      <use xlink:href="#DejaVuSans-29" transform="translate(834.578125 0)"/>
     </g>
    </g>
   </g>
   <g id="line2d_31">
    <path d="M 59.33 53.901659 
L 59.608318 142.641247 
L 59.886636 183.958577 
L 60.164954 156.724555 
L 60.443271 183.958577 
L 60.721589 167.508819 
L 60.999907 183.958577 
L 61.278225 153.56765 
L 61.556543 183.958577 
L 61.834861 144.878565 
L 62.113179 183.958577 
L 62.391497 166.038319 
L 62.669814 183.958577 
L 63.22645 183.958577 
L 63.504768 158.946793 
L 63.783086 183.958577 
L 64.061404 157.573847 
L 64.339722 183.958577 
L 64.61804 166.388229 
L 64.896357 183.958577 
L 65.174675 148.059945 
L 65.452993 183.958577 
L 65.731311 168.974633 
L 66.009629 183.958577 
L 66.287947 155.309837 
L 66.566265 183.958577 
L 66.844583 158.539312 
L 67.1229 183.958577 
L 67.401218 53.900475 
L 67.679536 183.958577 
L 67.957854 158.345163 
L 68.236172 183.958577 
L 68.51449 155.983554 
L 68.792808 183.958577 
L 69.071125 142.308812 
L 69.349443 183.958577 
L 69.627761 151.072079 
L 69.906079 183.958577 
L 70.184397 153.082574 
L 70.462715 183.958577 
L 70.741033 149.447566 
L 71.019351 183.958577 
L 71.297668 148.993955 
L 71.575986 183.958577 
L 71.854304 149.609102 
L 72.132622 183.958577 
L 72.41094 157.650644 
L 72.689258 183.958577 
L 72.967576 180.554554 
L 73.245894 183.958577 
L 73.524211 157.926158 
L 73.802529 183.958577 
L 74.080847 148.116068 
L 74.359165 183.958577 
L 74.637483 149.146287 
L 74.915801 183.958577 
L 75.194119 161.733757 
L 75.472437 183.958577 
L 75.750754 152.998438 
L 76.029072 183.958577 
L 76.30739 148.812082 
L 76.585708 183.958577 
L 76.864026 152.667648 
L 77.142344 183.958577 
L 77.420662 153.407221 
L 77.698979 183.958577 
L 77.977297 161.084294 
L 78.255615 183.958577 
L 78.533933 179.658705 
L 78.812251 183.958577 
L 79.090569 163.130884 
L 79.368887 183.958577 
L 79.647205 163.352102 
L 79.925522 183.958577 
L 80.20384 159.606461 
L 80.482158 183.958577 
L 80.760476 182.165989 
L 81.038794 183.958577 
L 81.317112 162.744961 
L 81.59543 183.958577 
L 81.873748 157.408059 
L 82.152065 183.958577 
L 82.430383 149.054819 
L 82.708701 183.958577 
L 82.987019 182.130699 
L 83.265337 183.958577 
L 83.543655 152.270781 
L 83.821973 183.958577 
L 84.100291 151.936759 
L 84.378608 183.958577 
L 84.656926 189.694603 
L 84.935244 183.958577 
L 85.213562 142.30035 
L 85.49188 183.958577 
L 85.770198 158.859709 
L 86.048516 183.958577 
L 86.326833 145.563334 
L 86.605151 183.958577 
L 86.883469 144.504464 
L 87.161787 183.958577 
L 87.440105 146.97923 
L 87.718423 183.958577 
L 87.996741 148.615145 
L 88.275059 183.958577 
L 88.553376 149.526583 
L 88.831694 183.958577 
L 89.110012 154.592038 
L 89.38833 183.958577 
L 89.666648 167.384431 
L 89.944966 183.958577 
L 90.223284 176.034256 
L 90.501602 183.958577 
L 90.779919 156.317071 
L 91.058237 183.958577 
L 91.336555 153.088506 
L 91.614873 183.958577 
L 91.893191 147.347871 
L 92.171509 183.958577 
L 92.449827 153.974183 
L 92.728145 183.958577 
L 93.006462 158.438615 
L 93.28478 183.958577 
L 93.563098 148.322057 
L 93.841416 183.958577 
L 94.119734 151.934168 
L 94.398052 183.958577 
L 94.67637 161.096385 
L 94.954688 183.958577 
L 95.233005 171.963187 
L 95.511323 183.958577 
L 95.789641 146.204815 
L 96.067959 183.958577 
L 96.346277 148.895444 
L 96.624595 183.958577 
L 96.902913 150.672427 
L 97.18123 183.958577 
L 97.459548 144.961679 
L 97.737866 183.958577 
L 98.016184 142.080472 
L 98.294502 183.958577 
L 98.57282 152.513931 
L 98.851138 183.958577 
L 99.129456 153.021249 
L 99.407773 183.958577 
L 99.686091 155.407991 
L 99.964409 183.958577 
L 100.242727 164.831674 
L 100.521045 183.958577 
L 100.799363 167.227493 
L 101.077681 183.958577 
L 101.355999 160.113313 
L 101.634316 183.958577 
L 101.912634 143.590369 
L 102.190952 183.958577 
L 102.46927 179.555937 
L 102.747588 183.958577 
L 103.025906 157.93699 
L 103.304224 183.958577 
L 103.582542 153.43717 
L 103.860859 183.958577 
L 104.139177 154.570079 
L 104.417495 183.958577 
L 104.695813 153.528054 
L 104.974131 183.958577 
L 105.252449 169.001588 
L 105.530767 183.958577 
L 105.809084 158.137582 
L 106.087402 183.958577 
L 106.36572 165.97094 
L 106.644038 183.958577 
L 106.922356 163.588723 
L 107.200674 183.958577 
L 107.478992 146.212762 
L 107.75731 183.958577 
L 108.035627 141.849093 
L 108.313945 183.958577 
L 108.592263 149.755006 
L 108.870581 183.958577 
L 109.148899 149.013664 
L 109.427217 183.958577 
L 109.705535 158.733568 
L 109.983853 183.958577 
L 110.26217 161.550519 
L 110.540488 183.958577 
L 110.818806 155.800367 
L 111.097124 183.958577 
L 111.375442 164.606824 
L 111.65376 183.958577 
L 111.932078 146.144509 
L 112.488713 217.431088 
L 112.767031 183.958577 
L 113.045349 164.053736 
L 113.323667 183.958577 
L 113.601985 163.895051 
L 113.880303 183.958577 
L 114.158621 153.326793 
L 114.436938 183.958577 
L 114.715256 154.425559 
L 114.993574 183.958577 
L 115.271892 150.424281 
L 115.55021 183.958577 
L 115.828528 151.377603 
L 116.106846 183.958577 
L 116.385164 161.46594 
L 116.663481 183.958577 
L 116.941799 167.118184 
L 117.220117 183.958577 
L 117.498435 152.701562 
L 117.776753 183.958577 
L 118.055071 152.337497 
L 118.333389 183.958577 
L 118.611707 148.864789 
L 118.890024 183.958577 
L 119.168342 152.53241 
L 119.44666 183.958577 
L 119.724978 148.940822 
L 120.003296 183.958577 
L 120.281614 153.285319 
L 120.559932 183.958577 
L 120.83825 153.862398 
L 121.116567 183.958577 
L 121.394885 163.226608 
L 121.673203 183.958577 
L 121.951521 153.795098 
L 122.229839 183.958577 
L 122.508157 178.615148 
L 122.786475 183.958577 
L 123.064792 147.835748 
L 123.34311 183.958577 
L 123.621428 139.69277 
L 123.899746 183.958577 
L 124.178064 155.70519 
L 124.456382 183.958577 
L 124.7347 151.970317 
L 125.013018 183.958577 
L 125.291335 152.209729 
L 125.569653 183.958577 
L 125.847971 144.607953 
L 126.126289 183.958577 
L 126.404607 167.068473 
L 126.682925 183.958577 
L 126.961243 162.6734 
L 127.239561 183.958577 
L 127.517878 149.232108 
L 127.796196 183.958577 
L 128.074514 195.416672 
L 128.352832 183.958577 
L 128.63115 158.761342 
L 128.909468 183.958577 
L 129.187786 151.690192 
L 129.466104 183.958577 
L 129.744421 151.483127 
L 130.022739 183.958577 
L 130.301057 142.571439 
L 130.579375 183.958577 
L 130.857693 153.045993 
L 131.136011 183.958577 
L 131.414329 172.94358 
L 131.692646 183.958577 
L 131.970964 159.437042 
L 132.249282 183.958577 
L 132.5276 169.641632 
L 132.805918 183.958577 
L 133.084236 150.862758 
L 133.362554 183.958577 
L 133.640872 143.68333 
L 133.919189 183.958577 
L 134.197507 153.290643 
L 134.475825 183.958577 
L 134.754143 149.2461 
L 135.032461 183.958577 
L 135.310779 167.005809 
L 135.589097 183.958577 
L 135.867415 144.585571 
L 136.145732 183.958577 
L 136.42405 149.750236 
L 136.702368 183.958577 
L 136.980686 151.492035 
L 137.259004 183.958577 
L 137.537322 156.068829 
L 137.81564 183.958577 
L 138.093958 158.487429 
L 138.372275 183.958577 
L 138.650593 160.118787 
L 138.928911 183.958577 
L 139.207229 163.059905 
L 139.485547 183.958577 
L 139.763865 154.651023 
L 140.042183 183.958577 
L 140.3205 186.149511 
L 140.598818 183.958577 
L 140.877136 148.990104 
L 141.155454 183.958577 
L 141.433772 154.193699 
L 141.71209 183.958577 
L 141.990408 166.393215 
L 142.268726 183.958577 
L 142.547043 152.986949 
L 142.825361 183.958577 
L 143.103679 183.892703 
L 143.381997 183.958577 
L 143.660315 158.9674 
L 143.938633 183.958577 
L 144.216951 147.236305 
L 144.495269 183.958577 
L 144.773586 149.78197 
L 145.051904 183.958577 
L 145.330222 154.716561 
L 145.60854 183.958577 
L 145.886858 148.990038 
L 146.165176 183.958577 
L 146.443494 144.880768 
L 146.721812 183.958577 
L 147.000129 150.108983 
L 147.278447 183.958577 
L 147.556765 155.863204 
L 147.835083 183.958577 
L 148.113401 158.5374 
L 148.391719 183.958577 
L 148.670037 164.244821 
L 148.948354 183.958577 
L 149.226672 157.121406 
L 149.50499 183.958577 
L 149.783308 154.962258 
L 150.061626 183.958577 
L 150.339944 152.319712 
L 150.618262 183.958577 
L 150.89658 149.847019 
L 151.174897 183.958577 
L 151.453215 166.754842 
L 151.731533 183.958577 
L 152.009851 141.943484 
L 152.288169 183.958577 
L 152.566487 158.088813 
L 152.844805 183.958577 
L 153.123123 167.724471 
L 153.40144 183.958577 
L 153.679758 151.060183 
L 153.958076 183.958577 
L 154.236394 144.386074 
L 154.514712 183.958577 
L 154.79303 148.540385 
L 155.071348 183.958577 
L 155.349666 162.526966 
L 155.627983 183.958577 
L 155.906301 141.447027 
L 156.184619 183.958577 
L 156.462937 147.344095 
L 156.741255 183.958577 
L 157.019573 163.227833 
L 157.297891 183.958577 
L 157.576208 158.568917 
L 157.854526 183.958577 
L 158.132844 158.17754 
L 158.411162 183.958577 
L 158.68948 162.756507 
L 158.967798 183.958577 
L 159.246116 160.212429 
L 159.524434 183.958577 
L 159.802751 159.58495 
L 160.081069 183.958577 
L 160.359387 140.90333 
L 160.637705 183.958577 
L 160.916023 169.291457 
L 161.194341 183.958577 
L 161.472659 162.4104 
L 161.750977 183.958577 
L 162.029294 163.681336 
L 162.307612 183.958577 
L 162.58593 144.460886 
L 162.864248 183.958577 
L 163.142566 180.945111 
L 163.420884 183.958577 
L 163.699202 164.897171 
L 163.97752 183.958577 
L 164.255837 155.441153 
L 164.534155 183.958577 
L 164.812473 186.602952 
L 165.090791 183.958577 
L 165.369109 150.495034 
L 165.647427 183.958577 
L 165.925745 141.307316 
L 166.204062 183.958577 
L 166.48238 146.747132 
L 166.760698 183.958577 
L 167.039016 149.066374 
L 167.317334 183.958577 
L 167.595652 159.501811 
L 167.87397 183.958577 
L 168.152288 144.808511 
L 168.708923 227.366185 
L 169.265559 152.805014 
L 169.543877 183.958577 
L 169.822195 160.147022 
L 170.100513 183.958577 
L 170.378831 151.271895 
L 170.657148 183.958577 
L 170.935466 164.772178 
L 171.213784 183.958577 
L 171.492102 160.657832 
L 171.77042 183.958577 
L 172.048738 161.064328 
L 172.327056 183.958577 
L 172.605374 165.536235 
L 172.883691 183.958577 
L 173.162009 174.11594 
L 173.440327 183.958577 
L 173.718645 171.500063 
L 173.996963 183.958577 
L 174.275281 158.60055 
L 174.553599 183.958577 
L 174.831917 166.540841 
L 175.110234 183.958577 
L 175.388552 157.638026 
L 175.66687 183.958577 
L 175.945188 157.623185 
L 176.223506 183.958577 
L 176.501824 142.400731 
L 176.780142 183.958577 
L 177.058459 145.439978 
L 177.336777 183.958577 
L 177.615095 163.5136 
L 177.893413 183.958577 
L 178.171731 145.11941 
L 178.450049 183.958577 
L 178.728367 152.270588 
L 179.006685 183.958577 
L 179.285002 168.149061 
L 179.56332 183.958577 
L 179.841638 168.114264 
L 180.119956 183.958577 
L 180.398274 155.550115 
L 180.676592 183.958577 
L 180.95491 154.332789 
L 181.233228 183.958577 
L 181.511545 170.277983 
L 181.789863 183.958577 
L 182.068181 141.077342 
L 182.346499 183.958577 
L 182.624817 167.014709 
L 182.903135 183.958577 
L 183.181453 156.004224 
L 183.459771 183.958577 
L 183.738088 151.032708 
L 184.016406 183.958577 
L 184.294724 155.617166 
L 184.573042 183.958577 
L 184.85136 163.940325 
L 185.129678 183.958577 
L 185.407996 160.686276 
L 185.686313 183.958577 
L 185.964631 161.27438 
L 186.242949 183.958577 
L 186.521267 161.412093 
L 186.799585 183.958577 
L 187.077903 147.793488 
L 187.356221 183.958577 
L 187.634539 166.306694 
L 187.912856 183.958577 
L 188.191174 144.128915 
L 188.469492 183.958577 
L 188.74781 145.496993 
L 189.026128 183.958577 
L 189.304446 147.314065 
L 189.582764 183.958577 
L 189.861082 154.67443 
L 190.139399 183.958577 
L 190.417717 156.204145 
L 190.696035 183.958577 
L 190.974353 149.130913 
L 191.252671 183.958577 
L 191.530989 188.756869 
L 191.809307 183.958577 
L 192.087625 153.982252 
L 192.365942 183.958577 
L 192.64426 141.140265 
L 192.922578 183.958577 
L 193.200896 163.878858 
L 193.479214 183.958577 
L 193.757532 169.267889 
L 194.03585 183.958577 
L 194.314167 143.405651 
L 194.592485 183.958577 
L 194.870803 140.638229 
L 195.149121 183.958577 
L 195.427439 152.4954 
L 195.705757 183.958577 
L 195.984075 146.068955 
L 196.262393 183.958577 
L 196.54071 156.285267 
L 196.819028 183.958577 
L 197.097346 146.164579 
L 197.375664 183.958577 
L 197.653982 152.04628 
L 197.9323 183.958577 
L 198.210618 157.798874 
L 198.488936 183.958577 
L 198.767253 148.405104 
L 199.045571 183.958577 
L 199.323889 151.46345 
L 199.602207 183.958577 
L 199.880525 175.982379 
L 200.158843 183.958577 
L 200.437161 153.426875 
L 200.715479 183.958577 
L 200.993796 150.686585 
L 201.272114 183.958577 
L 201.550432 147.632128 
L 201.82875 183.958577 
L 202.107068 161.415863 
L 202.385386 183.958577 
L 202.663704 160.817674 
L 202.942021 183.958577 
L 203.220339 154.416099 
L 203.498657 183.958577 
L 203.776975 160.719535 
L 204.055293 183.958577 
L 204.333611 155.849932 
L 204.611929 183.958577 
L 204.890247 152.873933 
L 205.168564 183.958577 
L 205.446882 147.69212 
L 205.7252 183.958577 
L 206.003518 149.60277 
L 206.281836 183.958577 
L 206.560154 143.382015 
L 206.838472 183.958577 
L 207.11679 162.438895 
L 207.395107 183.958577 
L 207.673425 157.07559 
L 207.951743 183.958577 
L 208.230061 198.958689 
L 208.786697 164.028404 
L 209.065015 183.958577 
L 209.343333 177.145225 
L 209.62165 183.958577 
L 209.899968 151.976372 
L 210.178286 183.958577 
L 210.456604 182.157997 
L 210.734922 183.958577 
L 211.01324 145.699545 
L 211.291558 183.958577 
L 211.569875 159.067803 
L 211.848193 183.958577 
L 212.126511 180.339803 
L 212.404829 183.958577 
L 212.683147 151.94002 
L 212.961465 183.958577 
L 213.239783 156.370714 
L 213.518101 183.958577 
L 213.796418 165.818838 
L 214.074736 183.958577 
L 214.353054 160.989933 
L 214.90969 214.32307 
L 215.466326 147.693839 
L 215.744644 183.958577 
L 216.022961 171.747753 
L 216.301279 183.958577 
L 216.579597 144.576958 
L 216.857915 183.958577 
L 217.136233 158.093802 
L 217.414551 183.958577 
L 217.692869 162.379049 
L 217.971187 183.958577 
L 218.249504 167.529538 
L 218.527822 183.958577 
L 218.80614 189.577817 
L 219.084458 183.958577 
L 219.362776 166.223292 
L 219.641094 183.958577 
L 219.919412 164.929967 
L 220.197729 183.958577 
L 220.476047 149.569658 
L 220.754365 183.958577 
L 221.032683 141.279878 
L 221.311001 183.958577 
L 221.589319 176.059828 
L 221.867637 183.958577 
L 222.145955 157.794701 
L 222.424272 183.958577 
L 222.70259 145.002005 
L 222.980908 183.958577 
L 223.259226 177.802766 
L 223.537544 183.958577 
L 223.815862 166.920241 
L 224.09418 183.958577 
L 224.372498 160.131565 
L 224.650815 183.958577 
L 224.929133 157.526686 
L 225.207451 183.958577 
L 225.485769 158.241028 
L 225.764087 183.958577 
L 226.042405 146.307093 
L 226.320723 183.958577 
L 226.599041 143.490762 
L 226.877358 183.958577 
L 227.155676 181.953836 
L 227.433994 183.958577 
L 227.712312 153.762212 
L 227.99063 183.958577 
L 228.268948 152.725041 
L 228.547266 183.958577 
L 228.825583 168.105308 
L 229.103901 183.958577 
L 229.382219 146.151869 
L 229.660537 183.958577 
L 229.938855 170.802883 
L 230.217173 183.958577 
L 230.495491 146.063952 
L 230.773809 183.958577 
L 231.052126 144.588916 
L 231.330444 183.958577 
L 231.608762 151.843104 
L 231.88708 183.958577 
L 232.165398 149.718009 
L 232.443716 183.958577 
L 232.722034 153.459017 
L 233.000352 183.958577 
L 233.278669 166.728977 
L 233.556987 183.958577 
L 233.835305 150.508375 
L 234.113623 183.958577 
L 234.391941 170.321372 
L 234.670259 183.958577 
L 234.948577 153.064031 
L 235.226895 183.958577 
L 235.505212 171.091381 
L 235.78353 183.958577 
L 236.061848 158.969716 
L 236.340166 183.958577 
L 236.618484 159.446563 
L 236.896802 183.958577 
L 237.17512 157.34817 
L 237.453437 183.958577 
L 237.731755 166.278345 
L 238.010073 183.958577 
L 238.288391 158.881022 
L 238.566709 183.958577 
L 238.845027 146.077759 
L 239.123345 183.958577 
L 239.401663 159.622601 
L 239.67998 183.958577 
L 239.958298 153.867914 
L 240.236616 183.958577 
L 240.514934 156.382443 
L 240.793252 183.958577 
L 241.07157 148.225005 
L 241.349888 183.958577 
L 241.628206 147.13202 
L 241.906523 183.958577 
L 242.184841 152.502439 
L 242.463159 183.958577 
L 242.741477 140.29385 
L 243.019795 183.958577 
L 243.298113 147.131634 
L 243.576431 183.958577 
L 243.854749 165.506718 
L 244.133066 183.958577 
L 244.411384 150.508076 
L 244.689702 183.958577 
L 244.96802 157.529631 
L 245.246338 183.958577 
L 245.524656 152.325379 
L 245.802974 183.958577 
L 246.081292 152.283422 
L 246.359609 183.958577 
L 246.637927 178.323431 
L 246.916245 183.958577 
L 247.194563 146.486599 
L 247.472881 183.958577 
L 247.751199 150.017706 
L 248.029517 183.958577 
L 248.307834 164.841519 
L 248.586152 183.958577 
L 248.86447 148.107767 
L 249.142788 183.958577 
L 249.421106 159.588512 
L 249.699424 183.958577 
L 249.977742 161.574014 
L 250.25606 183.958577 
L 250.534377 152.184201 
L 250.812695 183.958577 
L 251.091013 145.996182 
L 251.369331 183.958577 
L 251.647649 165.92443 
L 251.925967 183.958577 
L 252.204285 167.12954 
L 252.482603 183.958577 
L 252.76092 149.489843 
L 253.039238 183.958577 
L 253.317556 153.571338 
L 253.595874 183.958577 
L 253.874192 151.089038 
L 254.15251 183.958577 
L 254.430828 193.780021 
L 254.709146 183.958577 
L 254.987463 141.648833 
L 255.265781 183.958577 
L 255.544099 153.807614 
L 255.822417 183.958577 
L 256.100735 148.183701 
L 256.379053 183.958577 
L 256.657371 160.597076 
L 256.935688 183.958577 
L 257.214006 148.006122 
L 257.492324 183.958577 
L 257.770642 157.817356 
L 258.04896 183.958577 
L 258.327278 168.424873 
L 258.605596 183.958577 
L 258.883914 147.727936 
L 259.162231 183.958577 
L 259.440549 139.969128 
L 259.718867 183.958577 
L 259.997185 152.127007 
L 260.275503 183.958577 
L 260.553821 164.747148 
L 260.832139 183.958577 
L 261.110457 157.72571 
L 261.388774 183.958577 
L 261.667092 152.581037 
L 261.94541 183.958577 
L 262.223728 155.13321 
L 262.502046 183.958577 
L 262.780364 144.942282 
L 263.058682 183.958577 
L 263.337 167.512853 
L 263.615317 183.958577 
L 263.893635 154.120195 
L 264.171953 183.958577 
L 264.450271 160.537182 
L 264.728589 183.958577 
L 265.006907 169.924203 
L 265.285225 183.958577 
L 265.563542 149.251178 
L 265.84186 183.958577 
L 266.120178 152.176439 
L 266.398496 183.958577 
L 266.676814 148.232389 
L 266.955132 183.958577 
L 267.23345 143.535093 
L 267.511768 183.958577 
L 267.790085 154.183115 
L 268.068403 183.958577 
L 268.346721 159.549564 
L 268.625039 183.958577 
L 268.903357 162.063053 
L 269.181675 183.958577 
L 269.459993 167.890229 
L 269.738311 183.958577 
L 270.016628 155.574501 
L 270.294946 183.958577 
L 270.573264 152.013995 
L 270.851582 183.958577 
L 271.1299 148.441608 
L 271.408218 183.958577 
L 271.686536 164.418633 
L 271.964854 183.958577 
L 272.243171 180.218096 
L 272.521489 183.958577 
L 272.799807 243.4263 
L 273.078125 183.958577 
L 273.356443 162.905614 
L 273.634761 183.958577 
L 273.913079 151.955572 
L 274.191396 183.958577 
L 274.469714 158.651235 
L 274.748032 183.958577 
L 275.02635 162.104075 
L 275.304668 183.958577 
L 275.582986 140.382397 
L 275.861304 183.958577 
L 276.139622 157.108096 
L 276.417939 183.958577 
L 276.696257 148.618032 
L 276.974575 183.958577 
L 277.252893 165.825575 
L 277.531211 183.958577 
L 277.809529 165.971108 
L 278.087847 183.958577 
L 278.366165 181.202546 
L 278.644482 183.958577 
L 278.9228 142.525195 
L 279.201118 183.958577 
L 279.479436 141.885505 
L 279.757754 183.958577 
L 280.036072 162.819378 
L 280.31439 183.958577 
L 280.592708 160.137051 
L 280.871025 183.958577 
L 281.149343 157.659387 
L 281.427661 183.958577 
L 281.705979 180.241052 
L 281.984297 183.958577 
L 282.262615 157.537785 
L 282.540933 183.958577 
L 282.81925 144.926498 
L 283.097568 183.958577 
L 283.375886 140.783983 
L 283.654204 183.958577 
L 283.932522 156.542199 
L 284.21084 183.958577 
L 284.489158 155.787627 
L 284.767476 183.958577 
L 285.045793 141.511249 
L 285.324111 183.958577 
L 285.602429 146.074412 
L 285.880747 183.958577 
L 286.159065 150.078278 
L 286.437383 183.958577 
L 286.715701 157.042376 
L 286.994019 183.958577 
L 287.272336 147.908442 
L 287.550654 183.958577 
L 287.828972 149.051045 
L 288.10729 183.958577 
L 288.385608 157.708201 
L 288.663926 183.958577 
L 288.942244 157.461552 
L 289.220562 183.958577 
L 289.498879 159.246824 
L 290.055515 210.140584 
L 290.612151 161.374971 
L 290.890469 183.958577 
L 291.168787 154.914908 
L 291.447104 183.958577 
L 291.725422 144.738615 
L 292.00374 183.958577 
L 292.282058 154.039709 
L 292.560376 183.958577 
L 292.838694 157.600394 
L 293.117012 183.958577 
L 293.39533 158.010387 
L 293.673647 183.958577 
L 293.951965 166.148408 
L 294.230283 183.958577 
L 294.508601 158.106116 
L 294.786919 183.958577 
L 295.065237 155.874222 
L 295.343555 183.958577 
L 295.621873 141.114167 
L 295.90019 183.958577 
L 296.178508 147.191287 
L 296.456826 183.958577 
L 296.735144 154.956055 
L 297.013462 183.958577 
L 297.29178 149.658512 
L 297.570098 183.958577 
L 297.848416 152.685477 
L 298.126733 183.958577 
L 298.405051 155.070727 
L 298.683369 183.958577 
L 298.961687 155.373184 
L 299.240005 183.958577 
L 299.518323 145.905248 
L 299.796641 183.958577 
L 300.074958 157.756389 
L 300.353276 183.958577 
L 300.631594 158.876076 
L 300.909912 183.958577 
L 301.18823 149.771604 
L 301.466548 183.958577 
L 301.744866 162.568843 
L 302.023184 183.958577 
L 302.301501 159.862022 
L 302.579819 183.958577 
L 302.858137 154.583327 
L 303.136455 183.958577 
L 303.414773 152.075609 
L 303.693091 183.958577 
L 303.971409 158.933734 
L 304.249727 183.958577 
L 304.528044 150.796866 
L 304.806362 183.958577 
L 305.08468 151.19444 
L 305.362998 183.958577 
L 305.641316 147.679587 
L 305.919634 183.958577 
L 306.197952 184.373068 
L 306.47627 183.958577 
L 306.754587 149.336418 
L 307.032905 183.958577 
L 307.311223 159.626483 
L 307.589541 183.958577 
L 307.867859 144.28843 
L 308.146177 183.958577 
L 308.424495 152.235912 
L 308.702812 183.958577 
L 308.98113 157.899121 
L 309.259448 183.958577 
L 309.537766 156.366249 
L 309.816084 183.958577 
L 310.094402 167.993369 
L 310.37272 183.958577 
L 310.651038 161.544144 
L 310.929355 183.958577 
L 311.207673 143.906799 
L 311.485991 183.958577 
L 311.764309 163.484115 
L 312.042627 183.958577 
L 312.320945 149.362549 
L 312.599263 183.958577 
L 312.877581 170.484124 
L 313.155898 183.958577 
L 313.434216 148.426581 
L 313.712534 183.958577 
L 313.990852 152.484714 
L 314.26917 183.958577 
L 314.547488 152.47277 
L 314.825806 183.958577 
L 315.104124 160.969011 
L 315.382441 183.958577 
L 315.660759 142.91524 
L 315.939077 183.958577 
L 316.217395 150.750409 
L 316.495713 183.958577 
L 316.774031 151.582087 
L 317.052349 183.958577 
L 317.330667 148.994246 
L 317.608984 183.958577 
L 317.887302 140.754687 
L 318.16562 183.958577 
L 318.443938 161.920407 
L 318.722256 183.958577 
L 319.000574 183.274865 
L 319.278892 183.958577 
L 319.557209 149.217469 
L 319.835527 183.958577 
L 320.113845 169.776862 
L 320.392163 183.958577 
L 320.670481 166.922661 
L 320.948799 183.958577 
L 321.227117 147.480314 
L 321.505435 183.958577 
L 321.783752 157.166781 
L 322.06207 183.958577 
L 322.340388 167.22297 
L 322.618706 183.958577 
L 322.897024 159.29578 
L 323.175342 183.958577 
L 323.45366 148.043366 
L 323.731978 183.958577 
L 324.010295 141.949011 
L 324.288613 183.958577 
L 324.566931 189.246641 
L 324.845249 183.958577 
L 325.123567 153.468756 
L 325.401885 183.958577 
L 325.680203 165.104122 
L 325.958521 183.958577 
L 326.236838 164.27676 
L 326.515156 183.958577 
L 326.793474 153.245206 
L 327.071792 183.958577 
L 327.35011 146.584037 
L 327.628428 183.958577 
L 327.906746 155.838973 
L 328.185063 183.958577 
L 328.463381 164.267227 
L 328.741699 183.958577 
L 329.020017 170.535237 
L 329.298335 183.958577 
L 329.576653 148.830533 
L 330.133289 222.989056 
L 330.411606 183.958577 
L 330.689924 162.92744 
L 330.968242 183.958577 
L 331.24656 165.958234 
L 331.524878 183.958577 
L 331.803196 151.081044 
L 332.081514 183.958577 
L 332.359832 158.152787 
L 332.638149 183.958577 
L 332.916467 158.564578 
L 333.194785 183.958577 
L 333.473103 150.240091 
L 333.751421 183.958577 
L 334.029739 153.044745 
L 334.308057 183.958577 
L 334.586375 150.647762 
L 334.864692 183.958577 
L 335.14301 176.365332 
L 335.421328 183.958577 
L 335.699646 159.231642 
L 335.977964 183.958577 
L 336.256282 156.07173 
L 336.5346 183.958577 
L 336.812917 160.161974 
L 337.091235 183.958577 
L 337.369553 149.974387 
L 337.647871 183.958577 
L 337.926189 153.818367 
L 338.204507 183.958577 
L 338.482825 160.141662 
L 338.761143 183.958577 
L 339.03946 165.092034 
L 339.317778 183.958577 
L 339.596096 144.779666 
L 339.874414 183.958577 
L 340.152732 146.447298 
L 340.43105 183.958577 
L 340.709368 168.553234 
L 340.987686 183.958577 
L 341.266003 160.726974 
L 341.544321 183.958577 
L 341.822639 164.380361 
L 342.100957 183.958577 
L 342.379275 154.219281 
L 342.657593 183.958577 
L 342.935911 165.711282 
L 343.214229 183.958577 
L 343.492546 164.771888 
L 343.770864 183.958577 
L 344.049182 176.218419 
L 344.3275 183.958577 
L 344.605818 144.278565 
L 344.884136 183.958577 
L 345.162454 163.28039 
L 345.440771 183.958577 
L 345.719089 179.845721 
L 345.997407 183.958577 
L 346.275725 185.516273 
L 346.554043 183.958577 
L 346.832361 171.517956 
L 347.110679 183.958577 
L 347.388997 166.176287 
L 347.667314 183.958577 
L 347.945632 166.055712 
L 348.22395 183.958577 
L 348.502268 156.070027 
L 348.780586 183.958577 
L 349.058904 181.831698 
L 349.337222 183.958577 
L 349.61554 147.628763 
L 349.893857 183.958577 
L 350.172175 143.767276 
L 350.450493 183.958577 
L 350.728811 152.642933 
L 351.007129 183.958577 
L 351.285447 145.433081 
L 351.563765 183.958577 
L 351.842083 160.046026 
L 352.1204 183.958577 
L 352.398718 157.144354 
L 352.677036 183.958577 
L 352.955354 172.270452 
L 353.233672 183.958577 
L 353.51199 159.840968 
L 353.790308 183.958577 
L 354.068625 151.250735 
L 354.346943 183.958577 
L 354.625261 148.730883 
L 354.903579 183.958577 
L 355.181897 151.607682 
L 355.460215 183.958577 
L 355.738533 162.116326 
L 356.016851 183.958577 
L 356.295168 149.789111 
L 356.573486 183.958577 
L 356.851804 175.350785 
L 357.130122 183.958577 
L 357.40844 153.848484 
L 357.686758 183.958577 
L 357.965076 165.964244 
L 358.243394 183.958577 
L 358.521711 149.874043 
L 358.800029 183.958577 
L 359.078347 159.251488 
L 359.356665 183.958577 
L 359.634983 143.181076 
L 359.913301 183.958577 
L 360.191619 153.45903 
L 360.469937 183.958577 
L 360.748254 143.518684 
L 361.026572 183.958577 
L 361.30489 160.98849 
L 361.583208 183.958577 
L 361.861526 145.085588 
L 362.139844 183.958577 
L 362.418162 158.905504 
L 362.696479 183.958577 
L 362.974797 165.138658 
L 363.253115 183.958577 
L 363.531433 149.26849 
L 363.809751 183.958577 
L 364.088069 172.807277 
L 364.366387 183.958577 
L 364.644705 153.826984 
L 364.923022 183.958577 
L 365.20134 152.867276 
L 365.479658 183.958577 
L 365.757976 179.021312 
L 366.036294 183.958577 
L 366.314612 147.816367 
L 366.59293 183.958577 
L 366.871248 149.671724 
L 367.149565 183.958577 
L 367.427883 149.173393 
L 367.706201 183.958577 
L 367.984519 146.718602 
L 368.262837 183.958577 
L 368.541155 154.647358 
L 368.819473 183.958577 
L 369.097791 157.775707 
L 369.376108 183.958577 
L 369.654426 150.721645 
L 369.932744 183.958577 
L 370.211062 147.90649 
L 370.48938 183.958577 
L 370.767698 163.237651 
L 371.046016 183.958577 
L 371.324333 150.797085 
L 371.602651 183.958577 
L 371.880969 144.730238 
L 372.159287 183.958577 
L 372.437605 146.04087 
L 372.715923 183.958577 
L 372.994241 158.223289 
L 373.272559 183.958577 
L 373.550876 153.803468 
L 373.829194 183.958577 
L 374.107512 161.787028 
L 374.38583 183.958577 
L 374.664148 161.703269 
L 374.942466 183.958577 
L 375.220784 159.808524 
L 375.499102 183.958577 
L 375.777419 153.667548 
L 376.055737 183.958577 
L 376.334055 144.168335 
L 376.612373 183.958577 
L 376.890691 142.455576 
L 377.169009 183.958577 
L 377.447327 149.0946 
L 377.725645 183.958577 
L 378.003962 149.99959 
L 378.28228 183.958577 
L 378.560598 176.058678 
L 378.838916 183.958577 
L 379.117234 154.842642 
L 379.395552 183.958577 
L 379.67387 155.394039 
L 379.952187 183.958577 
L 380.230505 142.548542 
L 380.508823 183.958577 
L 380.787141 159.024478 
L 381.065459 183.958577 
L 381.343777 160.199178 
L 381.622095 183.958577 
L 381.900413 143.986544 
L 382.17873 183.958577 
L 382.457048 157.503973 
L 382.735366 183.958577 
L 383.013684 171.354487 
L 383.292002 183.958577 
L 383.57032 147.495788 
L 383.848638 183.958577 
L 384.126956 151.456771 
L 384.683591 214.164946 
L 385.240227 147.033915 
L 385.518545 183.958577 
L 385.796863 159.169966 
L 386.075181 183.958577 
L 386.353499 153.178797 
L 386.631816 183.958577 
L 386.910134 171.726083 
L 387.188452 183.958577 
L 387.46677 151.449648 
L 387.745088 183.958577 
L 388.023406 139.047863 
L 388.301724 183.958577 
L 388.580042 144.010741 
L 388.858359 183.958577 
L 389.136677 154.101818 
L 389.414995 183.958577 
L 389.693313 167.489085 
L 389.971631 183.958577 
L 390.249949 156.188262 
L 390.528267 183.958577 
L 390.806584 150.128422 
L 391.084902 183.958577 
L 391.36322 146.472951 
L 391.641538 183.958577 
L 391.919856 155.291727 
L 392.198174 183.958577 
L 392.476492 152.718437 
L 392.75481 183.958577 
L 393.033127 149.067457 
L 393.311445 183.958577 
L 393.589763 184.194033 
L 393.868081 183.958577 
L 394.146399 146.829518 
L 394.424717 183.958577 
L 394.703035 160.637502 
L 394.981353 183.958577 
L 395.25967 172.179797 
L 395.537988 183.958577 
L 395.816306 179.483668 
L 396.094624 183.958577 
L 396.372942 148.479996 
L 396.65126 183.958577 
L 396.929578 151.095742 
L 397.207896 183.958577 
L 397.486213 161.828531 
L 397.764531 183.958577 
L 398.042849 144.370033 
L 398.321167 183.958577 
L 398.599485 146.800017 
L 398.877803 183.958577 
L 399.156121 152.761486 
L 399.434438 183.958577 
L 399.712756 175.0545 
L 399.991074 183.958577 
L 400.269392 143.919209 
L 400.54771 183.958577 
L 400.826028 155.850417 
L 401.104346 183.958577 
L 401.382664 153.175884 
L 401.660981 183.958577 
L 401.939299 145.175551 
L 402.217617 183.958577 
L 402.495935 154.082343 
L 402.774253 183.958577 
L 403.052571 162.090332 
L 403.330889 183.958577 
L 403.609207 155.228073 
L 403.887524 183.958577 
L 404.165842 144.548336 
L 404.44416 183.958577 
L 404.722478 140.597357 
L 405.000796 183.958577 
L 405.279114 151.735442 
L 405.557432 183.958577 
L 405.83575 145.529109 
L 406.114067 183.958577 
L 406.392385 173.325782 
L 406.670703 183.958577 
L 406.949021 169.590417 
L 407.227339 183.958577 
L 407.505657 161.077356 
L 407.783975 183.958577 
L 408.062292 141.202837 
L 408.34061 183.958577 
L 408.618928 140.265316 
L 408.897246 183.958577 
L 409.175564 157.136377 
L 409.453882 183.958577 
L 409.7322 170.008604 
L 410.010518 183.958577 
L 410.288835 158.953961 
L 410.567153 183.958577 
L 410.845471 163.892223 
L 411.123789 183.958577 
L 411.402107 154.516664 
L 411.680425 183.958577 
L 411.958743 166.796143 
L 412.237061 183.958577 
L 412.515378 143.285153 
L 412.793696 183.958577 
L 413.072014 151.826686 
L 413.350332 183.958577 
L 413.62865 165.346492 
L 413.906968 183.958577 
L 414.185286 155.308445 
L 414.463604 183.958577 
L 414.741921 157.679024 
L 415.020239 183.958577 
L 415.298557 179.700657 
L 415.576875 183.958577 
L 415.855193 153.206065 
L 416.133511 183.958577 
L 416.411829 147.313437 
L 416.690146 183.958577 
L 416.968464 161.931806 
L 417.246782 183.958577 
L 417.5251 162.074086 
L 417.803418 183.958577 
L 418.081736 140.785544 
L 418.360054 183.958577 
L 418.638372 149.922892 
L 418.916689 183.958577 
L 419.195007 147.818855 
L 419.473325 183.958577 
L 419.751643 180.329023 
L 420.029961 183.958577 
L 420.308279 149.415557 
L 420.586597 183.958577 
L 420.864915 169.295994 
L 421.143232 183.958577 
L 421.42155 161.452126 
L 421.699868 183.958577 
L 421.978186 160.815462 
L 422.256504 183.958577 
L 422.534822 160.211921 
L 422.81314 183.958577 
L 423.091458 157.52886 
L 423.369775 183.958577 
L 423.648093 181.345487 
L 423.926411 183.958577 
L 424.204729 180.748958 
L 424.483047 183.958577 
L 424.761365 150.01956 
L 425.039683 183.958577 
L 425.318 145.634317 
L 425.596318 183.958577 
L 425.874636 147.122783 
L 426.152954 183.958577 
L 426.431272 184.350855 
L 426.70959 183.958577 
L 426.987908 159.411172 
L 427.266226 183.958577 
L 427.544543 151.205377 
L 427.822861 183.958577 
L 428.101179 152.293798 
L 428.379497 183.958577 
L 428.657815 144.922782 
L 428.936133 183.958577 
L 429.214451 154.93736 
L 429.492769 183.958577 
L 429.771086 163.966215 
L 430.049404 183.958577 
L 430.327722 141.569289 
L 430.60604 183.958577 
L 430.884358 139.49456 
L 431.162676 183.958577 
L 431.440994 163.973151 
L 431.719312 183.958577 
L 431.997629 152.927735 
L 432.275947 183.958577 
L 432.554265 144.881142 
L 432.832583 183.958577 
L 433.110901 156.970453 
L 433.389219 183.958577 
L 433.667537 172.166324 
L 433.945854 183.958577 
L 434.224172 141.136924 
L 434.50249 183.958577 
L 434.780808 144.162244 
L 435.059126 183.958577 
L 435.337444 150.47909 
L 435.615762 183.958577 
L 435.89408 160.13082 
L 436.172397 183.958577 
L 436.450715 155.110107 
L 436.729033 183.958577 
L 437.007351 146.580014 
L 437.285669 183.958577 
L 437.563987 148.336066 
L 437.842305 183.958577 
L 438.120623 157.648552 
L 438.39894 183.958577 
L 438.677258 151.285632 
L 438.955576 183.958577 
L 439.233894 171.161403 
L 439.512212 183.958577 
L 439.79053 157.608021 
L 440.068848 183.958577 
L 440.347166 142.32201 
L 440.625483 183.958577 
L 440.903801 156.771157 
L 441.182119 183.958577 
L 441.460437 149.205977 
L 441.738755 183.958577 
L 442.017073 158.580829 
L 442.295391 183.958577 
L 442.573708 165.086518 
L 442.852026 183.958577 
L 443.130344 163.007745 
L 443.408662 183.958577 
L 443.68698 163.763976 
L 443.965298 183.958577 
L 444.243616 147.130005 
L 444.521934 183.958577 
L 444.800251 144.865223 
L 445.078569 183.958577 
L 445.356887 148.292195 
L 445.635205 183.958577 
L 445.913523 172.859872 
L 446.191841 183.958577 
L 446.470159 163.861158 
L 446.748477 183.958577 
L 447.026794 156.434805 
L 447.305112 183.958577 
L 447.58343 152.765465 
L 447.861748 183.958577 
L 448.140066 151.544573 
L 448.418384 183.958577 
L 448.696702 145.116561 
L 448.97502 183.958577 
L 449.253337 170.1479 
L 449.531655 183.958577 
L 449.809973 159.5961 
L 450.088291 183.958577 
L 450.366609 140.312407 
L 450.644927 183.958577 
L 450.923245 160.586554 
L 451.201562 183.958577 
L 451.47988 175.771523 
L 451.758198 183.958577 
L 452.036516 168.07355 
L 452.314834 183.958577 
L 452.593152 161.950154 
L 452.87147 183.958577 
L 453.149788 144.740502 
L 453.428105 183.958577 
L 453.706423 152.831937 
L 453.984741 183.958577 
L 454.263059 173.536866 
L 454.541377 183.958577 
L 454.819695 150.870929 
L 455.098013 183.958577 
L 455.376331 157.890966 
L 455.654648 183.958577 
L 455.932966 163.87968 
L 456.211284 183.958577 
L 456.489602 167.846834 
L 456.76792 183.958577 
L 457.046238 150.580792 
L 457.324556 183.958577 
L 457.602874 164.01469 
L 457.881191 183.958577 
L 458.159509 160.295948 
L 458.437827 183.958577 
L 458.716145 148.459764 
L 458.994463 183.958577 
L 459.272781 154.514316 
L 459.551099 183.958577 
L 459.829417 171.022078 
L 460.107734 183.958577 
L 460.386052 161.316836 
L 460.66437 183.958577 
L 460.942688 174.624538 
L 461.221006 183.958577 
L 461.499324 165.391149 
L 461.777642 183.958577 
L 462.055959 164.316481 
L 462.334277 183.958577 
L 462.612595 153.676469 
L 462.890913 183.958577 
L 463.169231 148.235096 
L 463.447549 183.958577 
L 463.725867 149.985406 
L 464.004185 183.958577 
L 464.282502 151.188433 
L 464.56082 183.958577 
L 464.839138 144.549793 
L 465.117456 183.958577 
L 465.395774 149.083755 
L 465.674092 183.958577 
L 465.95241 163.419201 
L 466.230728 183.958577 
L 466.509045 137.593482 
L 466.787363 183.958577 
L 467.065681 168.824178 
L 467.343999 183.958577 
L 467.622317 146.038769 
L 467.900635 183.958577 
L 468.178953 154.91206 
L 468.457271 183.958577 
L 468.735588 175.356572 
L 469.013906 183.958577 
L 469.292224 137.257384 
L 469.570542 183.958577 
L 469.84886 172.695272 
L 470.127178 183.958577 
L 470.405496 162.534952 
L 470.683813 183.958577 
L 470.962131 145.886966 
L 471.240449 183.958577 
L 471.518767 172.813484 
L 471.797085 183.958577 
L 472.075403 173.861521 
L 472.353721 183.958577 
L 472.632039 158.151261 
L 472.910356 183.958577 
L 473.188674 164.599962 
L 473.466992 183.958577 
L 473.74531 149.702752 
L 474.023628 183.958577 
L 474.301946 162.545167 
L 474.580264 183.958577 
L 474.858582 145.591486 
L 475.136899 183.958577 
L 475.415217 148.363715 
L 475.693535 183.958577 
L 475.971853 157.26646 
L 476.250171 183.958577 
L 476.528489 155.672082 
L 476.806807 183.958577 
L 477.085125 157.685366 
L 477.363442 183.958577 
L 477.64176 151.157182 
L 477.920078 183.958577 
L 478.198396 168.721474 
L 478.476714 183.958577 
L 478.755032 156.821344 
L 479.03335 183.958577 
L 479.311667 163.087142 
L 479.589985 183.958577 
L 479.868303 160.046705 
L 480.424939 208.392916 
L 480.981575 151.338102 
L 481.259893 183.958577 
L 481.53821 167.482644 
L 481.816528 183.958577 
L 482.094846 154.739254 
L 482.373164 183.958577 
L 482.651482 134.8132 
L 482.9298 183.958577 
L 483.208118 150.731902 
L 483.486436 183.958577 
L 483.764753 172.726719 
L 484.043071 183.958577 
L 484.321389 150.544278 
L 484.599707 183.958577 
L 484.878025 147.620759 
L 485.156343 183.958577 
L 485.434661 148.073712 
L 485.712979 183.958577 
L 485.991296 165.007319 
L 486.269614 183.958577 
L 486.547932 151.506602 
L 486.82625 183.958577 
L 487.104568 148.513225 
L 487.382886 183.958577 
L 487.661204 150.328137 
L 487.939521 183.958577 
L 488.217839 155.670648 
L 488.496157 183.958577 
L 488.774475 142.565544 
L 489.052793 183.958577 
L 489.331111 143.908229 
L 489.609429 183.958577 
L 489.887747 153.870053 
L 490.166064 183.958577 
L 490.444382 163.06257 
L 490.7227 183.958577 
L 491.001018 154.145935 
L 491.279336 183.958577 
L 491.557654 172.125368 
L 491.835972 183.958577 
L 492.11429 182.431439 
L 492.392607 183.958577 
L 492.670925 147.337382 
L 492.949243 183.958577 
L 493.227561 160.375527 
L 493.505879 183.958577 
L 493.784197 164.958887 
L 494.062515 183.958577 
L 494.340833 158.683687 
L 494.61915 183.958577 
L 494.897468 145.89544 
L 495.175786 183.958577 
L 495.454104 152.674307 
L 495.732422 183.958577 
L 496.01074 160.26646 
L 496.289058 183.958577 
L 496.567375 162.995773 
L 496.845693 183.958577 
L 497.124011 143.43016 
L 497.402329 183.958577 
L 497.680647 156.628851 
L 497.958965 183.958577 
L 498.237283 168.955232 
L 498.515601 183.958577 
L 498.793918 136.561367 
L 499.072236 183.958577 
L 499.350554 141.995533 
L 499.628872 183.958577 
L 499.90719 149.362975 
L 500.185508 183.958577 
L 500.463826 150.460112 
L 500.742144 183.958577 
L 501.020461 150.490448 
L 501.298779 183.958577 
L 501.577097 148.927932 
L 501.855415 183.958577 
L 502.133733 150.492985 
L 502.412051 183.958577 
L 502.690369 155.165765 
L 502.968687 183.958577 
L 503.247004 151.711149 
L 503.525322 183.958577 
L 503.80364 158.036387 
L 504.081958 183.958577 
L 504.360276 160.383351 
L 504.638594 183.958577 
L 504.916912 151.624441 
L 505.195229 183.958577 
L 505.473547 171.057814 
L 505.751865 183.958577 
L 506.030183 164.580951 
L 506.308501 183.958577 
L 506.586819 167.596881 
L 506.865137 183.958577 
L 507.143455 166.873983 
L 507.421772 183.958577 
L 507.70009 167.857267 
L 507.978408 183.958577 
L 508.256726 171.882742 
L 508.535044 183.958577 
L 508.813362 159.498898 
L 509.09168 183.958577 
L 509.369998 151.507377 
L 509.648315 183.958577 
L 509.926633 157.052855 
L 510.204951 183.958577 
L 510.483269 167.277476 
L 510.761587 183.958577 
L 511.039905 149.131372 
L 511.318223 183.958577 
L 511.596541 146.252646 
L 511.874858 183.958577 
L 512.153176 160.058148 
L 512.431494 183.958577 
L 512.709812 165.299643 
L 512.98813 183.958577 
L 513.266448 148.286763 
L 513.544766 183.958577 
L 513.823083 155.101246 
L 514.101401 183.958577 
L 514.379719 171.2343 
L 514.658037 183.958577 
L 514.936355 138.04317 
L 515.214673 183.958577 
L 515.492991 159.477446 
L 515.771309 183.958577 
L 516.049626 169.989151 
L 516.327944 183.958577 
L 516.606262 146.505826 
L 516.88458 183.958577 
L 517.162898 156.260818 
L 517.441216 183.958577 
L 517.719534 144.188553 
L 517.997852 183.958577 
L 518.276169 153.276332 
L 518.554487 183.958577 
L 518.832805 167.393974 
L 519.111123 183.958577 
L 519.389441 146.162309 
L 519.667759 183.958577 
L 519.946077 155.366444 
L 520.224395 183.958577 
L 520.502712 168.669266 
L 520.78103 183.958577 
L 521.059348 139.618265 
L 521.337666 183.958577 
L 521.615984 151.310094 
L 521.894302 183.958577 
L 522.17262 152.350923 
L 522.450937 183.958577 
L 522.729255 153.185146 
L 523.007573 183.958577 
L 523.285891 147.227796 
L 523.564209 183.958577 
L 523.842527 147.618785 
L 524.120845 183.958577 
L 524.399163 161.621627 
L 524.67748 183.958577 
L 524.955798 156.570182 
L 525.234116 183.958577 
L 525.512434 165.914646 
L 525.790752 183.958577 
L 526.06907 155.447357 
L 526.347388 183.958577 
L 526.625706 165.087999 
L 526.904023 183.958577 
L 527.182341 147.963653 
L 527.460659 183.958577 
L 527.738977 144.059126 
L 528.017295 183.958577 
L 528.295613 174.507504 
L 528.573931 183.958577 
L 528.852249 152.526282 
L 529.130566 183.958577 
L 529.408884 146.598249 
L 529.687202 183.958577 
L 529.96552 160.055604 
L 530.243838 183.958577 
L 530.522156 176.877487 
L 530.800474 183.958577 
L 531.078792 136.666584 
L 531.357109 183.958577 
L 531.635427 154.200106 
L 531.913745 183.958577 
L 532.192063 152.555282 
L 532.470381 183.958577 
L 532.748699 151.150672 
L 533.027017 183.958577 
L 533.305334 144.488051 
L 533.583652 183.958577 
L 533.86197 142.647327 
L 534.140288 183.958577 
L 534.418606 160.308835 
L 534.696924 183.958577 
L 534.975242 158.48883 
L 535.25356 183.958577 
L 535.531877 147.679827 
L 535.810195 183.958577 
L 536.088513 159.182155 
L 536.366831 183.958577 
L 536.645149 163.985111 
L 536.923467 183.958577 
L 537.201785 148.240811 
L 537.480103 183.958577 
L 537.75842 148.967258 
L 538.036738 183.958577 
L 538.315056 155.221232 
L 538.593374 183.958577 
L 538.871692 161.769636 
L 539.15001 183.958577 
L 539.428328 143.725314 
L 539.706646 183.958577 
L 539.984963 156.187646 
L 540.263281 183.958577 
L 540.541599 164.855916 
L 540.819917 183.958577 
L 541.098235 158.467823 
L 541.376553 183.958577 
L 541.654871 180.841675 
L 541.933188 183.958577 
L 542.211506 148.448202 
L 542.489824 183.958577 
L 542.768142 155.649413 
L 543.04646 183.958577 
L 543.324778 142.57687 
L 543.603096 183.958577 
L 543.881414 144.092757 
L 544.159731 183.958577 
L 544.438049 151.375229 
L 544.716367 183.958577 
L 544.994685 155.241931 
L 545.273003 183.958577 
L 545.551321 151.917463 
L 545.829639 183.958577 
L 546.107957 157.171689 
L 546.386274 183.958577 
L 546.664592 162.984769 
L 546.94291 183.958577 
L 547.221228 149.735504 
L 547.499546 183.958577 
L 547.777864 156.425774 
L 548.056182 183.958577 
L 548.3345 147.418234 
L 548.612817 183.958577 
L 548.891135 145.629938 
L 549.169453 183.958577 
L 549.447771 145.395931 
L 549.726089 183.958577 
L 550.004407 138.792175 
L 550.282725 183.958577 
L 550.561042 162.409331 
L 550.83936 183.958577 
L 551.117678 173.303998 
L 551.395996 183.958577 
L 551.674314 151.538191 
L 551.952632 183.958577 
L 552.23095 157.923879 
L 552.509268 183.958577 
L 552.787585 167.214026 
L 553.065903 183.958577 
L 553.344221 159.979983 
L 553.622539 183.958577 
L 553.900857 150.990169 
L 554.179175 183.958577 
L 554.457493 163.714696 
L 554.735811 183.958577 
L 555.014128 150.217174 
L 555.292446 183.958577 
L 555.570764 142.687469 
L 555.849082 183.958577 
L 556.1274 157.105128 
L 556.405718 183.958577 
L 556.684036 160.356224 
L 556.962354 183.958577 
L 557.240671 169.78519 
L 557.518989 183.958577 
L 557.797307 161.697756 
L 558.075625 183.958577 
L 558.353943 163.047373 
L 558.632261 183.958577 
L 558.910579 165.811415 
L 559.188896 183.958577 
L 559.467214 159.296625 
L 559.745532 183.958577 
L 560.02385 146.173139 
L 560.302168 183.958577 
L 560.580486 168.802265 
L 560.858804 183.958577 
L 561.137122 147.413662 
L 561.415439 183.958577 
L 561.693757 163.141974 
L 561.972075 183.958577 
L 562.250393 166.986979 
L 562.528711 183.958577 
L 562.807029 181.425567 
L 563.085347 183.958577 
L 563.363665 149.867705 
L 563.641982 183.958577 
L 563.9203 155.641929 
L 564.198618 183.958577 
L 564.476936 160.414292 
L 564.755254 183.958577 
L 565.033572 162.843079 
L 565.31189 183.958577 
L 565.590208 164.161445 
L 565.868525 183.958577 
L 566.146843 156.145299 
L 566.425161 183.958577 
L 566.703479 147.869434 
L 566.981797 183.958577 
L 567.260115 166.82902 
L 567.538433 183.958577 
L 567.81675 149.178528 
L 568.095068 183.958577 
L 568.373386 158.290377 
L 568.651704 183.958577 
L 568.930022 171.500482 
L 569.20834 183.958577 
L 569.486658 145.843697 
L 569.764976 183.958577 
L 570.043293 142.344276 
L 570.321611 183.958577 
L 570.599929 158.460366 
L 570.878247 183.958577 
L 571.156565 157.7253 
L 571.434883 183.958577 
L 571.713201 146.686603 
L 571.991519 183.958577 
L 572.269836 149.499231 
L 572.548154 183.958577 
L 572.826472 199.776533 
L 573.383108 162.359641 
L 573.661426 183.958577 
L 573.939744 144.871909 
L 574.218062 183.958577 
L 574.496379 157.840886 
L 574.774697 183.958577 
L 575.053015 159.089059 
L 575.331333 183.958577 
L 575.609651 142.47897 
L 575.887969 183.958577 
L 576.166287 148.777968 
L 576.444604 183.958577 
L 576.722922 161.380922 
L 577.00124 183.958577 
L 577.279558 165.64698 
L 577.557876 183.958577 
L 577.836194 156.919577 
L 578.114512 183.958577 
L 578.39283 162.45194 
L 578.671147 183.958577 
L 578.949465 149.075758 
L 579.227783 183.958577 
L 579.506101 163.78678 
L 579.784419 183.958577 
L 580.062737 147.838578 
L 580.341055 183.958577 
L 580.619373 147.793066 
L 580.89769 183.958577 
L 581.176008 150.276173 
L 581.454326 183.958577 
L 581.732644 148.778618 
L 582.010962 183.958577 
L 582.28928 187.331907 
L 582.567598 183.958577 
L 582.845916 154.520777 
L 583.124233 183.958577 
L 583.402551 149.205266 
L 583.680869 183.958577 
L 583.959187 144.942646 
L 584.237505 183.958577 
L 584.515823 150.806462 
L 584.794141 183.958577 
L 585.072458 151.754226 
L 585.350776 183.958577 
L 585.629094 166.159343 
L 585.907412 183.958577 
L 586.18573 157.358926 
L 586.464048 183.958577 
L 586.742366 155.825276 
L 587.020684 183.958577 
L 587.299001 169.164636 
L 587.577319 183.958577 
L 587.855637 148.714664 
L 588.133955 183.958577 
L 588.412273 157.376299 
L 588.690591 183.958577 
L 588.968909 179.672594 
L 589.247227 183.958577 
L 589.525544 157.543536 
L 589.803862 183.958577 
L 590.08218 152.387324 
L 590.360498 183.958577 
L 590.638816 176.340815 
L 590.917134 183.958577 
L 591.195452 151.149296 
L 591.47377 183.958577 
L 591.752087 164.665632 
L 592.030405 183.958577 
L 592.308723 158.116009 
L 592.587041 183.958577 
L 592.865359 168.782677 
L 593.421995 201.704502 
L 593.97863 171.48044 
L 594.256948 183.958577 
L 594.535266 162.286581 
L 594.813584 183.958577 
L 595.091902 156.728598 
L 595.37022 183.958577 
L 595.648538 141.675163 
L 595.926855 183.958577 
L 596.205173 148.247722 
L 596.483491 183.958577 
L 596.761809 165.750856 
L 597.040127 183.958577 
L 597.318445 159.915451 
L 597.596763 183.958577 
L 597.875081 145.262906 
L 598.153398 183.958577 
L 598.431716 153.136678 
L 598.710034 183.958577 
L 598.988352 157.202968 
L 599.26667 183.958577 
L 599.544988 152.483753 
L 599.823306 183.958577 
L 600.101624 148.946484 
L 600.379941 183.958577 
L 600.658259 170.355655 
L 600.936577 183.958577 
L 601.214895 151.570422 
L 601.493213 183.958577 
L 601.771531 142.106068 
L 602.049849 183.958577 
L 602.328167 148.009595 
L 602.606484 183.958577 
L 602.884802 166.090248 
L 603.16312 183.958577 
L 603.441438 152.848915 
L 603.719756 183.958577 
L 603.998074 152.801733 
L 604.276392 183.958577 
L 604.554709 157.702442 
L 604.833027 183.958577 
L 605.111345 172.760455 
L 605.389663 183.958577 
L 605.667981 159.576081 
L 605.946299 183.958577 
L 606.224617 143.719748 
L 606.502935 183.958577 
L 606.781252 162.922941 
L 607.05957 183.958577 
L 607.337888 161.933187 
L 607.616206 183.958577 
L 607.894524 149.771875 
L 608.172842 183.958577 
L 608.45116 141.018905 
L 608.729478 183.958577 
L 609.007795 162.447279 
L 609.286113 183.958577 
L 609.564431 181.041093 
L 609.842749 183.958577 
L 610.121067 177.365477 
L 610.399385 183.958577 
L 610.677703 147.358563 
L 610.956021 183.958577 
L 611.234338 152.480045 
L 611.512656 183.958577 
L 611.790974 143.795999 
L 612.069292 183.958577 
L 612.34761 144.846186 
L 612.625928 183.958577 
L 612.904246 159.664777 
L 613.182563 183.958577 
L 613.460881 152.723783 
L 613.739199 183.958577 
L 614.017517 144.373182 
L 614.295835 183.958577 
L 614.574153 138.770805 
L 614.852471 183.958577 
L 615.130789 175.85263 
L 615.409106 183.958577 
L 615.687424 152.816295 
L 615.965742 183.958577 
L 616.24406 147.657017 
L 616.522378 183.958577 
L 616.800696 188.765107 
L 617.079014 183.958577 
L 617.357332 167.481659 
L 617.635649 183.958577 
L 617.913967 145.682003 
L 618.192285 183.958577 
L 618.470603 147.885403 
L 618.748921 183.958577 
L 619.027239 169.553315 
L 619.305557 183.958577 
L 619.583875 179.571992 
L 619.862192 183.958577 
L 620.14051 158.875309 
L 620.418828 183.958577 
L 620.697146 155.813542 
L 620.975464 183.958577 
L 621.253782 157.931392 
L 621.5321 183.958577 
L 621.810417 163.865616 
L 622.088735 183.958577 
L 622.367053 148.33075 
L 622.645371 183.958577 
L 622.923689 165.482061 
L 623.202007 183.958577 
L 623.480325 152.326064 
L 623.758643 183.958577 
L 624.03696 150.579004 
L 624.315278 183.958577 
L 624.593596 148.714137 
L 624.871914 183.958577 
L 625.150232 170.425629 
L 625.42855 183.958577 
L 625.706868 157.911648 
L 625.985186 183.958577 
L 626.263503 150.513358 
L 626.541821 183.958577 
L 626.820139 157.106467 
L 627.098457 183.958577 
L 627.376775 163.936086 
L 627.655093 183.958577 
L 627.933411 138.647175 
L 628.211729 183.958577 
L 628.490046 159.196731 
L 628.768364 183.958577 
L 629.046682 150.461602 
L 629.325 191.186227 
L 629.325 191.186227 
" clip-path="url(#pd54d13487f)" style="fill: none; stroke: #4682b4; stroke-width: 0.7; stroke-linecap: square"/>
   </g>
   <g id="line2d_32">
    <path d="M 67.401218 245.93875 
L 67.401218 41.856 
" clip-path="url(#pd54d13487f)" style="fill: none; stroke-dasharray: 2.96,1.28; stroke-dashoffset: 0; stroke: #ff6347; stroke-width: 0.8"/>
   </g>
   <g id="line2d_33">
    <path d="M 75.472437 245.93875 
L 75.472437 41.856 
" clip-path="url(#pd54d13487f)" style="fill: none; stroke-dasharray: 0.6,0.99; stroke-dashoffset: 0; stroke: #ffa500; stroke-width: 0.6"/>
   </g>
   <g id="line2d_34">
    <path d="M 83.543655 245.93875 
L 83.543655 41.856 
" clip-path="url(#pd54d13487f)" style="fill: none; stroke-dasharray: 0.6,0.99; stroke-dashoffset: 0; stroke: #ffa500; stroke-width: 0.6"/>
   </g>
   <g id="line2d_35">
    <path d="M 91.614873 245.93875 
L 91.614873 41.856 
" clip-path="url(#pd54d13487f)" style="fill: none; stroke-dasharray: 0.6,0.99; stroke-dashoffset: 0; stroke: #ffa500; stroke-width: 0.6"/>
   </g>
   <g id="line2d_36">
    <path d="M 99.686091 245.93875 
L 99.686091 41.856 
" clip-path="url(#pd54d13487f)" style="fill: none; stroke-dasharray: 0.6,0.99; stroke-dashoffset: 0; stroke: #ffa500; stroke-width: 0.6"/>
   </g>
   <g id="line2d_37">
    <path d="M 107.75731 245.93875 
L 107.75731 41.856 
" clip-path="url(#pd54d13487f)" style="fill: none; stroke-dasharray: 0.6,0.99; stroke-dashoffset: 0; stroke: #ffa500; stroke-width: 0.6"/>
   </g>
   <g id="line2d_38">
    <path d="M 115.828528 245.93875 
L 115.828528 41.856 
" clip-path="url(#pd54d13487f)" style="fill: none; stroke-dasharray: 0.6,0.99; stroke-dashoffset: 0; stroke: #ffa500; stroke-width: 0.6"/>
   </g>
   <g id="line2d_39">
    <path d="M 123.899746 245.93875 
L 123.899746 41.856 
" clip-path="url(#pd54d13487f)" style="fill: none; stroke-dasharray: 0.6,0.99; stroke-dashoffset: 0; stroke: #ffa500; stroke-width: 0.6"/>
   </g>
   <g id="line2d_40">
    <path d="M 131.970964 245.93875 
L 131.970964 41.856 
" clip-path="url(#pd54d13487f)" style="fill: none; stroke-dasharray: 0.6,0.99; stroke-dashoffset: 0; stroke: #ffa500; stroke-width: 0.6"/>
   </g>
   <g id="line2d_41">
    <path d="M 140.042183 245.93875 
L 140.042183 41.856 
" clip-path="url(#pd54d13487f)" style="fill: none; stroke-dasharray: 0.6,0.99; stroke-dashoffset: 0; stroke: #ffa500; stroke-width: 0.6"/>
   </g>
   <g id="patch_3">
    <path d="M 59.33 245.93875 
L 59.33 41.856 
" style="fill: none; stroke: #000000; stroke-width: 0.8; stroke-linejoin: miter; stroke-linecap: square"/>
   </g>
   <g id="patch_4">
    <path d="M 629.325 245.93875 
L 629.325 41.856 
" style="fill: none; stroke: #000000; stroke-width: 0.8; stroke-linejoin: miter; stroke-linecap: square"/>
   </g>
   <g id="patch_5">
    <path d="M 59.33 245.93875 
L 629.325 245.93875 
" style="fill: none; stroke: #000000; stroke-width: 0.8; stroke-linejoin: miter; stroke-linecap: square"/>
   </g>
   <g id="patch_6">
    <path d="M 59.33 41.856 
L 629.325 41.856 
" style="fill: none; stroke: #000000; stroke-width: 0.8; stroke-linejoin: miter; stroke-linecap: square"/>
   </g>
   <g id="text_18">
    <!-- Part a)  Ideal CDAC — FFT Spectrum -->
    <g transform="translate(236.073438 22.355625) scale(0.12 -0.12)">
     <defs>
      <path id="DejaVuSans-50" d="M 1259 4147 
L 1259 2394 
L 2053 2394 
Q 2494 2394 2734 2622 
Q 2975 2850 2975 3272 
Q 2975 3691 2734 3919 
Q 2494 4147 2053 4147 
L 1259 4147 
z
M 628 4666 
L 2053 4666 
Q 2838 4666 3239 4311 
Q 3641 3956 3641 3272 
Q 3641 2581 3239 2228 
Q 2838 1875 2053 1875 
L 1259 1875 
L 1259 0 
L 628 0 
L 628 4666 
z
" transform="scale(0.015625)"/>
      <path id="DejaVuSans-49" d="M 628 4666 
L 1259 4666 
L 1259 0 
L 628 0 
L 628 4666 
z
" transform="scale(0.015625)"/>
      <path id="DejaVuSans-43" d="M 4122 4306 
L 4122 3641 
Q 3803 3938 3442 4084 
Q 3081 4231 2675 4231 
Q 1875 4231 1450 3742 
Q 1025 3253 1025 2328 
Q 1025 1406 1450 917 
Q 1875 428 2675 428 
Q 3081 428 3442 575 
Q 3803 722 4122 1019 
L 4122 359 
Q 3791 134 3420 21 
Q 3050 -91 2638 -91 
Q 1578 -91 968 557 
Q 359 1206 359 2328 
Q 359 3453 968 4101 
Q 1578 4750 2638 4750 
Q 3056 4750 3426 4639 
Q 3797 4528 4122 4306 
z
" transform="scale(0.015625)"/>
      <path id="DejaVuSans-44" d="M 1259 4147 
L 1259 519 
L 2022 519 
Q 2988 519 3436 956 
Q 3884 1394 3884 2338 
Q 3884 3275 3436 3711 
Q 2988 4147 2022 4147 
L 1259 4147 
z
M 628 4666 
L 1925 4666 
Q 3281 4666 3915 4102 
Q 4550 3538 4550 2338 
Q 4550 1131 3912 565 
Q 3275 0 1925 0 
L 628 0 
L 628 4666 
z
" transform="scale(0.015625)"/>
      <path id="DejaVuSans-2014" d="M 313 1978 
L 6088 1978 
L 6088 1528 
L 313 1528 
L 313 1978 
z
" transform="scale(0.015625)"/>
      <path id="DejaVuSans-54" d="M -19 4666 
L 3928 4666 
L 3928 4134 
L 2272 4134 
L 2272 0 
L 1638 0 
L 1638 4134 
L -19 4134 
L -19 4666 
z
" transform="scale(0.015625)"/>
     </defs>
     <use xlink:href="#DejaVuSans-50"/>
     <use xlink:href="#DejaVuSans-61" transform="translate(55.802734 0)"/>
     <use xlink:href="#DejaVuSans-72" transform="translate(117.082031 0)"/>
     <use xlink:href="#DejaVuSans-74" transform="translate(158.195312 0)"/>
     <use xlink:href="#DejaVuSans-20" transform="translate(197.404297 0)"/>
     <use xlink:href="#DejaVuSans-61" transform="translate(229.191406 0)"/>
     <use xlink:href="#DejaVuSans-29" transform="translate(290.470703 0)"/>
     <use xlink:href="#DejaVuSans-20" transform="translate(329.484375 0)"/>
     <use xlink:href="#DejaVuSans-20" transform="translate(361.271484 0)"/>
     <use xlink:href="#DejaVuSans-49" transform="translate(393.058594 0)"/>
     <use xlink:href="#DejaVuSans-64" transform="translate(422.550781 0)"/>
     <use xlink:href="#DejaVuSans-65" transform="translate(486.027344 0)"/>
     <use xlink:href="#DejaVuSans-61" transform="translate(547.550781 0)"/>
     <use xlink:href="#DejaVuSans-6c" transform="translate(608.830078 0)"/>
     <use xlink:href="#DejaVuSans-20" transform="translate(636.613281 0)"/>
     <use xlink:href="#DejaVuSans-43" transform="translate(668.400391 0)"/>
     <use xlink:href="#DejaVuSans-44" transform="translate(738.224609 0)"/>
     <use xlink:href="#DejaVuSans-41" transform="translate(813.476562 0)"/>
     <use xlink:href="#DejaVuSans-43" transform="translate(880.134766 0)"/>
     <use xlink:href="#DejaVuSans-20" transform="translate(949.958984 0)"/>
     <use xlink:href="#DejaVuSans-2014" transform="translate(981.746094 0)"/>
     <use xlink:href="#DejaVuSans-20" transform="translate(1081.746094 0)"/>
     <use xlink:href="#DejaVuSans-46" transform="translate(1113.533203 0)"/>
     <use xlink:href="#DejaVuSans-46" transform="translate(1171.052734 0)"/>
     <use xlink:href="#DejaVuSans-54" transform="translate(1226.822266 0)"/>
     <use xlink:href="#DejaVuSans-20" transform="translate(1287.90625 0)"/>
     <use xlink:href="#DejaVuSans-53" transform="translate(1319.693359 0)"/>
     <use xlink:href="#DejaVuSans-70" transform="translate(1383.169922 0)"/>
     <use xlink:href="#DejaVuSans-65" transform="translate(1446.646484 0)"/>
     <use xlink:href="#DejaVuSans-63" transform="translate(1508.169922 0)"/>
     <use xlink:href="#DejaVuSans-74" transform="translate(1563.150391 0)"/>
     <use xlink:href="#DejaVuSans-72" transform="translate(1602.359375 0)"/>
     <use xlink:href="#DejaVuSans-75" transform="translate(1643.472656 0)"/>
     <use xlink:href="#DejaVuSans-6d" transform="translate(1706.851562 0)"/>
    </g>
    <!-- THD = -77.2 dB   |   SNDR = 50.0 dB   |   ENOB = 8.01 bits -->
    <g transform="translate(169.105937 35.856) scale(0.12 -0.12)">
     <defs>
      <path id="DejaVuSans-48" d="M 628 4666 
L 1259 4666 
L 1259 2753 
L 3553 2753 
L 3553 4666 
L 4184 4666 
L 4184 0 
L 3553 0 
L 3553 2222 
L 1259 2222 
L 1259 0 
L 628 0 
L 628 4666 
z
" transform="scale(0.015625)"/>
      <path id="DejaVuSans-3d" d="M 678 2906 
L 4684 2906 
L 4684 2381 
L 678 2381 
L 678 2906 
z
M 678 1631 
L 4684 1631 
L 4684 1100 
L 678 1100 
L 678 1631 
z
" transform="scale(0.015625)"/>
      <path id="DejaVuSans-2d" d="M 313 2009 
L 1997 2009 
L 1997 1497 
L 313 1497 
L 313 2009 
z
" transform="scale(0.015625)"/>
      <path id="DejaVuSans-37" d="M 525 4666 
L 3525 4666 
L 3525 4397 
L 1831 0 
L 1172 0 
L 2766 4134 
L 525 4134 
L 525 4666 
z
" transform="scale(0.015625)"/>
      <path id="DejaVuSans-7c" d="M 1344 4891 
L 1344 -1509 
L 813 -1509 
L 813 4891 
L 1344 4891 
z
" transform="scale(0.015625)"/>
      <path id="DejaVuSans-52" d="M 2841 2188 
Q 3044 2119 3236 1894 
Q 3428 1669 3622 1275 
L 4263 0 
L 3584 0 
L 2988 1197 
Q 2756 1666 2539 1819 
Q 2322 1972 1947 1972 
L 1259 1972 
L 1259 0 
L 628 0 
L 628 4666 
L 2053 4666 
Q 2853 4666 3247 4331 
Q 3641 3997 3641 3322 
Q 3641 2881 3436 2590 
Q 3231 2300 2841 2188 
z
M 1259 4147 
L 1259 2491 
L 2053 2491 
Q 2509 2491 2742 2702 
Q 2975 2913 2975 3322 
Q 2975 3731 2742 3939 
Q 2509 4147 2053 4147 
L 1259 4147 
z
" transform="scale(0.015625)"/>
      <path id="DejaVuSans-45" d="M 628 4666 
L 3578 4666 
L 3578 4134 
L 1259 4134 
L 1259 2753 
L 3481 2753 
L 3481 2222 
L 1259 2222 
L 1259 531 
L 3634 531 
L 3634 0 
L 628 0 
L 628 4666 
z
" transform="scale(0.015625)"/>
      <path id="DejaVuSans-4f" d="M 2522 4238 
Q 1834 4238 1429 3725 
Q 1025 3213 1025 2328 
Q 1025 1447 1429 934 
Q 1834 422 2522 422 
Q 3209 422 3611 934 
Q 4013 1447 4013 2328 
Q 4013 3213 3611 3725 
Q 3209 4238 2522 4238 
z
M 2522 4750 
Q 3503 4750 4090 4092 
Q 4678 3434 4678 2328 
Q 4678 1225 4090 567 
Q 3503 -91 2522 -91 
Q 1538 -91 948 565 
Q 359 1222 359 2328 
Q 359 3434 948 4092 
Q 1538 4750 2522 4750 
z
" transform="scale(0.015625)"/>
      <path id="DejaVuSans-62" d="M 3116 1747 
Q 3116 2381 2855 2742 
Q 2594 3103 2138 3103 
Q 1681 3103 1420 2742 
Q 1159 2381 1159 1747 
Q 1159 1113 1420 752 
Q 1681 391 2138 391 
Q 2594 391 2855 752 
Q 3116 1113 3116 1747 
z
M 1159 2969 
Q 1341 3281 1617 3432 
Q 1894 3584 2278 3584 
Q 2916 3584 3314 3078 
Q 3713 2572 3713 1747 
Q 3713 922 3314 415 
Q 2916 -91 2278 -91 
Q 1894 -91 1617 61 
Q 1341 213 1159 525 
L 1159 0 
L 581 0 
L 581 4863 
L 1159 4863 
L 1159 2969 
z
" transform="scale(0.015625)"/>
     </defs>
     <use xlink:href="#DejaVuSans-54"/>
     <use xlink:href="#DejaVuSans-48" transform="translate(61.083984 0)"/>
     <use xlink:href="#DejaVuSans-44" transform="translate(136.279297 0)"/>
     <use xlink:href="#DejaVuSans-20" transform="translate(213.28125 0)"/>
     <use xlink:href="#DejaVuSans-3d" transform="translate(245.068359 0)"/>
     <use xlink:href="#DejaVuSans-20" transform="translate(328.857422 0)"/>
     <use xlink:href="#DejaVuSans-2d" transform="translate(360.644531 0)"/>
     <use xlink:href="#DejaVuSans-37" transform="translate(396.728516 0)"/>
     <use xlink:href="#DejaVuSans-37" transform="translate(460.351562 0)"/>
     <use xlink:href="#DejaVuSans-2e" transform="translate(523.974609 0)"/>
     <use xlink:href="#DejaVuSans-32" transform="translate(555.761719 0)"/>
     <use xlink:href="#DejaVuSans-20" transform="translate(619.384766 0)"/>
     <use xlink:href="#DejaVuSans-64" transform="translate(651.171875 0)"/>
     <use xlink:href="#DejaVuSans-42" transform="translate(714.648438 0)"/>
     <use xlink:href="#DejaVuSans-20" transform="translate(783.251953 0)"/>
     <use xlink:href="#DejaVuSans-20" transform="translate(815.039062 0)"/>
     <use xlink:href="#DejaVuSans-20" transform="translate(846.826172 0)"/>
     <use xlink:href="#DejaVuSans-7c" transform="translate(878.613281 0)"/>
     <use xlink:href="#DejaVuSans-20" transform="translate(912.304688 0)"/>
     <use xlink:href="#DejaVuSans-20" transform="translate(944.091797 0)"/>
     <use xlink:href="#DejaVuSans-20" transform="translate(975.878906 0)"/>
     <use xlink:href="#DejaVuSans-53" transform="translate(1007.666016 0)"/>
     <use xlink:href="#DejaVuSans-4e" transform="translate(1071.142578 0)"/>
     <use xlink:href="#DejaVuSans-44" transform="translate(1145.947266 0)"/>
     <use xlink:href="#DejaVuSans-52" transform="translate(1222.949219 0)"/>
     <use xlink:href="#DejaVuSans-20" transform="translate(1292.431641 0)"/>
     <use xlink:href="#DejaVuSans-3d" transform="translate(1324.21875 0)"/>
     <use xlink:href="#DejaVuSans-20" transform="translate(1408.007812 0)"/>
     <use xlink:href="#DejaVuSans-35" transform="translate(1439.794922 0)"/>
     <use xlink:href="#DejaVuSans-30" transform="translate(1503.417969 0)"/>
     <use xlink:href="#DejaVuSans-2e" transform="translate(1567.041016 0)"/>
     <use xlink:href="#DejaVuSans-30" transform="translate(1598.828125 0)"/>
     <use xlink:href="#DejaVuSans-20" transform="translate(1662.451172 0)"/>
     <use xlink:href="#DejaVuSans-64" transform="translate(1694.238281 0)"/>
     <use xlink:href="#DejaVuSans-42" transform="translate(1757.714844 0)"/>
     <use xlink:href="#DejaVuSans-20" transform="translate(1826.318359 0)"/>
     <use xlink:href="#DejaVuSans-20" transform="translate(1858.105469 0)"/>
     <use xlink:href="#DejaVuSans-20" transform="translate(1889.892578 0)"/>
     <use xlink:href="#DejaVuSans-7c" transform="translate(1921.679688 0)"/>
     <use xlink:href="#DejaVuSans-20" transform="translate(1955.371094 0)"/>
     <use xlink:href="#DejaVuSans-20" transform="translate(1987.158203 0)"/>
     <use xlink:href="#DejaVuSans-20" transform="translate(2018.945312 0)"/>
     <use xlink:href="#DejaVuSans-45" transform="translate(2050.732422 0)"/>
     <use xlink:href="#DejaVuSans-4e" transform="translate(2113.916016 0)"/>
     <use xlink:href="#DejaVuSans-4f" transform="translate(2188.720703 0)"/>
     <use xlink:href="#DejaVuSans-42" transform="translate(2267.431641 0)"/>
     <use xlink:href="#DejaVuSans-20" transform="translate(2336.035156 0)"/>
     <use xlink:href="#DejaVuSans-3d" transform="translate(2367.822266 0)"/>
     <use xlink:href="#DejaVuSans-20" transform="translate(2451.611328 0)"/>
     <use xlink:href="#DejaVuSans-38" transform="translate(2483.398438 0)"/>
     <use xlink:href="#DejaVuSans-2e" transform="translate(2547.021484 0)"/>
     <use xlink:href="#DejaVuSans-30" transform="translate(2578.808594 0)"/>
     <use xlink:href="#DejaVuSans-31" transform="translate(2642.431641 0)"/>
     <use xlink:href="#DejaVuSans-20" transform="translate(2706.054688 0)"/>
     <use xlink:href="#DejaVuSans-62" transform="translate(2737.841797 0)"/>
     <use xlink:href="#DejaVuSans-69" transform="translate(2801.318359 0)"/>
     <use xlink:href="#DejaVuSans-74" transform="translate(2829.101562 0)"/>
     <use xlink:href="#DejaVuSans-73" transform="translate(2868.310547 0)"/>
    </g>
   </g>
   <g id="legend_1">
    <g id="patch_7">
     <path d="M 538.9925 60.221 
L 623.725 60.221 
Q 625.325 60.221 625.325 58.621 
L 625.325 47.456 
Q 625.325 45.856 623.725 45.856 
L 538.9925 45.856 
Q 537.3925 45.856 537.3925 47.456 
L 537.3925 58.621 
Q 537.3925 60.221 538.9925 60.221 
z
" style="fill: #ffffff; opacity: 0.8; stroke: #cccccc; stroke-linejoin: miter"/>
    </g>
    <g id="line2d_42">
     <path d="M 540.5925 52.33475 
L 548.5925 52.33475 
L 556.5925 52.33475 
" style="fill: none; stroke-dasharray: 2.96,1.28; stroke-dashoffset: 0; stroke: #ff6347; stroke-width: 0.8"/>
    </g>
    <g id="text_19">
     <!-- f_in = 29/4096 -->
     <g transform="translate(562.9925 55.13475) scale(0.08 -0.08)">
      <defs>
       <path id="DejaVuSans-39" d="M 703 97 
L 703 672 
Q 941 559 1184 500 
Q 1428 441 1663 441 
Q 2288 441 2617 861 
Q 2947 1281 2994 2138 
Q 2813 1869 2534 1725 
Q 2256 1581 1919 1581 
Q 1219 1581 811 2004 
Q 403 2428 403 3163 
Q 403 3881 828 4315 
Q 1253 4750 1959 4750 
Q 2769 4750 3195 4129 
Q 3622 3509 3622 2328 
Q 3622 1225 3098 567 
Q 2575 -91 1691 -91 
Q 1453 -91 1209 -44 
Q 966 3 703 97 
z
M 1959 2075 
Q 2384 2075 2632 2365 
Q 2881 2656 2881 3163 
Q 2881 3666 2632 3958 
Q 2384 4250 1959 4250 
Q 1534 4250 1286 3958 
Q 1038 3666 1038 3163 
Q 1038 2656 1286 2365 
Q 1534 2075 1959 2075 
z
" transform="scale(0.015625)"/>
       <path id="DejaVuSans-2f" d="M 1625 4666 
L 2156 4666 
L 531 -594 
L 0 -594 
L 1625 4666 
z
" transform="scale(0.015625)"/>
      </defs>
      <use xlink:href="#DejaVuSans-66"/>
      <use xlink:href="#DejaVuSans-5f" transform="translate(35.205078 0)"/>
      <use xlink:href="#DejaVuSans-69" transform="translate(85.205078 0)"/>
      <use xlink:href="#DejaVuSans-6e" transform="translate(112.988281 0)"/>
      <use xlink:href="#DejaVuSans-20" transform="translate(176.367188 0)"/>
      <use xlink:href="#DejaVuSans-3d" transform="translate(208.154297 0)"/>
      <use xlink:href="#DejaVuSans-20" transform="translate(291.943359 0)"/>
      <use xlink:href="#DejaVuSans-32" transform="translate(323.730469 0)"/>
      <use xlink:href="#DejaVuSans-39" transform="translate(387.353516 0)"/>
      <use xlink:href="#DejaVuSans-2f" transform="translate(450.976562 0)"/>
      <use xlink:href="#DejaVuSans-34" transform="translate(484.667969 0)"/>
      <use xlink:href="#DejaVuSans-30" transform="translate(548.291016 0)"/>
      <use xlink:href="#DejaVuSans-39" transform="translate(611.914062 0)"/>
      <use xlink:href="#DejaVuSans-36" transform="translate(675.537109 0)"/>
     </g>
    </g>
   </g>
  </g>
 </g>
 <defs>
  <clipPath id="pd54d13487f">
   <rect x="59.33" y="41.856" width="569.995" height="204.08275"/>
  </clipPath>
 </defs>
</svg>
