<?xml version="1.0" encoding="utf-8" standalone="no"?>
<!DOCTYPE svg PUBLIC "-//W3C//DTD SVG 1.1//EN"
  "http://www.w3.org/Graphics/SVG/1.1/DTD/svg11.dtd">
<svg xmlns:xlink="http://www.w3.org/1999/xlink" width="648pt" height="288pt" viewBox="0 0 648 288" xmlns="http://www.w3.org/2000/svg" version="1.1">
 <metadata>
  <rdf:RDF xmlns:dc="http://purl.org/dc/elements/1.1/" xmlns:cc="http://creativecommons.org/ns#" xmlns:rdf="http://www.w3.org/1999/02/22-rdf-syntax-ns#">
   <cc:Work>
    <dc:type rdf:resource="http://purl.org/dc/dcmitype/StillImage"/>
    <dc:date>2026-04-02T19:12:16.810707</dc:date>
    <dc:format>image/svg+xml</dc:format>
    <dc:creator>
     <cc:Agent>
      <dc:title>Matplotlib v3.10.8, https://matplotlib.org/</dc:title>
     </cc:Agent>
    </dc:creator>
   </cc:Work>
  </rdf:RDF>
 </metadata>
 <defs>
  <style type="text/css">*{stroke-linejoin: round; stroke-linecap: butt}</style>
 </defs>
 <g id="figure_1">
  <g id="patch_1">
   <path d="M 0 288 
L 648 288 
L 648 0 
L 0 0 
z
" style="fill: #ffffff"/>
  </g>
  <g id="axes_1">
   <g id="patch_2">
    <path d="M 57.17 246.04 
L 637.2 246.04 
L 637.2 10.8 
L 57.17 10.8 
z
" style="fill: #ffffff"/>
   </g>
   <g id="matplotlib.axis_1">
    <g id="xtick_1">
     <g id="line2d_1">
      <path d="M 83.535 246.04 
L 83.535 10.8 
" clip-path="url(#pe6f646c7e4)" style="fill: none; stroke: #b0b0b0; stroke-width: 0.3; stroke-linecap: square"/>
     </g>
     <g id="line2d_2">
      <defs>
       <path id="mf29a25a5bc" d="M 0 0 
L 0 3.5 
" style="stroke: #000000; stroke-width: 0.8"/>
      </defs>
      <g>
       <use xlink:href="#mf29a25a5bc" x="83.535" y="246.04" style="stroke: #000000; stroke-width: 0.8"/>
      </g>
     </g>
     <g id="text_1">
      <!-- 0 -->
      <g transform="translate(80.35375 260.638438) scale(0.1 -0.1)">
       <defs>
        <path id="DejaVuSans-30" d="M 2034 4250 
Q 1547 4250 1301 3770 
Q 1056 3291 1056 2328 
Q 1056 1369 1301 889 
Q 1547 409 2034 409 
Q 2525 409 2770 889 
Q 3016 1369 3016 2328 
Q 3016 3291 2770 3770 
Q 2525 4250 2034 4250 
z
M 2034 4750 
Q 2819 4750 3233 4129 
Q 3647 3509 3647 2328 
Q 3647 1150 3233 529 
Q 2819 -91 2034 -91 
Q 1250 -91 836 529 
Q 422 1150 422 2328 
Q 422 3509 836 4129 
Q 1250 4750 2034 4750 
z
" transform="scale(0.015625)"/>
       </defs>
       <use xlink:href="#DejaVuSans-30"/>
      </g>
     </g>
    </g>
    <g id="xtick_2">
     <g id="line2d_3">
      <path d="M 186.927157 246.04 
L 186.927157 10.8 
" clip-path="url(#pe6f646c7e4)" style="fill: none; stroke: #b0b0b0; stroke-width: 0.3; stroke-linecap: square"/>
     </g>
     <g id="line2d_4">
      <g>
       <use xlink:href="#mf29a25a5bc" x="186.927157" y="246.04" style="stroke: #000000; stroke-width: 0.8"/>
      </g>
     </g>
     <g id="text_2">
      <!-- 50 -->
      <g transform="translate(180.564657 260.638438) scale(0.1 -0.1)">
       <defs>
        <path id="DejaVuSans-35" d="M 691 4666 
L 3169 4666 
L 3169 4134 
L 1269 4134 
L 1269 2991 
Q 1406 3038 1543 3061 
Q 1681 3084 1819 3084 
Q 2600 3084 3056 2656 
Q 3513 2228 3513 1497 
Q 3513 744 3044 326 
Q 2575 -91 1722 -91 
Q 1428 -91 1123 -41 
Q 819 9 494 109 
L 494 744 
Q 775 591 1075 516 
Q 1375 441 1709 441 
Q 2250 441 2565 725 
Q 2881 1009 2881 1497 
Q 2881 1984 2565 2268 
Q 2250 2553 1709 2553 
Q 1456 2553 1204 2497 
Q 953 2441 691 2322 
L 691 4666 
z
" transform="scale(0.015625)"/>
       </defs>
       <use xlink:href="#DejaVuSans-35"/>
       <use xlink:href="#DejaVuSans-30" transform="translate(63.623047 0)"/>
      </g>
     </g>
    </g>
    <g id="xtick_3">
     <g id="line2d_5">
      <path d="M 290.319314 246.04 
L 290.319314 10.8 
" clip-path="url(#pe6f646c7e4)" style="fill: none; stroke: #b0b0b0; stroke-width: 0.3; stroke-linecap: square"/>
     </g>
     <g id="line2d_6">
      <g>
       <use xlink:href="#mf29a25a5bc" x="290.319314" y="246.04" style="stroke: #000000; stroke-width: 0.8"/>
      </g>
     </g>
     <g id="text_3">
      <!-- 100 -->
      <g transform="translate(280.775564 260.638438) scale(0.1 -0.1)">
       <defs>
        <path id="DejaVuSans-31" d="M 794 531 
L 1825 531 
L 1825 4091 
L 703 3866 
L 703 4441 
L 1819 4666 
L 2450 4666 
L 2450 531 
L 3481 531 
L 3481 0 
L 794 0 
L 794 531 
z
" transform="scale(0.015625)"/>
       </defs>
       <use xlink:href="#DejaVuSans-31"/>
       <use xlink:href="#DejaVuSans-30" transform="translate(63.623047 0)"/>
       <use xlink:href="#DejaVuSans-30" transform="translate(127.246094 0)"/>
      </g>
     </g>
    </g>
    <g id="xtick_4">
     <g id="line2d_7">
      <path d="M 393.711471 246.04 
L 393.711471 10.8 
" clip-path="url(#pe6f646c7e4)" style="fill: none; stroke: #b0b0b0; stroke-width: 0.3; stroke-linecap: square"/>
     </g>
     <g id="line2d_8">
      <g>
       <use xlink:href="#mf29a25a5bc" x="393.711471" y="246.04" style="stroke: #000000; stroke-width: 0.8"/>
      </g>
     </g>
     <g id="text_4">
      <!-- 150 -->
      <g transform="translate(384.167721 260.638438) scale(0.1 -0.1)">
       <use xlink:href="#DejaVuSans-31"/>
       <use xlink:href="#DejaVuSans-35" transform="translate(63.623047 0)"/>
       <use xlink:href="#DejaVuSans-30" transform="translate(127.246094 0)"/>
      </g>
     </g>
    </g>
    <g id="xtick_5">
     <g id="line2d_9">
      <path d="M 497.103627 246.04 
L 497.103627 10.8 
" clip-path="url(#pe6f646c7e4)" style="fill: none; stroke: #b0b0b0; stroke-width: 0.3; stroke-linecap: square"/>
     </g>
     <g id="line2d_10">
      <g>
       <use xlink:href="#mf29a25a5bc" x="497.103627" y="246.04" style="stroke: #000000; stroke-width: 0.8"/>
      </g>
     </g>
     <g id="text_5">
      <!-- 200 -->
      <g transform="translate(487.559877 260.638438) scale(0.1 -0.1)">
       <defs>
        <path id="DejaVuSans-32" d="M 1228 531 
L 3431 531 
L 3431 0 
L 469 0 
L 469 531 
Q 828 903 1448 1529 
Q 2069 2156 2228 2338 
Q 2531 2678 2651 2914 
Q 2772 3150 2772 3378 
Q 2772 3750 2511 3984 
Q 2250 4219 1831 4219 
Q 1534 4219 1204 4116 
Q 875 4013 500 3803 
L 500 4441 
Q 881 4594 1212 4672 
Q 1544 4750 1819 4750 
Q 2544 4750 2975 4387 
Q 3406 4025 3406 3419 
Q 3406 3131 3298 2873 
Q 3191 2616 2906 2266 
Q 2828 2175 2409 1742 
Q 1991 1309 1228 531 
z
" transform="scale(0.015625)"/>
       </defs>
       <use xlink:href="#DejaVuSans-32"/>
       <use xlink:href="#DejaVuSans-30" transform="translate(63.623047 0)"/>
       <use xlink:href="#DejaVuSans-30" transform="translate(127.246094 0)"/>
      </g>
     </g>
    </g>
    <g id="xtick_6">
     <g id="line2d_11">
      <path d="M 600.495784 246.04 
L 600.495784 10.8 
" clip-path="url(#pe6f646c7e4)" style="fill: none; stroke: #b0b0b0; stroke-width: 0.3; stroke-linecap: square"/>
     </g>
     <g id="line2d_12">
      <g>
       <use xlink:href="#mf29a25a5bc" x="600.495784" y="246.04" style="stroke: #000000; stroke-width: 0.8"/>
      </g>
     </g>
     <g id="text_6">
      <!-- 250 -->
      <g transform="translate(590.952034 260.638438) scale(0.1 -0.1)">
       <use xlink:href="#DejaVuSans-32"/>
       <use xlink:href="#DejaVuSans-35" transform="translate(63.623047 0)"/>
       <use xlink:href="#DejaVuSans-30" transform="translate(127.246094 0)"/>
      </g>
     </g>
    </g>
    <g id="text_7">
     <!-- Digital code -->
     <g transform="translate(317.320938 274.316562) scale(0.1 -0.1)">
      <defs>
       <path id="DejaVuSans-44" d="M 1259 4147 
L 1259 519 
L 2022 519 
Q 2988 519 3436 956 
Q 3884 1394 3884 2338 
Q 3884 3275 3436 3711 
Q 2988 4147 2022 4147 
L 1259 4147 
z
M 628 4666 
L 1925 4666 
Q 3281 4666 3915 4102 
Q 4550 3538 4550 2338 
Q 4550 1131 3912 565 
Q 3275 0 1925 0 
L 628 0 
L 628 4666 
z
" transform="scale(0.015625)"/>
       <path id="DejaVuSans-69" d="M 603 3500 
L 1178 3500 
L 1178 0 
L 603 0 
L 603 3500 
z
M 603 4863 
L 1178 4863 
L 1178 4134 
L 603 4134 
L 603 4863 
z
" transform="scale(0.015625)"/>
       <path id="DejaVuSans-67" d="M 2906 1791 
Q 2906 2416 2648 2759 
Q 2391 3103 1925 3103 
Q 1463 3103 1205 2759 
Q 947 2416 947 1791 
Q 947 1169 1205 825 
Q 1463 481 1925 481 
Q 2391 481 2648 825 
Q 2906 1169 2906 1791 
z
M 3481 434 
Q 3481 -459 3084 -895 
Q 2688 -1331 1869 -1331 
Q 1566 -1331 1297 -1286 
Q 1028 -1241 775 -1147 
L 775 -588 
Q 1028 -725 1275 -790 
Q 1522 -856 1778 -856 
Q 2344 -856 2625 -561 
Q 2906 -266 2906 331 
L 2906 616 
Q 2728 306 2450 153 
Q 2172 0 1784 0 
Q 1141 0 747 490 
Q 353 981 353 1791 
Q 353 2603 747 3093 
Q 1141 3584 1784 3584 
Q 2172 3584 2450 3431 
Q 2728 3278 2906 2969 
L 2906 3500 
L 3481 3500 
L 3481 434 
z
" transform="scale(0.015625)"/>
       <path id="DejaVuSans-74" d="M 1172 4494 
L 1172 3500 
L 2356 3500 
L 2356 3053 
L 1172 3053 
L 1172 1153 
Q 1172 725 1289 603 
Q 1406 481 1766 481 
L 2356 481 
L 2356 0 
L 1766 0 
Q 1100 0 847 248 
Q 594 497 594 1153 
L 594 3053 
L 172 3053 
L 172 3500 
L 594 3500 
L 594 4494 
L 1172 4494 
z
" transform="scale(0.015625)"/>
       <path id="DejaVuSans-61" d="M 2194 1759 
Q 1497 1759 1228 1600 
Q 959 1441 959 1056 
Q 959 750 1161 570 
Q 1363 391 1709 391 
Q 2188 391 2477 730 
Q 2766 1069 2766 1631 
L 2766 1759 
L 2194 1759 
z
M 3341 1997 
L 3341 0 
L 2766 0 
L 2766 531 
Q 2569 213 2275 61 
Q 1981 -91 1556 -91 
Q 1019 -91 701 211 
Q 384 513 384 1019 
Q 384 1609 779 1909 
Q 1175 2209 1959 2209 
L 2766 2209 
L 2766 2266 
Q 2766 2663 2505 2880 
Q 2244 3097 1772 3097 
Q 1472 3097 1187 3025 
Q 903 2953 641 2809 
L 641 3341 
Q 956 3463 1253 3523 
Q 1550 3584 1831 3584 
Q 2591 3584 2966 3190 
Q 3341 2797 3341 1997 
z
" transform="scale(0.015625)"/>
       <path id="DejaVuSans-6c" d="M 603 4863 
L 1178 4863 
L 1178 0 
L 603 0 
L 603 4863 
z
" transform="scale(0.015625)"/>
       <path id="DejaVuSans-20" transform="scale(0.015625)"/>
       <path id="DejaVuSans-63" d="M 3122 3366 
L 3122 2828 
Q 2878 2963 2633 3030 
Q 2388 3097 2138 3097 
Q 1578 3097 1268 2742 
Q 959 2388 959 1747 
Q 959 1106 1268 751 
Q 1578 397 2138 397 
Q 2388 397 2633 464 
Q 2878 531 3122 666 
L 3122 134 
Q 2881 22 2623 -34 
Q 2366 -91 2075 -91 
Q 1284 -91 818 406 
Q 353 903 353 1747 
Q 353 2603 823 3093 
Q 1294 3584 2113 3584 
Q 2378 3584 2631 3529 
Q 2884 3475 3122 3366 
z
" transform="scale(0.015625)"/>
       <path id="DejaVuSans-6f" d="M 1959 3097 
Q 1497 3097 1228 2736 
Q 959 2375 959 1747 
Q 959 1119 1226 758 
Q 1494 397 1959 397 
Q 2419 397 2687 759 
Q 2956 1122 2956 1747 
Q 2956 2369 2687 2733 
Q 2419 3097 1959 3097 
z
M 1959 3584 
Q 2709 3584 3137 3096 
Q 3566 2609 3566 1747 
Q 3566 888 3137 398 
Q 2709 -91 1959 -91 
Q 1206 -91 779 398 
Q 353 888 353 1747 
Q 353 2609 779 3096 
Q 1206 3584 1959 3584 
z
" transform="scale(0.015625)"/>
       <path id="DejaVuSans-64" d="M 2906 2969 
L 2906 4863 
L 3481 4863 
L 3481 0 
L 2906 0 
L 2906 525 
Q 2725 213 2448 61 
Q 2172 -91 1784 -91 
Q 1150 -91 751 415 
Q 353 922 353 1747 
Q 353 2572 751 3078 
Q 1150 3584 1784 3584 
Q 2172 3584 2448 3432 
Q 2725 3281 2906 2969 
z
M 947 1747 
Q 947 1113 1208 752 
Q 1469 391 1925 391 
Q 2381 391 2643 752 
Q 2906 1113 2906 1747 
Q 2906 2381 2643 2742 
Q 2381 3103 1925 3103 
Q 1469 3103 1208 2742 
Q 947 2381 947 1747 
z
" transform="scale(0.015625)"/>
       <path id="DejaVuSans-65" d="M 3597 1894 
L 3597 1613 
L 953 1613 
Q 991 1019 1311 708 
Q 1631 397 2203 397 
Q 2534 397 2845 478 
Q 3156 559 3463 722 
L 3463 178 
Q 3153 47 2828 -22 
Q 2503 -91 2169 -91 
Q 1331 -91 842 396 
Q 353 884 353 1716 
Q 353 2575 817 3079 
Q 1281 3584 2069 3584 
Q 2775 3584 3186 3129 
Q 3597 2675 3597 1894 
z
M 3022 2063 
Q 3016 2534 2758 2815 
Q 2500 3097 2075 3097 
Q 1594 3097 1305 2825 
Q 1016 2553 972 2059 
L 3022 2063 
z
" transform="scale(0.015625)"/>
      </defs>
      <use xlink:href="#DejaVuSans-44"/>
      <use xlink:href="#DejaVuSans-69" transform="translate(77.001953 0)"/>
      <use xlink:href="#DejaVuSans-67" transform="translate(104.785156 0)"/>
      <use xlink:href="#DejaVuSans-69" transform="translate(168.261719 0)"/>
      <use xlink:href="#DejaVuSans-74" transform="translate(196.044922 0)"/>
      <use xlink:href="#DejaVuSans-61" transform="translate(235.253906 0)"/>
      <use xlink:href="#DejaVuSans-6c" transform="translate(296.533203 0)"/>
      <use xlink:href="#DejaVuSans-20" transform="translate(324.316406 0)"/>
      <use xlink:href="#DejaVuSans-63" transform="translate(356.103516 0)"/>
      <use xlink:href="#DejaVuSans-6f" transform="translate(411.083984 0)"/>
      <use xlink:href="#DejaVuSans-64" transform="translate(472.265625 0)"/>
      <use xlink:href="#DejaVuSans-65" transform="translate(535.742188 0)"/>
     </g>
    </g>
   </g>
   <g id="matplotlib.axis_2">
    <g id="ytick_1">
     <g id="line2d_13">
      <path d="M 57.17 235.347273 
L 637.2 235.347273 
" clip-path="url(#pe6f646c7e4)" style="fill: none; stroke: #b0b0b0; stroke-width: 0.3; stroke-linecap: square"/>
     </g>
     <g id="line2d_14">
      <defs>
       <path id="m20cdcaea71" d="M 0 0 
L -3.5 0 
" style="stroke: #000000; stroke-width: 0.8"/>
      </defs>
      <g>
       <use xlink:href="#m20cdcaea71" x="57.17" y="235.347273" style="stroke: #000000; stroke-width: 0.8"/>
      </g>
     </g>
     <g id="text_8">
      <!-- 0 -->
      <g transform="translate(43.8075 239.146491) scale(0.1 -0.1)">
       <use xlink:href="#DejaVuSans-30"/>
      </g>
     </g>
    </g>
    <g id="ytick_2">
     <g id="line2d_15">
      <path d="M 57.17 192.408635 
L 637.2 192.408635 
" clip-path="url(#pe6f646c7e4)" style="fill: none; stroke: #b0b0b0; stroke-width: 0.3; stroke-linecap: square"/>
     </g>
     <g id="line2d_16">
      <g>
       <use xlink:href="#m20cdcaea71" x="57.17" y="192.408635" style="stroke: #000000; stroke-width: 0.8"/>
      </g>
     </g>
     <g id="text_9">
      <!-- 200 -->
      <g transform="translate(31.0825 196.207853) scale(0.1 -0.1)">
       <use xlink:href="#DejaVuSans-32"/>
       <use xlink:href="#DejaVuSans-30" transform="translate(63.623047 0)"/>
       <use xlink:href="#DejaVuSans-30" transform="translate(127.246094 0)"/>
      </g>
     </g>
    </g>
    <g id="ytick_3">
     <g id="line2d_17">
      <path d="M 57.17 149.469996 
L 637.2 149.469996 
" clip-path="url(#pe6f646c7e4)" style="fill: none; stroke: #b0b0b0; stroke-width: 0.3; stroke-linecap: square"/>
     </g>
     <g id="line2d_18">
      <g>
       <use xlink:href="#m20cdcaea71" x="57.17" y="149.469996" style="stroke: #000000; stroke-width: 0.8"/>
      </g>
     </g>
     <g id="text_10">
      <!-- 400 -->
      <g transform="translate(31.0825 153.269215) scale(0.1 -0.1)">
       <defs>
        <path id="DejaVuSans-34" d="M 2419 4116 
L 825 1625 
L 2419 1625 
L 2419 4116 
z
M 2253 4666 
L 3047 4666 
L 3047 1625 
L 3713 1625 
L 3713 1100 
L 3047 1100 
L 3047 0 
L 2419 0 
L 2419 1100 
L 313 1100 
L 313 1709 
L 2253 4666 
z
" transform="scale(0.015625)"/>
       </defs>
       <use xlink:href="#DejaVuSans-34"/>
       <use xlink:href="#DejaVuSans-30" transform="translate(63.623047 0)"/>
       <use xlink:href="#DejaVuSans-30" transform="translate(127.246094 0)"/>
      </g>
     </g>
    </g>
    <g id="ytick_4">
     <g id="line2d_19">
      <path d="M 57.17 106.531358 
L 637.2 106.531358 
" clip-path="url(#pe6f646c7e4)" style="fill: none; stroke: #b0b0b0; stroke-width: 0.3; stroke-linecap: square"/>
     </g>
     <g id="line2d_20">
      <g>
       <use xlink:href="#m20cdcaea71" x="57.17" y="106.531358" style="stroke: #000000; stroke-width: 0.8"/>
      </g>
     </g>
     <g id="text_11">
      <!-- 600 -->
      <g transform="translate(31.0825 110.330577) scale(0.1 -0.1)">
       <defs>
        <path id="DejaVuSans-36" d="M 2113 2584 
Q 1688 2584 1439 2293 
Q 1191 2003 1191 1497 
Q 1191 994 1439 701 
Q 1688 409 2113 409 
Q 2538 409 2786 701 
Q 3034 994 3034 1497 
Q 3034 2003 2786 2293 
Q 2538 2584 2113 2584 
z
M 3366 4563 
L 3366 3988 
Q 3128 4100 2886 4159 
Q 2644 4219 2406 4219 
Q 1781 4219 1451 3797 
Q 1122 3375 1075 2522 
Q 1259 2794 1537 2939 
Q 1816 3084 2150 3084 
Q 2853 3084 3261 2657 
Q 3669 2231 3669 1497 
Q 3669 778 3244 343 
Q 2819 -91 2113 -91 
Q 1303 -91 875 529 
Q 447 1150 447 2328 
Q 447 3434 972 4092 
Q 1497 4750 2381 4750 
Q 2619 4750 2861 4703 
Q 3103 4656 3366 4563 
z
" transform="scale(0.015625)"/>
       </defs>
       <use xlink:href="#DejaVuSans-36"/>
       <use xlink:href="#DejaVuSans-30" transform="translate(63.623047 0)"/>
       <use xlink:href="#DejaVuSans-30" transform="translate(127.246094 0)"/>
      </g>
     </g>
    </g>
    <g id="ytick_5">
     <g id="line2d_21">
      <path d="M 57.17 63.59272 
L 637.2 63.59272 
" clip-path="url(#pe6f646c7e4)" style="fill: none; stroke: #b0b0b0; stroke-width: 0.3; stroke-linecap: square"/>
     </g>
     <g id="line2d_22">
      <g>
       <use xlink:href="#m20cdcaea71" x="57.17" y="63.59272" style="stroke: #000000; stroke-width: 0.8"/>
      </g>
     </g>
     <g id="text_12">
      <!-- 800 -->
      <g transform="translate(31.0825 67.391939) scale(0.1 -0.1)">
       <defs>
        <path id="DejaVuSans-38" d="M 2034 2216 
Q 1584 2216 1326 1975 
Q 1069 1734 1069 1313 
Q 1069 891 1326 650 
Q 1584 409 2034 409 
Q 2484 409 2743 651 
Q 3003 894 3003 1313 
Q 3003 1734 2745 1975 
Q 2488 2216 2034 2216 
z
M 1403 2484 
Q 997 2584 770 2862 
Q 544 3141 544 3541 
Q 544 4100 942 4425 
Q 1341 4750 2034 4750 
Q 2731 4750 3128 4425 
Q 3525 4100 3525 3541 
Q 3525 3141 3298 2862 
Q 3072 2584 2669 2484 
Q 3125 2378 3379 2068 
Q 3634 1759 3634 1313 
Q 3634 634 3220 271 
Q 2806 -91 2034 -91 
Q 1263 -91 848 271 
Q 434 634 434 1313 
Q 434 1759 690 2068 
Q 947 2378 1403 2484 
z
M 1172 3481 
Q 1172 3119 1398 2916 
Q 1625 2713 2034 2713 
Q 2441 2713 2670 2916 
Q 2900 3119 2900 3481 
Q 2900 3844 2670 4047 
Q 2441 4250 2034 4250 
Q 1625 4250 1398 4047 
Q 1172 3844 1172 3481 
z
" transform="scale(0.015625)"/>
       </defs>
       <use xlink:href="#DejaVuSans-38"/>
       <use xlink:href="#DejaVuSans-30" transform="translate(63.623047 0)"/>
       <use xlink:href="#DejaVuSans-30" transform="translate(127.246094 0)"/>
      </g>
     </g>
    </g>
    <g id="ytick_6">
     <g id="line2d_23">
      <path d="M 57.17 20.654082 
L 637.2 20.654082 
" clip-path="url(#pe6f646c7e4)" style="fill: none; stroke: #b0b0b0; stroke-width: 0.3; stroke-linecap: square"/>
     </g>
     <g id="line2d_24">
      <g>
       <use xlink:href="#m20cdcaea71" x="57.17" y="20.654082" style="stroke: #000000; stroke-width: 0.8"/>
      </g>
     </g>
     <g id="text_13">
      <!-- 1000 -->
      <g transform="translate(24.72 24.453301) scale(0.1 -0.1)">
       <use xlink:href="#DejaVuSans-31"/>
       <use xlink:href="#DejaVuSans-30" transform="translate(63.623047 0)"/>
       <use xlink:href="#DejaVuSans-30" transform="translate(127.246094 0)"/>
       <use xlink:href="#DejaVuSans-30" transform="translate(190.869141 0)"/>
      </g>
     </g>
    </g>
    <g id="text_14">
     <!-- Output voltage (mV) -->
     <g transform="translate(18.640312 179.841094) rotate(-90) scale(0.1 -0.1)">
      <defs>
       <path id="DejaVuSans-4f" d="M 2522 4238 
Q 1834 4238 1429 3725 
Q 1025 3213 1025 2328 
Q 1025 1447 1429 934 
Q 1834 422 2522 422 
Q 3209 422 3611 934 
Q 4013 1447 4013 2328 
Q 4013 3213 3611 3725 
Q 3209 4238 2522 4238 
z
M 2522 4750 
Q 3503 4750 4090 4092 
Q 4678 3434 4678 2328 
Q 4678 1225 4090 567 
Q 3503 -91 2522 -91 
Q 1538 -91 948 565 
Q 359 1222 359 2328 
Q 359 3434 948 4092 
Q 1538 4750 2522 4750 
z
" transform="scale(0.015625)"/>
       <path id="DejaVuSans-75" d="M 544 1381 
L 544 3500 
L 1119 3500 
L 1119 1403 
Q 1119 906 1312 657 
Q 1506 409 1894 409 
Q 2359 409 2629 706 
Q 2900 1003 2900 1516 
L 2900 3500 
L 3475 3500 
L 3475 0 
L 2900 0 
L 2900 538 
Q 2691 219 2414 64 
Q 2138 -91 1772 -91 
Q 1169 -91 856 284 
Q 544 659 544 1381 
z
M 1991 3584 
L 1991 3584 
z
" transform="scale(0.015625)"/>
       <path id="DejaVuSans-70" d="M 1159 525 
L 1159 -1331 
L 581 -1331 
L 581 3500 
L 1159 3500 
L 1159 2969 
Q 1341 3281 1617 3432 
Q 1894 3584 2278 3584 
Q 2916 3584 3314 3078 
Q 3713 2572 3713 1747 
Q 3713 922 3314 415 
Q 2916 -91 2278 -91 
Q 1894 -91 1617 61 
Q 1341 213 1159 525 
z
M 3116 1747 
Q 3116 2381 2855 2742 
Q 2594 3103 2138 3103 
Q 1681 3103 1420 2742 
Q 1159 2381 1159 1747 
Q 1159 1113 1420 752 
Q 1681 391 2138 391 
Q 2594 391 2855 752 
Q 3116 1113 3116 1747 
z
" transform="scale(0.015625)"/>
       <path id="DejaVuSans-76" d="M 191 3500 
L 800 3500 
L 1894 563 
L 2988 3500 
L 3597 3500 
L 2284 0 
L 1503 0 
L 191 3500 
z
" transform="scale(0.015625)"/>
       <path id="DejaVuSans-28" d="M 1984 4856 
Q 1566 4138 1362 3434 
Q 1159 2731 1159 2009 
Q 1159 1288 1364 580 
Q 1569 -128 1984 -844 
L 1484 -844 
Q 1016 -109 783 600 
Q 550 1309 550 2009 
Q 550 2706 781 3412 
Q 1013 4119 1484 4856 
L 1984 4856 
z
" transform="scale(0.015625)"/>
       <path id="DejaVuSans-6d" d="M 3328 2828 
Q 3544 3216 3844 3400 
Q 4144 3584 4550 3584 
Q 5097 3584 5394 3201 
Q 5691 2819 5691 2113 
L 5691 0 
L 5113 0 
L 5113 2094 
Q 5113 2597 4934 2840 
Q 4756 3084 4391 3084 
Q 3944 3084 3684 2787 
Q 3425 2491 3425 1978 
L 3425 0 
L 2847 0 
L 2847 2094 
Q 2847 2600 2669 2842 
Q 2491 3084 2119 3084 
Q 1678 3084 1418 2786 
Q 1159 2488 1159 1978 
L 1159 0 
L 581 0 
L 581 3500 
L 1159 3500 
L 1159 2956 
Q 1356 3278 1631 3431 
Q 1906 3584 2284 3584 
Q 2666 3584 2933 3390 
Q 3200 3197 3328 2828 
z
" transform="scale(0.015625)"/>
       <path id="DejaVuSans-56" d="M 1831 0 
L 50 4666 
L 709 4666 
L 2188 738 
L 3669 4666 
L 4325 4666 
L 2547 0 
L 1831 0 
z
" transform="scale(0.015625)"/>
       <path id="DejaVuSans-29" d="M 513 4856 
L 1013 4856 
Q 1481 4119 1714 3412 
Q 1947 2706 1947 2009 
Q 1947 1309 1714 600 
Q 1481 -109 1013 -844 
L 513 -844 
Q 928 -128 1133 580 
Q 1338 1288 1338 2009 
Q 1338 2731 1133 3434 
Q 928 4138 513 4856 
z
" transform="scale(0.015625)"/>
      </defs>
      <use xlink:href="#DejaVuSans-4f"/>
      <use xlink:href="#DejaVuSans-75" transform="translate(78.710938 0)"/>
      <use xlink:href="#DejaVuSans-74" transform="translate(142.089844 0)"/>
      <use xlink:href="#DejaVuSans-70" transform="translate(181.298828 0)"/>
      <use xlink:href="#DejaVuSans-75" transform="translate(244.775391 0)"/>
      <use xlink:href="#DejaVuSans-74" transform="translate(308.154297 0)"/>
      <use xlink:href="#DejaVuSans-20" transform="translate(347.363281 0)"/>
      <use xlink:href="#DejaVuSans-76" transform="translate(379.150391 0)"/>
      <use xlink:href="#DejaVuSans-6f" transform="translate(438.330078 0)"/>
      <use xlink:href="#DejaVuSans-6c" transform="translate(499.511719 0)"/>
      <use xlink:href="#DejaVuSans-74" transform="translate(527.294922 0)"/>
      <use xlink:href="#DejaVuSans-61" transform="translate(566.503906 0)"/>
      <use xlink:href="#DejaVuSans-67" transform="translate(627.783203 0)"/>
      <use xlink:href="#DejaVuSans-65" transform="translate(691.259766 0)"/>
      <use xlink:href="#DejaVuSans-20" transform="translate(752.783203 0)"/>
      <use xlink:href="#DejaVuSans-28" transform="translate(784.570312 0)"/>
      <use xlink:href="#DejaVuSans-6d" transform="translate(823.583984 0)"/>
      <use xlink:href="#DejaVuSans-56" transform="translate(920.996094 0)"/>
      <use xlink:href="#DejaVuSans-29" transform="translate(989.404297 0)"/>
     </g>
    </g>
   </g>
   <g id="line2d_25">
    <path d="M 83.535 235.347273 
L 85.602843 235.347273 
L 85.602843 234.508627 
L 87.670686 234.508627 
L 87.670686 233.669982 
L 89.738529 233.669982 
L 89.738529 232.831337 
L 91.806373 232.831337 
L 91.806373 231.992692 
L 93.874216 231.992692 
L 93.874216 231.154046 
L 95.942059 231.154046 
L 95.942059 230.315401 
L 98.009902 230.315401 
L 98.009902 229.476756 
L 100.077745 229.476756 
L 100.077745 228.638111 
L 102.145588 228.638111 
L 102.145588 227.799465 
L 104.213431 227.799465 
L 104.213431 226.96082 
L 106.281275 226.96082 
L 106.281275 226.122175 
L 108.349118 226.122175 
L 108.349118 225.283529 
L 110.416961 225.283529 
L 110.416961 224.444884 
L 112.484804 224.444884 
L 112.484804 223.606239 
L 114.552647 223.606239 
L 114.552647 222.767594 
L 116.62049 222.767594 
L 116.62049 221.928948 
L 118.688333 221.928948 
L 118.688333 221.090303 
L 120.756176 221.090303 
L 120.756176 220.251658 
L 122.82402 220.251658 
L 122.82402 219.413012 
L 124.891863 219.413012 
L 124.891863 218.574367 
L 126.959706 218.574367 
L 126.959706 217.735722 
L 129.027549 217.735722 
L 129.027549 216.897077 
L 131.095392 216.897077 
L 131.095392 216.058431 
L 133.163235 216.058431 
L 133.163235 215.219786 
L 135.231078 215.219786 
L 135.231078 214.381141 
L 137.298922 214.381141 
L 137.298922 213.542496 
L 139.366765 213.542496 
L 139.366765 212.70385 
L 141.434608 212.70385 
L 141.434608 211.865205 
L 143.502451 211.865205 
L 143.502451 211.02656 
L 145.570294 211.02656 
L 145.570294 210.187914 
L 147.638137 210.187914 
L 147.638137 209.349269 
L 149.70598 209.349269 
L 149.70598 208.510624 
L 151.773824 208.510624 
L 151.773824 207.671979 
L 153.841667 207.671979 
L 153.841667 206.833333 
L 155.90951 206.833333 
L 155.90951 205.994688 
L 157.977353 205.994688 
L 157.977353 205.156043 
L 160.045196 205.156043 
L 160.045196 204.317398 
L 162.113039 204.317398 
L 162.113039 203.478752 
L 164.180882 203.478752 
L 164.180882 202.640107 
L 166.248725 202.640107 
L 166.248725 201.801462 
L 168.316569 201.801462 
L 168.316569 200.962816 
L 170.384412 200.962816 
L 170.384412 200.124171 
L 172.452255 200.124171 
L 172.452255 199.285526 
L 174.520098 199.285526 
L 174.520098 198.446881 
L 176.587941 198.446881 
L 176.587941 197.608235 
L 178.655784 197.608235 
L 178.655784 196.76959 
L 180.723627 196.76959 
L 180.723627 195.930945 
L 182.791471 195.930945 
L 182.791471 195.092299 
L 184.859314 195.092299 
L 184.859314 194.253654 
L 186.927157 194.253654 
L 186.927157 193.415009 
L 188.995 193.415009 
L 188.995 192.576364 
L 191.062843 192.576364 
L 191.062843 191.737718 
L 193.130686 191.737718 
L 193.130686 190.899073 
L 195.198529 190.899073 
L 195.198529 190.060428 
L 197.266373 190.060428 
L 197.266373 189.221783 
L 199.334216 189.221783 
L 199.334216 188.383137 
L 201.402059 188.383137 
L 201.402059 187.544492 
L 203.469902 187.544492 
L 203.469902 186.705847 
L 205.537745 186.705847 
L 205.537745 185.867201 
L 207.605588 185.867201 
L 207.605588 185.028556 
L 209.673431 185.028556 
L 209.673431 184.189911 
L 211.741275 184.189911 
L 211.741275 183.351266 
L 213.809118 183.351266 
L 213.809118 182.51262 
L 215.876961 182.51262 
L 215.876961 181.673975 
L 217.944804 181.673975 
L 217.944804 180.83533 
L 220.012647 180.83533 
L 220.012647 179.996684 
L 222.08049 179.996684 
L 222.08049 179.158039 
L 224.148333 179.158039 
L 224.148333 178.319394 
L 226.216176 178.319394 
L 226.216176 177.480749 
L 228.28402 177.480749 
L 228.28402 176.642103 
L 230.351863 176.642103 
L 230.351863 175.803458 
L 232.419706 175.803458 
L 232.419706 174.964813 
L 234.487549 174.964813 
L 234.487549 174.126168 
L 236.555392 174.126168 
L 236.555392 173.287522 
L 238.623235 173.287522 
L 238.623235 172.448877 
L 240.691078 172.448877 
L 240.691078 171.610232 
L 242.758922 171.610232 
L 242.758922 170.771586 
L 244.826765 170.771586 
L 244.826765 169.932941 
L 246.894608 169.932941 
L 246.894608 169.094296 
L 248.962451 169.094296 
L 248.962451 168.255651 
L 251.030294 168.255651 
L 251.030294 167.417005 
L 253.098137 167.417005 
L 253.098137 166.57836 
L 255.16598 166.57836 
L 255.16598 165.739715 
L 257.233824 165.739715 
L 257.233824 164.90107 
L 259.301667 164.90107 
L 259.301667 164.062424 
L 261.36951 164.062424 
L 261.36951 163.223779 
L 263.437353 163.223779 
L 263.437353 162.385134 
L 265.505196 162.385134 
L 265.505196 161.546488 
L 267.573039 161.546488 
L 267.573039 160.707843 
L 269.640882 160.707843 
L 269.640882 159.869198 
L 271.708725 159.869198 
L 271.708725 159.030553 
L 273.776569 159.030553 
L 273.776569 158.191907 
L 275.844412 158.191907 
L 275.844412 157.353262 
L 277.912255 157.353262 
L 277.912255 156.514617 
L 279.980098 156.514617 
L 279.980098 155.675971 
L 282.047941 155.675971 
L 282.047941 154.837326 
L 284.115784 154.837326 
L 284.115784 153.998681 
L 286.183627 153.998681 
L 286.183627 153.160036 
L 288.251471 153.160036 
L 288.251471 152.32139 
L 290.319314 152.32139 
L 290.319314 151.482745 
L 292.387157 151.482745 
L 292.387157 150.6441 
L 294.455 150.6441 
L 294.455 149.805455 
L 296.522843 149.805455 
L 296.522843 148.966809 
L 298.590686 148.966809 
L 298.590686 148.128164 
L 300.658529 148.128164 
L 300.658529 147.289519 
L 302.726373 147.289519 
L 302.726373 146.450873 
L 304.794216 146.450873 
L 304.794216 145.612228 
L 306.862059 145.612228 
L 306.862059 144.773583 
L 308.929902 144.773583 
L 308.929902 143.934938 
L 310.997745 143.934938 
L 310.997745 143.096292 
L 313.065588 143.096292 
L 313.065588 142.257647 
L 315.133431 142.257647 
L 315.133431 141.419002 
L 317.201275 141.419002 
L 317.201275 140.580357 
L 319.269118 140.580357 
L 319.269118 139.741711 
L 321.336961 139.741711 
L 321.336961 138.903066 
L 323.404804 138.903066 
L 323.404804 138.064421 
L 325.472647 138.064421 
L 325.472647 137.225775 
L 327.54049 137.225775 
L 327.54049 136.38713 
L 329.608333 136.38713 
L 329.608333 135.548485 
L 331.676176 135.548485 
L 331.676176 134.70984 
L 333.74402 134.70984 
L 333.74402 133.871194 
L 335.811863 133.871194 
L 335.811863 133.032549 
L 337.879706 133.032549 
L 337.879706 132.193904 
L 339.947549 132.193904 
L 339.947549 131.355258 
L 342.015392 131.355258 
L 342.015392 130.516613 
L 344.083235 130.516613 
L 344.083235 129.677968 
L 346.151078 129.677968 
L 346.151078 128.839323 
L 348.218922 128.839323 
L 348.218922 128.000677 
L 350.286765 128.000677 
L 350.286765 127.162032 
L 352.354608 127.162032 
L 352.354608 126.323387 
L 354.422451 126.323387 
L 354.422451 125.484742 
L 356.490294 125.484742 
L 356.490294 124.646096 
L 358.558137 124.646096 
L 358.558137 123.807451 
L 360.62598 123.807451 
L 360.62598 122.968806 
L 362.693824 122.968806 
L 362.693824 122.13016 
L 364.761667 122.13016 
L 364.761667 121.291515 
L 366.82951 121.291515 
L 366.82951 120.45287 
L 368.897353 120.45287 
L 368.897353 119.614225 
L 370.965196 119.614225 
L 370.965196 118.775579 
L 373.033039 118.775579 
L 373.033039 117.936934 
L 375.100882 117.936934 
L 375.100882 117.098289 
L 377.168725 117.098289 
L 377.168725 116.259643 
L 379.236569 116.259643 
L 379.236569 115.420998 
L 381.304412 115.420998 
L 381.304412 114.582353 
L 383.372255 114.582353 
L 383.372255 113.743708 
L 385.440098 113.743708 
L 385.440098 112.905062 
L 387.507941 112.905062 
L 387.507941 112.066417 
L 389.575784 112.066417 
L 389.575784 111.227772 
L 391.643627 111.227772 
L 391.643627 110.389127 
L 393.711471 110.389127 
L 393.711471 109.550481 
L 395.779314 109.550481 
L 395.779314 108.711836 
L 397.847157 108.711836 
L 397.847157 107.873191 
L 399.915 107.873191 
L 399.915 107.034545 
L 401.982843 107.034545 
L 401.982843 106.1959 
L 404.050686 106.1959 
L 404.050686 105.357255 
L 406.118529 105.357255 
L 406.118529 104.51861 
L 408.186373 104.51861 
L 408.186373 103.679964 
L 410.254216 103.679964 
L 410.254216 102.841319 
L 412.322059 102.841319 
L 412.322059 102.002674 
L 414.389902 102.002674 
L 414.389902 101.164029 
L 416.457745 101.164029 
L 416.457745 100.325383 
L 418.525588 100.325383 
L 418.525588 99.486738 
L 420.593431 99.486738 
L 420.593431 98.648093 
L 422.661275 98.648093 
L 422.661275 97.809447 
L 424.729118 97.809447 
L 424.729118 96.970802 
L 426.796961 96.970802 
L 426.796961 96.132157 
L 428.864804 96.132157 
L 428.864804 95.293512 
L 430.932647 95.293512 
L 430.932647 94.454866 
L 433.00049 94.454866 
L 433.00049 93.616221 
L 435.068333 93.616221 
L 435.068333 92.777576 
L 437.136176 92.777576 
L 437.136176 91.93893 
L 439.20402 91.93893 
L 439.20402 91.100285 
L 441.271863 91.100285 
L 441.271863 90.26164 
L 443.339706 90.26164 
L 443.339706 89.422995 
L 445.407549 89.422995 
L 445.407549 88.584349 
L 447.475392 88.584349 
L 447.475392 87.745704 
L 449.543235 87.745704 
L 449.543235 86.907059 
L 451.611078 86.907059 
L 451.611078 86.068414 
L 453.678922 86.068414 
L 453.678922 85.229768 
L 455.746765 85.229768 
L 455.746765 84.391123 
L 457.814608 84.391123 
L 457.814608 83.552478 
L 459.882451 83.552478 
L 459.882451 82.713832 
L 461.950294 82.713832 
L 461.950294 81.875187 
L 464.018137 81.875187 
L 464.018137 81.036542 
L 466.08598 81.036542 
L 466.08598 80.197897 
L 468.153824 80.197897 
L 468.153824 79.359251 
L 470.221667 79.359251 
L 470.221667 78.520606 
L 472.28951 78.520606 
L 472.28951 77.681961 
L 474.357353 77.681961 
L 474.357353 76.843316 
L 476.425196 76.843316 
L 476.425196 76.00467 
L 478.493039 76.00467 
L 478.493039 75.166025 
L 480.560882 75.166025 
L 480.560882 74.32738 
L 482.628725 74.32738 
L 482.628725 73.488734 
L 484.696569 73.488734 
L 484.696569 72.650089 
L 486.764412 72.650089 
L 486.764412 71.811444 
L 488.832255 71.811444 
L 488.832255 70.972799 
L 490.900098 70.972799 
L 490.900098 70.134153 
L 492.967941 70.134153 
L 492.967941 69.295508 
L 495.035784 69.295508 
L 495.035784 68.456863 
L 497.103627 68.456863 
L 497.103627 67.618217 
L 499.171471 67.618217 
L 499.171471 66.779572 
L 501.239314 66.779572 
L 501.239314 65.940927 
L 503.307157 65.940927 
L 503.307157 65.102282 
L 505.375 65.102282 
L 505.375 64.263636 
L 507.442843 64.263636 
L 507.442843 63.424991 
L 509.510686 63.424991 
L 509.510686 62.586346 
L 511.578529 62.586346 
L 511.578529 61.747701 
L 513.646373 61.747701 
L 513.646373 60.909055 
L 515.714216 60.909055 
L 515.714216 60.07041 
L 517.782059 60.07041 
L 517.782059 59.231765 
L 519.849902 59.231765 
L 519.849902 58.393119 
L 521.917745 58.393119 
L 521.917745 57.554474 
L 523.985588 57.554474 
L 523.985588 56.715829 
L 526.053431 56.715829 
L 526.053431 55.877184 
L 528.121275 55.877184 
L 528.121275 55.038538 
L 530.189118 55.038538 
L 530.189118 54.199893 
L 532.256961 54.199893 
L 532.256961 53.361248 
L 534.324804 53.361248 
L 534.324804 52.522602 
L 536.392647 52.522602 
L 536.392647 51.683957 
L 538.46049 51.683957 
L 538.46049 50.845312 
L 540.528333 50.845312 
L 540.528333 50.006667 
L 542.596176 50.006667 
L 542.596176 49.168021 
L 544.66402 49.168021 
L 544.66402 48.329376 
L 546.731863 48.329376 
L 546.731863 47.490731 
L 548.799706 47.490731 
L 548.799706 46.652086 
L 550.867549 46.652086 
L 550.867549 45.81344 
L 552.935392 45.81344 
L 552.935392 44.974795 
L 555.003235 44.974795 
L 555.003235 44.13615 
L 557.071078 44.13615 
L 557.071078 43.297504 
L 559.138922 43.297504 
L 559.138922 42.458859 
L 561.206765 42.458859 
L 561.206765 41.620214 
L 563.274608 41.620214 
L 563.274608 40.781569 
L 565.342451 40.781569 
L 565.342451 39.942923 
L 567.410294 39.942923 
L 567.410294 39.104278 
L 569.478137 39.104278 
L 569.478137 38.265633 
L 571.54598 38.265633 
L 571.54598 37.426988 
L 573.613824 37.426988 
L 573.613824 36.588342 
L 575.681667 36.588342 
L 575.681667 35.749697 
L 577.74951 35.749697 
L 577.74951 34.911052 
L 579.817353 34.911052 
L 579.817353 34.072406 
L 581.885196 34.072406 
L 581.885196 33.233761 
L 583.953039 33.233761 
L 583.953039 32.395116 
L 586.020882 32.395116 
L 586.020882 31.556471 
L 588.088725 31.556471 
L 588.088725 30.717825 
L 590.156569 30.717825 
L 590.156569 29.87918 
L 592.224412 29.87918 
L 592.224412 29.040535 
L 594.292255 29.040535 
L 594.292255 28.201889 
L 596.360098 28.201889 
L 596.360098 27.363244 
L 598.427941 27.363244 
L 598.427941 26.524599 
L 600.495784 26.524599 
L 600.495784 25.685954 
L 602.563627 25.685954 
L 602.563627 24.847308 
L 604.631471 24.847308 
L 604.631471 24.008663 
L 606.699314 24.008663 
L 606.699314 23.170018 
L 608.767157 23.170018 
L 608.767157 22.331373 
L 610.835 22.331373 
L 610.835 21.492727 
L 610.835 21.492727 
" clip-path="url(#pe6f646c7e4)" style="fill: none; stroke: #4682b4; stroke-opacity: 0.85; stroke-linecap: square"/>
   </g>
   <g id="line2d_26">
    <path d="M 83.535 235.347273 
L 85.602843 235.347273 
L 85.602843 234.502891 
L 87.670686 234.502891 
L 87.670686 233.681149 
L 89.738529 233.681149 
L 89.738529 232.836766 
L 91.806373 232.836766 
L 91.806373 231.954736 
L 93.874216 231.954736 
L 93.874216 231.110354 
L 95.942059 231.110354 
L 95.942059 230.288611 
L 98.009902 230.288611 
L 98.009902 229.444229 
L 100.077745 229.444229 
L 100.077745 228.549395 
L 102.145588 228.549395 
L 102.145588 227.705013 
L 104.213431 227.705013 
L 104.213431 226.883271 
L 106.281275 226.883271 
L 106.281275 226.038889 
L 108.349118 226.038889 
L 108.349118 225.156858 
L 110.416961 225.156858 
L 110.416961 224.312476 
L 112.484804 224.312476 
L 112.484804 223.490734 
L 114.552647 223.490734 
L 114.552647 222.646352 
L 116.62049 222.646352 
L 116.62049 222.140989 
L 118.688333 222.140989 
L 118.688333 221.296607 
L 120.756176 221.296607 
L 120.756176 220.474865 
L 122.82402 220.474865 
L 122.82402 219.630483 
L 124.891863 219.630483 
L 124.891863 218.748452 
L 126.959706 218.748452 
L 126.959706 217.90407 
L 129.027549 217.90407 
L 129.027549 217.082328 
L 131.095392 217.082328 
L 131.095392 216.237946 
L 133.163235 216.237946 
L 133.163235 215.343112 
L 135.231078 215.343112 
L 135.231078 214.49873 
L 137.298922 214.49873 
L 137.298922 213.676987 
L 139.366765 213.676987 
L 139.366765 212.832605 
L 141.434608 212.832605 
L 141.434608 211.950574 
L 143.502451 211.950574 
L 143.502451 211.106192 
L 145.570294 211.106192 
L 145.570294 210.28445 
L 147.638137 210.28445 
L 147.638137 209.440068 
L 149.70598 209.440068 
L 149.70598 208.759916 
L 151.773824 208.759916 
L 151.773824 207.915534 
L 153.841667 207.915534 
L 153.841667 207.093792 
L 155.90951 207.093792 
L 155.90951 206.24941 
L 157.977353 206.24941 
L 157.977353 205.367379 
L 160.045196 205.367379 
L 160.045196 204.522997 
L 162.113039 204.522997 
L 162.113039 203.701255 
L 164.180882 203.701255 
L 164.180882 202.856873 
L 166.248725 202.856873 
L 166.248725 201.962038 
L 168.316569 201.962038 
L 168.316569 201.117656 
L 170.384412 201.117656 
L 170.384412 200.295914 
L 172.452255 200.295914 
L 172.452255 199.451532 
L 174.520098 199.451532 
L 174.520098 198.569501 
L 176.587941 198.569501 
L 176.587941 197.725119 
L 178.655784 197.725119 
L 178.655784 196.903377 
L 180.723627 196.903377 
L 180.723627 196.058995 
L 182.791471 196.058995 
L 182.791471 195.553632 
L 184.859314 195.553632 
L 184.859314 194.70925 
L 186.927157 194.70925 
L 186.927157 193.887508 
L 188.995 193.887508 
L 188.995 193.043126 
L 191.062843 193.043126 
L 191.062843 192.161095 
L 193.130686 192.161095 
L 193.130686 191.316713 
L 195.198529 191.316713 
L 195.198529 190.494971 
L 197.266373 190.494971 
L 197.266373 189.650589 
L 199.334216 189.650589 
L 199.334216 188.755755 
L 201.402059 188.755755 
L 201.402059 187.911373 
L 203.469902 187.911373 
L 203.469902 187.089631 
L 205.537745 187.089631 
L 205.537745 186.245249 
L 207.605588 186.245249 
L 207.605588 185.363218 
L 209.673431 185.363218 
L 209.673431 184.518836 
L 211.741275 184.518836 
L 211.741275 183.697094 
L 213.809118 183.697094 
L 213.809118 182.852712 
L 215.876961 182.852712 
L 215.876961 181.402118 
L 217.944804 181.402118 
L 217.944804 180.557736 
L 220.012647 180.557736 
L 220.012647 179.735994 
L 222.08049 179.735994 
L 222.08049 178.891612 
L 224.148333 178.891612 
L 224.148333 178.009581 
L 226.216176 178.009581 
L 226.216176 177.165199 
L 228.28402 177.165199 
L 228.28402 176.343456 
L 230.351863 176.343456 
L 230.351863 175.499074 
L 232.419706 175.499074 
L 232.419706 174.60424 
L 234.487549 174.60424 
L 234.487549 173.759858 
L 236.555392 173.759858 
L 236.555392 172.938116 
L 238.623235 172.938116 
L 238.623235 172.093734 
L 240.691078 172.093734 
L 240.691078 171.211703 
L 242.758922 171.211703 
L 242.758922 170.367321 
L 244.826765 170.367321 
L 244.826765 169.545579 
L 246.894608 169.545579 
L 246.894608 168.701197 
L 248.962451 168.701197 
L 248.962451 168.195834 
L 251.030294 168.195834 
L 251.030294 167.351452 
L 253.098137 167.351452 
L 253.098137 166.52971 
L 255.16598 166.52971 
L 255.16598 165.685328 
L 257.233824 165.685328 
L 257.233824 164.803297 
L 259.301667 164.803297 
L 259.301667 163.958915 
L 261.36951 163.958915 
L 261.36951 163.137173 
L 263.437353 163.137173 
L 263.437353 162.292791 
L 265.505196 162.292791 
L 265.505196 161.397957 
L 267.573039 161.397957 
L 267.573039 160.553575 
L 269.640882 160.553575 
L 269.640882 159.731832 
L 271.708725 159.731832 
L 271.708725 158.88745 
L 273.776569 158.88745 
L 273.776569 158.00542 
L 275.844412 158.00542 
L 275.844412 157.161037 
L 277.912255 157.161037 
L 277.912255 156.339295 
L 279.980098 156.339295 
L 279.980098 155.494913 
L 282.047941 155.494913 
L 282.047941 154.814761 
L 284.115784 154.814761 
L 284.115784 153.970379 
L 286.183627 153.970379 
L 286.183627 153.148637 
L 288.251471 153.148637 
L 288.251471 152.304255 
L 290.319314 152.304255 
L 290.319314 151.422224 
L 292.387157 151.422224 
L 292.387157 150.577842 
L 294.455 150.577842 
L 294.455 149.7561 
L 296.522843 149.7561 
L 296.522843 148.911718 
L 298.590686 148.911718 
L 298.590686 148.016883 
L 300.658529 148.016883 
L 300.658529 147.172501 
L 302.726373 147.172501 
L 302.726373 146.350759 
L 304.794216 146.350759 
L 304.794216 145.506377 
L 306.862059 145.506377 
L 306.862059 144.624346 
L 308.929902 144.624346 
L 308.929902 143.779964 
L 310.997745 143.779964 
L 310.997745 142.958222 
L 313.065588 142.958222 
L 313.065588 142.11384 
L 315.133431 142.11384 
L 315.133431 141.608478 
L 317.201275 141.608478 
L 317.201275 140.764095 
L 319.269118 140.764095 
L 319.269118 139.942353 
L 321.336961 139.942353 
L 321.336961 139.097971 
L 323.404804 139.097971 
L 323.404804 138.21594 
L 325.472647 138.21594 
L 325.472647 137.371558 
L 327.54049 137.371558 
L 327.54049 136.549816 
L 329.608333 136.549816 
L 329.608333 135.705434 
L 331.676176 135.705434 
L 331.676176 134.8106 
L 333.74402 134.8106 
L 333.74402 133.966218 
L 335.811863 133.966218 
L 335.811863 133.144476 
L 337.879706 133.144476 
L 337.879706 132.300094 
L 339.947549 132.300094 
L 339.947549 131.418063 
L 342.015392 131.418063 
L 342.015392 130.573681 
L 344.083235 130.573681 
L 344.083235 129.751939 
L 346.151078 129.751939 
L 346.151078 128.907557 
L 348.218922 128.907557 
L 348.218922 127.935474 
L 350.286765 127.935474 
L 350.286765 127.091092 
L 352.354608 127.091092 
L 352.354608 126.269349 
L 354.422451 126.269349 
L 354.422451 125.424967 
L 356.490294 125.424967 
L 356.490294 124.542936 
L 358.558137 124.542936 
L 358.558137 123.698554 
L 360.62598 123.698554 
L 360.62598 122.876812 
L 362.693824 122.876812 
L 362.693824 122.03243 
L 364.761667 122.03243 
L 364.761667 121.137596 
L 366.82951 121.137596 
L 366.82951 120.293214 
L 368.897353 120.293214 
L 368.897353 119.471472 
L 370.965196 119.471472 
L 370.965196 118.62709 
L 373.033039 118.62709 
L 373.033039 117.745059 
L 375.100882 117.745059 
L 375.100882 116.900677 
L 377.168725 116.900677 
L 377.168725 116.078935 
L 379.236569 116.078935 
L 379.236569 115.234553 
L 381.304412 115.234553 
L 381.304412 114.72919 
L 383.372255 114.72919 
L 383.372255 113.884808 
L 385.440098 113.884808 
L 385.440098 113.063066 
L 387.507941 113.063066 
L 387.507941 112.218684 
L 389.575784 112.218684 
L 389.575784 111.336653 
L 391.643627 111.336653 
L 391.643627 110.492271 
L 393.711471 110.492271 
L 393.711471 109.670529 
L 395.779314 109.670529 
L 395.779314 108.826147 
L 397.847157 108.826147 
L 397.847157 107.931312 
L 399.915 107.931312 
L 399.915 107.08693 
L 401.982843 107.08693 
L 401.982843 106.265188 
L 404.050686 106.265188 
L 404.050686 105.420806 
L 406.118529 105.420806 
L 406.118529 104.538775 
L 408.186373 104.538775 
L 408.186373 103.694393 
L 410.254216 103.694393 
L 410.254216 102.872651 
L 412.322059 102.872651 
L 412.322059 102.028269 
L 414.389902 102.028269 
L 414.389902 101.348117 
L 416.457745 101.348117 
L 416.457745 100.503735 
L 418.525588 100.503735 
L 418.525588 99.681993 
L 420.593431 99.681993 
L 420.593431 98.837611 
L 422.661275 98.837611 
L 422.661275 97.95558 
L 424.729118 97.95558 
L 424.729118 97.111198 
L 426.796961 97.111198 
L 426.796961 96.289456 
L 428.864804 96.289456 
L 428.864804 95.445073 
L 430.932647 95.445073 
L 430.932647 94.550239 
L 433.00049 94.550239 
L 433.00049 93.705857 
L 435.068333 93.705857 
L 435.068333 92.884115 
L 437.136176 92.884115 
L 437.136176 92.039733 
L 439.20402 92.039733 
L 439.20402 91.157702 
L 441.271863 91.157702 
L 441.271863 90.31332 
L 443.339706 90.31332 
L 443.339706 89.491578 
L 445.407549 89.491578 
L 445.407549 88.647196 
L 447.475392 88.647196 
L 447.475392 88.141833 
L 449.543235 88.141833 
L 449.543235 87.297451 
L 451.611078 87.297451 
L 451.611078 86.475709 
L 453.678922 86.475709 
L 453.678922 85.631327 
L 455.746765 85.631327 
L 455.746765 84.749296 
L 457.814608 84.749296 
L 457.814608 83.904914 
L 459.882451 83.904914 
L 459.882451 83.083172 
L 461.950294 83.083172 
L 461.950294 82.23879 
L 464.018137 82.23879 
L 464.018137 81.343956 
L 466.08598 81.343956 
L 466.08598 80.499574 
L 468.153824 80.499574 
L 468.153824 79.677832 
L 470.221667 79.677832 
L 470.221667 78.83345 
L 472.28951 78.83345 
L 472.28951 77.951419 
L 474.357353 77.951419 
L 474.357353 77.107037 
L 476.425196 77.107037 
L 476.425196 76.285294 
L 478.493039 76.285294 
L 478.493039 75.440912 
L 480.560882 75.440912 
L 480.560882 73.990319 
L 482.628725 73.990319 
L 482.628725 73.145937 
L 484.696569 73.145937 
L 484.696569 72.324194 
L 486.764412 72.324194 
L 486.764412 71.479812 
L 488.832255 71.479812 
L 488.832255 70.597781 
L 490.900098 70.597781 
L 490.900098 69.753399 
L 492.967941 69.753399 
L 492.967941 68.931657 
L 495.035784 68.931657 
L 495.035784 68.087275 
L 497.103627 68.087275 
L 497.103627 67.192441 
L 499.171471 67.192441 
L 499.171471 66.348059 
L 501.239314 66.348059 
L 501.239314 65.526317 
L 503.307157 65.526317 
L 503.307157 64.681935 
L 505.375 64.681935 
L 505.375 63.799904 
L 507.442843 63.799904 
L 507.442843 62.955522 
L 509.510686 62.955522 
L 509.510686 62.13378 
L 511.578529 62.13378 
L 511.578529 61.289398 
L 513.646373 61.289398 
L 513.646373 60.784035 
L 515.714216 60.784035 
L 515.714216 59.939653 
L 517.782059 59.939653 
L 517.782059 59.117911 
L 519.849902 59.117911 
L 519.849902 58.273529 
L 521.917745 58.273529 
L 521.917745 57.391498 
L 523.985588 57.391498 
L 523.985588 56.547116 
L 526.053431 56.547116 
L 526.053431 55.725374 
L 528.121275 55.725374 
L 528.121275 54.880992 
L 530.189118 54.880992 
L 530.189118 53.986158 
L 532.256961 53.986158 
L 532.256961 53.141776 
L 534.324804 53.141776 
L 534.324804 52.320033 
L 536.392647 52.320033 
L 536.392647 51.475651 
L 538.46049 51.475651 
L 538.46049 50.59362 
L 540.528333 50.59362 
L 540.528333 49.749238 
L 542.596176 49.749238 
L 542.596176 48.927496 
L 544.66402 48.927496 
L 544.66402 48.083114 
L 546.731863 48.083114 
L 546.731863 47.402962 
L 548.799706 47.402962 
L 548.799706 46.55858 
L 550.867549 46.55858 
L 550.867549 45.736838 
L 552.935392 45.736838 
L 552.935392 44.892456 
L 555.003235 44.892456 
L 555.003235 44.010425 
L 557.071078 44.010425 
L 557.071078 43.166043 
L 559.138922 43.166043 
L 559.138922 42.344301 
L 561.206765 42.344301 
L 561.206765 41.499919 
L 563.274608 41.499919 
L 563.274608 40.605084 
L 565.342451 40.605084 
L 565.342451 39.760702 
L 567.410294 39.760702 
L 567.410294 38.93896 
L 569.478137 38.93896 
L 569.478137 38.094578 
L 571.54598 38.094578 
L 571.54598 37.212547 
L 573.613824 37.212547 
L 573.613824 36.368165 
L 575.681667 36.368165 
L 575.681667 35.546423 
L 577.74951 35.546423 
L 577.74951 34.702041 
L 579.817353 34.702041 
L 579.817353 34.196678 
L 581.885196 34.196678 
L 581.885196 33.352296 
L 583.953039 33.352296 
L 583.953039 32.530554 
L 586.020882 32.530554 
L 586.020882 31.686172 
L 588.088725 31.686172 
L 588.088725 30.804141 
L 590.156569 30.804141 
L 590.156569 29.959759 
L 592.224412 29.959759 
L 592.224412 29.138017 
L 594.292255 29.138017 
L 594.292255 28.293635 
L 596.360098 28.293635 
L 596.360098 27.398801 
L 598.427941 27.398801 
L 598.427941 26.554419 
L 600.495784 26.554419 
L 600.495784 25.732677 
L 602.563627 25.732677 
L 602.563627 24.888295 
L 604.631471 24.888295 
L 604.631471 24.006264 
L 606.699314 24.006264 
L 606.699314 23.161882 
L 608.767157 23.161882 
L 608.767157 22.340139 
L 610.835 22.340139 
L 610.835 21.495757 
L 610.835 21.495757 
" clip-path="url(#pe6f646c7e4)" style="fill: none; stroke: #ff8c00; stroke-opacity: 0.85; stroke-linecap: square"/>
   </g>
   <g id="line2d_27">
    <path d="M 83.535 235.347273 
L 610.835 21.492727 
L 610.835 21.492727 
" clip-path="url(#pe6f646c7e4)" style="fill: none; stroke-dasharray: 2.96,1.28; stroke-dashoffset: 0; stroke: #ff6347; stroke-width: 0.8"/>
   </g>
   <g id="patch_3">
    <path d="M 57.17 246.04 
L 57.17 10.8 
" style="fill: none; stroke: #000000; stroke-width: 0.8; stroke-linejoin: miter; stroke-linecap: square"/>
   </g>
   <g id="patch_4">
    <path d="M 637.2 246.04 
L 637.2 10.8 
" style="fill: none; stroke: #000000; stroke-width: 0.8; stroke-linejoin: miter; stroke-linecap: square"/>
   </g>
   <g id="patch_5">
    <path d="M 57.17 246.04 
L 637.2 246.04 
" style="fill: none; stroke: #000000; stroke-width: 0.8; stroke-linejoin: miter; stroke-linecap: square"/>
   </g>
   <g id="patch_6">
    <path d="M 57.17 10.8 
L 637.2 10.8 
" style="fill: none; stroke: #000000; stroke-width: 0.8; stroke-linejoin: miter; stroke-linecap: square"/>
   </g>
   <g id="patch_7">
    <path d="M 373.033039 118.356257 
L 393.711471 118.356257 
L 393.711471 109.131159 
L 373.033039 109.131159 
L 373.033039 118.356257 
z
" clip-path="url(#pe6f646c7e4)" style="fill: none; stroke-dasharray: 3.7,1.6; stroke-dashoffset: 0; stroke: #000000; stroke-linejoin: miter"/>
   </g>
   <g id="patch_8">
    <path d="M 384.901363 110.419411 
Q 408.779817 130.536686 431.974242 150.077675 
" style="fill: none; stroke: #000000; stroke-width: 0.8; stroke-linecap: round"/>
    <path d="M 430.203784 145.970915 
L 431.974242 150.077675 
L 427.626559 149.029985 
" style="fill: none; stroke: #000000; stroke-width: 0.8; stroke-linecap: round"/>
   </g>
   <g id="axes_2">
    <g id="patch_9">
     <path d="M 463.191 210.754 
L 579.197 210.754 
L 579.197 93.134 
L 463.191 93.134 
z
" style="fill: #ffffff"/>
    </g>
    <g id="matplotlib.axis_3">
     <g id="xtick_7">
      <g id="line2d_28">
       <path d="M 463.191 210.754 
L 463.191 93.134 
" clip-path="url(#p23bd9e994a)" style="fill: none; stroke: #b0b0b0; stroke-width: 0.25; stroke-linecap: square"/>
      </g>
      <g id="line2d_29">
       <g>
        <use xlink:href="#mf29a25a5bc" x="463.191" y="210.754" style="stroke: #000000; stroke-width: 0.8"/>
       </g>
      </g>
      <g id="text_15">
       <!-- 140 -->
       <g transform="translate(458.419125 221.553219) scale(0.05 -0.05)">
        <use xlink:href="#DejaVuSans-31"/>
        <use xlink:href="#DejaVuSans-34" transform="translate(63.623047 0)"/>
        <use xlink:href="#DejaVuSans-30" transform="translate(127.246094 0)"/>
       </g>
      </g>
     </g>
     <g id="xtick_8">
      <g id="line2d_30">
       <path d="M 486.3922 210.754 
L 486.3922 93.134 
" clip-path="url(#p23bd9e994a)" style="fill: none; stroke: #b0b0b0; stroke-width: 0.25; stroke-linecap: square"/>
      </g>
      <g id="line2d_31">
       <g>
        <use xlink:href="#mf29a25a5bc" x="486.3922" y="210.754" style="stroke: #000000; stroke-width: 0.8"/>
       </g>
      </g>
      <g id="text_16">
       <!-- 142 -->
       <g transform="translate(481.620325 221.553219) scale(0.05 -0.05)">
        <use xlink:href="#DejaVuSans-31"/>
        <use xlink:href="#DejaVuSans-34" transform="translate(63.623047 0)"/>
        <use xlink:href="#DejaVuSans-32" transform="translate(127.246094 0)"/>
       </g>
      </g>
     </g>
     <g id="xtick_9">
      <g id="line2d_32">
       <path d="M 509.5934 210.754 
L 509.5934 93.134 
" clip-path="url(#p23bd9e994a)" style="fill: none; stroke: #b0b0b0; stroke-width: 0.25; stroke-linecap: square"/>
      </g>
      <g id="line2d_33">
       <g>
        <use xlink:href="#mf29a25a5bc" x="509.5934" y="210.754" style="stroke: #000000; stroke-width: 0.8"/>
       </g>
      </g>
      <g id="text_17">
       <!-- 144 -->
       <g transform="translate(504.821525 221.553219) scale(0.05 -0.05)">
        <use xlink:href="#DejaVuSans-31"/>
        <use xlink:href="#DejaVuSans-34" transform="translate(63.623047 0)"/>
        <use xlink:href="#DejaVuSans-34" transform="translate(127.246094 0)"/>
       </g>
      </g>
     </g>
     <g id="xtick_10">
      <g id="line2d_34">
       <path d="M 532.7946 210.754 
L 532.7946 93.134 
" clip-path="url(#p23bd9e994a)" style="fill: none; stroke: #b0b0b0; stroke-width: 0.25; stroke-linecap: square"/>
      </g>
      <g id="line2d_35">
       <g>
        <use xlink:href="#mf29a25a5bc" x="532.7946" y="210.754" style="stroke: #000000; stroke-width: 0.8"/>
       </g>
      </g>
      <g id="text_18">
       <!-- 146 -->
       <g transform="translate(528.022725 221.553219) scale(0.05 -0.05)">
        <use xlink:href="#DejaVuSans-31"/>
        <use xlink:href="#DejaVuSans-34" transform="translate(63.623047 0)"/>
        <use xlink:href="#DejaVuSans-36" transform="translate(127.246094 0)"/>
       </g>
      </g>
     </g>
     <g id="xtick_11">
      <g id="line2d_36">
       <path d="M 555.9958 210.754 
L 555.9958 93.134 
" clip-path="url(#p23bd9e994a)" style="fill: none; stroke: #b0b0b0; stroke-width: 0.25; stroke-linecap: square"/>
      </g>
      <g id="line2d_37">
       <g>
        <use xlink:href="#mf29a25a5bc" x="555.9958" y="210.754" style="stroke: #000000; stroke-width: 0.8"/>
       </g>
      </g>
      <g id="text_19">
       <!-- 148 -->
       <g transform="translate(551.223925 221.553219) scale(0.05 -0.05)">
        <use xlink:href="#DejaVuSans-31"/>
        <use xlink:href="#DejaVuSans-34" transform="translate(63.623047 0)"/>
        <use xlink:href="#DejaVuSans-38" transform="translate(127.246094 0)"/>
       </g>
      </g>
     </g>
     <g id="xtick_12">
      <g id="line2d_38">
       <path d="M 579.197 210.754 
L 579.197 93.134 
" clip-path="url(#p23bd9e994a)" style="fill: none; stroke: #b0b0b0; stroke-width: 0.25; stroke-linecap: square"/>
      </g>
      <g id="line2d_39">
       <g>
        <use xlink:href="#mf29a25a5bc" x="579.197" y="210.754" style="stroke: #000000; stroke-width: 0.8"/>
       </g>
      </g>
      <g id="text_20">
       <!-- 150 -->
       <g transform="translate(574.425125 221.553219) scale(0.05 -0.05)">
        <use xlink:href="#DejaVuSans-31"/>
        <use xlink:href="#DejaVuSans-35" transform="translate(63.623047 0)"/>
        <use xlink:href="#DejaVuSans-30" transform="translate(127.246094 0)"/>
       </g>
      </g>
     </g>
     <g id="text_21">
      <!-- Code -->
      <g transform="translate(513.513062 231.152125) scale(0.06 -0.06)">
       <defs>
        <path id="DejaVuSans-43" d="M 4122 4306 
L 4122 3641 
Q 3803 3938 3442 4084 
Q 3081 4231 2675 4231 
Q 1875 4231 1450 3742 
Q 1025 3253 1025 2328 
Q 1025 1406 1450 917 
Q 1875 428 2675 428 
Q 3081 428 3442 575 
Q 3803 722 4122 1019 
L 4122 359 
Q 3791 134 3420 21 
Q 3050 -91 2638 -91 
Q 1578 -91 968 557 
Q 359 1206 359 2328 
Q 359 3453 968 4101 
Q 1578 4750 2638 4750 
Q 3056 4750 3426 4639 
Q 3797 4528 4122 4306 
z
" transform="scale(0.015625)"/>
       </defs>
       <use xlink:href="#DejaVuSans-43"/>
       <use xlink:href="#DejaVuSans-6f" transform="translate(69.824219 0)"/>
       <use xlink:href="#DejaVuSans-64" transform="translate(131.005859 0)"/>
       <use xlink:href="#DejaVuSans-65" transform="translate(194.482422 0)"/>
      </g>
     </g>
    </g>
    <g id="matplotlib.axis_4">
     <g id="ytick_7">
      <g id="line2d_40">
       <path d="M 463.191 210.540145 
L 579.197 210.540145 
" clip-path="url(#p23bd9e994a)" style="fill: none; stroke: #b0b0b0; stroke-width: 0.25; stroke-linecap: square"/>
      </g>
      <g id="line2d_41">
       <g>
        <use xlink:href="#m20cdcaea71" x="463.191" y="210.540145" style="stroke: #000000; stroke-width: 0.8"/>
       </g>
      </g>
      <g id="text_22">
       <!-- 545 -->
       <g transform="translate(446.64725 212.439755) scale(0.05 -0.05)">
        <use xlink:href="#DejaVuSans-35"/>
        <use xlink:href="#DejaVuSans-34" transform="translate(63.623047 0)"/>
        <use xlink:href="#DejaVuSans-35" transform="translate(127.246094 0)"/>
       </g>
      </g>
     </g>
     <g id="ytick_8">
      <g id="line2d_42">
       <path d="M 463.191 196.853455 
L 579.197 196.853455 
" clip-path="url(#p23bd9e994a)" style="fill: none; stroke: #b0b0b0; stroke-width: 0.25; stroke-linecap: square"/>
      </g>
      <g id="line2d_43">
       <g>
        <use xlink:href="#m20cdcaea71" x="463.191" y="196.853455" style="stroke: #000000; stroke-width: 0.8"/>
       </g>
      </g>
      <g id="text_23">
       <!-- 550 -->
       <g transform="translate(446.64725 198.753064) scale(0.05 -0.05)">
        <use xlink:href="#DejaVuSans-35"/>
        <use xlink:href="#DejaVuSans-35" transform="translate(63.623047 0)"/>
        <use xlink:href="#DejaVuSans-30" transform="translate(127.246094 0)"/>
       </g>
      </g>
     </g>
     <g id="ytick_9">
      <g id="line2d_44">
       <path d="M 463.191 183.166764 
L 579.197 183.166764 
" clip-path="url(#p23bd9e994a)" style="fill: none; stroke: #b0b0b0; stroke-width: 0.25; stroke-linecap: square"/>
      </g>
      <g id="line2d_45">
       <g>
        <use xlink:href="#m20cdcaea71" x="463.191" y="183.166764" style="stroke: #000000; stroke-width: 0.8"/>
       </g>
      </g>
      <g id="text_24">
       <!-- 555 -->
       <g transform="translate(446.64725 185.066373) scale(0.05 -0.05)">
        <use xlink:href="#DejaVuSans-35"/>
        <use xlink:href="#DejaVuSans-35" transform="translate(63.623047 0)"/>
        <use xlink:href="#DejaVuSans-35" transform="translate(127.246094 0)"/>
       </g>
      </g>
     </g>
     <g id="ytick_10">
      <g id="line2d_46">
       <path d="M 463.191 169.480073 
L 579.197 169.480073 
" clip-path="url(#p23bd9e994a)" style="fill: none; stroke: #b0b0b0; stroke-width: 0.25; stroke-linecap: square"/>
      </g>
      <g id="line2d_47">
       <g>
        <use xlink:href="#m20cdcaea71" x="463.191" y="169.480073" style="stroke: #000000; stroke-width: 0.8"/>
       </g>
      </g>
      <g id="text_25">
       <!-- 560 -->
       <g transform="translate(446.64725 171.379682) scale(0.05 -0.05)">
        <use xlink:href="#DejaVuSans-35"/>
        <use xlink:href="#DejaVuSans-36" transform="translate(63.623047 0)"/>
        <use xlink:href="#DejaVuSans-30" transform="translate(127.246094 0)"/>
       </g>
      </g>
     </g>
     <g id="ytick_11">
      <g id="line2d_48">
       <path d="M 463.191 155.793382 
L 579.197 155.793382 
" clip-path="url(#p23bd9e994a)" style="fill: none; stroke: #b0b0b0; stroke-width: 0.25; stroke-linecap: square"/>
      </g>
      <g id="line2d_49">
       <g>
        <use xlink:href="#m20cdcaea71" x="463.191" y="155.793382" style="stroke: #000000; stroke-width: 0.8"/>
       </g>
      </g>
      <g id="text_26">
       <!-- 565 -->
       <g transform="translate(446.64725 157.692991) scale(0.05 -0.05)">
        <use xlink:href="#DejaVuSans-35"/>
        <use xlink:href="#DejaVuSans-36" transform="translate(63.623047 0)"/>
        <use xlink:href="#DejaVuSans-35" transform="translate(127.246094 0)"/>
       </g>
      </g>
     </g>
     <g id="ytick_12">
      <g id="line2d_50">
       <path d="M 463.191 142.106691 
L 579.197 142.106691 
" clip-path="url(#p23bd9e994a)" style="fill: none; stroke: #b0b0b0; stroke-width: 0.25; stroke-linecap: square"/>
      </g>
      <g id="line2d_51">
       <g>
        <use xlink:href="#m20cdcaea71" x="463.191" y="142.106691" style="stroke: #000000; stroke-width: 0.8"/>
       </g>
      </g>
      <g id="text_27">
       <!-- 570 -->
       <g transform="translate(446.64725 144.0063) scale(0.05 -0.05)">
        <defs>
         <path id="DejaVuSans-37" d="M 525 4666 
L 3525 4666 
L 3525 4397 
L 1831 0 
L 1172 0 
L 2766 4134 
L 525 4134 
L 525 4666 
z
" transform="scale(0.015625)"/>
        </defs>
        <use xlink:href="#DejaVuSans-35"/>
        <use xlink:href="#DejaVuSans-37" transform="translate(63.623047 0)"/>
        <use xlink:href="#DejaVuSans-30" transform="translate(127.246094 0)"/>
       </g>
      </g>
     </g>
     <g id="ytick_13">
      <g id="line2d_52">
       <path d="M 463.191 128.42 
L 579.197 128.42 
" clip-path="url(#p23bd9e994a)" style="fill: none; stroke: #b0b0b0; stroke-width: 0.25; stroke-linecap: square"/>
      </g>
      <g id="line2d_53">
       <g>
        <use xlink:href="#m20cdcaea71" x="463.191" y="128.42" style="stroke: #000000; stroke-width: 0.8"/>
       </g>
      </g>
      <g id="text_28">
       <!-- 575 -->
       <g transform="translate(446.64725 130.319609) scale(0.05 -0.05)">
        <use xlink:href="#DejaVuSans-35"/>
        <use xlink:href="#DejaVuSans-37" transform="translate(63.623047 0)"/>
        <use xlink:href="#DejaVuSans-35" transform="translate(127.246094 0)"/>
       </g>
      </g>
     </g>
     <g id="ytick_14">
      <g id="line2d_54">
       <path d="M 463.191 114.733309 
L 579.197 114.733309 
" clip-path="url(#p23bd9e994a)" style="fill: none; stroke: #b0b0b0; stroke-width: 0.25; stroke-linecap: square"/>
      </g>
      <g id="line2d_55">
       <g>
        <use xlink:href="#m20cdcaea71" x="463.191" y="114.733309" style="stroke: #000000; stroke-width: 0.8"/>
       </g>
      </g>
      <g id="text_29">
       <!-- 580 -->
       <g transform="translate(446.64725 116.632918) scale(0.05 -0.05)">
        <use xlink:href="#DejaVuSans-35"/>
        <use xlink:href="#DejaVuSans-38" transform="translate(63.623047 0)"/>
        <use xlink:href="#DejaVuSans-30" transform="translate(127.246094 0)"/>
       </g>
      </g>
     </g>
     <g id="ytick_15">
      <g id="line2d_56">
       <path d="M 463.191 101.046618 
L 579.197 101.046618 
" clip-path="url(#p23bd9e994a)" style="fill: none; stroke: #b0b0b0; stroke-width: 0.25; stroke-linecap: square"/>
      </g>
      <g id="line2d_57">
       <g>
        <use xlink:href="#m20cdcaea71" x="463.191" y="101.046618" style="stroke: #000000; stroke-width: 0.8"/>
       </g>
      </g>
      <g id="text_30">
       <!-- 585 -->
       <g transform="translate(446.64725 102.946228) scale(0.05 -0.05)">
        <use xlink:href="#DejaVuSans-35"/>
        <use xlink:href="#DejaVuSans-38" transform="translate(63.623047 0)"/>
        <use xlink:href="#DejaVuSans-35" transform="translate(127.246094 0)"/>
       </g>
      </g>
     </g>
     <g id="text_31">
      <!-- mV -->
      <g transform="translate(441.399437 156.918375) rotate(-90) scale(0.06 -0.06)">
       <use xlink:href="#DejaVuSans-6d"/>
       <use xlink:href="#DejaVuSans-56" transform="translate(97.412109 0)"/>
      </g>
     </g>
    </g>
    <g id="line2d_58">
     <path d="M 463.191 205.407636 
L 474.7916 205.407636 
L 474.7916 194.714909 
L 486.3922 194.714909 
L 486.3922 184.022182 
L 497.9928 184.022182 
L 497.9928 173.329455 
L 509.5934 173.329455 
L 509.5934 162.636727 
L 521.194 162.636727 
L 521.194 151.944 
L 532.7946 151.944 
L 532.7946 141.251273 
L 544.3952 141.251273 
L 544.3952 130.558545 
L 555.9958 130.558545 
L 555.9958 119.865818 
L 567.5964 119.865818 
L 567.5964 109.173091 
L 579.197 109.173091 
L 579.197 98.480364 
" clip-path="url(#p23bd9e994a)" style="fill: none; stroke: #ff8c00; stroke-opacity: 0.85; stroke-linecap: square"/>
    </g>
    <g id="line2d_59">
     <path d="M 463.191 202.961228 
L 474.7916 202.961228 
L 474.7916 192.195357 
L 486.3922 192.195357 
L 486.3922 181.718144 
L 497.9928 181.718144 
L 497.9928 170.952273 
L 509.5934 170.952273 
L 509.5934 164.508901 
L 521.194 164.508901 
L 521.194 153.74303 
L 532.7946 153.74303 
L 532.7946 143.265817 
L 544.3952 143.265817 
L 544.3952 132.499946 
L 555.9958 132.499946 
L 555.9958 121.254052 
L 567.5964 121.254052 
L 567.5964 110.488181 
L 579.197 110.488181 
L 579.197 100.010968 
" clip-path="url(#p23bd9e994a)" style="fill: none; stroke: #4682b4; stroke-opacity: 0.85; stroke-linecap: square"/>
    </g>
    <g id="line2d_60">
     <path d="M 463.191 205.407636 
L 474.7916 194.714909 
L 486.3922 184.022182 
L 497.9928 173.329455 
L 509.5934 162.636727 
L 521.194 151.944 
L 532.7946 141.251273 
L 544.3952 130.558545 
L 555.9958 119.865818 
L 567.5964 109.173091 
L 579.197 98.480364 
" clip-path="url(#p23bd9e994a)" style="fill: none; stroke-dasharray: 2.96,1.28; stroke-dashoffset: 0; stroke: #ff6347; stroke-width: 0.8"/>
    </g>
    <g id="patch_10">
     <path d="M 463.191 210.754 
L 463.191 93.134 
" style="fill: none; stroke: #000000; stroke-width: 0.8; stroke-linejoin: miter; stroke-linecap: square"/>
    </g>
    <g id="patch_11">
     <path d="M 579.197 210.754 
L 579.197 93.134 
" style="fill: none; stroke: #000000; stroke-width: 0.8; stroke-linejoin: miter; stroke-linecap: square"/>
    </g>
    <g id="patch_12">
     <path d="M 463.191 210.754 
L 579.197 210.754 
" style="fill: none; stroke: #000000; stroke-width: 0.8; stroke-linejoin: miter; stroke-linecap: square"/>
    </g>
    <g id="patch_13">
     <path d="M 463.191 93.134 
L 579.197 93.134 
" style="fill: none; stroke: #000000; stroke-width: 0.8; stroke-linejoin: miter; stroke-linecap: square"/>
    </g>
   </g>
   <g id="legend_1">
    <g id="patch_14">
     <path d="M 62.77 52.4275 
L 207.99875 52.4275 
Q 209.59875 52.4275 209.59875 50.8275 
L 209.59875 16.4 
Q 209.59875 14.8 207.99875 14.8 
L 62.77 14.8 
Q 61.17 14.8 61.17 16.4 
L 61.17 50.8275 
Q 61.17 52.4275 62.77 52.4275 
z
" style="fill: #ffffff; opacity: 0.8; stroke: #cccccc; stroke-linejoin: miter"/>
    </g>
    <g id="line2d_61">
     <path d="M 64.37 21.27875 
L 72.37 21.27875 
L 72.37 21.27875 
L 80.37 21.27875 
L 80.37 21.27875 
" style="fill: none; stroke: #4682b4; stroke-opacity: 0.85; stroke-linecap: square"/>
    </g>
    <g id="text_32">
     <!-- Ideal CDAC output -->
     <g transform="translate(86.77 24.07875) scale(0.08 -0.08)">
      <defs>
       <path id="DejaVuSans-49" d="M 628 4666 
L 1259 4666 
L 1259 0 
L 628 0 
L 628 4666 
z
" transform="scale(0.015625)"/>
       <path id="DejaVuSans-41" d="M 2188 4044 
L 1331 1722 
L 3047 1722 
L 2188 4044 
z
M 1831 4666 
L 2547 4666 
L 4325 0 
L 3669 0 
L 3244 1197 
L 1141 1197 
L 716 0 
L 50 0 
L 1831 4666 
z
" transform="scale(0.015625)"/>
      </defs>
      <use xlink:href="#DejaVuSans-49"/>
      <use xlink:href="#DejaVuSans-64" transform="translate(29.492188 0)"/>
      <use xlink:href="#DejaVuSans-65" transform="translate(92.96875 0)"/>
      <use xlink:href="#DejaVuSans-61" transform="translate(154.492188 0)"/>
      <use xlink:href="#DejaVuSans-6c" transform="translate(215.771484 0)"/>
      <use xlink:href="#DejaVuSans-20" transform="translate(243.554688 0)"/>
      <use xlink:href="#DejaVuSans-43" transform="translate(275.341797 0)"/>
      <use xlink:href="#DejaVuSans-44" transform="translate(345.166016 0)"/>
      <use xlink:href="#DejaVuSans-41" transform="translate(420.417969 0)"/>
      <use xlink:href="#DejaVuSans-43" transform="translate(487.076172 0)"/>
      <use xlink:href="#DejaVuSans-20" transform="translate(556.900391 0)"/>
      <use xlink:href="#DejaVuSans-6f" transform="translate(588.6875 0)"/>
      <use xlink:href="#DejaVuSans-75" transform="translate(649.869141 0)"/>
      <use xlink:href="#DejaVuSans-74" transform="translate(713.248047 0)"/>
      <use xlink:href="#DejaVuSans-70" transform="translate(752.457031 0)"/>
      <use xlink:href="#DejaVuSans-75" transform="translate(815.933594 0)"/>
      <use xlink:href="#DejaVuSans-74" transform="translate(879.3125 0)"/>
     </g>
    </g>
    <g id="line2d_62">
     <path d="M 64.37 33.02125 
L 72.37 33.02125 
L 72.37 33.02125 
L 80.37 33.02125 
L 80.37 33.02125 
" style="fill: none; stroke: #ff8c00; stroke-opacity: 0.85; stroke-linecap: square"/>
    </g>
    <g id="text_33">
     <!-- Mismatched CDAC  (σ=1.0 %) -->
     <g transform="translate(86.77 35.82125) scale(0.08 -0.08)">
      <defs>
       <path id="DejaVuSans-4d" d="M 628 4666 
L 1569 4666 
L 2759 1491 
L 3956 4666 
L 4897 4666 
L 4897 0 
L 4281 0 
L 4281 4097 
L 3078 897 
L 2444 897 
L 1241 4097 
L 1241 0 
L 628 0 
L 628 4666 
z
" transform="scale(0.015625)"/>
       <path id="DejaVuSans-73" d="M 2834 3397 
L 2834 2853 
Q 2591 2978 2328 3040 
Q 2066 3103 1784 3103 
Q 1356 3103 1142 2972 
Q 928 2841 928 2578 
Q 928 2378 1081 2264 
Q 1234 2150 1697 2047 
L 1894 2003 
Q 2506 1872 2764 1633 
Q 3022 1394 3022 966 
Q 3022 478 2636 193 
Q 2250 -91 1575 -91 
Q 1294 -91 989 -36 
Q 684 19 347 128 
L 347 722 
Q 666 556 975 473 
Q 1284 391 1588 391 
Q 1994 391 2212 530 
Q 2431 669 2431 922 
Q 2431 1156 2273 1281 
Q 2116 1406 1581 1522 
L 1381 1569 
Q 847 1681 609 1914 
Q 372 2147 372 2553 
Q 372 3047 722 3315 
Q 1072 3584 1716 3584 
Q 2034 3584 2315 3537 
Q 2597 3491 2834 3397 
z
" transform="scale(0.015625)"/>
       <path id="DejaVuSans-68" d="M 3513 2113 
L 3513 0 
L 2938 0 
L 2938 2094 
Q 2938 2591 2744 2837 
Q 2550 3084 2163 3084 
Q 1697 3084 1428 2787 
Q 1159 2491 1159 1978 
L 1159 0 
L 581 0 
L 581 4863 
L 1159 4863 
L 1159 2956 
Q 1366 3272 1645 3428 
Q 1925 3584 2291 3584 
Q 2894 3584 3203 3211 
Q 3513 2838 3513 2113 
z
" transform="scale(0.015625)"/>
       <path id="DejaVuSans-3c3" d="M 1959 3044 
Q 1484 3044 1228 2700 
Q 959 2341 959 1747 
Q 959 1119 1226 758 
Q 1494 397 1959 397 
Q 2419 397 2687 759 
Q 2956 1122 2956 1747 
Q 2956 2319 2688 2700 
Q 2441 3044 1959 3044 
z
M 1959 3500 
L 3869 3500 
L 3869 2925 
L 3225 2925 
Q 3566 2438 3566 1747 
Q 3566 888 3138 400 
Q 2709 -91 1959 -91 
Q 1206 -91 781 400 
Q 353 888 353 1747 
Q 353 2613 781 3097 
Q 1134 3500 1959 3500 
z
" transform="scale(0.015625)"/>
       <path id="DejaVuSans-3d" d="M 678 2906 
L 4684 2906 
L 4684 2381 
L 678 2381 
L 678 2906 
z
M 678 1631 
L 4684 1631 
L 4684 1100 
L 678 1100 
L 678 1631 
z
" transform="scale(0.015625)"/>
       <path id="DejaVuSans-2e" d="M 684 794 
L 1344 794 
L 1344 0 
L 684 0 
L 684 794 
z
" transform="scale(0.015625)"/>
       <path id="DejaVuSans-25" d="M 4653 2053 
Q 4381 2053 4226 1822 
Q 4072 1591 4072 1178 
Q 4072 772 4226 539 
Q 4381 306 4653 306 
Q 4919 306 5073 539 
Q 5228 772 5228 1178 
Q 5228 1588 5073 1820 
Q 4919 2053 4653 2053 
z
M 4653 2450 
Q 5147 2450 5437 2106 
Q 5728 1763 5728 1178 
Q 5728 594 5436 251 
Q 5144 -91 4653 -91 
Q 4153 -91 3862 251 
Q 3572 594 3572 1178 
Q 3572 1766 3864 2108 
Q 4156 2450 4653 2450 
z
M 1428 4353 
Q 1159 4353 1004 4120 
Q 850 3888 850 3481 
Q 850 3069 1003 2837 
Q 1156 2606 1428 2606 
Q 1700 2606 1854 2837 
Q 2009 3069 2009 3481 
Q 2009 3884 1853 4118 
Q 1697 4353 1428 4353 
z
M 4250 4750 
L 4750 4750 
L 1831 -91 
L 1331 -91 
L 4250 4750 
z
M 1428 4750 
Q 1922 4750 2215 4408 
Q 2509 4066 2509 3481 
Q 2509 2891 2217 2550 
Q 1925 2209 1428 2209 
Q 931 2209 642 2551 
Q 353 2894 353 3481 
Q 353 4063 643 4406 
Q 934 4750 1428 4750 
z
" transform="scale(0.015625)"/>
      </defs>
      <use xlink:href="#DejaVuSans-4d"/>
      <use xlink:href="#DejaVuSans-69" transform="translate(86.279297 0)"/>
      <use xlink:href="#DejaVuSans-73" transform="translate(114.0625 0)"/>
      <use xlink:href="#DejaVuSans-6d" transform="translate(166.162109 0)"/>
      <use xlink:href="#DejaVuSans-61" transform="translate(263.574219 0)"/>
      <use xlink:href="#DejaVuSans-74" transform="translate(324.853516 0)"/>
      <use xlink:href="#DejaVuSans-63" transform="translate(364.0625 0)"/>
      <use xlink:href="#DejaVuSans-68" transform="translate(419.042969 0)"/>
      <use xlink:href="#DejaVuSans-65" transform="translate(482.421875 0)"/>
      <use xlink:href="#DejaVuSans-64" transform="translate(543.945312 0)"/>
      <use xlink:href="#DejaVuSans-20" transform="translate(607.421875 0)"/>
      <use xlink:href="#DejaVuSans-43" transform="translate(639.208984 0)"/>
      <use xlink:href="#DejaVuSans-44" transform="translate(709.033203 0)"/>
      <use xlink:href="#DejaVuSans-41" transform="translate(784.285156 0)"/>
      <use xlink:href="#DejaVuSans-43" transform="translate(850.943359 0)"/>
      <use xlink:href="#DejaVuSans-20" transform="translate(920.767578 0)"/>
      <use xlink:href="#DejaVuSans-20" transform="translate(952.554688 0)"/>
      <use xlink:href="#DejaVuSans-28" transform="translate(984.341797 0)"/>
      <use xlink:href="#DejaVuSans-3c3" transform="translate(1023.355469 0)"/>
      <use xlink:href="#DejaVuSans-3d" transform="translate(1086.734375 0)"/>
      <use xlink:href="#DejaVuSans-31" transform="translate(1170.523438 0)"/>
      <use xlink:href="#DejaVuSans-2e" transform="translate(1234.146484 0)"/>
      <use xlink:href="#DejaVuSans-30" transform="translate(1265.933594 0)"/>
      <use xlink:href="#DejaVuSans-20" transform="translate(1329.556641 0)"/>
      <use xlink:href="#DejaVuSans-25" transform="translate(1361.34375 0)"/>
      <use xlink:href="#DejaVuSans-29" transform="translate(1456.363281 0)"/>
     </g>
    </g>
    <g id="line2d_63">
     <path d="M 64.37 44.76375 
L 72.37 44.76375 
L 80.37 44.76375 
" style="fill: none; stroke-dasharray: 2.96,1.28; stroke-dashoffset: 0; stroke: #ff6347; stroke-width: 0.8"/>
    </g>
    <g id="text_34">
     <!-- Ideal reference line -->
     <g transform="translate(86.77 47.56375) scale(0.08 -0.08)">
      <defs>
       <path id="DejaVuSans-72" d="M 2631 2963 
Q 2534 3019 2420 3045 
Q 2306 3072 2169 3072 
Q 1681 3072 1420 2755 
Q 1159 2438 1159 1844 
L 1159 0 
L 581 0 
L 581 3500 
L 1159 3500 
L 1159 2956 
Q 1341 3275 1631 3429 
Q 1922 3584 2338 3584 
Q 2397 3584 2469 3576 
Q 2541 3569 2628 3553 
L 2631 2963 
z
" transform="scale(0.015625)"/>
       <path id="DejaVuSans-66" d="M 2375 4863 
L 2375 4384 
L 1825 4384 
Q 1516 4384 1395 4259 
Q 1275 4134 1275 3809 
L 1275 3500 
L 2222 3500 
L 2222 3053 
L 1275 3053 
L 1275 0 
L 697 0 
L 697 3053 
L 147 3053 
L 147 3500 
L 697 3500 
L 697 3744 
Q 697 4328 969 4595 
Q 1241 4863 1831 4863 
L 2375 4863 
z
" transform="scale(0.015625)"/>
       <path id="DejaVuSans-6e" d="M 3513 2113 
L 3513 0 
L 2938 0 
L 2938 2094 
Q 2938 2591 2744 2837 
Q 2550 3084 2163 3084 
Q 1697 3084 1428 2787 
Q 1159 2491 1159 1978 
L 1159 0 
L 581 0 
L 581 3500 
L 1159 3500 
L 1159 2956 
Q 1366 3272 1645 3428 
Q 1925 3584 2291 3584 
Q 2894 3584 3203 3211 
Q 3513 2838 3513 2113 
z
" transform="scale(0.015625)"/>
      </defs>
      <use xlink:href="#DejaVuSans-49"/>
      <use xlink:href="#DejaVuSans-64" transform="translate(29.492188 0)"/>
      <use xlink:href="#DejaVuSans-65" transform="translate(92.96875 0)"/>
      <use xlink:href="#DejaVuSans-61" transform="translate(154.492188 0)"/>
      <use xlink:href="#DejaVuSans-6c" transform="translate(215.771484 0)"/>
      <use xlink:href="#DejaVuSans-20" transform="translate(243.554688 0)"/>
      <use xlink:href="#DejaVuSans-72" transform="translate(275.341797 0)"/>
      <use xlink:href="#DejaVuSans-65" transform="translate(314.205078 0)"/>
      <use xlink:href="#DejaVuSans-66" transform="translate(375.728516 0)"/>
      <use xlink:href="#DejaVuSans-65" transform="translate(410.933594 0)"/>
      <use xlink:href="#DejaVuSans-72" transform="translate(472.457031 0)"/>
      <use xlink:href="#DejaVuSans-65" transform="translate(511.320312 0)"/>
      <use xlink:href="#DejaVuSans-6e" transform="translate(572.84375 0)"/>
      <use xlink:href="#DejaVuSans-63" transform="translate(636.222656 0)"/>
      <use xlink:href="#DejaVuSans-65" transform="translate(691.203125 0)"/>
      <use xlink:href="#DejaVuSans-20" transform="translate(752.726562 0)"/>
      <use xlink:href="#DejaVuSans-6c" transform="translate(784.513672 0)"/>
      <use xlink:href="#DejaVuSans-69" transform="translate(812.296875 0)"/>
      <use xlink:href="#DejaVuSans-6e" transform="translate(840.080078 0)"/>
      <use xlink:href="#DejaVuSans-65" transform="translate(903.458984 0)"/>
     </g>
    </g>
   </g>
  </g>
 </g>
 <defs>
  <clipPath id="pe6f646c7e4">
   <rect x="57.17" y="10.8" width="580.03" height="235.24"/>
  </clipPath>
  <clipPath id="p23bd9e994a">
   <rect x="463.191" y="93.134" width="116.006" height="117.62"/>
  </clipPath>
 </defs>
</svg>
