<?xml version="1.0" encoding="utf-8" standalone="no"?>
<!DOCTYPE svg PUBLIC "-//W3C//DTD SVG 1.1//EN"
  "http://www.w3.org/Graphics/SVG/1.1/DTD/svg11.dtd">
<svg xmlns:xlink="http://www.w3.org/1999/xlink" width="648pt" height="288pt" viewBox="0 0 648 288" xmlns="http://www.w3.org/2000/svg" version="1.1">
 <metadata>
  <rdf:RDF xmlns:dc="http://purl.org/dc/elements/1.1/" xmlns:cc="http://creativecommons.org/ns#" xmlns:rdf="http://www.w3.org/1999/02/22-rdf-syntax-ns#">
   <cc:Work>
    <dc:type rdf:resource="http://purl.org/dc/dcmitype/StillImage"/>
    <dc:date>2026-04-02T19:09:56.173632</dc:date>
    <dc:format>image/svg+xml</dc:format>
    <dc:creator>
     <cc:Agent>
      <dc:title>Matplotlib v3.10.8, https://matplotlib.org/</dc:title>
     </cc:Agent>
    </dc:creator>
   </cc:Work>
  </rdf:RDF>
 </metadata>
 <defs>
  <style type="text/css">*{stroke-linejoin: round; stroke-linecap: butt}</style>
 </defs>
 <g id="figure_1">
  <g id="patch_1">
   <path d="M 0 288 
L 648 288 
L 648 0 
L 0 0 
z
" style="fill: #ffffff"/>
  </g>
  <g id="axes_1">
   <g id="patch_2">
    <path d="M 62.39 246.04 
L 637.2 246.04 
L 637.2 10.8 
L 62.39 10.8 
z
" style="fill: #ffffff"/>
   </g>
   <g id="matplotlib.axis_1">
    <g id="xtick_1">
     <g id="line2d_1">
      <path d="M 88.517727 246.04 
L 88.517727 10.8 
" clip-path="url(#pd0bdf8c5bb)" style="fill: none; stroke: #b0b0b0; stroke-width: 0.3; stroke-linecap: square"/>
     </g>
     <g id="line2d_2">
      <defs>
       <path id="m82ff14985d" d="M 0 0 
L 0 3.5 
" style="stroke: #000000; stroke-width: 0.8"/>
      </defs>
      <g>
       <use xlink:href="#m82ff14985d" x="88.517727" y="246.04" style="stroke: #000000; stroke-width: 0.8"/>
      </g>
     </g>
     <g id="text_1">
      <!-- 0 -->
      <g transform="translate(85.336477 260.638438) scale(0.1 -0.1)">
       <defs>
        <path id="DejaVuSans-30" d="M 2034 4250 
Q 1547 4250 1301 3770 
Q 1056 3291 1056 2328 
Q 1056 1369 1301 889 
Q 1547 409 2034 409 
Q 2525 409 2770 889 
Q 3016 1369 3016 2328 
Q 3016 3291 2770 3770 
Q 2525 4250 2034 4250 
z
M 2034 4750 
Q 2819 4750 3233 4129 
Q 3647 3509 3647 2328 
Q 3647 1150 3233 529 
Q 2819 -91 2034 -91 
Q 1250 -91 836 529 
Q 422 1150 422 2328 
Q 422 3509 836 4129 
Q 1250 4750 2034 4750 
z
" transform="scale(0.015625)"/>
       </defs>
       <use xlink:href="#DejaVuSans-30"/>
      </g>
     </g>
    </g>
    <g id="xtick_2">
     <g id="line2d_3">
      <path d="M 191.382795 246.04 
L 191.382795 10.8 
" clip-path="url(#pd0bdf8c5bb)" style="fill: none; stroke: #b0b0b0; stroke-width: 0.3; stroke-linecap: square"/>
     </g>
     <g id="line2d_4">
      <g>
       <use xlink:href="#m82ff14985d" x="191.382795" y="246.04" style="stroke: #000000; stroke-width: 0.8"/>
      </g>
     </g>
     <g id="text_2">
      <!-- 50 -->
      <g transform="translate(185.020295 260.638438) scale(0.1 -0.1)">
       <defs>
        <path id="DejaVuSans-35" d="M 691 4666 
L 3169 4666 
L 3169 4134 
L 1269 4134 
L 1269 2991 
Q 1406 3038 1543 3061 
Q 1681 3084 1819 3084 
Q 2600 3084 3056 2656 
Q 3513 2228 3513 1497 
Q 3513 744 3044 326 
Q 2575 -91 1722 -91 
Q 1428 -91 1123 -41 
Q 819 9 494 109 
L 494 744 
Q 775 591 1075 516 
Q 1375 441 1709 441 
Q 2250 441 2565 725 
Q 2881 1009 2881 1497 
Q 2881 1984 2565 2268 
Q 2250 2553 1709 2553 
Q 1456 2553 1204 2497 
Q 953 2441 691 2322 
L 691 4666 
z
" transform="scale(0.015625)"/>
       </defs>
       <use xlink:href="#DejaVuSans-35"/>
       <use xlink:href="#DejaVuSans-30" transform="translate(63.623047 0)"/>
      </g>
     </g>
    </g>
    <g id="xtick_3">
     <g id="line2d_5">
      <path d="M 294.247863 246.04 
L 294.247863 10.8 
" clip-path="url(#pd0bdf8c5bb)" style="fill: none; stroke: #b0b0b0; stroke-width: 0.3; stroke-linecap: square"/>
     </g>
     <g id="line2d_6">
      <g>
       <use xlink:href="#m82ff14985d" x="294.247863" y="246.04" style="stroke: #000000; stroke-width: 0.8"/>
      </g>
     </g>
     <g id="text_3">
      <!-- 100 -->
      <g transform="translate(284.704113 260.638438) scale(0.1 -0.1)">
       <defs>
        <path id="DejaVuSans-31" d="M 794 531 
L 1825 531 
L 1825 4091 
L 703 3866 
L 703 4441 
L 1819 4666 
L 2450 4666 
L 2450 531 
L 3481 531 
L 3481 0 
L 794 0 
L 794 531 
z
" transform="scale(0.015625)"/>
       </defs>
       <use xlink:href="#DejaVuSans-31"/>
       <use xlink:href="#DejaVuSans-30" transform="translate(63.623047 0)"/>
       <use xlink:href="#DejaVuSans-30" transform="translate(127.246094 0)"/>
      </g>
     </g>
    </g>
    <g id="xtick_4">
     <g id="line2d_7">
      <path d="M 397.112931 246.04 
L 397.112931 10.8 
" clip-path="url(#pd0bdf8c5bb)" style="fill: none; stroke: #b0b0b0; stroke-width: 0.3; stroke-linecap: square"/>
     </g>
     <g id="line2d_8">
      <g>
       <use xlink:href="#m82ff14985d" x="397.112931" y="246.04" style="stroke: #000000; stroke-width: 0.8"/>
      </g>
     </g>
     <g id="text_4">
      <!-- 150 -->
      <g transform="translate(387.569181 260.638438) scale(0.1 -0.1)">
       <use xlink:href="#DejaVuSans-31"/>
       <use xlink:href="#DejaVuSans-35" transform="translate(63.623047 0)"/>
       <use xlink:href="#DejaVuSans-30" transform="translate(127.246094 0)"/>
      </g>
     </g>
    </g>
    <g id="xtick_5">
     <g id="line2d_9">
      <path d="M 499.977999 246.04 
L 499.977999 10.8 
" clip-path="url(#pd0bdf8c5bb)" style="fill: none; stroke: #b0b0b0; stroke-width: 0.3; stroke-linecap: square"/>
     </g>
     <g id="line2d_10">
      <g>
       <use xlink:href="#m82ff14985d" x="499.977999" y="246.04" style="stroke: #000000; stroke-width: 0.8"/>
      </g>
     </g>
     <g id="text_5">
      <!-- 200 -->
      <g transform="translate(490.434249 260.638438) scale(0.1 -0.1)">
       <defs>
        <path id="DejaVuSans-32" d="M 1228 531 
L 3431 531 
L 3431 0 
L 469 0 
L 469 531 
Q 828 903 1448 1529 
Q 2069 2156 2228 2338 
Q 2531 2678 2651 2914 
Q 2772 3150 2772 3378 
Q 2772 3750 2511 3984 
Q 2250 4219 1831 4219 
Q 1534 4219 1204 4116 
Q 875 4013 500 3803 
L 500 4441 
Q 881 4594 1212 4672 
Q 1544 4750 1819 4750 
Q 2544 4750 2975 4387 
Q 3406 4025 3406 3419 
Q 3406 3131 3298 2873 
Q 3191 2616 2906 2266 
Q 2828 2175 2409 1742 
Q 1991 1309 1228 531 
z
" transform="scale(0.015625)"/>
       </defs>
       <use xlink:href="#DejaVuSans-32"/>
       <use xlink:href="#DejaVuSans-30" transform="translate(63.623047 0)"/>
       <use xlink:href="#DejaVuSans-30" transform="translate(127.246094 0)"/>
      </g>
     </g>
    </g>
    <g id="xtick_6">
     <g id="line2d_11">
      <path d="M 602.843067 246.04 
L 602.843067 10.8 
" clip-path="url(#pd0bdf8c5bb)" style="fill: none; stroke: #b0b0b0; stroke-width: 0.3; stroke-linecap: square"/>
     </g>
     <g id="line2d_12">
      <g>
       <use xlink:href="#m82ff14985d" x="602.843067" y="246.04" style="stroke: #000000; stroke-width: 0.8"/>
      </g>
     </g>
     <g id="text_6">
      <!-- 250 -->
      <g transform="translate(593.299317 260.638438) scale(0.1 -0.1)">
       <use xlink:href="#DejaVuSans-32"/>
       <use xlink:href="#DejaVuSans-35" transform="translate(63.623047 0)"/>
       <use xlink:href="#DejaVuSans-30" transform="translate(127.246094 0)"/>
      </g>
     </g>
    </g>
    <g id="text_7">
     <!-- Digital code -->
     <g transform="translate(319.930937 274.316562) scale(0.1 -0.1)">
      <defs>
       <path id="DejaVuSans-44" d="M 1259 4147 
L 1259 519 
L 2022 519 
Q 2988 519 3436 956 
Q 3884 1394 3884 2338 
Q 3884 3275 3436 3711 
Q 2988 4147 2022 4147 
L 1259 4147 
z
M 628 4666 
L 1925 4666 
Q 3281 4666 3915 4102 
Q 4550 3538 4550 2338 
Q 4550 1131 3912 565 
Q 3275 0 1925 0 
L 628 0 
L 628 4666 
z
" transform="scale(0.015625)"/>
       <path id="DejaVuSans-69" d="M 603 3500 
L 1178 3500 
L 1178 0 
L 603 0 
L 603 3500 
z
M 603 4863 
L 1178 4863 
L 1178 4134 
L 603 4134 
L 603 4863 
z
" transform="scale(0.015625)"/>
       <path id="DejaVuSans-67" d="M 2906 1791 
Q 2906 2416 2648 2759 
Q 2391 3103 1925 3103 
Q 1463 3103 1205 2759 
Q 947 2416 947 1791 
Q 947 1169 1205 825 
Q 1463 481 1925 481 
Q 2391 481 2648 825 
Q 2906 1169 2906 1791 
z
M 3481 434 
Q 3481 -459 3084 -895 
Q 2688 -1331 1869 -1331 
Q 1566 -1331 1297 -1286 
Q 1028 -1241 775 -1147 
L 775 -588 
Q 1028 -725 1275 -790 
Q 1522 -856 1778 -856 
Q 2344 -856 2625 -561 
Q 2906 -266 2906 331 
L 2906 616 
Q 2728 306 2450 153 
Q 2172 0 1784 0 
Q 1141 0 747 490 
Q 353 981 353 1791 
Q 353 2603 747 3093 
Q 1141 3584 1784 3584 
Q 2172 3584 2450 3431 
Q 2728 3278 2906 2969 
L 2906 3500 
L 3481 3500 
L 3481 434 
z
" transform="scale(0.015625)"/>
       <path id="DejaVuSans-74" d="M 1172 4494 
L 1172 3500 
L 2356 3500 
L 2356 3053 
L 1172 3053 
L 1172 1153 
Q 1172 725 1289 603 
Q 1406 481 1766 481 
L 2356 481 
L 2356 0 
L 1766 0 
Q 1100 0 847 248 
Q 594 497 594 1153 
L 594 3053 
L 172 3053 
L 172 3500 
L 594 3500 
L 594 4494 
L 1172 4494 
z
" transform="scale(0.015625)"/>
       <path id="DejaVuSans-61" d="M 2194 1759 
Q 1497 1759 1228 1600 
Q 959 1441 959 1056 
Q 959 750 1161 570 
Q 1363 391 1709 391 
Q 2188 391 2477 730 
Q 2766 1069 2766 1631 
L 2766 1759 
L 2194 1759 
z
M 3341 1997 
L 3341 0 
L 2766 0 
L 2766 531 
Q 2569 213 2275 61 
Q 1981 -91 1556 -91 
Q 1019 -91 701 211 
Q 384 513 384 1019 
Q 384 1609 779 1909 
Q 1175 2209 1959 2209 
L 2766 2209 
L 2766 2266 
Q 2766 2663 2505 2880 
Q 2244 3097 1772 3097 
Q 1472 3097 1187 3025 
Q 903 2953 641 2809 
L 641 3341 
Q 956 3463 1253 3523 
Q 1550 3584 1831 3584 
Q 2591 3584 2966 3190 
Q 3341 2797 3341 1997 
z
" transform="scale(0.015625)"/>
       <path id="DejaVuSans-6c" d="M 603 4863 
L 1178 4863 
L 1178 0 
L 603 0 
L 603 4863 
z
" transform="scale(0.015625)"/>
       <path id="DejaVuSans-20" transform="scale(0.015625)"/>
       <path id="DejaVuSans-63" d="M 3122 3366 
L 3122 2828 
Q 2878 2963 2633 3030 
Q 2388 3097 2138 3097 
Q 1578 3097 1268 2742 
Q 959 2388 959 1747 
Q 959 1106 1268 751 
Q 1578 397 2138 397 
Q 2388 397 2633 464 
Q 2878 531 3122 666 
L 3122 134 
Q 2881 22 2623 -34 
Q 2366 -91 2075 -91 
Q 1284 -91 818 406 
Q 353 903 353 1747 
Q 353 2603 823 3093 
Q 1294 3584 2113 3584 
Q 2378 3584 2631 3529 
Q 2884 3475 3122 3366 
z
" transform="scale(0.015625)"/>
       <path id="DejaVuSans-6f" d="M 1959 3097 
Q 1497 3097 1228 2736 
Q 959 2375 959 1747 
Q 959 1119 1226 758 
Q 1494 397 1959 397 
Q 2419 397 2687 759 
Q 2956 1122 2956 1747 
Q 2956 2369 2687 2733 
Q 2419 3097 1959 3097 
z
M 1959 3584 
Q 2709 3584 3137 3096 
Q 3566 2609 3566 1747 
Q 3566 888 3137 398 
Q 2709 -91 1959 -91 
Q 1206 -91 779 398 
Q 353 888 353 1747 
Q 353 2609 779 3096 
Q 1206 3584 1959 3584 
z
" transform="scale(0.015625)"/>
       <path id="DejaVuSans-64" d="M 2906 2969 
L 2906 4863 
L 3481 4863 
L 3481 0 
L 2906 0 
L 2906 525 
Q 2725 213 2448 61 
Q 2172 -91 1784 -91 
Q 1150 -91 751 415 
Q 353 922 353 1747 
Q 353 2572 751 3078 
Q 1150 3584 1784 3584 
Q 2172 3584 2448 3432 
Q 2725 3281 2906 2969 
z
M 947 1747 
Q 947 1113 1208 752 
Q 1469 391 1925 391 
Q 2381 391 2643 752 
Q 2906 1113 2906 1747 
Q 2906 2381 2643 2742 
Q 2381 3103 1925 3103 
Q 1469 3103 1208 2742 
Q 947 2381 947 1747 
z
" transform="scale(0.015625)"/>
       <path id="DejaVuSans-65" d="M 3597 1894 
L 3597 1613 
L 953 1613 
Q 991 1019 1311 708 
Q 1631 397 2203 397 
Q 2534 397 2845 478 
Q 3156 559 3463 722 
L 3463 178 
Q 3153 47 2828 -22 
Q 2503 -91 2169 -91 
Q 1331 -91 842 396 
Q 353 884 353 1716 
Q 353 2575 817 3079 
Q 1281 3584 2069 3584 
Q 2775 3584 3186 3129 
Q 3597 2675 3597 1894 
z
M 3022 2063 
Q 3016 2534 2758 2815 
Q 2500 3097 2075 3097 
Q 1594 3097 1305 2825 
Q 1016 2553 972 2059 
L 3022 2063 
z
" transform="scale(0.015625)"/>
      </defs>
      <use xlink:href="#DejaVuSans-44"/>
      <use xlink:href="#DejaVuSans-69" transform="translate(77.001953 0)"/>
      <use xlink:href="#DejaVuSans-67" transform="translate(104.785156 0)"/>
      <use xlink:href="#DejaVuSans-69" transform="translate(168.261719 0)"/>
      <use xlink:href="#DejaVuSans-74" transform="translate(196.044922 0)"/>
      <use xlink:href="#DejaVuSans-61" transform="translate(235.253906 0)"/>
      <use xlink:href="#DejaVuSans-6c" transform="translate(296.533203 0)"/>
      <use xlink:href="#DejaVuSans-20" transform="translate(324.316406 0)"/>
      <use xlink:href="#DejaVuSans-63" transform="translate(356.103516 0)"/>
      <use xlink:href="#DejaVuSans-6f" transform="translate(411.083984 0)"/>
      <use xlink:href="#DejaVuSans-64" transform="translate(472.265625 0)"/>
      <use xlink:href="#DejaVuSans-65" transform="translate(535.742188 0)"/>
     </g>
    </g>
   </g>
   <g id="matplotlib.axis_2">
    <g id="ytick_1">
     <g id="line2d_13">
      <path d="M 62.39 235.347273 
L 637.2 235.347273 
" clip-path="url(#pd0bdf8c5bb)" style="fill: none; stroke: #b0b0b0; stroke-width: 0.3; stroke-linecap: square"/>
     </g>
     <g id="line2d_14">
      <defs>
       <path id="mf0e6f2aee3" d="M 0 0 
L -3.5 0 
" style="stroke: #000000; stroke-width: 0.8"/>
      </defs>
      <g>
       <use xlink:href="#mf0e6f2aee3" x="62.39" y="235.347273" style="stroke: #000000; stroke-width: 0.8"/>
      </g>
     </g>
     <g id="text_8">
      <!-- −1.00 -->
      <g transform="translate(24.744688 239.146491) scale(0.1 -0.1)">
       <defs>
        <path id="DejaVuSans-2212" d="M 678 2272 
L 4684 2272 
L 4684 1741 
L 678 1741 
L 678 2272 
z
" transform="scale(0.015625)"/>
        <path id="DejaVuSans-2e" d="M 684 794 
L 1344 794 
L 1344 0 
L 684 0 
L 684 794 
z
" transform="scale(0.015625)"/>
       </defs>
       <use xlink:href="#DejaVuSans-2212"/>
       <use xlink:href="#DejaVuSans-31" transform="translate(83.789062 0)"/>
       <use xlink:href="#DejaVuSans-2e" transform="translate(147.412109 0)"/>
       <use xlink:href="#DejaVuSans-30" transform="translate(179.199219 0)"/>
       <use xlink:href="#DejaVuSans-30" transform="translate(242.822266 0)"/>
      </g>
     </g>
    </g>
    <g id="ytick_2">
     <g id="line2d_15">
      <path d="M 62.39 208.615455 
L 637.2 208.615455 
" clip-path="url(#pd0bdf8c5bb)" style="fill: none; stroke: #b0b0b0; stroke-width: 0.3; stroke-linecap: square"/>
     </g>
     <g id="line2d_16">
      <g>
       <use xlink:href="#mf0e6f2aee3" x="62.39" y="208.615455" style="stroke: #000000; stroke-width: 0.8"/>
      </g>
     </g>
     <g id="text_9">
      <!-- −0.75 -->
      <g transform="translate(24.744688 212.414673) scale(0.1 -0.1)">
       <defs>
        <path id="DejaVuSans-37" d="M 525 4666 
L 3525 4666 
L 3525 4397 
L 1831 0 
L 1172 0 
L 2766 4134 
L 525 4134 
L 525 4666 
z
" transform="scale(0.015625)"/>
       </defs>
       <use xlink:href="#DejaVuSans-2212"/>
       <use xlink:href="#DejaVuSans-30" transform="translate(83.789062 0)"/>
       <use xlink:href="#DejaVuSans-2e" transform="translate(147.412109 0)"/>
       <use xlink:href="#DejaVuSans-37" transform="translate(179.199219 0)"/>
       <use xlink:href="#DejaVuSans-35" transform="translate(242.822266 0)"/>
      </g>
     </g>
    </g>
    <g id="ytick_3">
     <g id="line2d_17">
      <path d="M 62.39 181.883636 
L 637.2 181.883636 
" clip-path="url(#pd0bdf8c5bb)" style="fill: none; stroke: #b0b0b0; stroke-width: 0.3; stroke-linecap: square"/>
     </g>
     <g id="line2d_18">
      <g>
       <use xlink:href="#mf0e6f2aee3" x="62.39" y="181.883636" style="stroke: #000000; stroke-width: 0.8"/>
      </g>
     </g>
     <g id="text_10">
      <!-- −0.50 -->
      <g transform="translate(24.744688 185.682855) scale(0.1 -0.1)">
       <use xlink:href="#DejaVuSans-2212"/>
       <use xlink:href="#DejaVuSans-30" transform="translate(83.789062 0)"/>
       <use xlink:href="#DejaVuSans-2e" transform="translate(147.412109 0)"/>
       <use xlink:href="#DejaVuSans-35" transform="translate(179.199219 0)"/>
       <use xlink:href="#DejaVuSans-30" transform="translate(242.822266 0)"/>
      </g>
     </g>
    </g>
    <g id="ytick_4">
     <g id="line2d_19">
      <path d="M 62.39 155.151818 
L 637.2 155.151818 
" clip-path="url(#pd0bdf8c5bb)" style="fill: none; stroke: #b0b0b0; stroke-width: 0.3; stroke-linecap: square"/>
     </g>
     <g id="line2d_20">
      <g>
       <use xlink:href="#mf0e6f2aee3" x="62.39" y="155.151818" style="stroke: #000000; stroke-width: 0.8"/>
      </g>
     </g>
     <g id="text_11">
      <!-- −0.25 -->
      <g transform="translate(24.744688 158.951037) scale(0.1 -0.1)">
       <use xlink:href="#DejaVuSans-2212"/>
       <use xlink:href="#DejaVuSans-30" transform="translate(83.789062 0)"/>
       <use xlink:href="#DejaVuSans-2e" transform="translate(147.412109 0)"/>
       <use xlink:href="#DejaVuSans-32" transform="translate(179.199219 0)"/>
       <use xlink:href="#DejaVuSans-35" transform="translate(242.822266 0)"/>
      </g>
     </g>
    </g>
    <g id="ytick_5">
     <g id="line2d_21">
      <path d="M 62.39 128.42 
L 637.2 128.42 
" clip-path="url(#pd0bdf8c5bb)" style="fill: none; stroke: #b0b0b0; stroke-width: 0.3; stroke-linecap: square"/>
     </g>
     <g id="line2d_22">
      <g>
       <use xlink:href="#mf0e6f2aee3" x="62.39" y="128.42" style="stroke: #000000; stroke-width: 0.8"/>
      </g>
     </g>
     <g id="text_12">
      <!-- 0.00 -->
      <g transform="translate(33.124375 132.219219) scale(0.1 -0.1)">
       <use xlink:href="#DejaVuSans-30"/>
       <use xlink:href="#DejaVuSans-2e" transform="translate(63.623047 0)"/>
       <use xlink:href="#DejaVuSans-30" transform="translate(95.410156 0)"/>
       <use xlink:href="#DejaVuSans-30" transform="translate(159.033203 0)"/>
      </g>
     </g>
    </g>
    <g id="ytick_6">
     <g id="line2d_23">
      <path d="M 62.39 101.688182 
L 637.2 101.688182 
" clip-path="url(#pd0bdf8c5bb)" style="fill: none; stroke: #b0b0b0; stroke-width: 0.3; stroke-linecap: square"/>
     </g>
     <g id="line2d_24">
      <g>
       <use xlink:href="#mf0e6f2aee3" x="62.39" y="101.688182" style="stroke: #000000; stroke-width: 0.8"/>
      </g>
     </g>
     <g id="text_13">
      <!-- 0.25 -->
      <g transform="translate(33.124375 105.487401) scale(0.1 -0.1)">
       <use xlink:href="#DejaVuSans-30"/>
       <use xlink:href="#DejaVuSans-2e" transform="translate(63.623047 0)"/>
       <use xlink:href="#DejaVuSans-32" transform="translate(95.410156 0)"/>
       <use xlink:href="#DejaVuSans-35" transform="translate(159.033203 0)"/>
      </g>
     </g>
    </g>
    <g id="ytick_7">
     <g id="line2d_25">
      <path d="M 62.39 74.956364 
L 637.2 74.956364 
" clip-path="url(#pd0bdf8c5bb)" style="fill: none; stroke: #b0b0b0; stroke-width: 0.3; stroke-linecap: square"/>
     </g>
     <g id="line2d_26">
      <g>
       <use xlink:href="#mf0e6f2aee3" x="62.39" y="74.956364" style="stroke: #000000; stroke-width: 0.8"/>
      </g>
     </g>
     <g id="text_14">
      <!-- 0.50 -->
      <g transform="translate(33.124375 78.755582) scale(0.1 -0.1)">
       <use xlink:href="#DejaVuSans-30"/>
       <use xlink:href="#DejaVuSans-2e" transform="translate(63.623047 0)"/>
       <use xlink:href="#DejaVuSans-35" transform="translate(95.410156 0)"/>
       <use xlink:href="#DejaVuSans-30" transform="translate(159.033203 0)"/>
      </g>
     </g>
    </g>
    <g id="ytick_8">
     <g id="line2d_27">
      <path d="M 62.39 48.224545 
L 637.2 48.224545 
" clip-path="url(#pd0bdf8c5bb)" style="fill: none; stroke: #b0b0b0; stroke-width: 0.3; stroke-linecap: square"/>
     </g>
     <g id="line2d_28">
      <g>
       <use xlink:href="#mf0e6f2aee3" x="62.39" y="48.224545" style="stroke: #000000; stroke-width: 0.8"/>
      </g>
     </g>
     <g id="text_15">
      <!-- 0.75 -->
      <g transform="translate(33.124375 52.023764) scale(0.1 -0.1)">
       <use xlink:href="#DejaVuSans-30"/>
       <use xlink:href="#DejaVuSans-2e" transform="translate(63.623047 0)"/>
       <use xlink:href="#DejaVuSans-37" transform="translate(95.410156 0)"/>
       <use xlink:href="#DejaVuSans-35" transform="translate(159.033203 0)"/>
      </g>
     </g>
    </g>
    <g id="ytick_9">
     <g id="line2d_29">
      <path d="M 62.39 21.492727 
L 637.2 21.492727 
" clip-path="url(#pd0bdf8c5bb)" style="fill: none; stroke: #b0b0b0; stroke-width: 0.3; stroke-linecap: square"/>
     </g>
     <g id="line2d_30">
      <g>
       <use xlink:href="#mf0e6f2aee3" x="62.39" y="21.492727" style="stroke: #000000; stroke-width: 0.8"/>
      </g>
     </g>
     <g id="text_16">
      <!-- 1.00 -->
      <g transform="translate(33.124375 25.291946) scale(0.1 -0.1)">
       <use xlink:href="#DejaVuSans-31"/>
       <use xlink:href="#DejaVuSans-2e" transform="translate(63.623047 0)"/>
       <use xlink:href="#DejaVuSans-30" transform="translate(95.410156 0)"/>
       <use xlink:href="#DejaVuSans-30" transform="translate(159.033203 0)"/>
      </g>
     </g>
    </g>
    <g id="text_17">
     <!-- DNL (LSB) -->
     <g transform="translate(18.665 153.677813) rotate(-90) scale(0.1 -0.1)">
      <defs>
       <path id="DejaVuSans-4e" d="M 628 4666 
L 1478 4666 
L 3547 763 
L 3547 4666 
L 4159 4666 
L 4159 0 
L 3309 0 
L 1241 3903 
L 1241 0 
L 628 0 
L 628 4666 
z
" transform="scale(0.015625)"/>
       <path id="DejaVuSans-4c" d="M 628 4666 
L 1259 4666 
L 1259 531 
L 3531 531 
L 3531 0 
L 628 0 
L 628 4666 
z
" transform="scale(0.015625)"/>
       <path id="DejaVuSans-28" d="M 1984 4856 
Q 1566 4138 1362 3434 
Q 1159 2731 1159 2009 
Q 1159 1288 1364 580 
Q 1569 -128 1984 -844 
L 1484 -844 
Q 1016 -109 783 600 
Q 550 1309 550 2009 
Q 550 2706 781 3412 
Q 1013 4119 1484 4856 
L 1984 4856 
z
" transform="scale(0.015625)"/>
       <path id="DejaVuSans-53" d="M 3425 4513 
L 3425 3897 
Q 3066 4069 2747 4153 
Q 2428 4238 2131 4238 
Q 1616 4238 1336 4038 
Q 1056 3838 1056 3469 
Q 1056 3159 1242 3001 
Q 1428 2844 1947 2747 
L 2328 2669 
Q 3034 2534 3370 2195 
Q 3706 1856 3706 1288 
Q 3706 609 3251 259 
Q 2797 -91 1919 -91 
Q 1588 -91 1214 -16 
Q 841 59 441 206 
L 441 856 
Q 825 641 1194 531 
Q 1563 422 1919 422 
Q 2459 422 2753 634 
Q 3047 847 3047 1241 
Q 3047 1584 2836 1778 
Q 2625 1972 2144 2069 
L 1759 2144 
Q 1053 2284 737 2584 
Q 422 2884 422 3419 
Q 422 4038 858 4394 
Q 1294 4750 2059 4750 
Q 2388 4750 2728 4690 
Q 3069 4631 3425 4513 
z
" transform="scale(0.015625)"/>
       <path id="DejaVuSans-42" d="M 1259 2228 
L 1259 519 
L 2272 519 
Q 2781 519 3026 730 
Q 3272 941 3272 1375 
Q 3272 1813 3026 2020 
Q 2781 2228 2272 2228 
L 1259 2228 
z
M 1259 4147 
L 1259 2741 
L 2194 2741 
Q 2656 2741 2882 2914 
Q 3109 3088 3109 3444 
Q 3109 3797 2882 3972 
Q 2656 4147 2194 4147 
L 1259 4147 
z
M 628 4666 
L 2241 4666 
Q 2963 4666 3353 4366 
Q 3744 4066 3744 3513 
Q 3744 3084 3544 2831 
Q 3344 2578 2956 2516 
Q 3422 2416 3680 2098 
Q 3938 1781 3938 1306 
Q 3938 681 3513 340 
Q 3088 0 2303 0 
L 628 0 
L 628 4666 
z
" transform="scale(0.015625)"/>
       <path id="DejaVuSans-29" d="M 513 4856 
L 1013 4856 
Q 1481 4119 1714 3412 
Q 1947 2706 1947 2009 
Q 1947 1309 1714 600 
Q 1481 -109 1013 -844 
L 513 -844 
Q 928 -128 1133 580 
Q 1338 1288 1338 2009 
Q 1338 2731 1133 3434 
Q 928 4138 513 4856 
z
" transform="scale(0.015625)"/>
      </defs>
      <use xlink:href="#DejaVuSans-44"/>
      <use xlink:href="#DejaVuSans-4e" transform="translate(77.001953 0)"/>
      <use xlink:href="#DejaVuSans-4c" transform="translate(151.806641 0)"/>
      <use xlink:href="#DejaVuSans-20" transform="translate(207.519531 0)"/>
      <use xlink:href="#DejaVuSans-28" transform="translate(239.306641 0)"/>
      <use xlink:href="#DejaVuSans-4c" transform="translate(278.320312 0)"/>
      <use xlink:href="#DejaVuSans-53" transform="translate(334.033203 0)"/>
      <use xlink:href="#DejaVuSans-42" transform="translate(397.509766 0)"/>
      <use xlink:href="#DejaVuSans-29" transform="translate(466.113281 0)"/>
     </g>
    </g>
   </g>
   <g id="line2d_31">
    <path d="M 88.517727 127.688565 
L 90.575029 127.688565 
L 90.575029 130.575145 
L 92.63233 130.575145 
L 92.63233 127.688565 
L 94.689631 127.688565 
L 94.689631 122.88833 
L 96.746933 122.88833 
L 96.746933 127.688565 
L 98.804234 127.688565 
L 98.804234 130.575145 
L 100.861535 130.575145 
L 100.861535 127.688565 
L 102.918837 127.688565 
L 102.918837 121.255914 
L 104.976138 121.255914 
L 104.976138 127.688565 
L 107.03344 127.688565 
L 107.03344 130.575145 
L 109.090741 130.575145 
L 109.090741 127.688565 
L 111.148042 127.688565 
L 111.148042 122.88833 
L 113.205344 122.88833 
L 113.205344 127.688565 
L 115.262645 127.688565 
L 115.262645 130.575145 
L 117.319946 130.575145 
L 117.319946 127.688565 
L 119.377248 127.688565 
L 119.377248 170.913544 
L 121.434549 170.913544 
L 121.434549 127.688565 
L 123.49185 127.688565 
L 123.49185 130.575145 
L 125.549152 130.575145 
L 125.549152 127.688565 
L 127.606453 127.688565 
L 127.606453 122.88833 
L 129.663754 122.88833 
L 129.663754 127.688565 
L 131.721056 127.688565 
L 131.721056 130.575145 
L 133.778357 130.575145 
L 133.778357 127.688565 
L 135.835659 127.688565 
L 135.835659 121.255914 
L 137.89296 121.255914 
L 137.89296 127.688565 
L 139.950261 127.688565 
L 139.950261 130.575145 
L 142.007563 130.575145 
L 142.007563 127.688565 
L 144.064864 127.688565 
L 144.064864 122.88833 
L 146.122165 122.88833 
L 146.122165 127.688565 
L 148.179467 127.688565 
L 148.179467 130.575145 
L 150.236768 130.575145 
L 150.236768 127.688565 
L 152.294069 127.688565 
L 152.294069 148.627864 
L 154.351371 148.627864 
L 154.351371 127.688565 
L 156.408672 127.688565 
L 156.408672 130.575145 
L 158.465974 130.575145 
L 158.465974 127.688565 
L 160.523275 127.688565 
L 160.523275 122.88833 
L 162.580576 122.88833 
L 162.580576 127.688565 
L 164.637878 127.688565 
L 164.637878 130.575145 
L 166.695179 130.575145 
L 166.695179 127.688565 
L 168.75248 127.688565 
L 168.75248 121.255914 
L 170.809782 121.255914 
L 170.809782 127.688565 
L 172.867083 127.688565 
L 172.867083 130.575145 
L 174.924384 130.575145 
L 174.924384 127.688565 
L 176.981686 127.688565 
L 176.981686 122.88833 
L 179.038987 122.88833 
L 179.038987 127.688565 
L 181.096288 127.688565 
L 181.096288 130.575145 
L 183.15359 130.575145 
L 183.15359 127.688565 
L 185.210891 127.688565 
L 185.210891 170.913544 
L 187.268193 170.913544 
L 187.268193 127.688565 
L 189.325494 127.688565 
L 189.325494 130.575145 
L 191.382795 130.575145 
L 191.382795 127.688565 
L 193.440097 127.688565 
L 193.440097 122.88833 
L 195.497398 122.88833 
L 195.497398 127.688565 
L 197.554699 127.688565 
L 197.554699 130.575145 
L 199.612001 130.575145 
L 199.612001 127.688565 
L 201.669302 127.688565 
L 201.669302 121.255914 
L 203.726603 121.255914 
L 203.726603 127.688565 
L 205.783905 127.688565 
L 205.783905 130.575145 
L 207.841206 130.575145 
L 207.841206 127.688565 
L 209.898508 127.688565 
L 209.898508 122.88833 
L 211.955809 122.88833 
L 211.955809 127.688565 
L 214.01311 127.688565 
L 214.01311 130.575145 
L 216.070412 130.575145 
L 216.070412 127.688565 
L 218.127713 127.688565 
L 218.127713 50.39657 
L 220.185014 50.39657 
L 220.185014 127.688565 
L 222.242316 127.688565 
L 222.242316 130.575145 
L 224.299617 130.575145 
L 224.299617 127.688565 
L 226.356918 127.688565 
L 226.356918 122.88833 
L 228.41422 122.88833 
L 228.41422 127.688565 
L 230.471521 127.688565 
L 230.471521 130.575145 
L 232.528822 130.575145 
L 232.528822 127.688565 
L 234.586124 127.688565 
L 234.586124 121.255914 
L 236.643425 121.255914 
L 236.643425 127.688565 
L 238.700727 127.688565 
L 238.700727 130.575145 
L 240.758028 130.575145 
L 240.758028 127.688565 
L 242.815329 127.688565 
L 242.815329 122.88833 
L 244.872631 122.88833 
L 244.872631 127.688565 
L 246.929932 127.688565 
L 246.929932 130.575145 
L 248.987233 130.575145 
L 248.987233 127.688565 
L 251.044535 127.688565 
L 251.044535 170.913544 
L 253.101836 170.913544 
L 253.101836 127.688565 
L 255.159137 127.688565 
L 255.159137 130.575145 
L 257.216439 130.575145 
L 257.216439 127.688565 
L 259.27374 127.688565 
L 259.27374 122.88833 
L 261.331042 122.88833 
L 261.331042 127.688565 
L 263.388343 127.688565 
L 263.388343 130.575145 
L 265.445644 130.575145 
L 265.445644 127.688565 
L 267.502946 127.688565 
L 267.502946 121.255914 
L 269.560247 121.255914 
L 269.560247 127.688565 
L 271.617548 127.688565 
L 271.617548 130.575145 
L 273.67485 130.575145 
L 273.67485 127.688565 
L 275.732151 127.688565 
L 275.732151 122.88833 
L 277.789452 122.88833 
L 277.789452 127.688565 
L 279.846754 127.688565 
L 279.846754 130.575145 
L 281.904055 130.575145 
L 281.904055 127.688565 
L 283.961356 127.688565 
L 283.961356 148.627864 
L 286.018658 148.627864 
L 286.018658 127.688565 
L 288.075959 127.688565 
L 288.075959 130.575145 
L 290.133261 130.575145 
L 290.133261 127.688565 
L 292.190562 127.688565 
L 292.190562 122.88833 
L 294.247863 122.88833 
L 294.247863 127.688565 
L 296.305165 127.688565 
L 296.305165 130.575145 
L 298.362466 130.575145 
L 298.362466 127.688565 
L 300.419767 127.688565 
L 300.419767 121.255914 
L 302.477069 121.255914 
L 302.477069 127.688565 
L 304.53437 127.688565 
L 304.53437 130.575145 
L 306.591671 130.575145 
L 306.591671 127.688565 
L 308.648973 127.688565 
L 308.648973 122.88833 
L 310.706274 122.88833 
L 310.706274 127.688565 
L 312.763576 127.688565 
L 312.763576 130.575145 
L 314.820877 130.575145 
L 314.820877 127.688565 
L 316.878178 127.688565 
L 316.878178 170.913544 
L 318.93548 170.913544 
L 318.93548 127.688565 
L 320.992781 127.688565 
L 320.992781 130.575145 
L 323.050082 130.575145 
L 323.050082 127.688565 
L 325.107384 127.688565 
L 325.107384 122.88833 
L 327.164685 122.88833 
L 327.164685 127.688565 
L 329.221986 127.688565 
L 329.221986 130.575145 
L 331.279288 130.575145 
L 331.279288 127.688565 
L 333.336589 127.688565 
L 333.336589 121.255914 
L 335.39389 121.255914 
L 335.39389 127.688565 
L 337.451192 127.688565 
L 337.451192 130.575145 
L 339.508493 130.575145 
L 339.508493 127.688565 
L 341.565795 127.688565 
L 341.565795 122.88833 
L 343.623096 122.88833 
L 343.623096 127.688565 
L 345.680397 127.688565 
L 345.680397 130.575145 
L 347.737699 130.575145 
L 347.737699 127.688565 
L 349.795 127.688565 
L 349.795 111.406696 
L 351.852301 111.406696 
L 351.852301 127.688565 
L 353.909603 127.688565 
L 353.909603 130.575145 
L 355.966904 130.575145 
L 355.966904 127.688565 
L 358.024205 127.688565 
L 358.024205 122.88833 
L 360.081507 122.88833 
L 360.081507 127.688565 
L 362.138808 127.688565 
L 362.138808 130.575145 
L 364.19611 130.575145 
L 364.19611 127.688565 
L 366.253411 127.688565 
L 366.253411 121.255914 
L 368.310712 121.255914 
L 368.310712 127.688565 
L 370.368014 127.688565 
L 370.368014 130.575145 
L 372.425315 130.575145 
L 372.425315 127.688565 
L 374.482616 127.688565 
L 374.482616 122.88833 
L 376.539918 122.88833 
L 376.539918 127.688565 
L 378.597219 127.688565 
L 378.597219 130.575145 
L 380.65452 130.575145 
L 380.65452 127.688565 
L 382.711822 127.688565 
L 382.711822 170.913544 
L 384.769123 170.913544 
L 384.769123 127.688565 
L 386.826424 127.688565 
L 386.826424 130.575145 
L 388.883726 130.575145 
L 388.883726 127.688565 
L 390.941027 127.688565 
L 390.941027 122.88833 
L 392.998329 122.88833 
L 392.998329 127.688565 
L 395.05563 127.688565 
L 395.05563 130.575145 
L 397.112931 130.575145 
L 397.112931 127.688565 
L 399.170233 127.688565 
L 399.170233 121.255914 
L 401.227534 121.255914 
L 401.227534 127.688565 
L 403.284835 127.688565 
L 403.284835 130.575145 
L 405.342137 130.575145 
L 405.342137 127.688565 
L 407.399438 127.688565 
L 407.399438 122.88833 
L 409.456739 122.88833 
L 409.456739 127.688565 
L 411.514041 127.688565 
L 411.514041 130.575145 
L 413.571342 130.575145 
L 413.571342 127.688565 
L 415.628644 127.688565 
L 415.628644 148.627864 
L 417.685945 148.627864 
L 417.685945 127.688565 
L 419.743246 127.688565 
L 419.743246 130.575145 
L 421.800548 130.575145 
L 421.800548 127.688565 
L 423.857849 127.688565 
L 423.857849 122.88833 
L 425.91515 122.88833 
L 425.91515 127.688565 
L 427.972452 127.688565 
L 427.972452 130.575145 
L 430.029753 130.575145 
L 430.029753 127.688565 
L 432.087054 127.688565 
L 432.087054 121.255914 
L 434.144356 121.255914 
L 434.144356 127.688565 
L 436.201657 127.688565 
L 436.201657 130.575145 
L 438.258958 130.575145 
L 438.258958 127.688565 
L 440.31626 127.688565 
L 440.31626 122.88833 
L 442.373561 122.88833 
L 442.373561 127.688565 
L 444.430863 127.688565 
L 444.430863 130.575145 
L 446.488164 130.575145 
L 446.488164 127.688565 
L 448.545465 127.688565 
L 448.545465 170.913544 
L 450.602767 170.913544 
L 450.602767 127.688565 
L 452.660068 127.688565 
L 452.660068 130.575145 
L 454.717369 130.575145 
L 454.717369 127.688565 
L 456.774671 127.688565 
L 456.774671 122.88833 
L 458.831972 122.88833 
L 458.831972 127.688565 
L 460.889273 127.688565 
L 460.889273 130.575145 
L 462.946575 130.575145 
L 462.946575 127.688565 
L 465.003876 127.688565 
L 465.003876 121.255914 
L 467.061178 121.255914 
L 467.061178 127.688565 
L 469.118479 127.688565 
L 469.118479 130.575145 
L 471.17578 130.575145 
L 471.17578 127.688565 
L 473.233082 127.688565 
L 473.233082 122.88833 
L 475.290383 122.88833 
L 475.290383 127.688565 
L 477.347684 127.688565 
L 477.347684 130.575145 
L 479.404986 130.575145 
L 479.404986 127.688565 
L 481.462287 127.688565 
L 481.462287 50.39657 
L 483.519588 50.39657 
L 483.519588 127.688565 
L 485.57689 127.688565 
L 485.57689 130.575145 
L 487.634191 130.575145 
L 487.634191 127.688565 
L 489.691492 127.688565 
L 489.691492 122.88833 
L 491.748794 122.88833 
L 491.748794 127.688565 
L 493.806095 127.688565 
L 493.806095 130.575145 
L 495.863397 130.575145 
L 495.863397 127.688565 
L 497.920698 127.688565 
L 497.920698 121.255914 
L 499.977999 121.255914 
L 499.977999 127.688565 
L 502.035301 127.688565 
L 502.035301 130.575145 
L 504.092602 130.575145 
L 504.092602 127.688565 
L 506.149903 127.688565 
L 506.149903 122.88833 
L 508.207205 122.88833 
L 508.207205 127.688565 
L 510.264506 127.688565 
L 510.264506 130.575145 
L 512.321807 130.575145 
L 512.321807 127.688565 
L 514.379109 127.688565 
L 514.379109 170.913544 
L 516.43641 170.913544 
L 516.43641 127.688565 
L 518.493712 127.688565 
L 518.493712 130.575145 
L 520.551013 130.575145 
L 520.551013 127.688565 
L 522.608314 127.688565 
L 522.608314 122.88833 
L 524.665616 122.88833 
L 524.665616 127.688565 
L 526.722917 127.688565 
L 526.722917 130.575145 
L 528.780218 130.575145 
L 528.780218 127.688565 
L 530.83752 127.688565 
L 530.83752 121.255914 
L 532.894821 121.255914 
L 532.894821 127.688565 
L 534.952122 127.688565 
L 534.952122 130.575145 
L 537.009424 130.575145 
L 537.009424 127.688565 
L 539.066725 127.688565 
L 539.066725 122.88833 
L 541.124026 122.88833 
L 541.124026 127.688565 
L 543.181328 127.688565 
L 543.181328 130.575145 
L 545.238629 130.575145 
L 545.238629 127.688565 
L 547.295931 127.688565 
L 547.295931 148.627864 
L 549.353232 148.627864 
L 549.353232 127.688565 
L 551.410533 127.688565 
L 551.410533 130.575145 
L 553.467835 130.575145 
L 553.467835 127.688565 
L 555.525136 127.688565 
L 555.525136 122.88833 
L 557.582437 122.88833 
L 557.582437 127.688565 
L 559.639739 127.688565 
L 559.639739 130.575145 
L 561.69704 130.575145 
L 561.69704 127.688565 
L 563.754341 127.688565 
L 563.754341 121.255914 
L 565.811643 121.255914 
L 565.811643 127.688565 
L 567.868944 127.688565 
L 567.868944 130.575145 
L 569.926246 130.575145 
L 569.926246 127.688565 
L 571.983547 127.688565 
L 571.983547 122.88833 
L 574.040848 122.88833 
L 574.040848 127.688565 
L 576.09815 127.688565 
L 576.09815 130.575145 
L 578.155451 130.575145 
L 578.155451 127.688565 
L 580.212752 127.688565 
L 580.212752 170.913544 
L 582.270054 170.913544 
L 582.270054 127.688565 
L 584.327355 127.688565 
L 584.327355 130.575145 
L 586.384656 130.575145 
L 586.384656 127.688565 
L 588.441958 127.688565 
L 588.441958 122.88833 
L 590.499259 122.88833 
L 590.499259 127.688565 
L 592.55656 127.688565 
L 592.55656 130.575145 
L 594.613862 130.575145 
L 594.613862 127.688565 
L 596.671163 127.688565 
L 596.671163 121.255914 
L 598.728465 121.255914 
L 598.728465 127.688565 
L 600.785766 127.688565 
L 600.785766 130.575145 
L 602.843067 130.575145 
L 602.843067 127.688565 
L 604.900369 127.688565 
L 604.900369 122.88833 
L 606.95767 122.88833 
L 606.95767 127.688565 
L 609.014971 127.688565 
L 609.014971 130.575145 
L 611.072273 130.575145 
L 611.072273 127.688565 
L 611.072273 127.688565 
" clip-path="url(#pd0bdf8c5bb)" style="fill: none; stroke: #ff8c00; stroke-opacity: 0.85; stroke-width: 0.8; stroke-linecap: square"/>
   </g>
   <g id="line2d_32">
    <path d="M 62.39 128.42 
L 637.2 128.42 
" clip-path="url(#pd0bdf8c5bb)" style="fill: none; stroke: #000000; stroke-width: 0.5; stroke-linecap: square"/>
   </g>
   <g id="line2d_33">
    <path d="M 62.39 21.492727 
L 637.2 21.492727 
" clip-path="url(#pd0bdf8c5bb)" style="fill: none; stroke-dasharray: 2.22,0.96; stroke-dashoffset: 0; stroke: #ff6347; stroke-width: 0.6"/>
   </g>
   <g id="line2d_34">
    <path d="M 62.39 235.347273 
L 637.2 235.347273 
" clip-path="url(#pd0bdf8c5bb)" style="fill: none; stroke-dasharray: 2.22,0.96; stroke-dashoffset: 0; stroke: #ff6347; stroke-width: 0.6"/>
   </g>
   <g id="patch_3">
    <path d="M 62.39 246.04 
L 62.39 10.8 
" style="fill: none; stroke: #000000; stroke-width: 0.8; stroke-linejoin: miter; stroke-linecap: square"/>
   </g>
   <g id="patch_4">
    <path d="M 637.2 246.04 
L 637.2 10.8 
" style="fill: none; stroke: #000000; stroke-width: 0.8; stroke-linejoin: miter; stroke-linecap: square"/>
   </g>
   <g id="patch_5">
    <path d="M 62.39 246.04 
L 637.2 246.04 
" style="fill: none; stroke: #000000; stroke-width: 0.8; stroke-linejoin: miter; stroke-linecap: square"/>
   </g>
   <g id="patch_6">
    <path d="M 62.39 10.8 
L 637.2 10.8 
" style="fill: none; stroke: #000000; stroke-width: 0.8; stroke-linejoin: miter; stroke-linecap: square"/>
   </g>
   <g id="legend_1">
    <g id="patch_7">
     <path d="M 490.98375 52.4275 
L 631.6 52.4275 
Q 633.2 52.4275 633.2 50.8275 
L 633.2 16.4 
Q 633.2 14.8 631.6 14.8 
L 490.98375 14.8 
Q 489.38375 14.8 489.38375 16.4 
L 489.38375 50.8275 
Q 489.38375 52.4275 490.98375 52.4275 
z
" style="fill: #ffffff; opacity: 0.8; stroke: #cccccc; stroke-linejoin: miter"/>
    </g>
    <g id="line2d_35">
     <path d="M 492.58375 21.27875 
L 500.58375 21.27875 
L 500.58375 21.27875 
L 508.58375 21.27875 
L 508.58375 21.27875 
" style="fill: none; stroke: #ff8c00; stroke-opacity: 0.85; stroke-width: 0.8; stroke-linecap: square"/>
    </g>
    <g id="text_18">
     <!-- Mismatch (peak 0.7297 LSB) -->
     <g transform="translate(514.98375 24.07875) scale(0.08 -0.08)">
      <defs>
       <path id="DejaVuSans-4d" d="M 628 4666 
L 1569 4666 
L 2759 1491 
L 3956 4666 
L 4897 4666 
L 4897 0 
L 4281 0 
L 4281 4097 
L 3078 897 
L 2444 897 
L 1241 4097 
L 1241 0 
L 628 0 
L 628 4666 
z
" transform="scale(0.015625)"/>
       <path id="DejaVuSans-73" d="M 2834 3397 
L 2834 2853 
Q 2591 2978 2328 3040 
Q 2066 3103 1784 3103 
Q 1356 3103 1142 2972 
Q 928 2841 928 2578 
Q 928 2378 1081 2264 
Q 1234 2150 1697 2047 
L 1894 2003 
Q 2506 1872 2764 1633 
Q 3022 1394 3022 966 
Q 3022 478 2636 193 
Q 2250 -91 1575 -91 
Q 1294 -91 989 -36 
Q 684 19 347 128 
L 347 722 
Q 666 556 975 473 
Q 1284 391 1588 391 
Q 1994 391 2212 530 
Q 2431 669 2431 922 
Q 2431 1156 2273 1281 
Q 2116 1406 1581 1522 
L 1381 1569 
Q 847 1681 609 1914 
Q 372 2147 372 2553 
Q 372 3047 722 3315 
Q 1072 3584 1716 3584 
Q 2034 3584 2315 3537 
Q 2597 3491 2834 3397 
z
" transform="scale(0.015625)"/>
       <path id="DejaVuSans-6d" d="M 3328 2828 
Q 3544 3216 3844 3400 
Q 4144 3584 4550 3584 
Q 5097 3584 5394 3201 
Q 5691 2819 5691 2113 
L 5691 0 
L 5113 0 
L 5113 2094 
Q 5113 2597 4934 2840 
Q 4756 3084 4391 3084 
Q 3944 3084 3684 2787 
Q 3425 2491 3425 1978 
L 3425 0 
L 2847 0 
L 2847 2094 
Q 2847 2600 2669 2842 
Q 2491 3084 2119 3084 
Q 1678 3084 1418 2786 
Q 1159 2488 1159 1978 
L 1159 0 
L 581 0 
L 581 3500 
L 1159 3500 
L 1159 2956 
Q 1356 3278 1631 3431 
Q 1906 3584 2284 3584 
Q 2666 3584 2933 3390 
Q 3200 3197 3328 2828 
z
" transform="scale(0.015625)"/>
       <path id="DejaVuSans-68" d="M 3513 2113 
L 3513 0 
L 2938 0 
L 2938 2094 
Q 2938 2591 2744 2837 
Q 2550 3084 2163 3084 
Q 1697 3084 1428 2787 
Q 1159 2491 1159 1978 
L 1159 0 
L 581 0 
L 581 4863 
L 1159 4863 
L 1159 2956 
Q 1366 3272 1645 3428 
Q 1925 3584 2291 3584 
Q 2894 3584 3203 3211 
Q 3513 2838 3513 2113 
z
" transform="scale(0.015625)"/>
       <path id="DejaVuSans-70" d="M 1159 525 
L 1159 -1331 
L 581 -1331 
L 581 3500 
L 1159 3500 
L 1159 2969 
Q 1341 3281 1617 3432 
Q 1894 3584 2278 3584 
Q 2916 3584 3314 3078 
Q 3713 2572 3713 1747 
Q 3713 922 3314 415 
Q 2916 -91 2278 -91 
Q 1894 -91 1617 61 
Q 1341 213 1159 525 
z
M 3116 1747 
Q 3116 2381 2855 2742 
Q 2594 3103 2138 3103 
Q 1681 3103 1420 2742 
Q 1159 2381 1159 1747 
Q 1159 1113 1420 752 
Q 1681 391 2138 391 
Q 2594 391 2855 752 
Q 3116 1113 3116 1747 
z
" transform="scale(0.015625)"/>
       <path id="DejaVuSans-6b" d="M 581 4863 
L 1159 4863 
L 1159 1991 
L 2875 3500 
L 3609 3500 
L 1753 1863 
L 3688 0 
L 2938 0 
L 1159 1709 
L 1159 0 
L 581 0 
L 581 4863 
z
" transform="scale(0.015625)"/>
       <path id="DejaVuSans-39" d="M 703 97 
L 703 672 
Q 941 559 1184 500 
Q 1428 441 1663 441 
Q 2288 441 2617 861 
Q 2947 1281 2994 2138 
Q 2813 1869 2534 1725 
Q 2256 1581 1919 1581 
Q 1219 1581 811 2004 
Q 403 2428 403 3163 
Q 403 3881 828 4315 
Q 1253 4750 1959 4750 
Q 2769 4750 3195 4129 
Q 3622 3509 3622 2328 
Q 3622 1225 3098 567 
Q 2575 -91 1691 -91 
Q 1453 -91 1209 -44 
Q 966 3 703 97 
z
M 1959 2075 
Q 2384 2075 2632 2365 
Q 2881 2656 2881 3163 
Q 2881 3666 2632 3958 
Q 2384 4250 1959 4250 
Q 1534 4250 1286 3958 
Q 1038 3666 1038 3163 
Q 1038 2656 1286 2365 
Q 1534 2075 1959 2075 
z
" transform="scale(0.015625)"/>
      </defs>
      <use xlink:href="#DejaVuSans-4d"/>
      <use xlink:href="#DejaVuSans-69" transform="translate(86.279297 0)"/>
      <use xlink:href="#DejaVuSans-73" transform="translate(114.0625 0)"/>
      <use xlink:href="#DejaVuSans-6d" transform="translate(166.162109 0)"/>
      <use xlink:href="#DejaVuSans-61" transform="translate(263.574219 0)"/>
      <use xlink:href="#DejaVuSans-74" transform="translate(324.853516 0)"/>
      <use xlink:href="#DejaVuSans-63" transform="translate(364.0625 0)"/>
      <use xlink:href="#DejaVuSans-68" transform="translate(419.042969 0)"/>
      <use xlink:href="#DejaVuSans-20" transform="translate(482.421875 0)"/>
      <use xlink:href="#DejaVuSans-28" transform="translate(514.208984 0)"/>
      <use xlink:href="#DejaVuSans-70" transform="translate(553.222656 0)"/>
      <use xlink:href="#DejaVuSans-65" transform="translate(616.699219 0)"/>
      <use xlink:href="#DejaVuSans-61" transform="translate(678.222656 0)"/>
      <use xlink:href="#DejaVuSans-6b" transform="translate(739.501953 0)"/>
      <use xlink:href="#DejaVuSans-20" transform="translate(797.412109 0)"/>
      <use xlink:href="#DejaVuSans-30" transform="translate(829.199219 0)"/>
      <use xlink:href="#DejaVuSans-2e" transform="translate(892.822266 0)"/>
      <use xlink:href="#DejaVuSans-37" transform="translate(924.609375 0)"/>
      <use xlink:href="#DejaVuSans-32" transform="translate(988.232422 0)"/>
      <use xlink:href="#DejaVuSans-39" transform="translate(1051.855469 0)"/>
      <use xlink:href="#DejaVuSans-37" transform="translate(1115.478516 0)"/>
      <use xlink:href="#DejaVuSans-20" transform="translate(1179.101562 0)"/>
      <use xlink:href="#DejaVuSans-4c" transform="translate(1210.888672 0)"/>
      <use xlink:href="#DejaVuSans-53" transform="translate(1266.601562 0)"/>
      <use xlink:href="#DejaVuSans-42" transform="translate(1330.078125 0)"/>
      <use xlink:href="#DejaVuSans-29" transform="translate(1398.681641 0)"/>
     </g>
    </g>
    <g id="line2d_36">
     <path d="M 492.58375 33.02125 
L 500.58375 33.02125 
L 508.58375 33.02125 
" style="fill: none; stroke-dasharray: 2.22,0.96; stroke-dashoffset: 0; stroke: #ff6347; stroke-width: 0.6"/>
    </g>
    <g id="text_19">
     <!-- +1 LSB -->
     <g transform="translate(514.98375 35.82125) scale(0.08 -0.08)">
      <defs>
       <path id="DejaVuSans-2b" d="M 2944 4013 
L 2944 2272 
L 4684 2272 
L 4684 1741 
L 2944 1741 
L 2944 0 
L 2419 0 
L 2419 1741 
L 678 1741 
L 678 2272 
L 2419 2272 
L 2419 4013 
L 2944 4013 
z
" transform="scale(0.015625)"/>
      </defs>
      <use xlink:href="#DejaVuSans-2b"/>
      <use xlink:href="#DejaVuSans-31" transform="translate(83.789062 0)"/>
      <use xlink:href="#DejaVuSans-20" transform="translate(147.412109 0)"/>
      <use xlink:href="#DejaVuSans-4c" transform="translate(179.199219 0)"/>
      <use xlink:href="#DejaVuSans-53" transform="translate(234.912109 0)"/>
      <use xlink:href="#DejaVuSans-42" transform="translate(298.388672 0)"/>
     </g>
    </g>
    <g id="line2d_37">
     <path d="M 492.58375 44.76375 
L 500.58375 44.76375 
L 508.58375 44.76375 
" style="fill: none; stroke-dasharray: 2.22,0.96; stroke-dashoffset: 0; stroke: #ff6347; stroke-width: 0.6"/>
    </g>
    <g id="text_20">
     <!-- −1 LSB -->
     <g transform="translate(514.98375 47.56375) scale(0.08 -0.08)">
      <use xlink:href="#DejaVuSans-2212"/>
      <use xlink:href="#DejaVuSans-31" transform="translate(83.789062 0)"/>
      <use xlink:href="#DejaVuSans-20" transform="translate(147.412109 0)"/>
      <use xlink:href="#DejaVuSans-4c" transform="translate(179.199219 0)"/>
      <use xlink:href="#DejaVuSans-53" transform="translate(234.912109 0)"/>
      <use xlink:href="#DejaVuSans-42" transform="translate(298.388672 0)"/>
     </g>
    </g>
   </g>
  </g>
 </g>
 <defs>
  <clipPath id="pd0bdf8c5bb">
   <rect x="62.39" y="10.8" width="574.81" height="235.24"/>
  </clipPath>
 </defs>
</svg>
