<?xml version="1.0" encoding="utf-8" standalone="no"?>
<!DOCTYPE svg PUBLIC "-//W3C//DTD SVG 1.1//EN"
  "http://www.w3.org/Graphics/SVG/1.1/DTD/svg11.dtd">
<svg xmlns:xlink="http://www.w3.org/1999/xlink" width="648pt" height="288pt" viewBox="0 0 648 288" xmlns="http://www.w3.org/2000/svg" version="1.1">
 <metadata>
  <rdf:RDF xmlns:dc="http://purl.org/dc/elements/1.1/" xmlns:cc="http://creativecommons.org/ns#" xmlns:rdf="http://www.w3.org/1999/02/22-rdf-syntax-ns#">
   <cc:Work>
    <dc:type rdf:resource="http://purl.org/dc/dcmitype/StillImage"/>
    <dc:date>2026-04-02T19:12:16.966199</dc:date>
    <dc:format>image/svg+xml</dc:format>
    <dc:creator>
     <cc:Agent>
      <dc:title>Matplotlib v3.10.8, https://matplotlib.org/</dc:title>
     </cc:Agent>
    </dc:creator>
   </cc:Work>
  </rdf:RDF>
 </metadata>
 <defs>
  <style type="text/css">*{stroke-linejoin: round; stroke-linecap: butt}</style>
 </defs>
 <g id="figure_1">
  <g id="patch_1">
   <path d="M 0 288 
L 648 288 
L 648 0 
L 0 0 
z
" style="fill: #ffffff"/>
  </g>
  <g id="axes_1">
   <g id="patch_2">
    <path d="M 56.09 246.04 
L 637.2 246.04 
L 637.2 11.361896 
L 56.09 11.361896 
z
" style="fill: #ffffff"/>
   </g>
   <g id="matplotlib.axis_1">
    <g id="xtick_1">
     <g id="line2d_1">
      <path d="M 82.504091 246.04 
L 82.504091 11.361896 
" clip-path="url(#p14910ce101)" style="fill: none; stroke: #b0b0b0; stroke-width: 0.3; stroke-linecap: square"/>
     </g>
     <g id="line2d_2">
      <defs>
       <path id="m036a4500b6" d="M 0 0 
L 0 3.5 
" style="stroke: #000000; stroke-width: 0.8"/>
      </defs>
      <g>
       <use xlink:href="#m036a4500b6" x="82.504091" y="246.04" style="stroke: #000000; stroke-width: 0.8"/>
      </g>
     </g>
     <g id="text_1">
      <!-- 0 -->
      <g transform="translate(79.322841 260.638438) scale(0.1 -0.1)">
       <defs>
        <path id="DejaVuSans-30" d="M 2034 4250 
Q 1547 4250 1301 3770 
Q 1056 3291 1056 2328 
Q 1056 1369 1301 889 
Q 1547 409 2034 409 
Q 2525 409 2770 889 
Q 3016 1369 3016 2328 
Q 3016 3291 2770 3770 
Q 2525 4250 2034 4250 
z
M 2034 4750 
Q 2819 4750 3233 4129 
Q 3647 3509 3647 2328 
Q 3647 1150 3233 529 
Q 2819 -91 2034 -91 
Q 1250 -91 836 529 
Q 422 1150 422 2328 
Q 422 3509 836 4129 
Q 1250 4750 2034 4750 
z
" transform="scale(0.015625)"/>
       </defs>
       <use xlink:href="#DejaVuSans-30"/>
      </g>
     </g>
    </g>
    <g id="xtick_2">
     <g id="line2d_3">
      <path d="M 186.088761 246.04 
L 186.088761 11.361896 
" clip-path="url(#p14910ce101)" style="fill: none; stroke: #b0b0b0; stroke-width: 0.3; stroke-linecap: square"/>
     </g>
     <g id="line2d_4">
      <g>
       <use xlink:href="#m036a4500b6" x="186.088761" y="246.04" style="stroke: #000000; stroke-width: 0.8"/>
      </g>
     </g>
     <g id="text_2">
      <!-- 50 -->
      <g transform="translate(179.726261 260.638438) scale(0.1 -0.1)">
       <defs>
        <path id="DejaVuSans-35" d="M 691 4666 
L 3169 4666 
L 3169 4134 
L 1269 4134 
L 1269 2991 
Q 1406 3038 1543 3061 
Q 1681 3084 1819 3084 
Q 2600 3084 3056 2656 
Q 3513 2228 3513 1497 
Q 3513 744 3044 326 
Q 2575 -91 1722 -91 
Q 1428 -91 1123 -41 
Q 819 9 494 109 
L 494 744 
Q 775 591 1075 516 
Q 1375 441 1709 441 
Q 2250 441 2565 725 
Q 2881 1009 2881 1497 
Q 2881 1984 2565 2268 
Q 2250 2553 1709 2553 
Q 1456 2553 1204 2497 
Q 953 2441 691 2322 
L 691 4666 
z
" transform="scale(0.015625)"/>
       </defs>
       <use xlink:href="#DejaVuSans-35"/>
       <use xlink:href="#DejaVuSans-30" transform="translate(63.623047 0)"/>
      </g>
     </g>
    </g>
    <g id="xtick_3">
     <g id="line2d_5">
      <path d="M 289.673431 246.04 
L 289.673431 11.361896 
" clip-path="url(#p14910ce101)" style="fill: none; stroke: #b0b0b0; stroke-width: 0.3; stroke-linecap: square"/>
     </g>
     <g id="line2d_6">
      <g>
       <use xlink:href="#m036a4500b6" x="289.673431" y="246.04" style="stroke: #000000; stroke-width: 0.8"/>
      </g>
     </g>
     <g id="text_3">
      <!-- 100 -->
      <g transform="translate(280.129681 260.638438) scale(0.1 -0.1)">
       <defs>
        <path id="DejaVuSans-31" d="M 794 531 
L 1825 531 
L 1825 4091 
L 703 3866 
L 703 4441 
L 1819 4666 
L 2450 4666 
L 2450 531 
L 3481 531 
L 3481 0 
L 794 0 
L 794 531 
z
" transform="scale(0.015625)"/>
       </defs>
       <use xlink:href="#DejaVuSans-31"/>
       <use xlink:href="#DejaVuSans-30" transform="translate(63.623047 0)"/>
       <use xlink:href="#DejaVuSans-30" transform="translate(127.246094 0)"/>
      </g>
     </g>
    </g>
    <g id="xtick_4">
     <g id="line2d_7">
      <path d="M 393.258102 246.04 
L 393.258102 11.361896 
" clip-path="url(#p14910ce101)" style="fill: none; stroke: #b0b0b0; stroke-width: 0.3; stroke-linecap: square"/>
     </g>
     <g id="line2d_8">
      <g>
       <use xlink:href="#m036a4500b6" x="393.258102" y="246.04" style="stroke: #000000; stroke-width: 0.8"/>
      </g>
     </g>
     <g id="text_4">
      <!-- 150 -->
      <g transform="translate(383.714352 260.638438) scale(0.1 -0.1)">
       <use xlink:href="#DejaVuSans-31"/>
       <use xlink:href="#DejaVuSans-35" transform="translate(63.623047 0)"/>
       <use xlink:href="#DejaVuSans-30" transform="translate(127.246094 0)"/>
      </g>
     </g>
    </g>
    <g id="xtick_5">
     <g id="line2d_9">
      <path d="M 496.842772 246.04 
L 496.842772 11.361896 
" clip-path="url(#p14910ce101)" style="fill: none; stroke: #b0b0b0; stroke-width: 0.3; stroke-linecap: square"/>
     </g>
     <g id="line2d_10">
      <g>
       <use xlink:href="#m036a4500b6" x="496.842772" y="246.04" style="stroke: #000000; stroke-width: 0.8"/>
      </g>
     </g>
     <g id="text_5">
      <!-- 200 -->
      <g transform="translate(487.299022 260.638438) scale(0.1 -0.1)">
       <defs>
        <path id="DejaVuSans-32" d="M 1228 531 
L 3431 531 
L 3431 0 
L 469 0 
L 469 531 
Q 828 903 1448 1529 
Q 2069 2156 2228 2338 
Q 2531 2678 2651 2914 
Q 2772 3150 2772 3378 
Q 2772 3750 2511 3984 
Q 2250 4219 1831 4219 
Q 1534 4219 1204 4116 
Q 875 4013 500 3803 
L 500 4441 
Q 881 4594 1212 4672 
Q 1544 4750 1819 4750 
Q 2544 4750 2975 4387 
Q 3406 4025 3406 3419 
Q 3406 3131 3298 2873 
Q 3191 2616 2906 2266 
Q 2828 2175 2409 1742 
Q 1991 1309 1228 531 
z
" transform="scale(0.015625)"/>
       </defs>
       <use xlink:href="#DejaVuSans-32"/>
       <use xlink:href="#DejaVuSans-30" transform="translate(63.623047 0)"/>
       <use xlink:href="#DejaVuSans-30" transform="translate(127.246094 0)"/>
      </g>
     </g>
    </g>
    <g id="xtick_6">
     <g id="line2d_11">
      <path d="M 600.427442 246.04 
L 600.427442 11.361896 
" clip-path="url(#p14910ce101)" style="fill: none; stroke: #b0b0b0; stroke-width: 0.3; stroke-linecap: square"/>
     </g>
     <g id="line2d_12">
      <g>
       <use xlink:href="#m036a4500b6" x="600.427442" y="246.04" style="stroke: #000000; stroke-width: 0.8"/>
      </g>
     </g>
     <g id="text_6">
      <!-- 250 -->
      <g transform="translate(590.883692 260.638438) scale(0.1 -0.1)">
       <use xlink:href="#DejaVuSans-32"/>
       <use xlink:href="#DejaVuSans-35" transform="translate(63.623047 0)"/>
       <use xlink:href="#DejaVuSans-30" transform="translate(127.246094 0)"/>
      </g>
     </g>
    </g>
    <g id="text_7">
     <!-- Digital code -->
     <g transform="translate(316.780937 274.316562) scale(0.1 -0.1)">
      <defs>
       <path id="DejaVuSans-44" d="M 1259 4147 
L 1259 519 
L 2022 519 
Q 2988 519 3436 956 
Q 3884 1394 3884 2338 
Q 3884 3275 3436 3711 
Q 2988 4147 2022 4147 
L 1259 4147 
z
M 628 4666 
L 1925 4666 
Q 3281 4666 3915 4102 
Q 4550 3538 4550 2338 
Q 4550 1131 3912 565 
Q 3275 0 1925 0 
L 628 0 
L 628 4666 
z
" transform="scale(0.015625)"/>
       <path id="DejaVuSans-69" d="M 603 3500 
L 1178 3500 
L 1178 0 
L 603 0 
L 603 3500 
z
M 603 4863 
L 1178 4863 
L 1178 4134 
L 603 4134 
L 603 4863 
z
" transform="scale(0.015625)"/>
       <path id="DejaVuSans-67" d="M 2906 1791 
Q 2906 2416 2648 2759 
Q 2391 3103 1925 3103 
Q 1463 3103 1205 2759 
Q 947 2416 947 1791 
Q 947 1169 1205 825 
Q 1463 481 1925 481 
Q 2391 481 2648 825 
Q 2906 1169 2906 1791 
z
M 3481 434 
Q 3481 -459 3084 -895 
Q 2688 -1331 1869 -1331 
Q 1566 -1331 1297 -1286 
Q 1028 -1241 775 -1147 
L 775 -588 
Q 1028 -725 1275 -790 
Q 1522 -856 1778 -856 
Q 2344 -856 2625 -561 
Q 2906 -266 2906 331 
L 2906 616 
Q 2728 306 2450 153 
Q 2172 0 1784 0 
Q 1141 0 747 490 
Q 353 981 353 1791 
Q 353 2603 747 3093 
Q 1141 3584 1784 3584 
Q 2172 3584 2450 3431 
Q 2728 3278 2906 2969 
L 2906 3500 
L 3481 3500 
L 3481 434 
z
" transform="scale(0.015625)"/>
       <path id="DejaVuSans-74" d="M 1172 4494 
L 1172 3500 
L 2356 3500 
L 2356 3053 
L 1172 3053 
L 1172 1153 
Q 1172 725 1289 603 
Q 1406 481 1766 481 
L 2356 481 
L 2356 0 
L 1766 0 
Q 1100 0 847 248 
Q 594 497 594 1153 
L 594 3053 
L 172 3053 
L 172 3500 
L 594 3500 
L 594 4494 
L 1172 4494 
z
" transform="scale(0.015625)"/>
       <path id="DejaVuSans-61" d="M 2194 1759 
Q 1497 1759 1228 1600 
Q 959 1441 959 1056 
Q 959 750 1161 570 
Q 1363 391 1709 391 
Q 2188 391 2477 730 
Q 2766 1069 2766 1631 
L 2766 1759 
L 2194 1759 
z
M 3341 1997 
L 3341 0 
L 2766 0 
L 2766 531 
Q 2569 213 2275 61 
Q 1981 -91 1556 -91 
Q 1019 -91 701 211 
Q 384 513 384 1019 
Q 384 1609 779 1909 
Q 1175 2209 1959 2209 
L 2766 2209 
L 2766 2266 
Q 2766 2663 2505 2880 
Q 2244 3097 1772 3097 
Q 1472 3097 1187 3025 
Q 903 2953 641 2809 
L 641 3341 
Q 956 3463 1253 3523 
Q 1550 3584 1831 3584 
Q 2591 3584 2966 3190 
Q 3341 2797 3341 1997 
z
" transform="scale(0.015625)"/>
       <path id="DejaVuSans-6c" d="M 603 4863 
L 1178 4863 
L 1178 0 
L 603 0 
L 603 4863 
z
" transform="scale(0.015625)"/>
       <path id="DejaVuSans-20" transform="scale(0.015625)"/>
       <path id="DejaVuSans-63" d="M 3122 3366 
L 3122 2828 
Q 2878 2963 2633 3030 
Q 2388 3097 2138 3097 
Q 1578 3097 1268 2742 
Q 959 2388 959 1747 
Q 959 1106 1268 751 
Q 1578 397 2138 397 
Q 2388 397 2633 464 
Q 2878 531 3122 666 
L 3122 134 
Q 2881 22 2623 -34 
Q 2366 -91 2075 -91 
Q 1284 -91 818 406 
Q 353 903 353 1747 
Q 353 2603 823 3093 
Q 1294 3584 2113 3584 
Q 2378 3584 2631 3529 
Q 2884 3475 3122 3366 
z
" transform="scale(0.015625)"/>
       <path id="DejaVuSans-6f" d="M 1959 3097 
Q 1497 3097 1228 2736 
Q 959 2375 959 1747 
Q 959 1119 1226 758 
Q 1494 397 1959 397 
Q 2419 397 2687 759 
Q 2956 1122 2956 1747 
Q 2956 2369 2687 2733 
Q 2419 3097 1959 3097 
z
M 1959 3584 
Q 2709 3584 3137 3096 
Q 3566 2609 3566 1747 
Q 3566 888 3137 398 
Q 2709 -91 1959 -91 
Q 1206 -91 779 398 
Q 353 888 353 1747 
Q 353 2609 779 3096 
Q 1206 3584 1959 3584 
z
" transform="scale(0.015625)"/>
       <path id="DejaVuSans-64" d="M 2906 2969 
L 2906 4863 
L 3481 4863 
L 3481 0 
L 2906 0 
L 2906 525 
Q 2725 213 2448 61 
Q 2172 -91 1784 -91 
Q 1150 -91 751 415 
Q 353 922 353 1747 
Q 353 2572 751 3078 
Q 1150 3584 1784 3584 
Q 2172 3584 2448 3432 
Q 2725 3281 2906 2969 
z
M 947 1747 
Q 947 1113 1208 752 
Q 1469 391 1925 391 
Q 2381 391 2643 752 
Q 2906 1113 2906 1747 
Q 2906 2381 2643 2742 
Q 2381 3103 1925 3103 
Q 1469 3103 1208 2742 
Q 947 2381 947 1747 
z
" transform="scale(0.015625)"/>
       <path id="DejaVuSans-65" d="M 3597 1894 
L 3597 1613 
L 953 1613 
Q 991 1019 1311 708 
Q 1631 397 2203 397 
Q 2534 397 2845 478 
Q 3156 559 3463 722 
L 3463 178 
Q 3153 47 2828 -22 
Q 2503 -91 2169 -91 
Q 1331 -91 842 396 
Q 353 884 353 1716 
Q 353 2575 817 3079 
Q 1281 3584 2069 3584 
Q 2775 3584 3186 3129 
Q 3597 2675 3597 1894 
z
M 3022 2063 
Q 3016 2534 2758 2815 
Q 2500 3097 2075 3097 
Q 1594 3097 1305 2825 
Q 1016 2553 972 2059 
L 3022 2063 
z
" transform="scale(0.015625)"/>
      </defs>
      <use xlink:href="#DejaVuSans-44"/>
      <use xlink:href="#DejaVuSans-69" transform="translate(77.001953 0)"/>
      <use xlink:href="#DejaVuSans-67" transform="translate(104.785156 0)"/>
      <use xlink:href="#DejaVuSans-69" transform="translate(168.261719 0)"/>
      <use xlink:href="#DejaVuSans-74" transform="translate(196.044922 0)"/>
      <use xlink:href="#DejaVuSans-61" transform="translate(235.253906 0)"/>
      <use xlink:href="#DejaVuSans-6c" transform="translate(296.533203 0)"/>
      <use xlink:href="#DejaVuSans-20" transform="translate(324.316406 0)"/>
      <use xlink:href="#DejaVuSans-63" transform="translate(356.103516 0)"/>
      <use xlink:href="#DejaVuSans-6f" transform="translate(411.083984 0)"/>
      <use xlink:href="#DejaVuSans-64" transform="translate(472.265625 0)"/>
      <use xlink:href="#DejaVuSans-65" transform="translate(535.742188 0)"/>
     </g>
    </g>
   </g>
   <g id="matplotlib.axis_2">
    <g id="ytick_1">
     <g id="line2d_13">
      <path d="M 56.09 242.443947 
L 637.2 242.443947 
" clip-path="url(#p14910ce101)" style="fill: none; stroke: #b0b0b0; stroke-width: 0.3; stroke-linecap: square"/>
     </g>
     <g id="line2d_14">
      <defs>
       <path id="m6b0a7881d0" d="M 0 0 
L -3.5 0 
" style="stroke: #000000; stroke-width: 0.8"/>
      </defs>
      <g>
       <use xlink:href="#m6b0a7881d0" x="56.09" y="242.443947" style="stroke: #000000; stroke-width: 0.8"/>
      </g>
     </g>
     <g id="text_8">
      <!-- −0.6 -->
      <g transform="translate(24.807188 246.243166) scale(0.1 -0.1)">
       <defs>
        <path id="DejaVuSans-2212" d="M 678 2272 
L 4684 2272 
L 4684 1741 
L 678 1741 
L 678 2272 
z
" transform="scale(0.015625)"/>
        <path id="DejaVuSans-2e" d="M 684 794 
L 1344 794 
L 1344 0 
L 684 0 
L 684 794 
z
" transform="scale(0.015625)"/>
        <path id="DejaVuSans-36" d="M 2113 2584 
Q 1688 2584 1439 2293 
Q 1191 2003 1191 1497 
Q 1191 994 1439 701 
Q 1688 409 2113 409 
Q 2538 409 2786 701 
Q 3034 994 3034 1497 
Q 3034 2003 2786 2293 
Q 2538 2584 2113 2584 
z
M 3366 4563 
L 3366 3988 
Q 3128 4100 2886 4159 
Q 2644 4219 2406 4219 
Q 1781 4219 1451 3797 
Q 1122 3375 1075 2522 
Q 1259 2794 1537 2939 
Q 1816 3084 2150 3084 
Q 2853 3084 3261 2657 
Q 3669 2231 3669 1497 
Q 3669 778 3244 343 
Q 2819 -91 2113 -91 
Q 1303 -91 875 529 
Q 447 1150 447 2328 
Q 447 3434 972 4092 
Q 1497 4750 2381 4750 
Q 2619 4750 2861 4703 
Q 3103 4656 3366 4563 
z
" transform="scale(0.015625)"/>
       </defs>
       <use xlink:href="#DejaVuSans-2212"/>
       <use xlink:href="#DejaVuSans-30" transform="translate(83.789062 0)"/>
       <use xlink:href="#DejaVuSans-2e" transform="translate(147.412109 0)"/>
       <use xlink:href="#DejaVuSans-36" transform="translate(179.199219 0)"/>
      </g>
     </g>
    </g>
    <g id="ytick_2">
     <g id="line2d_15">
      <path d="M 56.09 204.529614 
L 637.2 204.529614 
" clip-path="url(#p14910ce101)" style="fill: none; stroke: #b0b0b0; stroke-width: 0.3; stroke-linecap: square"/>
     </g>
     <g id="line2d_16">
      <g>
       <use xlink:href="#m6b0a7881d0" x="56.09" y="204.529614" style="stroke: #000000; stroke-width: 0.8"/>
      </g>
     </g>
     <g id="text_9">
      <!-- −0.4 -->
      <g transform="translate(24.807188 208.328833) scale(0.1 -0.1)">
       <defs>
        <path id="DejaVuSans-34" d="M 2419 4116 
L 825 1625 
L 2419 1625 
L 2419 4116 
z
M 2253 4666 
L 3047 4666 
L 3047 1625 
L 3713 1625 
L 3713 1100 
L 3047 1100 
L 3047 0 
L 2419 0 
L 2419 1100 
L 313 1100 
L 313 1709 
L 2253 4666 
z
" transform="scale(0.015625)"/>
       </defs>
       <use xlink:href="#DejaVuSans-2212"/>
       <use xlink:href="#DejaVuSans-30" transform="translate(83.789062 0)"/>
       <use xlink:href="#DejaVuSans-2e" transform="translate(147.412109 0)"/>
       <use xlink:href="#DejaVuSans-34" transform="translate(179.199219 0)"/>
      </g>
     </g>
    </g>
    <g id="ytick_3">
     <g id="line2d_17">
      <path d="M 56.09 166.615281 
L 637.2 166.615281 
" clip-path="url(#p14910ce101)" style="fill: none; stroke: #b0b0b0; stroke-width: 0.3; stroke-linecap: square"/>
     </g>
     <g id="line2d_18">
      <g>
       <use xlink:href="#m6b0a7881d0" x="56.09" y="166.615281" style="stroke: #000000; stroke-width: 0.8"/>
      </g>
     </g>
     <g id="text_10">
      <!-- −0.2 -->
      <g transform="translate(24.807188 170.4145) scale(0.1 -0.1)">
       <use xlink:href="#DejaVuSans-2212"/>
       <use xlink:href="#DejaVuSans-30" transform="translate(83.789062 0)"/>
       <use xlink:href="#DejaVuSans-2e" transform="translate(147.412109 0)"/>
       <use xlink:href="#DejaVuSans-32" transform="translate(179.199219 0)"/>
      </g>
     </g>
    </g>
    <g id="ytick_4">
     <g id="line2d_19">
      <path d="M 56.09 128.700948 
L 637.2 128.700948 
" clip-path="url(#p14910ce101)" style="fill: none; stroke: #b0b0b0; stroke-width: 0.3; stroke-linecap: square"/>
     </g>
     <g id="line2d_20">
      <g>
       <use xlink:href="#m6b0a7881d0" x="56.09" y="128.700948" style="stroke: #000000; stroke-width: 0.8"/>
      </g>
     </g>
     <g id="text_11">
      <!-- 0.0 -->
      <g transform="translate(33.186875 132.500167) scale(0.1 -0.1)">
       <use xlink:href="#DejaVuSans-30"/>
       <use xlink:href="#DejaVuSans-2e" transform="translate(63.623047 0)"/>
       <use xlink:href="#DejaVuSans-30" transform="translate(95.410156 0)"/>
      </g>
     </g>
    </g>
    <g id="ytick_5">
     <g id="line2d_21">
      <path d="M 56.09 90.786615 
L 637.2 90.786615 
" clip-path="url(#p14910ce101)" style="fill: none; stroke: #b0b0b0; stroke-width: 0.3; stroke-linecap: square"/>
     </g>
     <g id="line2d_22">
      <g>
       <use xlink:href="#m6b0a7881d0" x="56.09" y="90.786615" style="stroke: #000000; stroke-width: 0.8"/>
      </g>
     </g>
     <g id="text_12">
      <!-- 0.2 -->
      <g transform="translate(33.186875 94.585834) scale(0.1 -0.1)">
       <use xlink:href="#DejaVuSans-30"/>
       <use xlink:href="#DejaVuSans-2e" transform="translate(63.623047 0)"/>
       <use xlink:href="#DejaVuSans-32" transform="translate(95.410156 0)"/>
      </g>
     </g>
    </g>
    <g id="ytick_6">
     <g id="line2d_23">
      <path d="M 56.09 52.872282 
L 637.2 52.872282 
" clip-path="url(#p14910ce101)" style="fill: none; stroke: #b0b0b0; stroke-width: 0.3; stroke-linecap: square"/>
     </g>
     <g id="line2d_24">
      <g>
       <use xlink:href="#m6b0a7881d0" x="56.09" y="52.872282" style="stroke: #000000; stroke-width: 0.8"/>
      </g>
     </g>
     <g id="text_13">
      <!-- 0.4 -->
      <g transform="translate(33.186875 56.6715) scale(0.1 -0.1)">
       <use xlink:href="#DejaVuSans-30"/>
       <use xlink:href="#DejaVuSans-2e" transform="translate(63.623047 0)"/>
       <use xlink:href="#DejaVuSans-34" transform="translate(95.410156 0)"/>
      </g>
     </g>
    </g>
    <g id="ytick_7">
     <g id="line2d_25">
      <path d="M 56.09 14.957949 
L 637.2 14.957949 
" clip-path="url(#p14910ce101)" style="fill: none; stroke: #b0b0b0; stroke-width: 0.3; stroke-linecap: square"/>
     </g>
     <g id="line2d_26">
      <g>
       <use xlink:href="#m6b0a7881d0" x="56.09" y="14.957949" style="stroke: #000000; stroke-width: 0.8"/>
      </g>
     </g>
     <g id="text_14">
      <!-- 0.6 -->
      <g transform="translate(33.186875 18.757167) scale(0.1 -0.1)">
       <use xlink:href="#DejaVuSans-30"/>
       <use xlink:href="#DejaVuSans-2e" transform="translate(63.623047 0)"/>
       <use xlink:href="#DejaVuSans-36" transform="translate(95.410156 0)"/>
      </g>
     </g>
    </g>
    <g id="text_15">
     <!-- INL (LSB) -->
     <g transform="translate(18.7275 151.58376) rotate(-90) scale(0.1 -0.1)">
      <defs>
       <path id="DejaVuSans-49" d="M 628 4666 
L 1259 4666 
L 1259 0 
L 628 0 
L 628 4666 
z
" transform="scale(0.015625)"/>
       <path id="DejaVuSans-4e" d="M 628 4666 
L 1478 4666 
L 3547 763 
L 3547 4666 
L 4159 4666 
L 4159 0 
L 3309 0 
L 1241 3903 
L 1241 0 
L 628 0 
L 628 4666 
z
" transform="scale(0.015625)"/>
       <path id="DejaVuSans-4c" d="M 628 4666 
L 1259 4666 
L 1259 531 
L 3531 531 
L 3531 0 
L 628 0 
L 628 4666 
z
" transform="scale(0.015625)"/>
       <path id="DejaVuSans-28" d="M 1984 4856 
Q 1566 4138 1362 3434 
Q 1159 2731 1159 2009 
Q 1159 1288 1364 580 
Q 1569 -128 1984 -844 
L 1484 -844 
Q 1016 -109 783 600 
Q 550 1309 550 2009 
Q 550 2706 781 3412 
Q 1013 4119 1484 4856 
L 1984 4856 
z
" transform="scale(0.015625)"/>
       <path id="DejaVuSans-53" d="M 3425 4513 
L 3425 3897 
Q 3066 4069 2747 4153 
Q 2428 4238 2131 4238 
Q 1616 4238 1336 4038 
Q 1056 3838 1056 3469 
Q 1056 3159 1242 3001 
Q 1428 2844 1947 2747 
L 2328 2669 
Q 3034 2534 3370 2195 
Q 3706 1856 3706 1288 
Q 3706 609 3251 259 
Q 2797 -91 1919 -91 
Q 1588 -91 1214 -16 
Q 841 59 441 206 
L 441 856 
Q 825 641 1194 531 
Q 1563 422 1919 422 
Q 2459 422 2753 634 
Q 3047 847 3047 1241 
Q 3047 1584 2836 1778 
Q 2625 1972 2144 2069 
L 1759 2144 
Q 1053 2284 737 2584 
Q 422 2884 422 3419 
Q 422 4038 858 4394 
Q 1294 4750 2059 4750 
Q 2388 4750 2728 4690 
Q 3069 4631 3425 4513 
z
" transform="scale(0.015625)"/>
       <path id="DejaVuSans-42" d="M 1259 2228 
L 1259 519 
L 2272 519 
Q 2781 519 3026 730 
Q 3272 941 3272 1375 
Q 3272 1813 3026 2020 
Q 2781 2228 2272 2228 
L 1259 2228 
z
M 1259 4147 
L 1259 2741 
L 2194 2741 
Q 2656 2741 2882 2914 
Q 3109 3088 3109 3444 
Q 3109 3797 2882 3972 
Q 2656 4147 2194 4147 
L 1259 4147 
z
M 628 4666 
L 2241 4666 
Q 2963 4666 3353 4366 
Q 3744 4066 3744 3513 
Q 3744 3084 3544 2831 
Q 3344 2578 2956 2516 
Q 3422 2416 3680 2098 
Q 3938 1781 3938 1306 
Q 3938 681 3513 340 
Q 3088 0 2303 0 
L 628 0 
L 628 4666 
z
" transform="scale(0.015625)"/>
       <path id="DejaVuSans-29" d="M 513 4856 
L 1013 4856 
Q 1481 4119 1714 3412 
Q 1947 2706 1947 2009 
Q 1947 1309 1714 600 
Q 1481 -109 1013 -844 
L 513 -844 
Q 928 -128 1133 580 
Q 1338 1288 1338 2009 
Q 1338 2731 1133 3434 
Q 928 4138 513 4856 
z
" transform="scale(0.015625)"/>
      </defs>
      <use xlink:href="#DejaVuSans-49"/>
      <use xlink:href="#DejaVuSans-4e" transform="translate(29.492188 0)"/>
      <use xlink:href="#DejaVuSans-4c" transform="translate(104.296875 0)"/>
      <use xlink:href="#DejaVuSans-20" transform="translate(160.009766 0)"/>
      <use xlink:href="#DejaVuSans-28" transform="translate(191.796875 0)"/>
      <use xlink:href="#DejaVuSans-4c" transform="translate(230.810547 0)"/>
      <use xlink:href="#DejaVuSans-53" transform="translate(286.523438 0)"/>
      <use xlink:href="#DejaVuSans-42" transform="translate(350 0)"/>
      <use xlink:href="#DejaVuSans-29" transform="translate(418.603516 0)"/>
     </g>
    </g>
   </g>
   <g id="line2d_27">
    <path d="M 82.504091 128.700948 
L 84.575784 127.401498 
L 86.647478 131.219674 
L 88.719171 129.920224 
L 90.790865 120.110424 
L 92.862558 118.810974 
L 94.934251 122.62915 
L 97.005945 121.3297 
L 99.077638 108.625785 
L 101.149332 107.326335 
L 103.221025 111.144511 
L 105.292718 109.845061 
L 107.364412 100.035261 
L 109.436105 98.735811 
L 111.507799 102.553987 
L 113.579492 101.254537 
L 115.651185 176.588776 
L 117.722879 175.289327 
L 119.794572 179.107502 
L 121.866266 177.808053 
L 123.937959 167.998252 
L 126.009652 166.698803 
L 128.081346 170.516978 
L 130.153039 169.217529 
L 132.224733 156.513614 
L 134.296426 155.214164 
L 136.368119 159.03234 
L 138.439813 157.73289 
L 140.511506 147.92309 
L 142.5832 146.62364 
L 144.654893 150.441816 
L 146.726586 149.142366 
L 148.79828 184.966259 
L 150.869973 183.666809 
L 152.941667 187.484985 
L 155.01336 186.185535 
L 157.085053 176.375735 
L 159.156747 175.076285 
L 161.22844 178.894461 
L 163.300134 177.595011 
L 165.371827 164.891096 
L 167.44352 163.591646 
L 169.515214 167.409822 
L 171.586907 166.110372 
L 173.658601 156.300572 
L 175.730294 155.001122 
L 177.801988 158.819298 
L 179.873681 157.519848 
L 181.945374 232.854087 
L 184.017068 231.554638 
L 186.088761 235.372813 
L 188.160455 234.073364 
L 190.232148 224.263563 
L 192.303841 222.964113 
L 194.375535 226.782289 
L 196.447228 225.48284 
L 198.518922 212.778925 
L 200.590615 211.479475 
L 202.662308 215.297651 
L 204.734002 213.998201 
L 206.805695 204.188401 
L 208.877389 202.888951 
L 210.949082 206.707127 
L 213.020775 205.407677 
L 215.092469 67.07703 
L 217.164162 65.77758 
L 219.235856 69.595756 
L 221.307549 68.296306 
L 223.379242 58.486506 
L 225.450936 57.187056 
L 227.522629 61.005232 
L 229.594323 59.705782 
L 231.666016 47.001867 
L 233.737709 45.702417 
L 235.809403 49.520593 
L 237.881096 48.221143 
L 239.95279 38.411343 
L 242.024483 37.111893 
L 244.096176 40.930069 
L 246.16787 39.630619 
L 248.239563 114.964858 
L 250.311257 113.665408 
L 252.38295 117.483584 
L 254.454643 116.184135 
L 256.526337 106.374334 
L 258.59803 105.074884 
L 260.669724 108.89306 
L 262.741417 107.593611 
L 264.813111 94.889696 
L 266.884804 93.590246 
L 268.956497 97.408422 
L 271.028191 96.108972 
L 273.099884 86.299172 
L 275.171578 84.999722 
L 277.243271 88.817898 
L 279.314964 87.518448 
L 281.386658 123.342341 
L 283.458351 122.042891 
L 285.530045 125.861067 
L 287.601738 124.561617 
L 289.673431 114.751817 
L 291.745125 113.452367 
L 293.816818 117.270543 
L 295.888512 115.971093 
L 297.960205 103.267178 
L 300.031898 101.967728 
L 302.103592 105.785904 
L 304.175285 104.486454 
L 306.246979 94.676654 
L 308.318672 93.377204 
L 310.390365 97.19538 
L 312.462059 95.89593 
L 314.533752 171.230169 
L 316.605446 169.930719 
L 318.677139 173.748895 
L 320.748832 172.449446 
L 322.820526 162.639645 
L 324.892219 161.340195 
L 326.963913 165.158371 
L 329.035606 163.858922 
L 331.107299 151.155007 
L 333.178993 149.855557 
L 335.250686 153.673733 
L 337.32238 152.374283 
L 339.394073 142.564483 
L 341.465766 141.265033 
L 343.53746 145.083209 
L 345.609153 143.783759 
L 347.680847 113.618137 
L 349.75254 112.318687 
L 351.824234 116.136863 
L 353.895927 114.837413 
L 355.96762 105.027613 
L 358.039314 103.728163 
L 360.111007 107.546339 
L 362.182701 106.246889 
L 364.254394 93.542974 
L 366.326087 92.243524 
L 368.397781 96.0617 
L 370.469474 94.762251 
L 372.541168 84.95245 
L 374.612861 83.653 
L 376.684554 87.471176 
L 378.756248 86.171726 
L 380.827941 161.505965 
L 382.899635 160.206516 
L 384.971328 164.024692 
L 387.043021 162.725242 
L 389.114715 152.915441 
L 391.186408 151.615992 
L 393.258102 155.434168 
L 395.329795 154.134718 
L 397.401488 141.430803 
L 399.473182 140.131353 
L 401.544875 143.949529 
L 403.616569 142.650079 
L 405.688262 132.840279 
L 407.759955 131.540829 
L 409.831649 135.359005 
L 411.903342 134.059555 
L 413.975036 169.883448 
L 416.046729 168.583998 
L 418.118422 172.402174 
L 420.190116 171.102724 
L 422.261809 161.292924 
L 424.333503 159.993474 
L 426.405196 163.81165 
L 428.476889 162.5122 
L 430.548583 149.808285 
L 432.620276 148.508835 
L 434.69197 152.327011 
L 436.763663 151.027561 
L 438.835357 141.217761 
L 440.90705 139.918311 
L 442.978743 143.736487 
L 445.050437 142.437037 
L 447.12213 217.771276 
L 449.193824 216.471827 
L 451.265517 220.290003 
L 453.33721 218.990553 
L 455.408904 209.180752 
L 457.480597 207.881303 
L 459.552291 211.699479 
L 461.623984 210.400029 
L 463.695677 197.696114 
L 465.767371 196.396664 
L 467.839064 200.21484 
L 469.910758 198.91539 
L 471.982451 189.10559 
L 474.054144 187.80614 
L 476.125838 191.624316 
L 478.197531 190.324866 
L 480.269225 51.994219 
L 482.340918 50.694769 
L 484.412611 54.512945 
L 486.484305 53.213495 
L 488.555998 43.403695 
L 490.627692 42.104245 
L 492.699385 45.922421 
L 494.771078 44.622971 
L 496.842772 31.919056 
L 498.914465 30.619606 
L 500.986159 34.437782 
L 503.057852 33.138332 
L 505.129545 23.328532 
L 507.201239 22.029082 
L 509.272932 25.847258 
L 511.344626 24.547808 
L 513.416319 99.882047 
L 515.488012 98.582598 
L 517.559706 102.400773 
L 519.631399 101.101324 
L 521.703093 91.291523 
L 523.774786 89.992074 
L 525.84648 93.810249 
L 527.918173 92.5108 
L 529.989866 79.806885 
L 532.06156 78.507435 
L 534.133253 82.325611 
L 536.204947 81.026161 
L 538.27664 71.216361 
L 540.348333 69.916911 
L 542.420027 73.735087 
L 544.49172 72.435637 
L 546.563414 108.25953 
L 548.635107 106.96008 
L 550.7068 110.778256 
L 552.778494 109.478806 
L 554.850187 99.669006 
L 556.921881 98.369556 
L 558.993574 102.187732 
L 561.065267 100.888282 
L 563.136961 88.184367 
L 565.208654 86.884917 
L 567.280348 90.703093 
L 569.352041 89.403643 
L 571.423734 79.593843 
L 573.495428 78.294393 
L 575.567121 82.112569 
L 577.638815 80.813119 
L 579.710508 156.147358 
L 581.782201 154.847908 
L 583.853895 158.666084 
L 585.925588 157.366635 
L 587.997282 147.556834 
L 590.068975 146.257384 
L 592.140668 150.07556 
L 594.212362 148.776111 
L 596.284055 136.072196 
L 598.355749 134.772746 
L 600.427442 138.590922 
L 602.499135 137.291472 
L 604.570829 127.481672 
L 606.642522 126.182222 
L 608.714216 130.000398 
L 610.785909 128.700948 
L 610.785909 128.700948 
" clip-path="url(#p14910ce101)" style="fill: none; stroke: #4682b4; stroke-opacity: 0.85; stroke-width: 0.8; stroke-linecap: square"/>
   </g>
   <g id="line2d_28">
    <path d="M 56.09 128.700948 
L 637.2 128.700948 
" clip-path="url(#p14910ce101)" style="fill: none; stroke: #000000; stroke-width: 0.5; stroke-linecap: square"/>
   </g>
   <g id="line2d_29">
    <path d="M 56.09 33.915115 
L 637.2 33.915115 
" clip-path="url(#p14910ce101)" style="fill: none; stroke-dasharray: 2.22,0.96; stroke-dashoffset: 0; stroke: #ff6347; stroke-width: 0.6"/>
   </g>
   <g id="line2d_30">
    <path d="M 56.09 223.486781 
L 637.2 223.486781 
" clip-path="url(#p14910ce101)" style="fill: none; stroke-dasharray: 2.22,0.96; stroke-dashoffset: 0; stroke: #ff6347; stroke-width: 0.6"/>
   </g>
   <g id="patch_3">
    <path d="M 56.09 246.04 
L 56.09 11.361896 
" style="fill: none; stroke: #000000; stroke-width: 0.8; stroke-linejoin: miter; stroke-linecap: square"/>
   </g>
   <g id="patch_4">
    <path d="M 637.2 246.04 
L 637.2 11.361896 
" style="fill: none; stroke: #000000; stroke-width: 0.8; stroke-linejoin: miter; stroke-linecap: square"/>
   </g>
   <g id="patch_5">
    <path d="M 56.09 246.04 
L 637.2 246.04 
" style="fill: none; stroke: #000000; stroke-width: 0.8; stroke-linejoin: miter; stroke-linecap: square"/>
   </g>
   <g id="patch_6">
    <path d="M 56.09 11.361896 
L 637.2 11.361896 
" style="fill: none; stroke: #000000; stroke-width: 0.8; stroke-linejoin: miter; stroke-linecap: square"/>
   </g>
   <g id="legend_1">
    <g id="patch_7">
     <path d="M 61.69 41.246896 
L 202.30625 41.246896 
Q 203.90625 41.246896 203.90625 39.646896 
L 203.90625 16.961896 
Q 203.90625 15.361896 202.30625 15.361896 
L 61.69 15.361896 
Q 60.09 15.361896 60.09 16.961896 
L 60.09 39.646896 
Q 60.09 41.246896 61.69 41.246896 
z
" style="fill: #ffffff; opacity: 0.8; stroke: #cccccc; stroke-linejoin: miter"/>
    </g>
    <g id="line2d_31">
     <path d="M 63.29 21.840646 
L 71.29 21.840646 
L 79.29 21.840646 
" style="fill: none; stroke: #4682b4; stroke-opacity: 0.85; stroke-width: 0.8; stroke-linecap: square"/>
    </g>
    <g id="text_16">
     <!-- Mismatch (peak 0.5627 LSB) -->
     <g transform="translate(85.69 24.640646) scale(0.08 -0.08)">
      <defs>
       <path id="DejaVuSans-4d" d="M 628 4666 
L 1569 4666 
L 2759 1491 
L 3956 4666 
L 4897 4666 
L 4897 0 
L 4281 0 
L 4281 4097 
L 3078 897 
L 2444 897 
L 1241 4097 
L 1241 0 
L 628 0 
L 628 4666 
z
" transform="scale(0.015625)"/>
       <path id="DejaVuSans-73" d="M 2834 3397 
L 2834 2853 
Q 2591 2978 2328 3040 
Q 2066 3103 1784 3103 
Q 1356 3103 1142 2972 
Q 928 2841 928 2578 
Q 928 2378 1081 2264 
Q 1234 2150 1697 2047 
L 1894 2003 
Q 2506 1872 2764 1633 
Q 3022 1394 3022 966 
Q 3022 478 2636 193 
Q 2250 -91 1575 -91 
Q 1294 -91 989 -36 
Q 684 19 347 128 
L 347 722 
Q 666 556 975 473 
Q 1284 391 1588 391 
Q 1994 391 2212 530 
Q 2431 669 2431 922 
Q 2431 1156 2273 1281 
Q 2116 1406 1581 1522 
L 1381 1569 
Q 847 1681 609 1914 
Q 372 2147 372 2553 
Q 372 3047 722 3315 
Q 1072 3584 1716 3584 
Q 2034 3584 2315 3537 
Q 2597 3491 2834 3397 
z
" transform="scale(0.015625)"/>
       <path id="DejaVuSans-6d" d="M 3328 2828 
Q 3544 3216 3844 3400 
Q 4144 3584 4550 3584 
Q 5097 3584 5394 3201 
Q 5691 2819 5691 2113 
L 5691 0 
L 5113 0 
L 5113 2094 
Q 5113 2597 4934 2840 
Q 4756 3084 4391 3084 
Q 3944 3084 3684 2787 
Q 3425 2491 3425 1978 
L 3425 0 
L 2847 0 
L 2847 2094 
Q 2847 2600 2669 2842 
Q 2491 3084 2119 3084 
Q 1678 3084 1418 2786 
Q 1159 2488 1159 1978 
L 1159 0 
L 581 0 
L 581 3500 
L 1159 3500 
L 1159 2956 
Q 1356 3278 1631 3431 
Q 1906 3584 2284 3584 
Q 2666 3584 2933 3390 
Q 3200 3197 3328 2828 
z
" transform="scale(0.015625)"/>
       <path id="DejaVuSans-68" d="M 3513 2113 
L 3513 0 
L 2938 0 
L 2938 2094 
Q 2938 2591 2744 2837 
Q 2550 3084 2163 3084 
Q 1697 3084 1428 2787 
Q 1159 2491 1159 1978 
L 1159 0 
L 581 0 
L 581 4863 
L 1159 4863 
L 1159 2956 
Q 1366 3272 1645 3428 
Q 1925 3584 2291 3584 
Q 2894 3584 3203 3211 
Q 3513 2838 3513 2113 
z
" transform="scale(0.015625)"/>
       <path id="DejaVuSans-70" d="M 1159 525 
L 1159 -1331 
L 581 -1331 
L 581 3500 
L 1159 3500 
L 1159 2969 
Q 1341 3281 1617 3432 
Q 1894 3584 2278 3584 
Q 2916 3584 3314 3078 
Q 3713 2572 3713 1747 
Q 3713 922 3314 415 
Q 2916 -91 2278 -91 
Q 1894 -91 1617 61 
Q 1341 213 1159 525 
z
M 3116 1747 
Q 3116 2381 2855 2742 
Q 2594 3103 2138 3103 
Q 1681 3103 1420 2742 
Q 1159 2381 1159 1747 
Q 1159 1113 1420 752 
Q 1681 391 2138 391 
Q 2594 391 2855 752 
Q 3116 1113 3116 1747 
z
" transform="scale(0.015625)"/>
       <path id="DejaVuSans-6b" d="M 581 4863 
L 1159 4863 
L 1159 1991 
L 2875 3500 
L 3609 3500 
L 1753 1863 
L 3688 0 
L 2938 0 
L 1159 1709 
L 1159 0 
L 581 0 
L 581 4863 
z
" transform="scale(0.015625)"/>
       <path id="DejaVuSans-37" d="M 525 4666 
L 3525 4666 
L 3525 4397 
L 1831 0 
L 1172 0 
L 2766 4134 
L 525 4134 
L 525 4666 
z
" transform="scale(0.015625)"/>
      </defs>
      <use xlink:href="#DejaVuSans-4d"/>
      <use xlink:href="#DejaVuSans-69" transform="translate(86.279297 0)"/>
      <use xlink:href="#DejaVuSans-73" transform="translate(114.0625 0)"/>
      <use xlink:href="#DejaVuSans-6d" transform="translate(166.162109 0)"/>
      <use xlink:href="#DejaVuSans-61" transform="translate(263.574219 0)"/>
      <use xlink:href="#DejaVuSans-74" transform="translate(324.853516 0)"/>
      <use xlink:href="#DejaVuSans-63" transform="translate(364.0625 0)"/>
      <use xlink:href="#DejaVuSans-68" transform="translate(419.042969 0)"/>
      <use xlink:href="#DejaVuSans-20" transform="translate(482.421875 0)"/>
      <use xlink:href="#DejaVuSans-28" transform="translate(514.208984 0)"/>
      <use xlink:href="#DejaVuSans-70" transform="translate(553.222656 0)"/>
      <use xlink:href="#DejaVuSans-65" transform="translate(616.699219 0)"/>
      <use xlink:href="#DejaVuSans-61" transform="translate(678.222656 0)"/>
      <use xlink:href="#DejaVuSans-6b" transform="translate(739.501953 0)"/>
      <use xlink:href="#DejaVuSans-20" transform="translate(797.412109 0)"/>
      <use xlink:href="#DejaVuSans-30" transform="translate(829.199219 0)"/>
      <use xlink:href="#DejaVuSans-2e" transform="translate(892.822266 0)"/>
      <use xlink:href="#DejaVuSans-35" transform="translate(924.609375 0)"/>
      <use xlink:href="#DejaVuSans-36" transform="translate(988.232422 0)"/>
      <use xlink:href="#DejaVuSans-32" transform="translate(1051.855469 0)"/>
      <use xlink:href="#DejaVuSans-37" transform="translate(1115.478516 0)"/>
      <use xlink:href="#DejaVuSans-20" transform="translate(1179.101562 0)"/>
      <use xlink:href="#DejaVuSans-4c" transform="translate(1210.888672 0)"/>
      <use xlink:href="#DejaVuSans-53" transform="translate(1266.601562 0)"/>
      <use xlink:href="#DejaVuSans-42" transform="translate(1330.078125 0)"/>
      <use xlink:href="#DejaVuSans-29" transform="translate(1398.681641 0)"/>
     </g>
    </g>
    <g id="line2d_32">
     <path d="M 63.29 33.583146 
L 71.29 33.583146 
L 79.29 33.583146 
" style="fill: none; stroke-dasharray: 2.22,0.96; stroke-dashoffset: 0; stroke: #ff6347; stroke-width: 0.6"/>
    </g>
    <g id="text_17">
     <!-- ±0.5 LSB -->
     <g transform="translate(85.69 36.383146) scale(0.08 -0.08)">
      <defs>
       <path id="DejaVuSans-b1" d="M 2944 4013 
L 2944 2803 
L 4684 2803 
L 4684 2272 
L 2944 2272 
L 2944 1063 
L 2419 1063 
L 2419 2272 
L 678 2272 
L 678 2803 
L 2419 2803 
L 2419 4013 
L 2944 4013 
z
M 678 531 
L 4684 531 
L 4684 0 
L 678 0 
L 678 531 
z
" transform="scale(0.015625)"/>
      </defs>
      <use xlink:href="#DejaVuSans-b1"/>
      <use xlink:href="#DejaVuSans-30" transform="translate(83.789062 0)"/>
      <use xlink:href="#DejaVuSans-2e" transform="translate(147.412109 0)"/>
      <use xlink:href="#DejaVuSans-35" transform="translate(179.199219 0)"/>
      <use xlink:href="#DejaVuSans-20" transform="translate(242.822266 0)"/>
      <use xlink:href="#DejaVuSans-4c" transform="translate(274.609375 0)"/>
      <use xlink:href="#DejaVuSans-53" transform="translate(330.322266 0)"/>
      <use xlink:href="#DejaVuSans-42" transform="translate(393.798828 0)"/>
     </g>
    </g>
   </g>
  </g>
 </g>
 <defs>
  <clipPath id="p14910ce101">
   <rect x="56.09" y="11.361896" width="581.11" height="234.678104"/>
  </clipPath>
 </defs>
</svg>
