<?xml version="1.0" encoding="utf-8" standalone="no"?>
<!DOCTYPE svg PUBLIC "-//W3C//DTD SVG 1.1//EN"
  "http://www.w3.org/Graphics/SVG/1.1/DTD/svg11.dtd">
<svg xmlns:xlink="http://www.w3.org/1999/xlink" width="648pt" height="288pt" viewBox="0 0 648 288" xmlns="http://www.w3.org/2000/svg" version="1.1">
 <metadata>
  <rdf:RDF xmlns:dc="http://purl.org/dc/elements/1.1/" xmlns:cc="http://creativecommons.org/ns#" xmlns:rdf="http://www.w3.org/1999/02/22-rdf-syntax-ns#">
   <cc:Work>
    <dc:type rdf:resource="http://purl.org/dc/dcmitype/StillImage"/>
    <dc:date>2026-04-02T19:09:55.826949</dc:date>
    <dc:format>image/svg+xml</dc:format>
    <dc:creator>
     <cc:Agent>
      <dc:title>Matplotlib v3.10.8, https://matplotlib.org/</dc:title>
     </cc:Agent>
    </dc:creator>
   </cc:Work>
  </rdf:RDF>
 </metadata>
 <defs>
  <style type="text/css">*{stroke-linejoin: round; stroke-linecap: butt}</style>
 </defs>
 <g id="figure_1">
  <g id="patch_1">
   <path d="M 0 288 
L 648 288 
L 648 0 
L 0 0 
z
" style="fill: #ffffff"/>
  </g>
  <g id="axes_1">
   <g id="patch_2">
    <path d="M 59.24 245.93875 
L 629.325 245.93875 
L 629.325 26.88 
L 59.24 26.88 
z
" style="fill: #ffffff"/>
   </g>
   <g id="matplotlib.axis_1">
    <g id="xtick_1">
     <g id="line2d_1">
      <path d="M 59.24 245.93875 
L 59.24 26.88 
" clip-path="url(#pf2189f42cf)" style="fill: none; stroke: #b0b0b0; stroke-width: 0.3; stroke-linecap: square"/>
     </g>
     <g id="line2d_2">
      <defs>
       <path id="m4a55df432c" d="M 0 0 
L 0 3.5 
" style="stroke: #000000; stroke-width: 0.8"/>
      </defs>
      <g>
       <use xlink:href="#m4a55df432c" x="59.24" y="245.93875" style="stroke: #000000; stroke-width: 0.8"/>
      </g>
     </g>
     <g id="text_1">
      <!-- 0.0 -->
      <g transform="translate(51.288438 260.537188) scale(0.1 -0.1)">
       <defs>
        <path id="DejaVuSans-30" d="M 2034 4250 
Q 1547 4250 1301 3770 
Q 1056 3291 1056 2328 
Q 1056 1369 1301 889 
Q 1547 409 2034 409 
Q 2525 409 2770 889 
Q 3016 1369 3016 2328 
Q 3016 3291 2770 3770 
Q 2525 4250 2034 4250 
z
M 2034 4750 
Q 2819 4750 3233 4129 
Q 3647 3509 3647 2328 
Q 3647 1150 3233 529 
Q 2819 -91 2034 -91 
Q 1250 -91 836 529 
Q 422 1150 422 2328 
Q 422 3509 836 4129 
Q 1250 4750 2034 4750 
z
" transform="scale(0.015625)"/>
        <path id="DejaVuSans-2e" d="M 684 794 
L 1344 794 
L 1344 0 
L 684 0 
L 684 794 
z
" transform="scale(0.015625)"/>
       </defs>
       <use xlink:href="#DejaVuSans-30"/>
       <use xlink:href="#DejaVuSans-2e" transform="translate(63.623047 0)"/>
       <use xlink:href="#DejaVuSans-30" transform="translate(95.410156 0)"/>
      </g>
     </g>
    </g>
    <g id="xtick_2">
     <g id="line2d_3">
      <path d="M 173.257 245.93875 
L 173.257 26.88 
" clip-path="url(#pf2189f42cf)" style="fill: none; stroke: #b0b0b0; stroke-width: 0.3; stroke-linecap: square"/>
     </g>
     <g id="line2d_4">
      <g>
       <use xlink:href="#m4a55df432c" x="173.257" y="245.93875" style="stroke: #000000; stroke-width: 0.8"/>
      </g>
     </g>
     <g id="text_2">
      <!-- 0.1 -->
      <g transform="translate(165.305438 260.537188) scale(0.1 -0.1)">
       <defs>
        <path id="DejaVuSans-31" d="M 794 531 
L 1825 531 
L 1825 4091 
L 703 3866 
L 703 4441 
L 1819 4666 
L 2450 4666 
L 2450 531 
L 3481 531 
L 3481 0 
L 794 0 
L 794 531 
z
" transform="scale(0.015625)"/>
       </defs>
       <use xlink:href="#DejaVuSans-30"/>
       <use xlink:href="#DejaVuSans-2e" transform="translate(63.623047 0)"/>
       <use xlink:href="#DejaVuSans-31" transform="translate(95.410156 0)"/>
      </g>
     </g>
    </g>
    <g id="xtick_3">
     <g id="line2d_5">
      <path d="M 287.274 245.93875 
L 287.274 26.88 
" clip-path="url(#pf2189f42cf)" style="fill: none; stroke: #b0b0b0; stroke-width: 0.3; stroke-linecap: square"/>
     </g>
     <g id="line2d_6">
      <g>
       <use xlink:href="#m4a55df432c" x="287.274" y="245.93875" style="stroke: #000000; stroke-width: 0.8"/>
      </g>
     </g>
     <g id="text_3">
      <!-- 0.2 -->
      <g transform="translate(279.322437 260.537188) scale(0.1 -0.1)">
       <defs>
        <path id="DejaVuSans-32" d="M 1228 531 
L 3431 531 
L 3431 0 
L 469 0 
L 469 531 
Q 828 903 1448 1529 
Q 2069 2156 2228 2338 
Q 2531 2678 2651 2914 
Q 2772 3150 2772 3378 
Q 2772 3750 2511 3984 
Q 2250 4219 1831 4219 
Q 1534 4219 1204 4116 
Q 875 4013 500 3803 
L 500 4441 
Q 881 4594 1212 4672 
Q 1544 4750 1819 4750 
Q 2544 4750 2975 4387 
Q 3406 4025 3406 3419 
Q 3406 3131 3298 2873 
Q 3191 2616 2906 2266 
Q 2828 2175 2409 1742 
Q 1991 1309 1228 531 
z
" transform="scale(0.015625)"/>
       </defs>
       <use xlink:href="#DejaVuSans-30"/>
       <use xlink:href="#DejaVuSans-2e" transform="translate(63.623047 0)"/>
       <use xlink:href="#DejaVuSans-32" transform="translate(95.410156 0)"/>
      </g>
     </g>
    </g>
    <g id="xtick_4">
     <g id="line2d_7">
      <path d="M 401.291 245.93875 
L 401.291 26.88 
" clip-path="url(#pf2189f42cf)" style="fill: none; stroke: #b0b0b0; stroke-width: 0.3; stroke-linecap: square"/>
     </g>
     <g id="line2d_8">
      <g>
       <use xlink:href="#m4a55df432c" x="401.291" y="245.93875" style="stroke: #000000; stroke-width: 0.8"/>
      </g>
     </g>
     <g id="text_4">
      <!-- 0.3 -->
      <g transform="translate(393.339437 260.537188) scale(0.1 -0.1)">
       <defs>
        <path id="DejaVuSans-33" d="M 2597 2516 
Q 3050 2419 3304 2112 
Q 3559 1806 3559 1356 
Q 3559 666 3084 287 
Q 2609 -91 1734 -91 
Q 1441 -91 1130 -33 
Q 819 25 488 141 
L 488 750 
Q 750 597 1062 519 
Q 1375 441 1716 441 
Q 2309 441 2620 675 
Q 2931 909 2931 1356 
Q 2931 1769 2642 2001 
Q 2353 2234 1838 2234 
L 1294 2234 
L 1294 2753 
L 1863 2753 
Q 2328 2753 2575 2939 
Q 2822 3125 2822 3475 
Q 2822 3834 2567 4026 
Q 2313 4219 1838 4219 
Q 1578 4219 1281 4162 
Q 984 4106 628 3988 
L 628 4550 
Q 988 4650 1302 4700 
Q 1616 4750 1894 4750 
Q 2613 4750 3031 4423 
Q 3450 4097 3450 3541 
Q 3450 3153 3228 2886 
Q 3006 2619 2597 2516 
z
" transform="scale(0.015625)"/>
       </defs>
       <use xlink:href="#DejaVuSans-30"/>
       <use xlink:href="#DejaVuSans-2e" transform="translate(63.623047 0)"/>
       <use xlink:href="#DejaVuSans-33" transform="translate(95.410156 0)"/>
      </g>
     </g>
    </g>
    <g id="xtick_5">
     <g id="line2d_9">
      <path d="M 515.308 245.93875 
L 515.308 26.88 
" clip-path="url(#pf2189f42cf)" style="fill: none; stroke: #b0b0b0; stroke-width: 0.3; stroke-linecap: square"/>
     </g>
     <g id="line2d_10">
      <g>
       <use xlink:href="#m4a55df432c" x="515.308" y="245.93875" style="stroke: #000000; stroke-width: 0.8"/>
      </g>
     </g>
     <g id="text_5">
      <!-- 0.4 -->
      <g transform="translate(507.356437 260.537188) scale(0.1 -0.1)">
       <defs>
        <path id="DejaVuSans-34" d="M 2419 4116 
L 825 1625 
L 2419 1625 
L 2419 4116 
z
M 2253 4666 
L 3047 4666 
L 3047 1625 
L 3713 1625 
L 3713 1100 
L 3047 1100 
L 3047 0 
L 2419 0 
L 2419 1100 
L 313 1100 
L 313 1709 
L 2253 4666 
z
" transform="scale(0.015625)"/>
       </defs>
       <use xlink:href="#DejaVuSans-30"/>
       <use xlink:href="#DejaVuSans-2e" transform="translate(63.623047 0)"/>
       <use xlink:href="#DejaVuSans-34" transform="translate(95.410156 0)"/>
      </g>
     </g>
    </g>
    <g id="xtick_6">
     <g id="line2d_11">
      <path d="M 629.325 245.93875 
L 629.325 26.88 
" clip-path="url(#pf2189f42cf)" style="fill: none; stroke: #b0b0b0; stroke-width: 0.3; stroke-linecap: square"/>
     </g>
     <g id="line2d_12">
      <g>
       <use xlink:href="#m4a55df432c" x="629.325" y="245.93875" style="stroke: #000000; stroke-width: 0.8"/>
      </g>
     </g>
     <g id="text_6">
      <!-- 0.5 -->
      <g transform="translate(621.373437 260.537188) scale(0.1 -0.1)">
       <defs>
        <path id="DejaVuSans-35" d="M 691 4666 
L 3169 4666 
L 3169 4134 
L 1269 4134 
L 1269 2991 
Q 1406 3038 1543 3061 
Q 1681 3084 1819 3084 
Q 2600 3084 3056 2656 
Q 3513 2228 3513 1497 
Q 3513 744 3044 326 
Q 2575 -91 1722 -91 
Q 1428 -91 1123 -41 
Q 819 9 494 109 
L 494 744 
Q 775 591 1075 516 
Q 1375 441 1709 441 
Q 2250 441 2565 725 
Q 2881 1009 2881 1497 
Q 2881 1984 2565 2268 
Q 2250 2553 1709 2553 
Q 1456 2553 1204 2497 
Q 953 2441 691 2322 
L 691 4666 
z
" transform="scale(0.015625)"/>
       </defs>
       <use xlink:href="#DejaVuSans-30"/>
       <use xlink:href="#DejaVuSans-2e" transform="translate(63.623047 0)"/>
       <use xlink:href="#DejaVuSans-35" transform="translate(95.410156 0)"/>
      </g>
     </g>
    </g>
    <g id="text_7">
     <!-- Normalised frequency  (× f_s) -->
     <g transform="translate(269.5575 274.215312) scale(0.1 -0.1)">
      <defs>
       <path id="DejaVuSans-4e" d="M 628 4666 
L 1478 4666 
L 3547 763 
L 3547 4666 
L 4159 4666 
L 4159 0 
L 3309 0 
L 1241 3903 
L 1241 0 
L 628 0 
L 628 4666 
z
" transform="scale(0.015625)"/>
       <path id="DejaVuSans-6f" d="M 1959 3097 
Q 1497 3097 1228 2736 
Q 959 2375 959 1747 
Q 959 1119 1226 758 
Q 1494 397 1959 397 
Q 2419 397 2687 759 
Q 2956 1122 2956 1747 
Q 2956 2369 2687 2733 
Q 2419 3097 1959 3097 
z
M 1959 3584 
Q 2709 3584 3137 3096 
Q 3566 2609 3566 1747 
Q 3566 888 3137 398 
Q 2709 -91 1959 -91 
Q 1206 -91 779 398 
Q 353 888 353 1747 
Q 353 2609 779 3096 
Q 1206 3584 1959 3584 
z
" transform="scale(0.015625)"/>
       <path id="DejaVuSans-72" d="M 2631 2963 
Q 2534 3019 2420 3045 
Q 2306 3072 2169 3072 
Q 1681 3072 1420 2755 
Q 1159 2438 1159 1844 
L 1159 0 
L 581 0 
L 581 3500 
L 1159 3500 
L 1159 2956 
Q 1341 3275 1631 3429 
Q 1922 3584 2338 3584 
Q 2397 3584 2469 3576 
Q 2541 3569 2628 3553 
L 2631 2963 
z
" transform="scale(0.015625)"/>
       <path id="DejaVuSans-6d" d="M 3328 2828 
Q 3544 3216 3844 3400 
Q 4144 3584 4550 3584 
Q 5097 3584 5394 3201 
Q 5691 2819 5691 2113 
L 5691 0 
L 5113 0 
L 5113 2094 
Q 5113 2597 4934 2840 
Q 4756 3084 4391 3084 
Q 3944 3084 3684 2787 
Q 3425 2491 3425 1978 
L 3425 0 
L 2847 0 
L 2847 2094 
Q 2847 2600 2669 2842 
Q 2491 3084 2119 3084 
Q 1678 3084 1418 2786 
Q 1159 2488 1159 1978 
L 1159 0 
L 581 0 
L 581 3500 
L 1159 3500 
L 1159 2956 
Q 1356 3278 1631 3431 
Q 1906 3584 2284 3584 
Q 2666 3584 2933 3390 
Q 3200 3197 3328 2828 
z
" transform="scale(0.015625)"/>
       <path id="DejaVuSans-61" d="M 2194 1759 
Q 1497 1759 1228 1600 
Q 959 1441 959 1056 
Q 959 750 1161 570 
Q 1363 391 1709 391 
Q 2188 391 2477 730 
Q 2766 1069 2766 1631 
L 2766 1759 
L 2194 1759 
z
M 3341 1997 
L 3341 0 
L 2766 0 
L 2766 531 
Q 2569 213 2275 61 
Q 1981 -91 1556 -91 
Q 1019 -91 701 211 
Q 384 513 384 1019 
Q 384 1609 779 1909 
Q 1175 2209 1959 2209 
L 2766 2209 
L 2766 2266 
Q 2766 2663 2505 2880 
Q 2244 3097 1772 3097 
Q 1472 3097 1187 3025 
Q 903 2953 641 2809 
L 641 3341 
Q 956 3463 1253 3523 
Q 1550 3584 1831 3584 
Q 2591 3584 2966 3190 
Q 3341 2797 3341 1997 
z
" transform="scale(0.015625)"/>
       <path id="DejaVuSans-6c" d="M 603 4863 
L 1178 4863 
L 1178 0 
L 603 0 
L 603 4863 
z
" transform="scale(0.015625)"/>
       <path id="DejaVuSans-69" d="M 603 3500 
L 1178 3500 
L 1178 0 
L 603 0 
L 603 3500 
z
M 603 4863 
L 1178 4863 
L 1178 4134 
L 603 4134 
L 603 4863 
z
" transform="scale(0.015625)"/>
       <path id="DejaVuSans-73" d="M 2834 3397 
L 2834 2853 
Q 2591 2978 2328 3040 
Q 2066 3103 1784 3103 
Q 1356 3103 1142 2972 
Q 928 2841 928 2578 
Q 928 2378 1081 2264 
Q 1234 2150 1697 2047 
L 1894 2003 
Q 2506 1872 2764 1633 
Q 3022 1394 3022 966 
Q 3022 478 2636 193 
Q 2250 -91 1575 -91 
Q 1294 -91 989 -36 
Q 684 19 347 128 
L 347 722 
Q 666 556 975 473 
Q 1284 391 1588 391 
Q 1994 391 2212 530 
Q 2431 669 2431 922 
Q 2431 1156 2273 1281 
Q 2116 1406 1581 1522 
L 1381 1569 
Q 847 1681 609 1914 
Q 372 2147 372 2553 
Q 372 3047 722 3315 
Q 1072 3584 1716 3584 
Q 2034 3584 2315 3537 
Q 2597 3491 2834 3397 
z
" transform="scale(0.015625)"/>
       <path id="DejaVuSans-65" d="M 3597 1894 
L 3597 1613 
L 953 1613 
Q 991 1019 1311 708 
Q 1631 397 2203 397 
Q 2534 397 2845 478 
Q 3156 559 3463 722 
L 3463 178 
Q 3153 47 2828 -22 
Q 2503 -91 2169 -91 
Q 1331 -91 842 396 
Q 353 884 353 1716 
Q 353 2575 817 3079 
Q 1281 3584 2069 3584 
Q 2775 3584 3186 3129 
Q 3597 2675 3597 1894 
z
M 3022 2063 
Q 3016 2534 2758 2815 
Q 2500 3097 2075 3097 
Q 1594 3097 1305 2825 
Q 1016 2553 972 2059 
L 3022 2063 
z
" transform="scale(0.015625)"/>
       <path id="DejaVuSans-64" d="M 2906 2969 
L 2906 4863 
L 3481 4863 
L 3481 0 
L 2906 0 
L 2906 525 
Q 2725 213 2448 61 
Q 2172 -91 1784 -91 
Q 1150 -91 751 415 
Q 353 922 353 1747 
Q 353 2572 751 3078 
Q 1150 3584 1784 3584 
Q 2172 3584 2448 3432 
Q 2725 3281 2906 2969 
z
M 947 1747 
Q 947 1113 1208 752 
Q 1469 391 1925 391 
Q 2381 391 2643 752 
Q 2906 1113 2906 1747 
Q 2906 2381 2643 2742 
Q 2381 3103 1925 3103 
Q 1469 3103 1208 2742 
Q 947 2381 947 1747 
z
" transform="scale(0.015625)"/>
       <path id="DejaVuSans-20" transform="scale(0.015625)"/>
       <path id="DejaVuSans-66" d="M 2375 4863 
L 2375 4384 
L 1825 4384 
Q 1516 4384 1395 4259 
Q 1275 4134 1275 3809 
L 1275 3500 
L 2222 3500 
L 2222 3053 
L 1275 3053 
L 1275 0 
L 697 0 
L 697 3053 
L 147 3053 
L 147 3500 
L 697 3500 
L 697 3744 
Q 697 4328 969 4595 
Q 1241 4863 1831 4863 
L 2375 4863 
z
" transform="scale(0.015625)"/>
       <path id="DejaVuSans-71" d="M 947 1747 
Q 947 1113 1208 752 
Q 1469 391 1925 391 
Q 2381 391 2643 752 
Q 2906 1113 2906 1747 
Q 2906 2381 2643 2742 
Q 2381 3103 1925 3103 
Q 1469 3103 1208 2742 
Q 947 2381 947 1747 
z
M 2906 525 
Q 2725 213 2448 61 
Q 2172 -91 1784 -91 
Q 1150 -91 751 415 
Q 353 922 353 1747 
Q 353 2572 751 3078 
Q 1150 3584 1784 3584 
Q 2172 3584 2448 3432 
Q 2725 3281 2906 2969 
L 2906 3500 
L 3481 3500 
L 3481 -1331 
L 2906 -1331 
L 2906 525 
z
" transform="scale(0.015625)"/>
       <path id="DejaVuSans-75" d="M 544 1381 
L 544 3500 
L 1119 3500 
L 1119 1403 
Q 1119 906 1312 657 
Q 1506 409 1894 409 
Q 2359 409 2629 706 
Q 2900 1003 2900 1516 
L 2900 3500 
L 3475 3500 
L 3475 0 
L 2900 0 
L 2900 538 
Q 2691 219 2414 64 
Q 2138 -91 1772 -91 
Q 1169 -91 856 284 
Q 544 659 544 1381 
z
M 1991 3584 
L 1991 3584 
z
" transform="scale(0.015625)"/>
       <path id="DejaVuSans-6e" d="M 3513 2113 
L 3513 0 
L 2938 0 
L 2938 2094 
Q 2938 2591 2744 2837 
Q 2550 3084 2163 3084 
Q 1697 3084 1428 2787 
Q 1159 2491 1159 1978 
L 1159 0 
L 581 0 
L 581 3500 
L 1159 3500 
L 1159 2956 
Q 1366 3272 1645 3428 
Q 1925 3584 2291 3584 
Q 2894 3584 3203 3211 
Q 3513 2838 3513 2113 
z
" transform="scale(0.015625)"/>
       <path id="DejaVuSans-63" d="M 3122 3366 
L 3122 2828 
Q 2878 2963 2633 3030 
Q 2388 3097 2138 3097 
Q 1578 3097 1268 2742 
Q 959 2388 959 1747 
Q 959 1106 1268 751 
Q 1578 397 2138 397 
Q 2388 397 2633 464 
Q 2878 531 3122 666 
L 3122 134 
Q 2881 22 2623 -34 
Q 2366 -91 2075 -91 
Q 1284 -91 818 406 
Q 353 903 353 1747 
Q 353 2603 823 3093 
Q 1294 3584 2113 3584 
Q 2378 3584 2631 3529 
Q 2884 3475 3122 3366 
z
" transform="scale(0.015625)"/>
       <path id="DejaVuSans-79" d="M 2059 -325 
Q 1816 -950 1584 -1140 
Q 1353 -1331 966 -1331 
L 506 -1331 
L 506 -850 
L 844 -850 
Q 1081 -850 1212 -737 
Q 1344 -625 1503 -206 
L 1606 56 
L 191 3500 
L 800 3500 
L 1894 763 
L 2988 3500 
L 3597 3500 
L 2059 -325 
z
" transform="scale(0.015625)"/>
       <path id="DejaVuSans-28" d="M 1984 4856 
Q 1566 4138 1362 3434 
Q 1159 2731 1159 2009 
Q 1159 1288 1364 580 
Q 1569 -128 1984 -844 
L 1484 -844 
Q 1016 -109 783 600 
Q 550 1309 550 2009 
Q 550 2706 781 3412 
Q 1013 4119 1484 4856 
L 1984 4856 
z
" transform="scale(0.015625)"/>
       <path id="DejaVuSans-d7" d="M 4488 3438 
L 3059 2003 
L 4488 575 
L 4116 197 
L 2681 1631 
L 1247 197 
L 878 575 
L 2303 2003 
L 878 3438 
L 1247 3816 
L 2681 2381 
L 4116 3816 
L 4488 3438 
z
" transform="scale(0.015625)"/>
       <path id="DejaVuSans-5f" d="M 3263 -1063 
L 3263 -1509 
L -63 -1509 
L -63 -1063 
L 3263 -1063 
z
" transform="scale(0.015625)"/>
       <path id="DejaVuSans-29" d="M 513 4856 
L 1013 4856 
Q 1481 4119 1714 3412 
Q 1947 2706 1947 2009 
Q 1947 1309 1714 600 
Q 1481 -109 1013 -844 
L 513 -844 
Q 928 -128 1133 580 
Q 1338 1288 1338 2009 
Q 1338 2731 1133 3434 
Q 928 4138 513 4856 
z
" transform="scale(0.015625)"/>
      </defs>
      <use xlink:href="#DejaVuSans-4e"/>
      <use xlink:href="#DejaVuSans-6f" transform="translate(74.804688 0)"/>
      <use xlink:href="#DejaVuSans-72" transform="translate(135.986328 0)"/>
      <use xlink:href="#DejaVuSans-6d" transform="translate(175.349609 0)"/>
      <use xlink:href="#DejaVuSans-61" transform="translate(272.761719 0)"/>
      <use xlink:href="#DejaVuSans-6c" transform="translate(334.041016 0)"/>
      <use xlink:href="#DejaVuSans-69" transform="translate(361.824219 0)"/>
      <use xlink:href="#DejaVuSans-73" transform="translate(389.607422 0)"/>
      <use xlink:href="#DejaVuSans-65" transform="translate(441.707031 0)"/>
      <use xlink:href="#DejaVuSans-64" transform="translate(503.230469 0)"/>
      <use xlink:href="#DejaVuSans-20" transform="translate(566.707031 0)"/>
      <use xlink:href="#DejaVuSans-66" transform="translate(598.494141 0)"/>
      <use xlink:href="#DejaVuSans-72" transform="translate(633.699219 0)"/>
      <use xlink:href="#DejaVuSans-65" transform="translate(672.5625 0)"/>
      <use xlink:href="#DejaVuSans-71" transform="translate(734.085938 0)"/>
      <use xlink:href="#DejaVuSans-75" transform="translate(797.5625 0)"/>
      <use xlink:href="#DejaVuSans-65" transform="translate(860.941406 0)"/>
      <use xlink:href="#DejaVuSans-6e" transform="translate(922.464844 0)"/>
      <use xlink:href="#DejaVuSans-63" transform="translate(985.84375 0)"/>
      <use xlink:href="#DejaVuSans-79" transform="translate(1040.824219 0)"/>
      <use xlink:href="#DejaVuSans-20" transform="translate(1100.003906 0)"/>
      <use xlink:href="#DejaVuSans-20" transform="translate(1131.791016 0)"/>
      <use xlink:href="#DejaVuSans-28" transform="translate(1163.578125 0)"/>
      <use xlink:href="#DejaVuSans-d7" transform="translate(1202.591797 0)"/>
      <use xlink:href="#DejaVuSans-20" transform="translate(1286.380859 0)"/>
      <use xlink:href="#DejaVuSans-66" transform="translate(1318.167969 0)"/>
      <use xlink:href="#DejaVuSans-5f" transform="translate(1353.373047 0)"/>
      <use xlink:href="#DejaVuSans-73" transform="translate(1403.373047 0)"/>
      <use xlink:href="#DejaVuSans-29" transform="translate(1455.472656 0)"/>
     </g>
    </g>
   </g>
   <g id="matplotlib.axis_2">
    <g id="ytick_1">
     <g id="line2d_13">
      <path d="M 59.24 245.93875 
L 629.325 245.93875 
" clip-path="url(#pf2189f42cf)" style="fill: none; stroke: #b0b0b0; stroke-width: 0.3; stroke-linecap: square"/>
     </g>
     <g id="line2d_14">
      <defs>
       <path id="mc9eafd22a5" d="M 0 0 
L -3.5 0 
" style="stroke: #000000; stroke-width: 0.8"/>
      </defs>
      <g>
       <use xlink:href="#mc9eafd22a5" x="59.24" y="245.93875" style="stroke: #000000; stroke-width: 0.8"/>
      </g>
     </g>
     <g id="text_8">
      <!-- −100 -->
      <g transform="translate(24.772813 249.737969) scale(0.1 -0.1)">
       <defs>
        <path id="DejaVuSans-2212" d="M 678 2272 
L 4684 2272 
L 4684 1741 
L 678 1741 
L 678 2272 
z
" transform="scale(0.015625)"/>
       </defs>
       <use xlink:href="#DejaVuSans-2212"/>
       <use xlink:href="#DejaVuSans-31" transform="translate(83.789062 0)"/>
       <use xlink:href="#DejaVuSans-30" transform="translate(147.412109 0)"/>
       <use xlink:href="#DejaVuSans-30" transform="translate(211.035156 0)"/>
      </g>
     </g>
    </g>
    <g id="ytick_2">
     <g id="line2d_15">
      <path d="M 59.24 206.109886 
L 629.325 206.109886 
" clip-path="url(#pf2189f42cf)" style="fill: none; stroke: #b0b0b0; stroke-width: 0.3; stroke-linecap: square"/>
     </g>
     <g id="line2d_16">
      <g>
       <use xlink:href="#mc9eafd22a5" x="59.24" y="206.109886" style="stroke: #000000; stroke-width: 0.8"/>
      </g>
     </g>
     <g id="text_9">
      <!-- −80 -->
      <g transform="translate(31.135313 209.909105) scale(0.1 -0.1)">
       <defs>
        <path id="DejaVuSans-38" d="M 2034 2216 
Q 1584 2216 1326 1975 
Q 1069 1734 1069 1313 
Q 1069 891 1326 650 
Q 1584 409 2034 409 
Q 2484 409 2743 651 
Q 3003 894 3003 1313 
Q 3003 1734 2745 1975 
Q 2488 2216 2034 2216 
z
M 1403 2484 
Q 997 2584 770 2862 
Q 544 3141 544 3541 
Q 544 4100 942 4425 
Q 1341 4750 2034 4750 
Q 2731 4750 3128 4425 
Q 3525 4100 3525 3541 
Q 3525 3141 3298 2862 
Q 3072 2584 2669 2484 
Q 3125 2378 3379 2068 
Q 3634 1759 3634 1313 
Q 3634 634 3220 271 
Q 2806 -91 2034 -91 
Q 1263 -91 848 271 
Q 434 634 434 1313 
Q 434 1759 690 2068 
Q 947 2378 1403 2484 
z
M 1172 3481 
Q 1172 3119 1398 2916 
Q 1625 2713 2034 2713 
Q 2441 2713 2670 2916 
Q 2900 3119 2900 3481 
Q 2900 3844 2670 4047 
Q 2441 4250 2034 4250 
Q 1625 4250 1398 4047 
Q 1172 3844 1172 3481 
z
" transform="scale(0.015625)"/>
       </defs>
       <use xlink:href="#DejaVuSans-2212"/>
       <use xlink:href="#DejaVuSans-38" transform="translate(83.789062 0)"/>
       <use xlink:href="#DejaVuSans-30" transform="translate(147.412109 0)"/>
      </g>
     </g>
    </g>
    <g id="ytick_3">
     <g id="line2d_17">
      <path d="M 59.24 166.281023 
L 629.325 166.281023 
" clip-path="url(#pf2189f42cf)" style="fill: none; stroke: #b0b0b0; stroke-width: 0.3; stroke-linecap: square"/>
     </g>
     <g id="line2d_18">
      <g>
       <use xlink:href="#mc9eafd22a5" x="59.24" y="166.281023" style="stroke: #000000; stroke-width: 0.8"/>
      </g>
     </g>
     <g id="text_10">
      <!-- −60 -->
      <g transform="translate(31.135313 170.080241) scale(0.1 -0.1)">
       <defs>
        <path id="DejaVuSans-36" d="M 2113 2584 
Q 1688 2584 1439 2293 
Q 1191 2003 1191 1497 
Q 1191 994 1439 701 
Q 1688 409 2113 409 
Q 2538 409 2786 701 
Q 3034 994 3034 1497 
Q 3034 2003 2786 2293 
Q 2538 2584 2113 2584 
z
M 3366 4563 
L 3366 3988 
Q 3128 4100 2886 4159 
Q 2644 4219 2406 4219 
Q 1781 4219 1451 3797 
Q 1122 3375 1075 2522 
Q 1259 2794 1537 2939 
Q 1816 3084 2150 3084 
Q 2853 3084 3261 2657 
Q 3669 2231 3669 1497 
Q 3669 778 3244 343 
Q 2819 -91 2113 -91 
Q 1303 -91 875 529 
Q 447 1150 447 2328 
Q 447 3434 972 4092 
Q 1497 4750 2381 4750 
Q 2619 4750 2861 4703 
Q 3103 4656 3366 4563 
z
" transform="scale(0.015625)"/>
       </defs>
       <use xlink:href="#DejaVuSans-2212"/>
       <use xlink:href="#DejaVuSans-36" transform="translate(83.789062 0)"/>
       <use xlink:href="#DejaVuSans-30" transform="translate(147.412109 0)"/>
      </g>
     </g>
    </g>
    <g id="ytick_4">
     <g id="line2d_19">
      <path d="M 59.24 126.452159 
L 629.325 126.452159 
" clip-path="url(#pf2189f42cf)" style="fill: none; stroke: #b0b0b0; stroke-width: 0.3; stroke-linecap: square"/>
     </g>
     <g id="line2d_20">
      <g>
       <use xlink:href="#mc9eafd22a5" x="59.24" y="126.452159" style="stroke: #000000; stroke-width: 0.8"/>
      </g>
     </g>
     <g id="text_11">
      <!-- −40 -->
      <g transform="translate(31.135313 130.251378) scale(0.1 -0.1)">
       <use xlink:href="#DejaVuSans-2212"/>
       <use xlink:href="#DejaVuSans-34" transform="translate(83.789062 0)"/>
       <use xlink:href="#DejaVuSans-30" transform="translate(147.412109 0)"/>
      </g>
     </g>
    </g>
    <g id="ytick_5">
     <g id="line2d_21">
      <path d="M 59.24 86.623295 
L 629.325 86.623295 
" clip-path="url(#pf2189f42cf)" style="fill: none; stroke: #b0b0b0; stroke-width: 0.3; stroke-linecap: square"/>
     </g>
     <g id="line2d_22">
      <g>
       <use xlink:href="#mc9eafd22a5" x="59.24" y="86.623295" style="stroke: #000000; stroke-width: 0.8"/>
      </g>
     </g>
     <g id="text_12">
      <!-- −20 -->
      <g transform="translate(31.135313 90.422514) scale(0.1 -0.1)">
       <use xlink:href="#DejaVuSans-2212"/>
       <use xlink:href="#DejaVuSans-32" transform="translate(83.789062 0)"/>
       <use xlink:href="#DejaVuSans-30" transform="translate(147.412109 0)"/>
      </g>
     </g>
    </g>
    <g id="ytick_6">
     <g id="line2d_23">
      <path d="M 59.24 46.794432 
L 629.325 46.794432 
" clip-path="url(#pf2189f42cf)" style="fill: none; stroke: #b0b0b0; stroke-width: 0.3; stroke-linecap: square"/>
     </g>
     <g id="line2d_24">
      <g>
       <use xlink:href="#mc9eafd22a5" x="59.24" y="46.794432" style="stroke: #000000; stroke-width: 0.8"/>
      </g>
     </g>
     <g id="text_13">
      <!-- 0 -->
      <g transform="translate(45.8775 50.593651) scale(0.1 -0.1)">
       <use xlink:href="#DejaVuSans-30"/>
      </g>
     </g>
    </g>
    <g id="text_14">
     <!-- Amplitude (dBFS) -->
     <g transform="translate(18.693125 180.089844) rotate(-90) scale(0.1 -0.1)">
      <defs>
       <path id="DejaVuSans-41" d="M 2188 4044 
L 1331 1722 
L 3047 1722 
L 2188 4044 
z
M 1831 4666 
L 2547 4666 
L 4325 0 
L 3669 0 
L 3244 1197 
L 1141 1197 
L 716 0 
L 50 0 
L 1831 4666 
z
" transform="scale(0.015625)"/>
       <path id="DejaVuSans-70" d="M 1159 525 
L 1159 -1331 
L 581 -1331 
L 581 3500 
L 1159 3500 
L 1159 2969 
Q 1341 3281 1617 3432 
Q 1894 3584 2278 3584 
Q 2916 3584 3314 3078 
Q 3713 2572 3713 1747 
Q 3713 922 3314 415 
Q 2916 -91 2278 -91 
Q 1894 -91 1617 61 
Q 1341 213 1159 525 
z
M 3116 1747 
Q 3116 2381 2855 2742 
Q 2594 3103 2138 3103 
Q 1681 3103 1420 2742 
Q 1159 2381 1159 1747 
Q 1159 1113 1420 752 
Q 1681 391 2138 391 
Q 2594 391 2855 752 
Q 3116 1113 3116 1747 
z
" transform="scale(0.015625)"/>
       <path id="DejaVuSans-74" d="M 1172 4494 
L 1172 3500 
L 2356 3500 
L 2356 3053 
L 1172 3053 
L 1172 1153 
Q 1172 725 1289 603 
Q 1406 481 1766 481 
L 2356 481 
L 2356 0 
L 1766 0 
Q 1100 0 847 248 
Q 594 497 594 1153 
L 594 3053 
L 172 3053 
L 172 3500 
L 594 3500 
L 594 4494 
L 1172 4494 
z
" transform="scale(0.015625)"/>
       <path id="DejaVuSans-42" d="M 1259 2228 
L 1259 519 
L 2272 519 
Q 2781 519 3026 730 
Q 3272 941 3272 1375 
Q 3272 1813 3026 2020 
Q 2781 2228 2272 2228 
L 1259 2228 
z
M 1259 4147 
L 1259 2741 
L 2194 2741 
Q 2656 2741 2882 2914 
Q 3109 3088 3109 3444 
Q 3109 3797 2882 3972 
Q 2656 4147 2194 4147 
L 1259 4147 
z
M 628 4666 
L 2241 4666 
Q 2963 4666 3353 4366 
Q 3744 4066 3744 3513 
Q 3744 3084 3544 2831 
Q 3344 2578 2956 2516 
Q 3422 2416 3680 2098 
Q 3938 1781 3938 1306 
Q 3938 681 3513 340 
Q 3088 0 2303 0 
L 628 0 
L 628 4666 
z
" transform="scale(0.015625)"/>
       <path id="DejaVuSans-46" d="M 628 4666 
L 3309 4666 
L 3309 4134 
L 1259 4134 
L 1259 2759 
L 3109 2759 
L 3109 2228 
L 1259 2228 
L 1259 0 
L 628 0 
L 628 4666 
z
" transform="scale(0.015625)"/>
       <path id="DejaVuSans-53" d="M 3425 4513 
L 3425 3897 
Q 3066 4069 2747 4153 
Q 2428 4238 2131 4238 
Q 1616 4238 1336 4038 
Q 1056 3838 1056 3469 
Q 1056 3159 1242 3001 
Q 1428 2844 1947 2747 
L 2328 2669 
Q 3034 2534 3370 2195 
Q 3706 1856 3706 1288 
Q 3706 609 3251 259 
Q 2797 -91 1919 -91 
Q 1588 -91 1214 -16 
Q 841 59 441 206 
L 441 856 
Q 825 641 1194 531 
Q 1563 422 1919 422 
Q 2459 422 2753 634 
Q 3047 847 3047 1241 
Q 3047 1584 2836 1778 
Q 2625 1972 2144 2069 
L 1759 2144 
Q 1053 2284 737 2584 
Q 422 2884 422 3419 
Q 422 4038 858 4394 
Q 1294 4750 2059 4750 
Q 2388 4750 2728 4690 
Q 3069 4631 3425 4513 
z
" transform="scale(0.015625)"/>
      </defs>
      <use xlink:href="#DejaVuSans-41"/>
      <use xlink:href="#DejaVuSans-6d" transform="translate(68.408203 0)"/>
      <use xlink:href="#DejaVuSans-70" transform="translate(165.820312 0)"/>
      <use xlink:href="#DejaVuSans-6c" transform="translate(229.296875 0)"/>
      <use xlink:href="#DejaVuSans-69" transform="translate(257.080078 0)"/>
      <use xlink:href="#DejaVuSans-74" transform="translate(284.863281 0)"/>
      <use xlink:href="#DejaVuSans-75" transform="translate(324.072266 0)"/>
      <use xlink:href="#DejaVuSans-64" transform="translate(387.451172 0)"/>
      <use xlink:href="#DejaVuSans-65" transform="translate(450.927734 0)"/>
      <use xlink:href="#DejaVuSans-20" transform="translate(512.451172 0)"/>
      <use xlink:href="#DejaVuSans-28" transform="translate(544.238281 0)"/>
      <use xlink:href="#DejaVuSans-64" transform="translate(583.251953 0)"/>
      <use xlink:href="#DejaVuSans-42" transform="translate(646.728516 0)"/>
      <use xlink:href="#DejaVuSans-46" transform="translate(715.332031 0)"/>
      <use xlink:href="#DejaVuSans-53" transform="translate(771.101562 0)"/>
      <use xlink:href="#DejaVuSans-29" transform="translate(834.578125 0)"/>
     </g>
    </g>
   </g>
   <g id="line2d_25">
    <path d="M 59.24 46.862099 
L 59.518362 194.068925 
L 59.796724 262.608719 
L 60.075085 217.431206 
L 60.353447 262.608719 
L 60.631809 235.320823 
L 60.910171 262.608719 
L 61.188533 212.194332 
L 61.466895 262.608719 
L 61.745256 197.780331 
L 62.023618 262.608719 
L 62.30198 232.881465 
L 62.580342 262.608719 
L 62.858704 262.526794 
L 63.137065 262.608719 
L 63.415427 221.117594 
L 63.693789 262.608719 
L 63.972151 218.840065 
L 64.250513 262.608719 
L 64.528875 233.461918 
L 64.807236 262.608719 
L 65.085598 203.057803 
L 65.36396 262.608719 
L 65.642322 237.752408 
L 65.920684 262.608719 
L 66.199045 215.084382 
L 66.477407 262.608719 
L 66.755769 220.441639 
L 67.034131 262.608719 
L 67.312493 46.860135 
L 67.590854 262.608719 
L 67.869216 220.119573 
L 68.147578 262.608719 
L 68.42594 216.201986 
L 68.704302 262.608719 
L 68.982664 193.517462 
L 69.261025 262.608719 
L 69.539387 208.054523 
L 69.817749 262.608719 
L 70.096111 211.389658 
L 70.374473 262.608719 
L 70.652834 205.359677 
L 70.931196 262.608719 
L 71.209558 204.607199 
L 71.48792 262.608719 
L 71.766282 205.627643 
L 72.044644 262.608719 
L 72.323005 218.96746 
L 72.601367 262.608719 
L 72.879729 256.961912 
L 73.158091 262.608719 
L 73.436453 219.4245 
L 73.714814 262.608719 
L 73.993176 203.150904 
L 74.271538 262.608719 
L 74.5499 204.859897 
L 74.828262 262.608719 
L 75.106624 225.740786 
L 75.384985 262.608719 
L 75.663347 211.250087 
L 75.941709 262.608719 
L 76.220071 204.305496 
L 76.498433 262.608719 
L 76.776794 210.701353 
L 77.055156 262.608719 
L 77.333518 211.928203 
L 77.61188 262.608719 
L 77.890242 224.663416 
L 78.168604 262.608719 
L 78.446965 255.475821 
L 78.725327 262.608719 
L 79.003689 228.058428 
L 79.282051 262.608719 
L 79.560413 228.4254 
L 79.838774 262.608719 
L 80.117136 222.211894 
L 80.395498 262.608719 
L 80.67386 259.635062 
L 80.952222 262.608719 
L 81.230583 227.418235 
L 81.508945 262.608719 
L 81.787307 218.565046 
L 82.065669 262.608719 
L 82.344031 204.708164 
L 82.622393 262.608719 
L 82.900754 259.57652 
L 83.179116 262.608719 
L 83.457478 210.043004 
L 83.73584 262.608719 
L 84.014202 209.488908 
L 84.292563 262.608719 
L 84.570925 272.124001 
L 84.849287 262.608719 
L 85.127649 193.503425 
L 85.406011 262.608719 
L 85.684373 220.973134 
L 85.962734 262.608719 
L 86.241096 198.916268 
L 86.519458 262.608719 
L 86.79782 197.159748 
L 87.076182 262.608719 
L 87.354543 201.265046 
L 87.632905 262.608719 
L 87.911267 203.978806 
L 88.189629 262.608719 
L 88.467991 205.490756 
L 88.746353 262.608719 
L 89.024714 213.893652 
L 89.303076 262.608719 
L 89.581438 235.11448 
L 89.8598 262.608719 
L 90.138162 249.463356 
L 90.416523 262.608719 
L 90.694885 216.755246 
L 90.973247 262.608719 
L 91.251609 211.399499 
L 91.529971 262.608719 
L 91.808333 201.87657 
L 92.086694 262.608719 
L 92.365056 212.868715 
L 92.643418 262.608719 
L 92.92178 220.274597 
L 93.200142 262.608719 
L 93.478503 203.492613 
L 93.756865 262.608719 
L 94.035227 209.48461 
L 94.313589 262.608719 
L 94.591951 224.683474 
L 94.870312 262.608719 
L 95.148674 242.710011 
L 95.427036 262.608719 
L 95.705398 199.980398 
L 95.98376 262.608719 
L 96.262122 204.443782 
L 96.540483 262.608719 
L 96.818845 207.391553 
L 97.097207 262.608719 
L 97.375569 197.918205 
L 97.653931 262.608719 
L 97.932292 193.138678 
L 98.210654 262.608719 
L 98.489016 210.446357 
L 98.767378 262.608719 
L 99.04574 211.287928 
L 99.324102 262.608719 
L 99.602463 215.247206 
L 99.880825 262.608719 
L 100.159187 230.879806 
L 100.437549 262.608719 
L 100.715911 234.854142 
L 100.994272 262.608719 
L 101.272634 223.052692 
L 101.550996 262.608719 
L 101.829358 195.64339 
L 102.10772 262.608719 
L 102.386082 255.305343 
L 102.664443 262.608719 
L 102.942805 219.442469 
L 103.221167 262.608719 
L 103.499529 211.977884 
L 103.777891 262.608719 
L 104.056252 213.857225 
L 104.334614 262.608719 
L 104.612976 212.128648 
L 104.891338 262.608719 
L 105.1697 237.797123 
L 105.448062 262.608719 
L 105.726423 219.775225 
L 106.004785 262.608719 
L 106.283147 232.769692 
L 106.561509 262.608719 
L 106.839871 228.817921 
L 107.118232 262.608719 
L 107.396594 199.99358 
L 107.674956 262.608719 
L 107.953318 192.754851 
L 108.23168 262.608719 
L 108.510042 205.869679 
L 108.788403 262.608719 
L 109.066765 204.639894 
L 109.345127 262.608719 
L 109.623489 220.763883 
L 109.901851 262.608719 
L 110.180212 225.436819 
L 110.458574 262.608719 
L 110.736936 215.898105 
L 111.015298 262.608719 
L 111.29366 230.50681 
L 111.572021 262.608719 
L 111.850383 199.880357 
L 112.261049 289 
M 112.553165 289 
L 112.685469 262.608719 
L 112.963831 229.589314 
L 113.242192 262.608719 
L 113.520554 229.326077 
L 113.798916 262.608719 
L 114.077278 211.794783 
L 114.35564 262.608719 
L 114.634001 213.617486 
L 114.912363 262.608719 
L 115.190725 206.979914 
L 115.469087 262.608719 
L 115.747449 208.561345 
L 116.025811 262.608719 
L 116.304172 225.296514 
L 116.582534 262.608719 
L 116.860896 234.672813 
L 117.139258 262.608719 
L 117.41762 210.757612 
L 117.695981 262.608719 
L 117.974343 210.153678 
L 118.252705 262.608719 
L 118.531067 204.392929 
L 118.809429 262.608719 
L 119.087791 210.477012 
L 119.366152 262.608719 
L 119.644514 204.519059 
L 119.922876 262.608719 
L 120.201238 211.725984 
L 120.4796 262.608719 
L 120.757961 212.683279 
L 121.036323 262.608719 
L 121.314685 228.217221 
L 121.593047 262.608719 
L 121.871409 212.571638 
L 122.149771 262.608719 
L 122.428132 253.744703 
L 122.706494 262.608719 
L 122.984856 202.685893 
L 123.263218 262.608719 
L 123.54158 189.177806 
L 123.819941 262.608719 
L 124.098303 215.740219 
L 124.376665 262.608719 
L 124.655027 209.544576 
L 124.933389 262.608719 
L 125.21175 209.941728 
L 125.490112 262.608719 
L 125.768474 197.331422 
L 126.046836 262.608719 
L 126.325198 234.590349 
L 126.60356 262.608719 
L 126.881921 227.299526 
L 127.160283 262.608719 
L 127.438645 205.002261 
L 127.717007 262.608719 
L 127.995369 281.61613 
L 128.27373 262.608719 
L 128.552092 220.809956 
L 128.830454 262.608719 
L 129.108816 209.079887 
L 129.387178 262.608719 
L 129.66554 208.736394 
L 129.943901 262.608719 
L 130.222263 193.953125 
L 130.500625 262.608719 
L 130.778987 211.328976 
L 131.057349 262.608719 
L 131.33571 244.336348 
L 131.614072 262.608719 
L 131.892434 221.930851 
L 132.170796 262.608719 
L 132.449158 238.858868 
L 132.72752 262.608719 
L 133.005881 207.707287 
L 133.284243 262.608719 
L 133.562605 195.797598 
L 133.840967 262.608719 
L 134.119329 211.734816 
L 134.39769 262.608719 
L 134.676052 205.025473 
L 134.954414 262.608719 
L 135.232776 234.486399 
L 135.511138 262.608719 
L 135.7895 197.294293 
L 136.067861 262.608719 
L 136.346223 205.861766 
L 136.624585 262.608719 
L 136.902947 208.751171 
L 137.181309 262.608719 
L 137.45967 216.343447 
L 137.738032 262.608719 
L 138.016394 220.355573 
L 138.294756 262.608719 
L 138.573118 223.061773 
L 138.851479 262.608719 
L 139.129841 227.940684 
L 139.408203 262.608719 
L 139.686565 213.9915 
L 139.964927 262.608719 
L 140.243289 266.243179 
L 140.52165 262.608719 
L 140.800012 204.60081 
L 141.078374 262.608719 
L 141.356736 213.232863 
L 141.635098 262.608719 
L 141.913459 233.470189 
L 142.191821 262.608719 
L 142.470183 211.23103 
L 142.748545 262.608719 
L 143.026907 262.499444 
L 143.305269 262.608719 
L 143.58363 221.151779 
L 143.861992 262.608719 
L 144.140354 201.691498 
L 144.418716 262.608719 
L 144.697078 205.914407 
L 144.975439 262.608719 
L 145.253801 214.100219 
L 145.532163 262.608719 
L 145.810525 204.600701 
L 146.088887 262.608719 
L 146.367249 197.783985 
L 146.64561 262.608719 
L 146.923972 206.456877 
L 147.202334 262.608719 
L 147.480696 216.002343 
L 147.759058 262.608719 
L 148.037419 220.438468 
L 148.315781 262.608719 
L 148.594143 229.906297 
L 148.872505 262.608719 
L 149.150867 218.089528 
L 149.429229 262.608719 
L 149.70759 214.507796 
L 149.985952 262.608719 
L 150.264314 210.124174 
L 150.542676 262.608719 
L 150.821038 206.022315 
L 151.099399 262.608719 
L 151.377761 234.070079 
L 151.656123 262.608719 
L 151.934485 192.911432 
L 152.212847 262.608719 
L 152.491208 219.694324 
L 152.76957 262.608719 
L 153.047932 235.67856 
L 153.326294 262.608719 
L 153.604656 208.034788 
L 153.883018 262.608719 
L 154.161379 196.963356 
L 154.439741 262.608719 
L 154.718103 203.854788 
L 154.996465 262.608719 
L 155.274827 227.056611 
L 155.553188 262.608719 
L 155.83155 192.087879 
L 156.109912 262.608719 
L 156.388274 201.870308 
L 156.666636 262.608719 
L 156.944998 228.219254 
L 157.223359 262.608719 
L 157.501721 220.49075 
L 157.780083 262.608719 
L 158.058445 219.841509 
L 158.336807 262.608719 
L 158.615168 227.437389 
L 158.89353 262.608719 
L 159.171892 223.217111 
L 159.450254 262.608719 
L 159.728616 222.17621 
L 160.006978 262.608719 
L 160.285339 191.18596 
L 160.563701 262.608719 
L 160.842063 238.277975 
L 161.120425 262.608719 
L 161.398787 226.863244 
L 161.677148 262.608719 
L 161.95551 228.971552 
L 162.233872 262.608719 
L 162.512234 197.087459 
L 162.790596 262.608719 
L 163.068958 257.609792 
L 163.347319 262.608719 
L 163.625681 230.988457 
L 163.904043 262.608719 
L 164.182405 215.302218 
L 164.460767 262.608719 
L 164.739128 266.995376 
L 165.01749 262.608719 
L 165.295852 207.097284 
L 165.574214 262.608719 
L 165.852576 191.856117 
L 166.130937 262.608719 
L 166.409299 200.880028 
L 166.687661 262.608719 
L 166.966023 204.727332 
L 167.244385 262.608719 
L 167.522747 222.038293 
L 167.801108 262.608719 
L 168.07947 197.66412 
L 168.459854 289 
M 168.812534 289 
L 169.192917 210.929224 
L 169.471279 262.608719 
L 169.749641 223.10861 
L 170.028003 262.608719 
L 170.306365 208.38599 
L 170.584727 262.608719 
L 170.863088 230.78111 
L 171.14145 262.608719 
L 171.419812 223.955973 
L 171.698174 262.608719 
L 171.976536 224.630294 
L 172.254897 262.608719 
L 172.533259 232.048576 
L 172.811621 262.608719 
L 173.089983 246.281133 
L 173.368345 262.608719 
L 173.646707 241.941751 
L 173.925068 262.608719 
L 174.20343 220.543224 
L 174.481792 262.608719 
L 174.760154 233.71508 
L 175.038516 262.608719 
L 175.316877 218.946529 
L 175.595239 262.608719 
L 175.873601 218.92191 
L 176.151963 262.608719 
L 176.430325 193.669943 
L 176.708687 262.608719 
L 176.987048 198.711638 
L 177.26541 262.608719 
L 177.543772 228.693302 
L 177.822134 262.608719 
L 178.100496 198.179858 
L 178.378857 262.608719 
L 178.657219 210.042685 
L 178.935581 262.608719 
L 179.213943 236.382898 
L 179.492305 262.608719 
L 179.770667 236.325174 
L 180.049028 262.608719 
L 180.32739 215.48297 
L 180.605752 262.608719 
L 180.884114 213.463593 
L 181.162476 262.608719 
L 181.440837 239.914487 
L 181.719199 262.608719 
L 181.997561 191.474623 
L 182.275923 262.608719 
L 182.554285 234.501163 
L 182.832646 262.608719 
L 183.111008 216.236275 
L 183.38937 262.608719 
L 183.667732 207.989212 
L 183.946094 262.608719 
L 184.224456 215.594199 
L 184.502817 262.608719 
L 184.781179 229.401181 
L 185.059541 262.608719 
L 185.337903 224.003159 
L 185.616265 262.608719 
L 185.894626 224.978743 
L 186.172988 262.608719 
L 186.45135 225.20719 
L 186.729712 262.608719 
L 187.008074 202.615788 
L 187.286436 262.608719 
L 187.564797 233.326662 
L 187.843159 262.608719 
L 188.121521 196.536764 
L 188.399883 262.608719 
L 188.678245 198.806219 
L 188.956606 262.608719 
L 189.234968 201.820491 
L 189.51333 262.608719 
L 189.791692 214.03033 
L 190.070054 262.608719 
L 190.348416 216.567917 
L 190.626777 262.608719 
L 190.905139 204.834393 
L 191.183501 262.608719 
L 191.461863 270.568429 
L 191.740225 262.608719 
L 192.018586 212.882101 
L 192.296948 262.608719 
L 192.57531 191.579002 
L 192.853672 262.608719 
L 193.132034 229.299214 
L 193.410396 262.608719 
L 193.688757 238.23888 
L 193.967119 262.608719 
L 194.245481 195.336967 
L 194.523843 262.608719 
L 194.802205 190.746193 
L 195.080566 262.608719 
L 195.358928 210.415617 
L 195.63729 262.608719 
L 195.915652 199.755025 
L 196.194014 262.608719 
L 196.472375 216.702488 
L 196.750737 262.608719 
L 197.029099 199.913651 
L 197.307461 262.608719 
L 197.585823 209.670588 
L 197.864185 262.608719 
L 198.142546 219.213355 
L 198.420908 262.608719 
L 198.69927 203.630375 
L 198.977632 262.608719 
L 199.255994 208.703753 
L 199.534355 262.608719 
L 199.812717 249.377299 
L 200.091079 262.608719 
L 200.369441 211.960807 
L 200.647803 262.608719 
L 200.926165 207.41504 
L 201.204526 262.608719 
L 201.482888 202.348114 
L 201.76125 262.608719 
L 202.039612 225.213444 
L 202.317974 262.608719 
L 202.596335 224.22113 
L 202.874697 262.608719 
L 203.153059 213.601793 
L 203.431421 262.608719 
L 203.709783 224.05833 
L 203.988145 262.608719 
L 204.266506 215.980325 
L 204.544868 262.608719 
L 204.82323 211.043551 
L 205.101592 262.608719 
L 205.379954 202.447633 
L 205.658315 262.608719 
L 205.936677 205.61714 
L 206.215039 262.608719 
L 206.493401 195.297758 
L 206.771763 262.608719 
L 207.050125 226.910514 
L 207.328486 262.608719 
L 207.606848 218.013525 
L 207.88521 262.608719 
L 208.163572 287.491852 
L 208.720295 229.547292 
L 208.998657 262.608719 
L 209.277019 251.306301 
L 209.555381 262.608719 
L 209.833743 209.55462 
L 210.112104 262.608719 
L 210.390466 259.621804 
L 210.668828 262.608719 
L 210.94719 199.142224 
L 211.225552 262.608719 
L 211.503914 221.318334 
L 211.782275 262.608719 
L 212.060637 256.60567 
L 212.338999 262.608719 
L 212.617361 209.494317 
L 212.895723 262.608719 
L 213.174084 216.844232 
L 213.452446 262.608719 
L 213.730808 232.517377 
L 214.00917 262.608719 
L 214.287532 224.506885 
L 214.711739 289 
M 214.976772 289 
L 215.400979 202.450485 
L 215.679341 262.608719 
L 215.957703 242.352634 
L 216.236064 262.608719 
L 216.514426 197.280005 
L 216.792788 262.608719 
L 217.07115 219.702598 
L 217.349512 262.608719 
L 217.627874 226.811237 
L 217.906235 262.608719 
L 218.184597 235.355194 
L 218.462959 262.608719 
L 218.741321 271.93027 
L 219.019683 262.608719 
L 219.298044 233.18831 
L 219.576406 262.608719 
L 219.854768 231.042862 
L 220.13313 262.608719 
L 220.411492 205.562211 
L 220.689854 262.608719 
L 220.968215 191.810601 
L 221.246577 262.608719 
L 221.524939 249.505777 
L 221.803301 262.608719 
L 222.081663 219.206432 
L 222.360024 262.608719 
L 222.638386 197.985101 
L 222.916748 262.608719 
L 223.19511 252.397072 
L 223.473472 262.608719 
L 223.751833 234.344453 
L 224.030195 262.608719 
L 224.308557 223.082968 
L 224.586919 262.608719 
L 224.865281 218.761832 
L 225.143643 262.608719 
L 225.422004 219.946827 
L 225.700366 262.608719 
L 225.978728 200.150063 
L 226.25709 262.608719 
L 226.535452 195.478155 
L 226.813813 262.608719 
L 227.092175 259.283128 
L 227.370537 262.608719 
L 227.648899 212.517084 
L 227.927261 262.608719 
L 228.205623 210.79656 
L 228.483984 262.608719 
L 228.762346 236.310317 
L 229.040708 262.608719 
L 229.31907 199.892567 
L 229.597432 262.608719 
L 229.875793 240.785224 
L 230.154155 262.608719 
L 230.432517 199.746725 
L 230.710879 262.608719 
L 230.989241 197.299841 
L 231.267603 262.608719 
L 231.545964 209.333547 
L 231.824326 262.608719 
L 232.102688 205.808306 
L 232.38105 262.608719 
L 232.659412 212.014126 
L 232.937773 262.608719 
L 233.216135 234.027172 
L 233.494497 262.608719 
L 233.772859 207.119415 
L 234.051221 262.608719 
L 234.329583 239.986464 
L 234.607944 262.608719 
L 234.886306 211.358899 
L 235.164668 262.608719 
L 235.44303 241.263803 
L 235.721392 262.608719 
L 235.999753 221.155621 
L 236.278115 262.608719 
L 236.556477 221.946645 
L 236.834839 262.608719 
L 237.113201 218.465697 
L 237.391562 262.608719 
L 237.669924 233.279636 
L 237.948286 262.608719 
L 238.226648 221.008489 
L 238.50501 262.608719 
L 238.783372 199.76963 
L 239.061733 262.608719 
L 239.340095 222.238667 
L 239.618457 262.608719 
L 239.896819 212.692429 
L 240.175181 262.608719 
L 240.453542 216.863688 
L 240.731904 262.608719 
L 241.010266 203.331616 
L 241.288628 262.608719 
L 241.56699 201.518504 
L 241.845352 262.608719 
L 242.123713 210.427293 
L 242.402075 262.608719 
L 242.680437 190.174917 
L 242.958799 262.608719 
L 243.237161 201.517863 
L 243.515522 262.608719 
L 243.793884 231.999612 
L 244.072246 262.608719 
L 244.350608 207.118919 
L 244.62897 262.608719 
L 244.907332 218.766716 
L 245.185693 262.608719 
L 245.464055 210.133576 
L 245.742417 262.608719 
L 246.020779 210.063974 
L 246.299141 262.608719 
L 246.577502 253.260785 
L 246.855864 262.608719 
L 247.134226 200.447838 
L 247.412588 262.608719 
L 247.69095 206.305461 
L 247.969312 262.608719 
L 248.247673 230.896138 
L 248.526035 262.608719 
L 248.804397 203.137134 
L 249.082759 262.608719 
L 249.361121 222.182118 
L 249.639482 262.608719 
L 249.917844 225.475794 
L 250.196206 262.608719 
L 250.474568 209.89938 
L 250.75293 262.608719 
L 251.031292 199.634304 
L 251.309653 262.608719 
L 251.588015 232.692539 
L 251.866377 262.608719 
L 252.144739 234.691652 
L 252.423101 262.608719 
L 252.701462 205.429809 
L 252.979824 262.608719 
L 253.258186 212.20045 
L 253.536548 262.608719 
L 253.81491 208.082655 
L 254.093271 262.608719 
L 254.371633 278.901151 
L 254.649995 262.608719 
L 254.928357 192.422648 
L 255.206719 262.608719 
L 255.485081 212.592401 
L 255.763442 262.608719 
L 256.041804 203.263098 
L 256.320166 262.608719 
L 256.598528 223.855188 
L 256.87689 262.608719 
L 257.155251 202.968519 
L 257.433613 262.608719 
L 257.711975 219.244013 
L 257.990337 262.608719 
L 258.268699 236.840431 
L 258.547061 262.608719 
L 258.825422 202.507046 
L 259.103784 262.608719 
L 259.382146 189.636246 
L 259.660508 262.608719 
L 259.93887 209.804504 
L 260.217231 262.608719 
L 260.495593 230.739589 
L 260.773955 262.608719 
L 261.052317 219.091986 
L 261.330679 262.608719 
L 261.609041 210.557676 
L 261.887402 262.608719 
L 262.165764 214.791383 
L 262.444126 262.608719 
L 262.722488 197.886027 
L 263.00085 262.608719 
L 263.279211 235.327515 
L 263.557573 262.608719 
L 263.835935 213.110929 
L 264.114297 262.608719 
L 264.392659 223.755832 
L 264.671021 262.608719 
L 264.949382 239.327615 
L 265.227744 262.608719 
L 265.506106 205.033896 
L 265.784468 262.608719 
L 266.06283 209.886505 
L 266.341191 262.608719 
L 266.619553 203.343866 
L 266.897915 262.608719 
L 267.176277 195.551695 
L 267.454639 262.608719 
L 267.733 213.215305 
L 268.011362 262.608719 
L 268.289724 222.11751 
L 268.568086 262.608719 
L 268.846448 226.287042 
L 269.12481 262.608719 
L 269.403171 235.953531 
L 269.681533 262.608719 
L 269.959895 215.523424 
L 270.238257 262.608719 
L 270.516619 209.617032 
L 270.79498 262.608719 
L 271.073342 203.690931 
L 271.351704 262.608719 
L 271.630066 230.194627 
L 271.908428 262.608719 
L 272.18679 256.403773 
L 272.465151 262.608719 
L 272.539621 289 
M 272.947406 289 
L 273.021875 262.608719 
L 273.300237 227.684737 
L 273.578599 262.608719 
L 273.85696 209.520115 
L 274.135322 262.608719 
L 274.413684 220.627304 
L 274.692046 262.608719 
L 274.970408 226.355093 
L 275.24877 262.608719 
L 275.527131 190.321802 
L 275.805493 262.608719 
L 276.083855 218.067448 
L 276.362217 262.608719 
L 276.640579 203.983595 
L 276.91894 262.608719 
L 277.197302 232.528552 
L 277.475664 262.608719 
L 277.754026 232.769971 
L 278.032388 262.608719 
L 278.31075 258.036841 
L 278.589111 262.608719 
L 278.867473 193.876411 
L 279.145835 262.608719 
L 279.424197 192.815253 
L 279.702559 262.608719 
L 279.98092 227.541683 
L 280.259282 262.608719 
L 280.537644 223.092069 
L 280.816006 262.608719 
L 281.094368 218.981964 
L 281.372729 262.608719 
L 281.651091 256.441855 
L 281.929453 262.608719 
L 282.207815 218.780243 
L 282.486177 262.608719 
L 282.764539 197.859845 
L 283.0429 262.608719 
L 283.321262 190.987979 
L 283.599624 262.608719 
L 283.877986 217.128703 
L 284.156348 262.608719 
L 284.434709 215.876971 
L 284.713071 262.608719 
L 284.991433 192.194413 
L 285.269795 262.608719 
L 285.548157 199.764076 
L 285.826519 262.608719 
L 286.10488 206.405943 
L 286.383242 262.608719 
L 286.661604 217.958427 
L 286.939966 262.608719 
L 287.218328 202.806482 
L 287.496689 262.608719 
L 287.775051 204.701903 
L 288.053413 262.608719 
L 288.331775 219.06294 
L 288.610137 262.608719 
L 288.888499 218.653783 
L 289.16686 262.608719 
L 289.445222 221.615306 
L 289.892728 289 
M 290.111164 289 
L 290.558669 225.145609 
L 290.837031 262.608719 
L 291.115393 214.429249 
L 291.393755 262.608719 
L 291.672117 197.548173 
L 291.950479 262.608719 
L 292.22884 212.977415 
L 292.507202 262.608719 
L 292.785564 218.884103 
L 293.063926 262.608719 
L 293.342288 219.564225 
L 293.620649 262.608719 
L 293.899011 233.064088 
L 294.177373 262.608719 
L 294.455735 219.723026 
L 294.734097 262.608719 
L 295.012458 216.020619 
L 295.29082 262.608719 
L 295.569182 191.535709 
L 295.847544 262.608719 
L 296.125906 201.616819 
L 296.404268 262.608719 
L 296.682629 214.497506 
L 296.960991 262.608719 
L 297.239353 205.709609 
L 297.517715 262.608719 
L 297.796077 210.730929 
L 298.074438 262.608719 
L 298.3528 214.687732 
L 298.631162 262.608719 
L 298.909524 215.189466 
L 299.187886 262.608719 
L 299.466248 199.483457 
L 299.744609 262.608719 
L 300.022971 219.142877 
L 300.301333 262.608719 
L 300.579695 221.000285 
L 300.858057 262.608719 
L 301.136418 205.897212 
L 301.41478 262.608719 
L 301.693142 227.12608 
L 301.971504 262.608719 
L 302.249866 222.635834 
L 302.528228 262.608719 
L 302.806589 213.879202 
L 303.084951 262.608719 
L 303.363313 209.719241 
L 303.641675 262.608719 
L 303.920037 221.095932 
L 304.198398 262.608719 
L 304.47676 207.597982 
L 304.755122 262.608719 
L 305.033484 208.257502 
L 305.311846 262.608719 
L 305.590208 202.426843 
L 305.868569 262.608719 
L 306.146931 263.296304 
L 306.425293 262.608719 
L 306.703655 205.175298 
L 306.982017 262.608719 
L 307.260378 222.245107 
L 307.53874 262.608719 
L 307.817102 196.801378 
L 308.095464 262.608719 
L 308.373826 209.985162 
L 308.652187 262.608719 
L 308.930549 219.37965 
L 309.208911 262.608719 
L 309.487273 216.836826 
L 309.765635 262.608719 
L 310.043997 236.124625 
L 310.322358 262.608719 
L 310.60072 225.426244 
L 310.879082 262.608719 
L 311.157444 196.168304 
L 311.435806 262.608719 
L 311.714167 228.644391 
L 311.992529 262.608719 
L 312.270891 205.218647 
L 312.549253 262.608719 
L 312.827615 240.256447 
L 313.105977 262.608719 
L 313.384338 203.666003 
L 313.6627 262.608719 
L 313.941062 210.397889 
L 314.219424 262.608719 
L 314.497786 210.378077 
L 314.776147 262.608719 
L 315.054509 224.472177 
L 315.332871 262.608719 
L 315.611233 194.523442 
L 315.889595 262.608719 
L 316.167957 207.520916 
L 316.446318 262.608719 
L 316.72468 208.900555 
L 317.003042 262.608719 
L 317.281404 204.607682 
L 317.559766 262.608719 
L 317.838127 190.939381 
L 318.116489 262.608719 
L 318.394851 226.050412 
L 318.673213 262.608719 
L 318.951575 261.474536 
L 319.229937 262.608719 
L 319.508298 204.977978 
L 319.78666 262.608719 
L 320.065022 239.083197 
L 320.343384 262.608719 
L 320.621746 234.348467 
L 320.900107 262.608719 
L 321.178469 202.096276 
L 321.456831 262.608719 
L 321.735193 218.164798 
L 322.013555 262.608719 
L 322.291917 234.846639 
L 322.570278 262.608719 
L 322.84864 221.696516 
L 323.127002 262.608719 
L 323.405364 203.030302 
L 323.683726 262.608719 
L 323.962087 192.920601 
L 324.240449 262.608719 
L 324.518811 271.380894 
L 324.797173 262.608719 
L 325.075535 212.030281 
L 325.353896 262.608719 
L 325.632258 231.331761 
L 325.91062 262.608719 
L 326.188982 229.95928 
L 326.467344 262.608719 
L 326.745706 211.659442 
L 327.024067 262.608719 
L 327.302429 200.609476 
L 327.580791 262.608719 
L 327.859153 215.962147 
L 328.137515 262.608719 
L 328.415876 229.943466 
L 328.694238 262.608719 
L 328.9726 240.341236 
L 329.250962 262.608719 
L 329.529324 204.336103 
L 329.921149 289 
M 330.250946 289 
L 330.364409 262.608719 
L 330.642771 227.720942 
L 330.921133 262.608719 
L 331.199495 232.748615 
L 331.477856 262.608719 
L 331.756218 208.069393 
L 332.03458 262.608719 
L 332.312942 219.800447 
L 332.591304 262.608719 
L 332.869666 220.483553 
L 333.148027 262.608719 
L 333.426389 206.674367 
L 333.704751 262.608719 
L 333.983113 211.326905 
L 334.261475 262.608719 
L 334.539836 207.350638 
L 334.818198 262.608719 
L 335.09656 250.012566 
L 335.374922 262.608719 
L 335.653284 221.590121 
L 335.931646 262.608719 
L 336.210007 216.348259 
L 336.488369 262.608719 
L 336.766731 223.133414 
L 337.045093 262.608719 
L 337.323455 206.233601 
L 337.601816 262.608719 
L 337.880178 212.610238 
L 338.15854 262.608719 
L 338.436902 223.099718 
L 338.715264 262.608719 
L 338.993625 231.311708 
L 339.271987 262.608719 
L 339.550349 197.616271 
L 339.828711 262.608719 
L 340.107073 200.382643 
L 340.385435 262.608719 
L 340.663796 237.053365 
L 340.942158 262.608719 
L 341.22052 224.07067 
L 341.498882 262.608719 
L 341.777244 230.131139 
L 342.055605 262.608719 
L 342.333967 213.275299 
L 342.612329 262.608719 
L 342.890691 232.338955 
L 343.169053 262.608719 
L 343.447415 230.78063 
L 343.725776 262.608719 
L 344.004138 249.768858 
L 344.2825 262.608719 
L 344.560862 196.785013 
L 344.839224 262.608719 
L 345.117585 228.306439 
L 345.395947 262.608719 
L 345.674309 255.786055 
L 345.952671 262.608719 
L 346.231033 265.192725 
L 346.509395 262.608719 
L 346.787756 241.971432 
L 347.066118 262.608719 
L 347.34448 233.110336 
L 347.622842 262.608719 
L 347.901204 232.910318 
L 348.179565 262.608719 
L 348.457927 216.345433 
L 348.736289 262.608719 
L 349.014651 259.080518 
L 349.293013 262.608719 
L 349.571375 202.342533 
L 349.849736 262.608719 
L 350.128098 195.936854 
L 350.40646 262.608719 
L 350.684822 210.660353 
L 350.963184 262.608719 
L 351.241545 198.700196 
L 351.519907 262.608719 
L 351.798269 222.941072 
L 352.076631 262.608719 
L 352.354993 218.127595 
L 352.633354 262.608719 
L 352.911716 243.219721 
L 353.190078 262.608719 
L 353.46844 222.600909 
L 353.746802 262.608719 
L 354.025164 208.350888 
L 354.303525 262.608719 
L 354.581887 204.170799 
L 354.860249 262.608719 
L 355.138611 208.943015 
L 355.416973 262.608719 
L 355.695334 226.375416 
L 355.973696 262.608719 
L 356.252058 205.926254 
L 356.53042 262.608719 
L 356.808782 248.329572 
L 357.087144 262.608719 
L 357.365505 212.660198 
L 357.643867 262.608719 
L 357.922229 232.758585 
L 358.200591 262.608719 
L 358.478953 206.067144 
L 358.757314 262.608719 
L 359.035676 221.623042 
L 359.314038 262.608719 
L 359.5924 194.964428 
L 359.870762 262.608719 
L 360.149124 212.014147 
L 360.427485 262.608719 
L 360.705847 195.524474 
L 360.984209 262.608719 
L 361.262571 224.50449 
L 361.540933 262.608719 
L 361.819294 198.123753 
L 362.097656 262.608719 
L 362.376018 221.049102 
L 362.65438 262.608719 
L 362.932742 231.389051 
L 363.211104 262.608719 
L 363.489465 205.062615 
L 363.767827 262.608719 
L 364.046189 244.110239 
L 364.324551 262.608719 
L 364.602913 212.624532 
L 364.881274 262.608719 
L 365.159636 211.032509 
L 365.437998 262.608719 
L 365.71636 254.418472 
L 365.994722 262.608719 
L 366.273083 202.653742 
L 366.551445 262.608719 
L 366.829807 205.731524 
L 367.108169 262.608719 
L 367.386531 204.904861 
L 367.664893 262.608719 
L 367.943254 200.8327 
L 368.221616 262.608719 
L 368.499978 213.985421 
L 368.77834 262.608719 
L 369.056702 219.174924 
L 369.335063 262.608719 
L 369.613425 207.4732 
L 369.891787 262.608719 
L 370.170149 202.803243 
L 370.448511 262.608719 
L 370.726873 228.235541 
L 371.005234 262.608719 
L 371.283596 207.598344 
L 371.561958 262.608719 
L 371.84032 197.534277 
L 372.118682 262.608719 
L 372.397043 199.708435 
L 372.675405 262.608719 
L 372.953767 219.917401 
L 373.232129 262.608719 
L 373.510491 212.585522 
L 373.788853 262.608719 
L 374.067214 225.829156 
L 374.345576 262.608719 
L 374.623938 225.690211 
L 374.9023 262.608719 
L 375.180662 222.547088 
L 375.459023 262.608719 
L 375.737385 212.360049 
L 376.015747 262.608719 
L 376.294109 196.602156 
L 376.572471 262.608719 
L 376.850833 193.760923 
L 377.129194 262.608719 
L 377.407556 204.774155 
L 377.685918 262.608719 
L 377.96428 206.275409 
L 378.242642 262.608719 
L 378.521003 249.503869 
L 378.799365 262.608719 
L 379.077727 214.309369 
L 379.356089 262.608719 
L 379.634451 215.224062 
L 379.912812 262.608719 
L 380.191174 193.915141 
L 380.469536 262.608719 
L 380.747898 221.246464 
L 381.02626 262.608719 
L 381.304622 223.195131 
L 381.582983 262.608719 
L 381.861345 196.30059 
L 382.139707 262.608719 
L 382.418069 218.724153 
L 382.696431 262.608719 
L 382.974792 241.70026 
L 383.253154 262.608719 
L 383.531516 202.121945 
L 383.809878 262.608719 
L 384.08824 208.692674 
L 384.513211 289 
M 384.776716 289 
L 385.201687 201.355761 
L 385.480049 262.608719 
L 385.758411 221.487807 
L 386.036772 262.608719 
L 386.315134 211.549279 
L 386.593496 262.608719 
L 386.871858 242.316686 
L 387.15022 262.608719 
L 387.428582 208.680857 
L 387.706943 262.608719 
L 387.985305 188.107994 
L 388.263667 262.608719 
L 388.542029 196.340729 
L 388.820391 262.608719 
L 389.098752 213.080444 
L 389.377114 262.608719 
L 389.655476 235.288088 
L 389.933838 262.608719 
L 390.2122 216.541569 
L 390.490562 262.608719 
L 390.768923 206.489125 
L 391.047285 262.608719 
L 391.325647 200.425198 
L 391.604009 262.608719 
L 391.882371 215.05434 
L 392.160732 262.608719 
L 392.439094 210.785604 
L 392.717456 262.608719 
L 392.995818 204.729128 
L 393.27418 262.608719 
L 393.552542 262.999309 
L 393.830903 262.608719 
L 394.109265 201.016695 
L 394.387627 262.608719 
L 394.665989 223.922249 
L 394.944351 262.608719 
L 395.222712 243.069336 
L 395.501074 262.608719 
L 395.779436 255.185458 
L 396.057798 262.608719 
L 396.33616 203.754611 
L 396.614521 262.608719 
L 396.892883 208.093776 
L 397.171245 262.608719 
L 397.449607 225.898004 
L 397.727969 262.608719 
L 398.006331 196.936746 
L 398.284692 262.608719 
L 398.563054 200.967755 
L 398.841416 262.608719 
L 399.119778 210.857016 
L 399.39814 262.608719 
L 399.676501 247.838075 
L 399.954863 262.608719 
L 400.233225 196.188891 
L 400.511587 262.608719 
L 400.789949 215.981131 
L 401.068311 262.608719 
L 401.346672 211.544446 
L 401.625034 262.608719 
L 401.903396 198.272989 
L 402.181758 262.608719 
L 402.46012 213.048138 
L 402.738481 262.608719 
L 403.016843 226.332296 
L 403.295205 262.608719 
L 403.573567 214.948748 
L 403.851929 262.608719 
L 404.130291 197.232526 
L 404.408652 262.608719 
L 404.687014 190.678392 
L 404.965376 262.608719 
L 405.243738 209.15495 
L 405.5221 262.608719 
L 405.800461 198.859493 
L 406.078823 262.608719 
L 406.357185 244.970369 
L 406.635547 262.608719 
L 406.913909 238.77391 
L 407.192271 262.608719 
L 407.470632 224.651907 
L 407.748994 262.608719 
L 408.027356 191.682801 
L 408.305718 262.608719 
L 408.58408 190.127583 
L 408.862441 262.608719 
L 409.140803 218.114363 
L 409.419165 262.608719 
L 409.697527 239.467625 
L 409.975889 262.608719 
L 410.25425 221.129486 
L 410.532612 262.608719 
L 410.810974 229.321386 
L 411.089336 262.608719 
L 411.367698 213.768618 
L 411.64606 262.608719 
L 411.924421 234.138592 
L 412.202783 262.608719 
L 412.481145 195.137079 
L 412.759507 262.608719 
L 413.037869 209.306312 
L 413.31623 262.608719 
L 413.594592 231.733819 
L 413.872954 262.608719 
L 414.151316 215.082072 
L 414.429678 262.608719 
L 414.70804 219.01454 
L 414.986401 262.608719 
L 415.264763 255.545414 
L 415.543125 262.608719 
L 415.821487 211.594513 
L 416.099849 262.608719 
L 416.37821 201.819449 
L 416.656572 262.608719 
L 416.934934 226.069322 
L 417.213296 262.608719 
L 417.491658 226.305346 
L 417.77002 262.608719 
L 418.048381 190.99057 
L 418.326743 262.608719 
L 418.605105 206.148178 
L 418.883467 262.608719 
L 419.161829 202.657868 
L 419.44019 262.608719 
L 419.718552 256.587787 
L 419.996914 262.608719 
L 420.275276 205.306578 
L 420.553638 262.608719 
L 420.832 238.285502 
L 421.110361 262.608719 
L 421.388723 225.273599 
L 421.667085 262.608719 
L 421.945447 224.217461 
L 422.223809 262.608719 
L 422.50217 223.216269 
L 422.780532 262.608719 
L 423.058894 218.765438 
L 423.337256 262.608719 
L 423.615618 258.273961 
L 423.893979 262.608719 
L 424.172341 257.284401 
L 424.450703 262.608719 
L 424.729065 206.308537 
L 425.007427 262.608719 
L 425.285789 199.03402 
L 425.56415 262.608719 
L 425.842512 201.503182 
L 426.120874 262.608719 
L 426.399236 263.259456 
L 426.677598 262.608719 
L 426.955959 221.887935 
L 427.234321 262.608719 
L 427.512683 208.275645 
L 427.791045 262.608719 
L 428.069407 210.081187 
L 428.347769 262.608719 
L 428.62613 197.85368 
L 428.904492 262.608719 
L 429.182854 214.466495 
L 429.461216 262.608719 
L 429.739578 229.444129 
L 430.017939 262.608719 
L 430.296301 192.290694 
L 430.574663 262.608719 
L 430.853025 188.849002 
L 431.131387 262.608719 
L 431.409749 229.455635 
L 431.68811 262.608719 
L 431.966472 211.132801 
L 432.244834 262.608719 
L 432.523196 197.784606 
L 432.801558 262.608719 
L 433.079919 217.839117 
L 433.358281 262.608719 
L 433.636643 243.046986 
L 433.915005 262.608719 
L 434.193367 191.573461 
L 434.471729 262.608719 
L 434.75009 196.592052 
L 435.028452 262.608719 
L 435.306814 207.070835 
L 435.585176 262.608719 
L 435.863538 223.081734 
L 436.141899 262.608719 
L 436.420261 214.753058 
L 436.698623 262.608719 
L 436.976985 200.602801 
L 437.255347 262.608719 
L 437.533708 203.515852 
L 437.81207 262.608719 
L 438.090432 218.96399 
L 438.368794 262.608719 
L 438.647156 208.408777 
L 438.925518 262.608719 
L 439.203879 241.379961 
L 439.482241 262.608719 
L 439.760603 218.896755 
L 440.038965 262.608719 
L 440.317327 193.539355 
L 440.595688 262.608719 
L 440.87405 217.508512 
L 441.152412 262.608719 
L 441.430774 204.958915 
L 441.709136 262.608719 
L 441.987498 220.51051 
L 442.265859 262.608719 
L 442.544221 231.302558 
L 442.822583 262.608719 
L 443.100945 227.854158 
L 443.379307 262.608719 
L 443.657668 229.108642 
L 443.93603 262.608719 
L 444.214392 201.515161 
L 444.492754 262.608719 
L 444.771116 197.758198 
L 445.049478 262.608719 
L 445.327839 203.443075 
L 445.606201 262.608719 
L 445.884563 244.197488 
L 446.162925 262.608719 
L 446.441287 229.269853 
L 446.719648 262.608719 
L 446.99801 216.95055 
L 447.276372 262.608719 
L 447.554734 210.863618 
L 447.833096 262.608719 
L 448.111458 208.838325 
L 448.389819 262.608719 
L 448.668181 198.175133 
L 448.946543 262.608719 
L 449.224905 239.698698 
L 449.503267 262.608719 
L 449.781628 222.194707 
L 450.05999 262.608719 
L 450.338352 190.205699 
L 450.616714 262.608719 
L 450.895076 223.837733 
L 451.173437 262.608719 
L 451.451799 249.027518 
L 451.730161 262.608719 
L 452.008523 236.257635 
L 452.286885 262.608719 
L 452.565247 226.099758 
L 452.843608 262.608719 
L 453.12197 197.551302 
L 453.400332 262.608719 
L 453.678694 210.973886 
L 453.957056 262.608719 
L 454.235417 245.320528 
L 454.513779 262.608719 
L 454.792141 207.720842 
L 455.070503 262.608719 
L 455.348865 219.366122 
L 455.627227 262.608719 
L 455.905588 229.300579 
L 456.18395 262.608719 
L 456.462312 235.881544 
L 456.740674 262.608719 
L 457.019036 207.239544 
L 457.297397 262.608719 
L 457.575759 229.524541 
L 457.854121 262.608719 
L 458.132483 223.355658 
L 458.410845 262.608719 
L 458.689207 203.721049 
L 458.967568 262.608719 
L 459.24593 213.764722 
L 459.524292 262.608719 
L 459.802654 241.14884 
L 460.081016 262.608719 
L 460.359377 225.049171 
L 460.637739 262.608719 
L 460.916101 247.124827 
L 461.194463 262.608719 
L 461.472825 231.807899 
L 461.751187 262.608719 
L 462.029548 230.025171 
L 462.30791 262.608719 
L 462.586272 212.374849 
L 462.864634 262.608719 
L 463.142996 203.348356 
L 463.421357 262.608719 
L 463.699719 206.251881 
L 463.978081 262.608719 
L 464.256443 208.247538 
L 464.534805 262.608719 
L 464.813167 197.234943 
L 465.091528 262.608719 
L 465.36989 204.756164 
L 465.648252 262.608719 
L 465.926614 228.536706 
L 466.204976 262.608719 
L 466.483337 185.695375 
L 466.761699 262.608719 
L 467.040061 237.502824 
L 467.318423 262.608719 
L 467.596785 199.704949 
L 467.875146 262.608719 
L 468.153508 214.424525 
L 468.43187 262.608719 
L 468.710232 248.339171 
L 468.988594 262.608719 
L 469.266956 185.137834 
L 469.545317 262.608719 
L 469.823679 243.924438 
L 470.102041 262.608719 
L 470.380403 227.069859 
L 470.658765 262.608719 
L 470.937126 199.45313 
L 471.215488 262.608719 
L 471.49385 244.120536 
L 471.772212 262.608719 
L 472.050574 245.859086 
L 472.328936 262.608719 
L 472.607297 219.797916 
L 472.885659 262.608719 
L 473.164021 230.495428 
L 473.442383 262.608719 
L 473.720745 205.782995 
L 473.999106 262.608719 
L 474.277468 227.086804 
L 474.55583 262.608719 
L 474.834192 198.962969 
L 475.112554 262.608719 
L 475.390916 203.561717 
L 475.669277 262.608719 
L 475.947639 218.330152 
L 476.226001 262.608719 
L 476.504363 215.685297 
L 476.782725 262.608719 
L 477.061086 219.02506 
L 477.339448 262.608719 
L 477.61781 208.195696 
L 477.896172 262.608719 
L 478.174534 237.332453 
L 478.452896 262.608719 
L 478.731257 217.591765 
L 479.009619 262.608719 
L 479.287981 227.985866 
L 479.566343 262.608719 
L 479.844705 222.942198 
L 480.304308 289 
M 480.498548 289 
L 480.958152 208.495817 
L 481.236514 262.608719 
L 481.514875 235.277403 
L 481.793237 262.608719 
L 482.071599 214.137863 
L 482.349961 262.608719 
L 482.628323 181.083267 
L 482.906685 262.608719 
L 483.185046 207.490216 
L 483.463408 262.608719 
L 483.74177 243.976605 
L 484.020132 262.608719 
L 484.298494 207.178972 
L 484.576855 262.608719 
L 484.855217 202.329254 
L 485.133579 262.608719 
L 485.411941 203.080642 
L 485.690303 262.608719 
L 485.968665 231.171177 
L 486.247026 262.608719 
L 486.525388 208.775336 
L 486.80375 262.608719 
L 487.082112 203.809733 
L 487.360474 262.608719 
L 487.638835 206.820425 
L 487.917197 262.608719 
L 488.195559 215.682919 
L 488.473921 262.608719 
L 488.752283 193.943345 
L 489.030645 262.608719 
L 489.309006 196.170675 
L 489.587368 262.608719 
L 489.86573 212.695978 
L 490.144092 262.608719 
L 490.422454 227.945105 
L 490.700815 262.608719 
L 490.979177 213.153629 
L 491.257539 262.608719 
L 491.535901 242.979046 
L 491.814263 262.608719 
L 492.092625 260.075408 
L 492.370986 262.608719 
L 492.649348 201.859171 
L 492.92771 262.608719 
L 493.206072 223.487668 
L 493.484434 262.608719 
L 493.762795 231.090835 
L 494.041157 262.608719 
L 494.319519 220.681137 
L 494.597881 262.608719 
L 494.876243 199.467187 
L 495.154604 262.608719 
L 495.432966 210.712399 
L 495.711328 262.608719 
L 495.98969 223.306741 
L 496.268052 262.608719 
L 496.546414 227.834297 
L 496.824775 262.608719 
L 497.103137 195.377625 
L 497.381499 262.608719 
L 497.659861 217.272446 
L 497.938223 262.608719 
L 498.216584 237.720225 
L 498.494946 262.608719 
L 498.773308 183.983237 
L 499.05167 262.608719 
L 499.330032 192.997774 
L 499.608394 262.608719 
L 499.886755 205.219352 
L 500.165117 262.608719 
L 500.443479 207.039353 
L 500.721841 262.608719 
L 501.000203 207.089676 
L 501.278564 262.608719 
L 501.556926 204.497676 
L 501.835288 262.608719 
L 502.11365 207.093885 
L 502.392012 262.608719 
L 502.670374 214.845386 
L 502.948735 262.608719 
L 503.227097 209.114651 
L 503.505459 262.608719 
L 503.783821 219.607356 
L 504.062183 262.608719 
L 504.340544 223.500647 
L 504.618906 262.608719 
L 504.897268 208.970814 
L 505.17563 262.608719 
L 505.453992 241.20812 
L 505.732354 262.608719 
L 506.010715 230.463891 
L 506.289077 262.608719 
L 506.567439 235.466906 
L 506.845801 262.608719 
L 507.124163 234.267718 
L 507.402524 262.608719 
L 507.680886 235.898851 
L 507.959248 262.608719 
L 508.23761 242.576563 
L 508.515972 262.608719 
L 508.794333 222.033461 
L 509.072695 262.608719 
L 509.351057 208.776622 
L 509.629419 262.608719 
L 509.907781 217.975811 
L 510.186143 262.608719 
L 510.464504 234.937056 
L 510.742866 262.608719 
L 511.021228 204.835154 
L 511.29959 262.608719 
L 511.577952 200.059743 
L 511.856313 262.608719 
L 512.134675 222.961181 
L 512.413037 262.608719 
L 512.691399 231.656102 
L 512.969761 262.608719 
L 513.248123 203.434064 
L 513.526484 262.608719 
L 513.804846 214.738359 
L 514.083208 262.608719 
L 514.36157 241.500886 
L 514.639932 262.608719 
L 514.918293 186.441346 
L 515.196655 262.608719 
L 515.475017 221.997876 
L 515.753379 262.608719 
L 516.031741 239.435354 
L 516.310103 262.608719 
L 516.588464 200.479733 
L 516.866826 262.608719 
L 517.145188 216.661929 
L 517.42355 262.608719 
L 517.701912 196.635695 
L 517.980273 262.608719 
L 518.258635 211.711077 
L 518.536997 262.608719 
L 518.815359 235.130311 
L 519.093721 262.608719 
L 519.372083 199.909886 
L 519.650444 262.608719 
L 519.928806 215.178286 
L 520.207168 262.608719 
L 520.48553 237.245846 
L 520.763892 262.608719 
L 521.042253 189.054213 
L 521.320615 262.608719 
L 521.598977 208.449356 
L 521.877339 262.608719 
L 522.155701 210.17595 
L 522.434062 262.608719 
L 522.712424 211.559811 
L 522.990786 262.608719 
L 523.269148 201.677383 
L 523.54751 262.608719 
L 523.825872 202.32598 
L 524.104233 262.608719 
L 524.382595 225.554778 
L 524.660957 262.608719 
L 524.939319 217.175123 
L 525.217681 262.608719 
L 525.496042 232.676308 
L 525.774404 262.608719 
L 526.052766 215.312509 
L 526.331128 262.608719 
L 526.60949 231.305015 
L 526.887852 262.608719 
L 527.166213 202.89807 
L 527.444575 262.608719 
L 527.722937 196.420993 
L 528.001299 262.608719 
L 528.279661 246.930683 
L 528.558022 262.608719 
L 528.836384 210.466846 
L 529.114746 262.608719 
L 529.393108 200.63305 
L 529.67147 262.608719 
L 529.949832 222.95696 
L 530.228193 262.608719 
L 530.506555 250.862161 
L 530.784917 262.608719 
L 531.063279 184.157778 
L 531.341641 262.608719 
L 531.620002 213.24349 
L 531.898364 262.608719 
L 532.176726 210.514953 
L 532.455088 262.608719 
L 532.73345 208.184898 
L 533.011812 262.608719 
L 533.290173 197.132521 
L 533.568535 262.608719 
L 533.846897 194.079012 
L 534.125259 262.608719 
L 534.403621 223.377036 
L 534.681982 262.608719 
L 534.960344 220.357897 
L 535.238706 262.608719 
L 535.517068 202.427241 
L 535.79543 262.608719 
L 536.073792 221.508029 
L 536.352153 262.608719 
L 536.630515 229.475475 
L 536.908877 262.608719 
L 537.187239 203.357836 
L 537.465601 262.608719 
L 537.743962 204.562913 
L 538.022324 262.608719 
L 538.300686 214.937399 
L 538.579048 262.608719 
L 538.85741 225.800305 
L 539.135771 262.608719 
L 539.414133 195.867245 
L 539.692495 262.608719 
L 539.970857 216.540548 
L 540.249219 262.608719 
L 540.527581 230.92002 
L 540.805942 262.608719 
L 541.084304 220.323049 
L 541.362666 262.608719 
L 541.641028 257.438206 
L 541.91939 262.608719 
L 542.197751 203.701869 
L 542.476113 262.608719 
L 542.754475 215.647692 
L 543.032837 262.608719 
L 543.311199 193.962133 
L 543.589561 262.608719 
L 543.867922 196.476783 
L 544.146284 262.608719 
L 544.424646 208.557407 
L 544.703008 262.608719 
L 544.98137 214.971736 
L 545.259731 262.608719 
L 545.538093 209.456899 
L 545.816455 262.608719 
L 546.094817 218.172939 
L 546.373179 262.608719 
L 546.651541 227.816044 
L 546.929902 262.608719 
L 547.208264 205.837328 
L 547.486626 262.608719 
L 547.764988 216.935568 
L 548.04335 262.608719 
L 548.321711 201.993294 
L 548.600073 262.608719 
L 548.878435 199.026755 
L 549.156797 262.608719 
L 549.435159 198.63857 
L 549.713521 262.608719 
L 549.991882 187.683842 
L 550.270244 262.608719 
L 550.548606 226.86147 
L 550.826968 262.608719 
L 551.10533 244.934232 
L 551.383691 262.608719 
L 551.662053 208.827738 
L 551.940415 262.608719 
L 552.218777 219.420721 
L 552.497139 262.608719 
L 552.7755 234.831803 
L 553.053862 262.608719 
L 553.332224 222.831516 
L 553.610586 262.608719 
L 553.888948 207.918644 
L 554.16731 262.608719 
L 554.445671 229.026893 
L 554.724033 262.608719 
L 555.002395 206.636351 
L 555.280757 262.608719 
L 555.559119 194.145602 
L 555.83748 262.608719 
L 556.115842 218.062525 
L 556.394204 262.608719 
L 556.672566 223.455647 
L 556.950928 262.608719 
L 557.22929 239.097011 
L 557.507651 262.608719 
L 557.786013 225.681066 
L 558.064375 262.608719 
L 558.342737 227.919896 
L 558.621099 262.608719 
L 558.89946 232.505063 
L 559.177822 262.608719 
L 559.456184 221.697918 
L 559.734546 262.608719 
L 560.012908 199.927852 
L 560.29127 262.608719 
L 560.569631 237.466474 
L 560.847993 262.608719 
L 561.126355 201.98571 
L 561.404717 262.608719 
L 561.683079 228.076825 
L 561.96144 262.608719 
L 562.239802 234.455162 
L 562.518164 262.608719 
L 562.796526 258.406803 
L 563.074888 262.608719 
L 563.35325 206.056631 
L 563.631611 262.608719 
L 563.909973 215.635278 
L 564.188335 262.608719 
L 564.466697 223.551974 
L 564.745059 262.608719 
L 565.02342 227.580999 
L 565.301782 262.608719 
L 565.580144 229.767988 
L 565.858506 262.608719 
L 566.136868 216.470299 
L 566.415229 262.608719 
L 566.693591 202.741773 
L 566.971953 262.608719 
L 567.250315 234.19313 
L 567.528677 262.608719 
L 567.807039 204.91338 
L 568.0854 262.608719 
L 568.363762 220.028691 
L 568.642124 262.608719 
L 568.920486 241.942445 
L 569.198848 262.608719 
L 569.477209 199.381352 
L 569.755571 262.608719 
L 570.033933 193.576291 
L 570.312295 262.608719 
L 570.590657 220.310679 
L 570.869019 262.608719 
L 571.14738 219.091305 
L 571.425742 262.608719 
L 571.704104 200.779617 
L 571.982466 262.608719 
L 572.260828 205.445383 
L 572.539189 262.608719 
L 572.817551 288.848542 
L 573.374275 226.779042 
L 573.652637 262.608719 
L 573.930999 197.76929 
L 574.20936 262.608719 
L 574.487722 219.283047 
L 574.766084 262.608719 
L 575.044446 221.353595 
L 575.322808 262.608719 
L 575.601169 193.79973 
L 575.879531 262.608719 
L 576.157893 204.248905 
L 576.436255 262.608719 
L 576.714617 225.155481 
L 576.992979 262.608719 
L 577.27134 232.232288 
L 577.549702 262.608719 
L 577.828064 217.754721 
L 578.106426 262.608719 
L 578.384788 226.932154 
L 578.663149 262.608719 
L 578.941511 204.742899 
L 579.219873 262.608719 
L 579.498235 229.14647 
L 579.776597 262.608719 
L 580.054958 202.690587 
L 580.33332 262.608719 
L 580.611682 202.615089 
L 580.890044 262.608719 
L 581.168406 206.734224 
L 581.446768 262.608719 
L 581.725129 204.249985 
L 582.003491 262.608719 
L 582.281853 268.204613 
L 582.560215 262.608719 
L 582.838577 213.775441 
L 583.116938 262.608719 
L 583.3953 204.957735 
L 583.673662 262.608719 
L 583.952024 197.886632 
L 584.230386 262.608719 
L 584.508748 207.6139 
L 584.787109 262.608719 
L 585.065471 209.186111 
L 585.343833 262.608719 
L 585.622195 233.082227 
L 585.900557 262.608719 
L 586.178918 218.483541 
L 586.45728 262.608719 
L 586.735642 215.939425 
L 587.014004 262.608719 
L 587.292366 238.067597 
L 587.570728 262.608719 
L 587.849089 204.143894 
L 588.127451 262.608719 
L 588.405813 218.51236 
L 588.684175 262.608719 
L 588.962537 255.49886 
L 589.240898 262.608719 
L 589.51926 218.789783 
L 589.797622 262.608719 
L 590.075984 210.236334 
L 590.354346 262.608719 
L 590.632708 249.971895 
L 590.911069 262.608719 
L 591.189431 208.182614 
L 591.467793 262.608719 
L 591.746155 230.604365 
L 592.024517 262.608719 
L 592.302878 219.739438 
L 592.58124 262.608719 
L 592.859602 237.43398 
L 593.387516 289 
M 593.445136 289 
L 593.973049 241.909199 
L 594.251411 262.608719 
L 594.529773 226.657845 
L 594.808135 262.608719 
L 595.086497 217.437913 
L 595.364858 262.608719 
L 595.64322 192.466325 
L 595.921582 262.608719 
L 596.199944 203.3693 
L 596.478306 262.608719 
L 596.756667 232.404603 
L 597.035029 262.608719 
L 597.313391 222.724466 
L 597.591753 262.608719 
L 597.870115 198.4179 
L 598.148477 262.608719 
L 598.426838 211.479409 
L 598.7052 262.608719 
L 598.983562 218.224827 
L 599.261924 262.608719 
L 599.540286 210.396297 
L 599.818647 262.608719 
L 600.097009 204.528452 
L 600.375371 262.608719 
L 600.653733 240.043334 
L 600.932095 262.608719 
L 601.210457 208.881205 
L 601.488818 262.608719 
L 601.76718 193.181138 
L 602.045542 262.608719 
L 602.323904 202.97428 
L 602.602266 262.608719 
L 602.880627 232.967608 
L 603.158989 262.608719 
L 603.437351 211.00205 
L 603.715713 262.608719 
L 603.994075 210.923782 
L 604.272437 262.608719 
L 604.550798 219.053386 
L 604.82916 262.608719 
L 605.107522 244.032569 
L 605.385884 262.608719 
L 605.664246 222.161498 
L 605.942607 262.608719 
L 606.220969 195.858011 
L 606.499331 262.608719 
L 606.777693 227.71348 
L 607.056055 262.608719 
L 607.334417 226.071613 
L 607.612778 262.608719 
L 607.89114 205.897661 
L 608.169502 262.608719 
L 608.447864 191.377682 
L 608.726226 262.608719 
L 609.004587 226.924421 
L 609.282949 262.608719 
L 609.561311 257.769014 
L 609.839673 262.608719 
L 610.118035 251.671669 
L 610.396396 262.608719 
L 610.674758 201.894307 
L 610.95312 262.608719 
L 611.231482 210.390145 
L 611.509844 262.608719 
L 611.788206 195.984502 
L 612.066567 262.608719 
L 612.344929 197.726618 
L 612.623291 262.608719 
L 612.901653 222.308632 
L 613.180015 262.608719 
L 613.458376 210.794473 
L 613.736738 262.608719 
L 614.0151 196.94197 
L 614.293462 262.608719 
L 614.571824 187.648392 
L 614.850186 262.608719 
L 615.128547 249.162064 
L 615.406909 262.608719 
L 615.685271 210.947938 
L 615.963633 262.608719 
L 616.241995 202.389402 
L 616.520356 262.608719 
L 616.798718 270.582094 
L 617.07708 262.608719 
L 617.355442 235.275769 
L 617.633804 262.608719 
L 617.912166 199.113124 
L 618.190527 262.608719 
L 618.468889 202.768263 
L 618.747251 262.608719 
L 619.025613 238.712363 
L 619.303975 262.608719 
L 619.582336 255.331976 
L 619.860698 262.608719 
L 620.13906 220.999013 
L 620.417422 262.608719 
L 620.695784 215.919961 
L 620.974146 262.608719 
L 621.252507 219.433183 
L 621.530869 262.608719 
L 621.809231 229.277248 
L 622.087593 262.608719 
L 622.365955 203.507033 
L 622.644316 262.608719 
L 622.922678 231.958709 
L 623.20104 262.608719 
L 623.479402 210.134712 
L 623.757764 262.608719 
L 624.036125 207.236578 
L 624.314487 262.608719 
L 624.592849 204.143019 
L 624.871211 262.608719 
L 625.149573 240.159411 
L 625.427935 262.608719 
L 625.706296 219.40043 
L 625.984658 262.608719 
L 626.26302 207.12768 
L 626.541382 262.608719 
L 626.819744 218.064745 
L 627.098105 262.608719 
L 627.376467 229.394148 
L 627.654829 262.608719 
L 627.933191 187.443307 
L 628.211553 262.608719 
L 628.489915 221.532207 
L 628.768276 262.608719 
L 629.046638 207.041825 
L 629.325 274.598402 
L 629.325 274.598402 
" clip-path="url(#pf2189f42cf)" style="fill: none; stroke: #4682b4; stroke-width: 0.7; stroke-linecap: square"/>
   </g>
   <g id="line2d_26">
    <path d="M 67.312493 245.93875 
L 67.312493 26.88 
" clip-path="url(#pf2189f42cf)" style="fill: none; stroke-dasharray: 2.96,1.28; stroke-dashoffset: 0; stroke: #ff6347; stroke-width: 0.8"/>
   </g>
   <g id="line2d_27">
    <path d="M 75.384985 245.93875 
L 75.384985 26.88 
" clip-path="url(#pf2189f42cf)" style="fill: none; stroke-dasharray: 0.6,0.99; stroke-dashoffset: 0; stroke: #ffa500; stroke-width: 0.6"/>
   </g>
   <g id="line2d_28">
    <path d="M 83.457478 245.93875 
L 83.457478 26.88 
" clip-path="url(#pf2189f42cf)" style="fill: none; stroke-dasharray: 0.6,0.99; stroke-dashoffset: 0; stroke: #ffa500; stroke-width: 0.6"/>
   </g>
   <g id="line2d_29">
    <path d="M 91.529971 245.93875 
L 91.529971 26.88 
" clip-path="url(#pf2189f42cf)" style="fill: none; stroke-dasharray: 0.6,0.99; stroke-dashoffset: 0; stroke: #ffa500; stroke-width: 0.6"/>
   </g>
   <g id="line2d_30">
    <path d="M 99.602463 245.93875 
L 99.602463 26.88 
" clip-path="url(#pf2189f42cf)" style="fill: none; stroke-dasharray: 0.6,0.99; stroke-dashoffset: 0; stroke: #ffa500; stroke-width: 0.6"/>
   </g>
   <g id="line2d_31">
    <path d="M 107.674956 245.93875 
L 107.674956 26.88 
" clip-path="url(#pf2189f42cf)" style="fill: none; stroke-dasharray: 0.6,0.99; stroke-dashoffset: 0; stroke: #ffa500; stroke-width: 0.6"/>
   </g>
   <g id="line2d_32">
    <path d="M 115.747449 245.93875 
L 115.747449 26.88 
" clip-path="url(#pf2189f42cf)" style="fill: none; stroke-dasharray: 0.6,0.99; stroke-dashoffset: 0; stroke: #ffa500; stroke-width: 0.6"/>
   </g>
   <g id="line2d_33">
    <path d="M 123.819941 245.93875 
L 123.819941 26.88 
" clip-path="url(#pf2189f42cf)" style="fill: none; stroke-dasharray: 0.6,0.99; stroke-dashoffset: 0; stroke: #ffa500; stroke-width: 0.6"/>
   </g>
   <g id="line2d_34">
    <path d="M 131.892434 245.93875 
L 131.892434 26.88 
" clip-path="url(#pf2189f42cf)" style="fill: none; stroke-dasharray: 0.6,0.99; stroke-dashoffset: 0; stroke: #ffa500; stroke-width: 0.6"/>
   </g>
   <g id="line2d_35">
    <path d="M 139.964927 245.93875 
L 139.964927 26.88 
" clip-path="url(#pf2189f42cf)" style="fill: none; stroke-dasharray: 0.6,0.99; stroke-dashoffset: 0; stroke: #ffa500; stroke-width: 0.6"/>
   </g>
   <g id="patch_3">
    <path d="M 59.24 245.93875 
L 59.24 26.88 
" style="fill: none; stroke: #000000; stroke-width: 0.8; stroke-linejoin: miter; stroke-linecap: square"/>
   </g>
   <g id="patch_4">
    <path d="M 629.325 245.93875 
L 629.325 26.88 
" style="fill: none; stroke: #000000; stroke-width: 0.8; stroke-linejoin: miter; stroke-linecap: square"/>
   </g>
   <g id="patch_5">
    <path d="M 59.24 245.93875 
L 629.325 245.93875 
" style="fill: none; stroke: #000000; stroke-width: 0.8; stroke-linejoin: miter; stroke-linecap: square"/>
   </g>
   <g id="patch_6">
    <path d="M 59.24 26.88 
L 629.325 26.88 
" style="fill: none; stroke: #000000; stroke-width: 0.8; stroke-linejoin: miter; stroke-linecap: square"/>
   </g>
   <g id="text_15">
    <!-- THD = -77.2 dB   |   SNDR = 50.0 dB   |   ENOB = 8.01 bits -->
    <g transform="translate(169.060937 20.88) scale(0.12 -0.12)">
     <defs>
      <path id="DejaVuSans-54" d="M -19 4666 
L 3928 4666 
L 3928 4134 
L 2272 4134 
L 2272 0 
L 1638 0 
L 1638 4134 
L -19 4134 
L -19 4666 
z
" transform="scale(0.015625)"/>
      <path id="DejaVuSans-48" d="M 628 4666 
L 1259 4666 
L 1259 2753 
L 3553 2753 
L 3553 4666 
L 4184 4666 
L 4184 0 
L 3553 0 
L 3553 2222 
L 1259 2222 
L 1259 0 
L 628 0 
L 628 4666 
z
" transform="scale(0.015625)"/>
      <path id="DejaVuSans-44" d="M 1259 4147 
L 1259 519 
L 2022 519 
Q 2988 519 3436 956 
Q 3884 1394 3884 2338 
Q 3884 3275 3436 3711 
Q 2988 4147 2022 4147 
L 1259 4147 
z
M 628 4666 
L 1925 4666 
Q 3281 4666 3915 4102 
Q 4550 3538 4550 2338 
Q 4550 1131 3912 565 
Q 3275 0 1925 0 
L 628 0 
L 628 4666 
z
" transform="scale(0.015625)"/>
      <path id="DejaVuSans-3d" d="M 678 2906 
L 4684 2906 
L 4684 2381 
L 678 2381 
L 678 2906 
z
M 678 1631 
L 4684 1631 
L 4684 1100 
L 678 1100 
L 678 1631 
z
" transform="scale(0.015625)"/>
      <path id="DejaVuSans-2d" d="M 313 2009 
L 1997 2009 
L 1997 1497 
L 313 1497 
L 313 2009 
z
" transform="scale(0.015625)"/>
      <path id="DejaVuSans-37" d="M 525 4666 
L 3525 4666 
L 3525 4397 
L 1831 0 
L 1172 0 
L 2766 4134 
L 525 4134 
L 525 4666 
z
" transform="scale(0.015625)"/>
      <path id="DejaVuSans-7c" d="M 1344 4891 
L 1344 -1509 
L 813 -1509 
L 813 4891 
L 1344 4891 
z
" transform="scale(0.015625)"/>
      <path id="DejaVuSans-52" d="M 2841 2188 
Q 3044 2119 3236 1894 
Q 3428 1669 3622 1275 
L 4263 0 
L 3584 0 
L 2988 1197 
Q 2756 1666 2539 1819 
Q 2322 1972 1947 1972 
L 1259 1972 
L 1259 0 
L 628 0 
L 628 4666 
L 2053 4666 
Q 2853 4666 3247 4331 
Q 3641 3997 3641 3322 
Q 3641 2881 3436 2590 
Q 3231 2300 2841 2188 
z
M 1259 4147 
L 1259 2491 
L 2053 2491 
Q 2509 2491 2742 2702 
Q 2975 2913 2975 3322 
Q 2975 3731 2742 3939 
Q 2509 4147 2053 4147 
L 1259 4147 
z
" transform="scale(0.015625)"/>
      <path id="DejaVuSans-45" d="M 628 4666 
L 3578 4666 
L 3578 4134 
L 1259 4134 
L 1259 2753 
L 3481 2753 
L 3481 2222 
L 1259 2222 
L 1259 531 
L 3634 531 
L 3634 0 
L 628 0 
L 628 4666 
z
" transform="scale(0.015625)"/>
      <path id="DejaVuSans-4f" d="M 2522 4238 
Q 1834 4238 1429 3725 
Q 1025 3213 1025 2328 
Q 1025 1447 1429 934 
Q 1834 422 2522 422 
Q 3209 422 3611 934 
Q 4013 1447 4013 2328 
Q 4013 3213 3611 3725 
Q 3209 4238 2522 4238 
z
M 2522 4750 
Q 3503 4750 4090 4092 
Q 4678 3434 4678 2328 
Q 4678 1225 4090 567 
Q 3503 -91 2522 -91 
Q 1538 -91 948 565 
Q 359 1222 359 2328 
Q 359 3434 948 4092 
Q 1538 4750 2522 4750 
z
" transform="scale(0.015625)"/>
      <path id="DejaVuSans-62" d="M 3116 1747 
Q 3116 2381 2855 2742 
Q 2594 3103 2138 3103 
Q 1681 3103 1420 2742 
Q 1159 2381 1159 1747 
Q 1159 1113 1420 752 
Q 1681 391 2138 391 
Q 2594 391 2855 752 
Q 3116 1113 3116 1747 
z
M 1159 2969 
Q 1341 3281 1617 3432 
Q 1894 3584 2278 3584 
Q 2916 3584 3314 3078 
Q 3713 2572 3713 1747 
Q 3713 922 3314 415 
Q 2916 -91 2278 -91 
Q 1894 -91 1617 61 
Q 1341 213 1159 525 
L 1159 0 
L 581 0 
L 581 4863 
L 1159 4863 
L 1159 2969 
z
" transform="scale(0.015625)"/>
     </defs>
     <use xlink:href="#DejaVuSans-54"/>
     <use xlink:href="#DejaVuSans-48" transform="translate(61.083984 0)"/>
     <use xlink:href="#DejaVuSans-44" transform="translate(136.279297 0)"/>
     <use xlink:href="#DejaVuSans-20" transform="translate(213.28125 0)"/>
     <use xlink:href="#DejaVuSans-3d" transform="translate(245.068359 0)"/>
     <use xlink:href="#DejaVuSans-20" transform="translate(328.857422 0)"/>
     <use xlink:href="#DejaVuSans-2d" transform="translate(360.644531 0)"/>
     <use xlink:href="#DejaVuSans-37" transform="translate(396.728516 0)"/>
     <use xlink:href="#DejaVuSans-37" transform="translate(460.351562 0)"/>
     <use xlink:href="#DejaVuSans-2e" transform="translate(523.974609 0)"/>
     <use xlink:href="#DejaVuSans-32" transform="translate(555.761719 0)"/>
     <use xlink:href="#DejaVuSans-20" transform="translate(619.384766 0)"/>
     <use xlink:href="#DejaVuSans-64" transform="translate(651.171875 0)"/>
     <use xlink:href="#DejaVuSans-42" transform="translate(714.648438 0)"/>
     <use xlink:href="#DejaVuSans-20" transform="translate(783.251953 0)"/>
     <use xlink:href="#DejaVuSans-20" transform="translate(815.039062 0)"/>
     <use xlink:href="#DejaVuSans-20" transform="translate(846.826172 0)"/>
     <use xlink:href="#DejaVuSans-7c" transform="translate(878.613281 0)"/>
     <use xlink:href="#DejaVuSans-20" transform="translate(912.304688 0)"/>
     <use xlink:href="#DejaVuSans-20" transform="translate(944.091797 0)"/>
     <use xlink:href="#DejaVuSans-20" transform="translate(975.878906 0)"/>
     <use xlink:href="#DejaVuSans-53" transform="translate(1007.666016 0)"/>
     <use xlink:href="#DejaVuSans-4e" transform="translate(1071.142578 0)"/>
     <use xlink:href="#DejaVuSans-44" transform="translate(1145.947266 0)"/>
     <use xlink:href="#DejaVuSans-52" transform="translate(1222.949219 0)"/>
     <use xlink:href="#DejaVuSans-20" transform="translate(1292.431641 0)"/>
     <use xlink:href="#DejaVuSans-3d" transform="translate(1324.21875 0)"/>
     <use xlink:href="#DejaVuSans-20" transform="translate(1408.007812 0)"/>
     <use xlink:href="#DejaVuSans-35" transform="translate(1439.794922 0)"/>
     <use xlink:href="#DejaVuSans-30" transform="translate(1503.417969 0)"/>
     <use xlink:href="#DejaVuSans-2e" transform="translate(1567.041016 0)"/>
     <use xlink:href="#DejaVuSans-30" transform="translate(1598.828125 0)"/>
     <use xlink:href="#DejaVuSans-20" transform="translate(1662.451172 0)"/>
     <use xlink:href="#DejaVuSans-64" transform="translate(1694.238281 0)"/>
     <use xlink:href="#DejaVuSans-42" transform="translate(1757.714844 0)"/>
     <use xlink:href="#DejaVuSans-20" transform="translate(1826.318359 0)"/>
     <use xlink:href="#DejaVuSans-20" transform="translate(1858.105469 0)"/>
     <use xlink:href="#DejaVuSans-20" transform="translate(1889.892578 0)"/>
     <use xlink:href="#DejaVuSans-7c" transform="translate(1921.679688 0)"/>
     <use xlink:href="#DejaVuSans-20" transform="translate(1955.371094 0)"/>
     <use xlink:href="#DejaVuSans-20" transform="translate(1987.158203 0)"/>
     <use xlink:href="#DejaVuSans-20" transform="translate(2018.945312 0)"/>
     <use xlink:href="#DejaVuSans-45" transform="translate(2050.732422 0)"/>
     <use xlink:href="#DejaVuSans-4e" transform="translate(2113.916016 0)"/>
     <use xlink:href="#DejaVuSans-4f" transform="translate(2188.720703 0)"/>
     <use xlink:href="#DejaVuSans-42" transform="translate(2267.431641 0)"/>
     <use xlink:href="#DejaVuSans-20" transform="translate(2336.035156 0)"/>
     <use xlink:href="#DejaVuSans-3d" transform="translate(2367.822266 0)"/>
     <use xlink:href="#DejaVuSans-20" transform="translate(2451.611328 0)"/>
     <use xlink:href="#DejaVuSans-38" transform="translate(2483.398438 0)"/>
     <use xlink:href="#DejaVuSans-2e" transform="translate(2547.021484 0)"/>
     <use xlink:href="#DejaVuSans-30" transform="translate(2578.808594 0)"/>
     <use xlink:href="#DejaVuSans-31" transform="translate(2642.431641 0)"/>
     <use xlink:href="#DejaVuSans-20" transform="translate(2706.054688 0)"/>
     <use xlink:href="#DejaVuSans-62" transform="translate(2737.841797 0)"/>
     <use xlink:href="#DejaVuSans-69" transform="translate(2801.318359 0)"/>
     <use xlink:href="#DejaVuSans-74" transform="translate(2829.101562 0)"/>
     <use xlink:href="#DejaVuSans-73" transform="translate(2868.310547 0)"/>
    </g>
   </g>
   <g id="legend_1">
    <g id="patch_7">
     <path d="M 538.9925 45.245 
L 623.725 45.245 
Q 625.325 45.245 625.325 43.645 
L 625.325 32.48 
Q 625.325 30.88 623.725 30.88 
L 538.9925 30.88 
Q 537.3925 30.88 537.3925 32.48 
L 537.3925 43.645 
Q 537.3925 45.245 538.9925 45.245 
z
" style="fill: #ffffff; opacity: 0.8; stroke: #cccccc; stroke-linejoin: miter"/>
    </g>
    <g id="line2d_36">
     <path d="M 540.5925 37.35875 
L 548.5925 37.35875 
L 556.5925 37.35875 
" style="fill: none; stroke-dasharray: 2.96,1.28; stroke-dashoffset: 0; stroke: #ff6347; stroke-width: 0.8"/>
    </g>
    <g id="text_16">
     <!-- f_in = 29/4096 -->
     <g transform="translate(562.9925 40.15875) scale(0.08 -0.08)">
      <defs>
       <path id="DejaVuSans-39" d="M 703 97 
L 703 672 
Q 941 559 1184 500 
Q 1428 441 1663 441 
Q 2288 441 2617 861 
Q 2947 1281 2994 2138 
Q 2813 1869 2534 1725 
Q 2256 1581 1919 1581 
Q 1219 1581 811 2004 
Q 403 2428 403 3163 
Q 403 3881 828 4315 
Q 1253 4750 1959 4750 
Q 2769 4750 3195 4129 
Q 3622 3509 3622 2328 
Q 3622 1225 3098 567 
Q 2575 -91 1691 -91 
Q 1453 -91 1209 -44 
Q 966 3 703 97 
z
M 1959 2075 
Q 2384 2075 2632 2365 
Q 2881 2656 2881 3163 
Q 2881 3666 2632 3958 
Q 2384 4250 1959 4250 
Q 1534 4250 1286 3958 
Q 1038 3666 1038 3163 
Q 1038 2656 1286 2365 
Q 1534 2075 1959 2075 
z
" transform="scale(0.015625)"/>
       <path id="DejaVuSans-2f" d="M 1625 4666 
L 2156 4666 
L 531 -594 
L 0 -594 
L 1625 4666 
z
" transform="scale(0.015625)"/>
      </defs>
      <use xlink:href="#DejaVuSans-66"/>
      <use xlink:href="#DejaVuSans-5f" transform="translate(35.205078 0)"/>
      <use xlink:href="#DejaVuSans-69" transform="translate(85.205078 0)"/>
      <use xlink:href="#DejaVuSans-6e" transform="translate(112.988281 0)"/>
      <use xlink:href="#DejaVuSans-20" transform="translate(176.367188 0)"/>
      <use xlink:href="#DejaVuSans-3d" transform="translate(208.154297 0)"/>
      <use xlink:href="#DejaVuSans-20" transform="translate(291.943359 0)"/>
      <use xlink:href="#DejaVuSans-32" transform="translate(323.730469 0)"/>
      <use xlink:href="#DejaVuSans-39" transform="translate(387.353516 0)"/>
      <use xlink:href="#DejaVuSans-2f" transform="translate(450.976562 0)"/>
      <use xlink:href="#DejaVuSans-34" transform="translate(484.667969 0)"/>
      <use xlink:href="#DejaVuSans-30" transform="translate(548.291016 0)"/>
      <use xlink:href="#DejaVuSans-39" transform="translate(611.914062 0)"/>
      <use xlink:href="#DejaVuSans-36" transform="translate(675.537109 0)"/>
     </g>
    </g>
   </g>
  </g>
 </g>
 <defs>
  <clipPath id="pf2189f42cf">
   <rect x="59.24" y="26.88" width="570.085" height="219.05875"/>
  </clipPath>
 </defs>
</svg>
