<?xml version="1.0" encoding="utf-8" standalone="no"?>
<!DOCTYPE svg PUBLIC "-//W3C//DTD SVG 1.1//EN"
  "http://www.w3.org/Graphics/SVG/1.1/DTD/svg11.dtd">
<svg xmlns:xlink="http://www.w3.org/1999/xlink" width="648pt" height="288pt" viewBox="0 0 648 288" xmlns="http://www.w3.org/2000/svg" version="1.1">
 <metadata>
  <rdf:RDF xmlns:dc="http://purl.org/dc/elements/1.1/" xmlns:cc="http://creativecommons.org/ns#" xmlns:rdf="http://www.w3.org/1999/02/22-rdf-syntax-ns#">
   <cc:Work>
    <dc:type rdf:resource="http://purl.org/dc/dcmitype/StillImage"/>
    <dc:date>2026-04-02T19:06:19.388653</dc:date>
    <dc:format>image/svg+xml</dc:format>
    <dc:creator>
     <cc:Agent>
      <dc:title>Matplotlib v3.10.8, https://matplotlib.org/</dc:title>
     </cc:Agent>
    </dc:creator>
   </cc:Work>
  </rdf:RDF>
 </metadata>
 <defs>
  <style type="text/css">*{stroke-linejoin: round; stroke-linecap: butt}</style>
 </defs>
 <g id="figure_1">
  <g id="patch_1">
   <path d="M 0 288 
L 648 288 
L 648 0 
L 0 0 
z
" style="fill: #ffffff"/>
  </g>
  <g id="axes_1">
   <g id="patch_2">
    <path d="M 59.24 245.93875 
L 629.325 245.93875 
L 629.325 26.88 
L 59.24 26.88 
z
" style="fill: #ffffff"/>
   </g>
   <g id="matplotlib.axis_1">
    <g id="xtick_1">
     <g id="line2d_1">
      <path d="M 59.24 245.93875 
L 59.24 26.88 
" clip-path="url(#p1a7d99e2c2)" style="fill: none; stroke: #b0b0b0; stroke-width: 0.3; stroke-linecap: square"/>
     </g>
     <g id="line2d_2">
      <defs>
       <path id="m9ac07e9140" d="M 0 0 
L 0 3.5 
" style="stroke: #000000; stroke-width: 0.8"/>
      </defs>
      <g>
       <use xlink:href="#m9ac07e9140" x="59.24" y="245.93875" style="stroke: #000000; stroke-width: 0.8"/>
      </g>
     </g>
     <g id="text_1">
      <!-- 0.0 -->
      <g transform="translate(51.288438 260.537188) scale(0.1 -0.1)">
       <defs>
        <path id="DejaVuSans-30" d="M 2034 4250 
Q 1547 4250 1301 3770 
Q 1056 3291 1056 2328 
Q 1056 1369 1301 889 
Q 1547 409 2034 409 
Q 2525 409 2770 889 
Q 3016 1369 3016 2328 
Q 3016 3291 2770 3770 
Q 2525 4250 2034 4250 
z
M 2034 4750 
Q 2819 4750 3233 4129 
Q 3647 3509 3647 2328 
Q 3647 1150 3233 529 
Q 2819 -91 2034 -91 
Q 1250 -91 836 529 
Q 422 1150 422 2328 
Q 422 3509 836 4129 
Q 1250 4750 2034 4750 
z
" transform="scale(0.015625)"/>
        <path id="DejaVuSans-2e" d="M 684 794 
L 1344 794 
L 1344 0 
L 684 0 
L 684 794 
z
" transform="scale(0.015625)"/>
       </defs>
       <use xlink:href="#DejaVuSans-30"/>
       <use xlink:href="#DejaVuSans-2e" transform="translate(63.623047 0)"/>
       <use xlink:href="#DejaVuSans-30" transform="translate(95.410156 0)"/>
      </g>
     </g>
    </g>
    <g id="xtick_2">
     <g id="line2d_3">
      <path d="M 173.257 245.93875 
L 173.257 26.88 
" clip-path="url(#p1a7d99e2c2)" style="fill: none; stroke: #b0b0b0; stroke-width: 0.3; stroke-linecap: square"/>
     </g>
     <g id="line2d_4">
      <g>
       <use xlink:href="#m9ac07e9140" x="173.257" y="245.93875" style="stroke: #000000; stroke-width: 0.8"/>
      </g>
     </g>
     <g id="text_2">
      <!-- 0.1 -->
      <g transform="translate(165.305438 260.537188) scale(0.1 -0.1)">
       <defs>
        <path id="DejaVuSans-31" d="M 794 531 
L 1825 531 
L 1825 4091 
L 703 3866 
L 703 4441 
L 1819 4666 
L 2450 4666 
L 2450 531 
L 3481 531 
L 3481 0 
L 794 0 
L 794 531 
z
" transform="scale(0.015625)"/>
       </defs>
       <use xlink:href="#DejaVuSans-30"/>
       <use xlink:href="#DejaVuSans-2e" transform="translate(63.623047 0)"/>
       <use xlink:href="#DejaVuSans-31" transform="translate(95.410156 0)"/>
      </g>
     </g>
    </g>
    <g id="xtick_3">
     <g id="line2d_5">
      <path d="M 287.274 245.93875 
L 287.274 26.88 
" clip-path="url(#p1a7d99e2c2)" style="fill: none; stroke: #b0b0b0; stroke-width: 0.3; stroke-linecap: square"/>
     </g>
     <g id="line2d_6">
      <g>
       <use xlink:href="#m9ac07e9140" x="287.274" y="245.93875" style="stroke: #000000; stroke-width: 0.8"/>
      </g>
     </g>
     <g id="text_3">
      <!-- 0.2 -->
      <g transform="translate(279.322437 260.537188) scale(0.1 -0.1)">
       <defs>
        <path id="DejaVuSans-32" d="M 1228 531 
L 3431 531 
L 3431 0 
L 469 0 
L 469 531 
Q 828 903 1448 1529 
Q 2069 2156 2228 2338 
Q 2531 2678 2651 2914 
Q 2772 3150 2772 3378 
Q 2772 3750 2511 3984 
Q 2250 4219 1831 4219 
Q 1534 4219 1204 4116 
Q 875 4013 500 3803 
L 500 4441 
Q 881 4594 1212 4672 
Q 1544 4750 1819 4750 
Q 2544 4750 2975 4387 
Q 3406 4025 3406 3419 
Q 3406 3131 3298 2873 
Q 3191 2616 2906 2266 
Q 2828 2175 2409 1742 
Q 1991 1309 1228 531 
z
" transform="scale(0.015625)"/>
       </defs>
       <use xlink:href="#DejaVuSans-30"/>
       <use xlink:href="#DejaVuSans-2e" transform="translate(63.623047 0)"/>
       <use xlink:href="#DejaVuSans-32" transform="translate(95.410156 0)"/>
      </g>
     </g>
    </g>
    <g id="xtick_4">
     <g id="line2d_7">
      <path d="M 401.291 245.93875 
L 401.291 26.88 
" clip-path="url(#p1a7d99e2c2)" style="fill: none; stroke: #b0b0b0; stroke-width: 0.3; stroke-linecap: square"/>
     </g>
     <g id="line2d_8">
      <g>
       <use xlink:href="#m9ac07e9140" x="401.291" y="245.93875" style="stroke: #000000; stroke-width: 0.8"/>
      </g>
     </g>
     <g id="text_4">
      <!-- 0.3 -->
      <g transform="translate(393.339437 260.537188) scale(0.1 -0.1)">
       <defs>
        <path id="DejaVuSans-33" d="M 2597 2516 
Q 3050 2419 3304 2112 
Q 3559 1806 3559 1356 
Q 3559 666 3084 287 
Q 2609 -91 1734 -91 
Q 1441 -91 1130 -33 
Q 819 25 488 141 
L 488 750 
Q 750 597 1062 519 
Q 1375 441 1716 441 
Q 2309 441 2620 675 
Q 2931 909 2931 1356 
Q 2931 1769 2642 2001 
Q 2353 2234 1838 2234 
L 1294 2234 
L 1294 2753 
L 1863 2753 
Q 2328 2753 2575 2939 
Q 2822 3125 2822 3475 
Q 2822 3834 2567 4026 
Q 2313 4219 1838 4219 
Q 1578 4219 1281 4162 
Q 984 4106 628 3988 
L 628 4550 
Q 988 4650 1302 4700 
Q 1616 4750 1894 4750 
Q 2613 4750 3031 4423 
Q 3450 4097 3450 3541 
Q 3450 3153 3228 2886 
Q 3006 2619 2597 2516 
z
" transform="scale(0.015625)"/>
       </defs>
       <use xlink:href="#DejaVuSans-30"/>
       <use xlink:href="#DejaVuSans-2e" transform="translate(63.623047 0)"/>
       <use xlink:href="#DejaVuSans-33" transform="translate(95.410156 0)"/>
      </g>
     </g>
    </g>
    <g id="xtick_5">
     <g id="line2d_9">
      <path d="M 515.308 245.93875 
L 515.308 26.88 
" clip-path="url(#p1a7d99e2c2)" style="fill: none; stroke: #b0b0b0; stroke-width: 0.3; stroke-linecap: square"/>
     </g>
     <g id="line2d_10">
      <g>
       <use xlink:href="#m9ac07e9140" x="515.308" y="245.93875" style="stroke: #000000; stroke-width: 0.8"/>
      </g>
     </g>
     <g id="text_5">
      <!-- 0.4 -->
      <g transform="translate(507.356437 260.537188) scale(0.1 -0.1)">
       <defs>
        <path id="DejaVuSans-34" d="M 2419 4116 
L 825 1625 
L 2419 1625 
L 2419 4116 
z
M 2253 4666 
L 3047 4666 
L 3047 1625 
L 3713 1625 
L 3713 1100 
L 3047 1100 
L 3047 0 
L 2419 0 
L 2419 1100 
L 313 1100 
L 313 1709 
L 2253 4666 
z
" transform="scale(0.015625)"/>
       </defs>
       <use xlink:href="#DejaVuSans-30"/>
       <use xlink:href="#DejaVuSans-2e" transform="translate(63.623047 0)"/>
       <use xlink:href="#DejaVuSans-34" transform="translate(95.410156 0)"/>
      </g>
     </g>
    </g>
    <g id="xtick_6">
     <g id="line2d_11">
      <path d="M 629.325 245.93875 
L 629.325 26.88 
" clip-path="url(#p1a7d99e2c2)" style="fill: none; stroke: #b0b0b0; stroke-width: 0.3; stroke-linecap: square"/>
     </g>
     <g id="line2d_12">
      <g>
       <use xlink:href="#m9ac07e9140" x="629.325" y="245.93875" style="stroke: #000000; stroke-width: 0.8"/>
      </g>
     </g>
     <g id="text_6">
      <!-- 0.5 -->
      <g transform="translate(621.373437 260.537188) scale(0.1 -0.1)">
       <defs>
        <path id="DejaVuSans-35" d="M 691 4666 
L 3169 4666 
L 3169 4134 
L 1269 4134 
L 1269 2991 
Q 1406 3038 1543 3061 
Q 1681 3084 1819 3084 
Q 2600 3084 3056 2656 
Q 3513 2228 3513 1497 
Q 3513 744 3044 326 
Q 2575 -91 1722 -91 
Q 1428 -91 1123 -41 
Q 819 9 494 109 
L 494 744 
Q 775 591 1075 516 
Q 1375 441 1709 441 
Q 2250 441 2565 725 
Q 2881 1009 2881 1497 
Q 2881 1984 2565 2268 
Q 2250 2553 1709 2553 
Q 1456 2553 1204 2497 
Q 953 2441 691 2322 
L 691 4666 
z
" transform="scale(0.015625)"/>
       </defs>
       <use xlink:href="#DejaVuSans-30"/>
       <use xlink:href="#DejaVuSans-2e" transform="translate(63.623047 0)"/>
       <use xlink:href="#DejaVuSans-35" transform="translate(95.410156 0)"/>
      </g>
     </g>
    </g>
    <g id="text_7">
     <!-- Normalised frequency  (× f_s) -->
     <g transform="translate(269.5575 274.215312) scale(0.1 -0.1)">
      <defs>
       <path id="DejaVuSans-4e" d="M 628 4666 
L 1478 4666 
L 3547 763 
L 3547 4666 
L 4159 4666 
L 4159 0 
L 3309 0 
L 1241 3903 
L 1241 0 
L 628 0 
L 628 4666 
z
" transform="scale(0.015625)"/>
       <path id="DejaVuSans-6f" d="M 1959 3097 
Q 1497 3097 1228 2736 
Q 959 2375 959 1747 
Q 959 1119 1226 758 
Q 1494 397 1959 397 
Q 2419 397 2687 759 
Q 2956 1122 2956 1747 
Q 2956 2369 2687 2733 
Q 2419 3097 1959 3097 
z
M 1959 3584 
Q 2709 3584 3137 3096 
Q 3566 2609 3566 1747 
Q 3566 888 3137 398 
Q 2709 -91 1959 -91 
Q 1206 -91 779 398 
Q 353 888 353 1747 
Q 353 2609 779 3096 
Q 1206 3584 1959 3584 
z
" transform="scale(0.015625)"/>
       <path id="DejaVuSans-72" d="M 2631 2963 
Q 2534 3019 2420 3045 
Q 2306 3072 2169 3072 
Q 1681 3072 1420 2755 
Q 1159 2438 1159 1844 
L 1159 0 
L 581 0 
L 581 3500 
L 1159 3500 
L 1159 2956 
Q 1341 3275 1631 3429 
Q 1922 3584 2338 3584 
Q 2397 3584 2469 3576 
Q 2541 3569 2628 3553 
L 2631 2963 
z
" transform="scale(0.015625)"/>
       <path id="DejaVuSans-6d" d="M 3328 2828 
Q 3544 3216 3844 3400 
Q 4144 3584 4550 3584 
Q 5097 3584 5394 3201 
Q 5691 2819 5691 2113 
L 5691 0 
L 5113 0 
L 5113 2094 
Q 5113 2597 4934 2840 
Q 4756 3084 4391 3084 
Q 3944 3084 3684 2787 
Q 3425 2491 3425 1978 
L 3425 0 
L 2847 0 
L 2847 2094 
Q 2847 2600 2669 2842 
Q 2491 3084 2119 3084 
Q 1678 3084 1418 2786 
Q 1159 2488 1159 1978 
L 1159 0 
L 581 0 
L 581 3500 
L 1159 3500 
L 1159 2956 
Q 1356 3278 1631 3431 
Q 1906 3584 2284 3584 
Q 2666 3584 2933 3390 
Q 3200 3197 3328 2828 
z
" transform="scale(0.015625)"/>
       <path id="DejaVuSans-61" d="M 2194 1759 
Q 1497 1759 1228 1600 
Q 959 1441 959 1056 
Q 959 750 1161 570 
Q 1363 391 1709 391 
Q 2188 391 2477 730 
Q 2766 1069 2766 1631 
L 2766 1759 
L 2194 1759 
z
M 3341 1997 
L 3341 0 
L 2766 0 
L 2766 531 
Q 2569 213 2275 61 
Q 1981 -91 1556 -91 
Q 1019 -91 701 211 
Q 384 513 384 1019 
Q 384 1609 779 1909 
Q 1175 2209 1959 2209 
L 2766 2209 
L 2766 2266 
Q 2766 2663 2505 2880 
Q 2244 3097 1772 3097 
Q 1472 3097 1187 3025 
Q 903 2953 641 2809 
L 641 3341 
Q 956 3463 1253 3523 
Q 1550 3584 1831 3584 
Q 2591 3584 2966 3190 
Q 3341 2797 3341 1997 
z
" transform="scale(0.015625)"/>
       <path id="DejaVuSans-6c" d="M 603 4863 
L 1178 4863 
L 1178 0 
L 603 0 
L 603 4863 
z
" transform="scale(0.015625)"/>
       <path id="DejaVuSans-69" d="M 603 3500 
L 1178 3500 
L 1178 0 
L 603 0 
L 603 3500 
z
M 603 4863 
L 1178 4863 
L 1178 4134 
L 603 4134 
L 603 4863 
z
" transform="scale(0.015625)"/>
       <path id="DejaVuSans-73" d="M 2834 3397 
L 2834 2853 
Q 2591 2978 2328 3040 
Q 2066 3103 1784 3103 
Q 1356 3103 1142 2972 
Q 928 2841 928 2578 
Q 928 2378 1081 2264 
Q 1234 2150 1697 2047 
L 1894 2003 
Q 2506 1872 2764 1633 
Q 3022 1394 3022 966 
Q 3022 478 2636 193 
Q 2250 -91 1575 -91 
Q 1294 -91 989 -36 
Q 684 19 347 128 
L 347 722 
Q 666 556 975 473 
Q 1284 391 1588 391 
Q 1994 391 2212 530 
Q 2431 669 2431 922 
Q 2431 1156 2273 1281 
Q 2116 1406 1581 1522 
L 1381 1569 
Q 847 1681 609 1914 
Q 372 2147 372 2553 
Q 372 3047 722 3315 
Q 1072 3584 1716 3584 
Q 2034 3584 2315 3537 
Q 2597 3491 2834 3397 
z
" transform="scale(0.015625)"/>
       <path id="DejaVuSans-65" d="M 3597 1894 
L 3597 1613 
L 953 1613 
Q 991 1019 1311 708 
Q 1631 397 2203 397 
Q 2534 397 2845 478 
Q 3156 559 3463 722 
L 3463 178 
Q 3153 47 2828 -22 
Q 2503 -91 2169 -91 
Q 1331 -91 842 396 
Q 353 884 353 1716 
Q 353 2575 817 3079 
Q 1281 3584 2069 3584 
Q 2775 3584 3186 3129 
Q 3597 2675 3597 1894 
z
M 3022 2063 
Q 3016 2534 2758 2815 
Q 2500 3097 2075 3097 
Q 1594 3097 1305 2825 
Q 1016 2553 972 2059 
L 3022 2063 
z
" transform="scale(0.015625)"/>
       <path id="DejaVuSans-64" d="M 2906 2969 
L 2906 4863 
L 3481 4863 
L 3481 0 
L 2906 0 
L 2906 525 
Q 2725 213 2448 61 
Q 2172 -91 1784 -91 
Q 1150 -91 751 415 
Q 353 922 353 1747 
Q 353 2572 751 3078 
Q 1150 3584 1784 3584 
Q 2172 3584 2448 3432 
Q 2725 3281 2906 2969 
z
M 947 1747 
Q 947 1113 1208 752 
Q 1469 391 1925 391 
Q 2381 391 2643 752 
Q 2906 1113 2906 1747 
Q 2906 2381 2643 2742 
Q 2381 3103 1925 3103 
Q 1469 3103 1208 2742 
Q 947 2381 947 1747 
z
" transform="scale(0.015625)"/>
       <path id="DejaVuSans-20" transform="scale(0.015625)"/>
       <path id="DejaVuSans-66" d="M 2375 4863 
L 2375 4384 
L 1825 4384 
Q 1516 4384 1395 4259 
Q 1275 4134 1275 3809 
L 1275 3500 
L 2222 3500 
L 2222 3053 
L 1275 3053 
L 1275 0 
L 697 0 
L 697 3053 
L 147 3053 
L 147 3500 
L 697 3500 
L 697 3744 
Q 697 4328 969 4595 
Q 1241 4863 1831 4863 
L 2375 4863 
z
" transform="scale(0.015625)"/>
       <path id="DejaVuSans-71" d="M 947 1747 
Q 947 1113 1208 752 
Q 1469 391 1925 391 
Q 2381 391 2643 752 
Q 2906 1113 2906 1747 
Q 2906 2381 2643 2742 
Q 2381 3103 1925 3103 
Q 1469 3103 1208 2742 
Q 947 2381 947 1747 
z
M 2906 525 
Q 2725 213 2448 61 
Q 2172 -91 1784 -91 
Q 1150 -91 751 415 
Q 353 922 353 1747 
Q 353 2572 751 3078 
Q 1150 3584 1784 3584 
Q 2172 3584 2448 3432 
Q 2725 3281 2906 2969 
L 2906 3500 
L 3481 3500 
L 3481 -1331 
L 2906 -1331 
L 2906 525 
z
" transform="scale(0.015625)"/>
       <path id="DejaVuSans-75" d="M 544 1381 
L 544 3500 
L 1119 3500 
L 1119 1403 
Q 1119 906 1312 657 
Q 1506 409 1894 409 
Q 2359 409 2629 706 
Q 2900 1003 2900 1516 
L 2900 3500 
L 3475 3500 
L 3475 0 
L 2900 0 
L 2900 538 
Q 2691 219 2414 64 
Q 2138 -91 1772 -91 
Q 1169 -91 856 284 
Q 544 659 544 1381 
z
M 1991 3584 
L 1991 3584 
z
" transform="scale(0.015625)"/>
       <path id="DejaVuSans-6e" d="M 3513 2113 
L 3513 0 
L 2938 0 
L 2938 2094 
Q 2938 2591 2744 2837 
Q 2550 3084 2163 3084 
Q 1697 3084 1428 2787 
Q 1159 2491 1159 1978 
L 1159 0 
L 581 0 
L 581 3500 
L 1159 3500 
L 1159 2956 
Q 1366 3272 1645 3428 
Q 1925 3584 2291 3584 
Q 2894 3584 3203 3211 
Q 3513 2838 3513 2113 
z
" transform="scale(0.015625)"/>
       <path id="DejaVuSans-63" d="M 3122 3366 
L 3122 2828 
Q 2878 2963 2633 3030 
Q 2388 3097 2138 3097 
Q 1578 3097 1268 2742 
Q 959 2388 959 1747 
Q 959 1106 1268 751 
Q 1578 397 2138 397 
Q 2388 397 2633 464 
Q 2878 531 3122 666 
L 3122 134 
Q 2881 22 2623 -34 
Q 2366 -91 2075 -91 
Q 1284 -91 818 406 
Q 353 903 353 1747 
Q 353 2603 823 3093 
Q 1294 3584 2113 3584 
Q 2378 3584 2631 3529 
Q 2884 3475 3122 3366 
z
" transform="scale(0.015625)"/>
       <path id="DejaVuSans-79" d="M 2059 -325 
Q 1816 -950 1584 -1140 
Q 1353 -1331 966 -1331 
L 506 -1331 
L 506 -850 
L 844 -850 
Q 1081 -850 1212 -737 
Q 1344 -625 1503 -206 
L 1606 56 
L 191 3500 
L 800 3500 
L 1894 763 
L 2988 3500 
L 3597 3500 
L 2059 -325 
z
" transform="scale(0.015625)"/>
       <path id="DejaVuSans-28" d="M 1984 4856 
Q 1566 4138 1362 3434 
Q 1159 2731 1159 2009 
Q 1159 1288 1364 580 
Q 1569 -128 1984 -844 
L 1484 -844 
Q 1016 -109 783 600 
Q 550 1309 550 2009 
Q 550 2706 781 3412 
Q 1013 4119 1484 4856 
L 1984 4856 
z
" transform="scale(0.015625)"/>
       <path id="DejaVuSans-d7" d="M 4488 3438 
L 3059 2003 
L 4488 575 
L 4116 197 
L 2681 1631 
L 1247 197 
L 878 575 
L 2303 2003 
L 878 3438 
L 1247 3816 
L 2681 2381 
L 4116 3816 
L 4488 3438 
z
" transform="scale(0.015625)"/>
       <path id="DejaVuSans-5f" d="M 3263 -1063 
L 3263 -1509 
L -63 -1509 
L -63 -1063 
L 3263 -1063 
z
" transform="scale(0.015625)"/>
       <path id="DejaVuSans-29" d="M 513 4856 
L 1013 4856 
Q 1481 4119 1714 3412 
Q 1947 2706 1947 2009 
Q 1947 1309 1714 600 
Q 1481 -109 1013 -844 
L 513 -844 
Q 928 -128 1133 580 
Q 1338 1288 1338 2009 
Q 1338 2731 1133 3434 
Q 928 4138 513 4856 
z
" transform="scale(0.015625)"/>
      </defs>
      <use xlink:href="#DejaVuSans-4e"/>
      <use xlink:href="#DejaVuSans-6f" transform="translate(74.804688 0)"/>
      <use xlink:href="#DejaVuSans-72" transform="translate(135.986328 0)"/>
      <use xlink:href="#DejaVuSans-6d" transform="translate(175.349609 0)"/>
      <use xlink:href="#DejaVuSans-61" transform="translate(272.761719 0)"/>
      <use xlink:href="#DejaVuSans-6c" transform="translate(334.041016 0)"/>
      <use xlink:href="#DejaVuSans-69" transform="translate(361.824219 0)"/>
      <use xlink:href="#DejaVuSans-73" transform="translate(389.607422 0)"/>
      <use xlink:href="#DejaVuSans-65" transform="translate(441.707031 0)"/>
      <use xlink:href="#DejaVuSans-64" transform="translate(503.230469 0)"/>
      <use xlink:href="#DejaVuSans-20" transform="translate(566.707031 0)"/>
      <use xlink:href="#DejaVuSans-66" transform="translate(598.494141 0)"/>
      <use xlink:href="#DejaVuSans-72" transform="translate(633.699219 0)"/>
      <use xlink:href="#DejaVuSans-65" transform="translate(672.5625 0)"/>
      <use xlink:href="#DejaVuSans-71" transform="translate(734.085938 0)"/>
      <use xlink:href="#DejaVuSans-75" transform="translate(797.5625 0)"/>
      <use xlink:href="#DejaVuSans-65" transform="translate(860.941406 0)"/>
      <use xlink:href="#DejaVuSans-6e" transform="translate(922.464844 0)"/>
      <use xlink:href="#DejaVuSans-63" transform="translate(985.84375 0)"/>
      <use xlink:href="#DejaVuSans-79" transform="translate(1040.824219 0)"/>
      <use xlink:href="#DejaVuSans-20" transform="translate(1100.003906 0)"/>
      <use xlink:href="#DejaVuSans-20" transform="translate(1131.791016 0)"/>
      <use xlink:href="#DejaVuSans-28" transform="translate(1163.578125 0)"/>
      <use xlink:href="#DejaVuSans-d7" transform="translate(1202.591797 0)"/>
      <use xlink:href="#DejaVuSans-20" transform="translate(1286.380859 0)"/>
      <use xlink:href="#DejaVuSans-66" transform="translate(1318.167969 0)"/>
      <use xlink:href="#DejaVuSans-5f" transform="translate(1353.373047 0)"/>
      <use xlink:href="#DejaVuSans-73" transform="translate(1403.373047 0)"/>
      <use xlink:href="#DejaVuSans-29" transform="translate(1455.472656 0)"/>
     </g>
    </g>
   </g>
   <g id="matplotlib.axis_2">
    <g id="ytick_1">
     <g id="line2d_13">
      <path d="M 59.24 245.93875 
L 629.325 245.93875 
" clip-path="url(#p1a7d99e2c2)" style="fill: none; stroke: #b0b0b0; stroke-width: 0.3; stroke-linecap: square"/>
     </g>
     <g id="line2d_14">
      <defs>
       <path id="mc03d5eba8d" d="M 0 0 
L -3.5 0 
" style="stroke: #000000; stroke-width: 0.8"/>
      </defs>
      <g>
       <use xlink:href="#mc03d5eba8d" x="59.24" y="245.93875" style="stroke: #000000; stroke-width: 0.8"/>
      </g>
     </g>
     <g id="text_8">
      <!-- −100 -->
      <g transform="translate(24.772813 249.737969) scale(0.1 -0.1)">
       <defs>
        <path id="DejaVuSans-2212" d="M 678 2272 
L 4684 2272 
L 4684 1741 
L 678 1741 
L 678 2272 
z
" transform="scale(0.015625)"/>
       </defs>
       <use xlink:href="#DejaVuSans-2212"/>
       <use xlink:href="#DejaVuSans-31" transform="translate(83.789062 0)"/>
       <use xlink:href="#DejaVuSans-30" transform="translate(147.412109 0)"/>
       <use xlink:href="#DejaVuSans-30" transform="translate(211.035156 0)"/>
      </g>
     </g>
    </g>
    <g id="ytick_2">
     <g id="line2d_15">
      <path d="M 59.24 206.109886 
L 629.325 206.109886 
" clip-path="url(#p1a7d99e2c2)" style="fill: none; stroke: #b0b0b0; stroke-width: 0.3; stroke-linecap: square"/>
     </g>
     <g id="line2d_16">
      <g>
       <use xlink:href="#mc03d5eba8d" x="59.24" y="206.109886" style="stroke: #000000; stroke-width: 0.8"/>
      </g>
     </g>
     <g id="text_9">
      <!-- −80 -->
      <g transform="translate(31.135313 209.909105) scale(0.1 -0.1)">
       <defs>
        <path id="DejaVuSans-38" d="M 2034 2216 
Q 1584 2216 1326 1975 
Q 1069 1734 1069 1313 
Q 1069 891 1326 650 
Q 1584 409 2034 409 
Q 2484 409 2743 651 
Q 3003 894 3003 1313 
Q 3003 1734 2745 1975 
Q 2488 2216 2034 2216 
z
M 1403 2484 
Q 997 2584 770 2862 
Q 544 3141 544 3541 
Q 544 4100 942 4425 
Q 1341 4750 2034 4750 
Q 2731 4750 3128 4425 
Q 3525 4100 3525 3541 
Q 3525 3141 3298 2862 
Q 3072 2584 2669 2484 
Q 3125 2378 3379 2068 
Q 3634 1759 3634 1313 
Q 3634 634 3220 271 
Q 2806 -91 2034 -91 
Q 1263 -91 848 271 
Q 434 634 434 1313 
Q 434 1759 690 2068 
Q 947 2378 1403 2484 
z
M 1172 3481 
Q 1172 3119 1398 2916 
Q 1625 2713 2034 2713 
Q 2441 2713 2670 2916 
Q 2900 3119 2900 3481 
Q 2900 3844 2670 4047 
Q 2441 4250 2034 4250 
Q 1625 4250 1398 4047 
Q 1172 3844 1172 3481 
z
" transform="scale(0.015625)"/>
       </defs>
       <use xlink:href="#DejaVuSans-2212"/>
       <use xlink:href="#DejaVuSans-38" transform="translate(83.789062 0)"/>
       <use xlink:href="#DejaVuSans-30" transform="translate(147.412109 0)"/>
      </g>
     </g>
    </g>
    <g id="ytick_3">
     <g id="line2d_17">
      <path d="M 59.24 166.281023 
L 629.325 166.281023 
" clip-path="url(#p1a7d99e2c2)" style="fill: none; stroke: #b0b0b0; stroke-width: 0.3; stroke-linecap: square"/>
     </g>
     <g id="line2d_18">
      <g>
       <use xlink:href="#mc03d5eba8d" x="59.24" y="166.281023" style="stroke: #000000; stroke-width: 0.8"/>
      </g>
     </g>
     <g id="text_10">
      <!-- −60 -->
      <g transform="translate(31.135313 170.080241) scale(0.1 -0.1)">
       <defs>
        <path id="DejaVuSans-36" d="M 2113 2584 
Q 1688 2584 1439 2293 
Q 1191 2003 1191 1497 
Q 1191 994 1439 701 
Q 1688 409 2113 409 
Q 2538 409 2786 701 
Q 3034 994 3034 1497 
Q 3034 2003 2786 2293 
Q 2538 2584 2113 2584 
z
M 3366 4563 
L 3366 3988 
Q 3128 4100 2886 4159 
Q 2644 4219 2406 4219 
Q 1781 4219 1451 3797 
Q 1122 3375 1075 2522 
Q 1259 2794 1537 2939 
Q 1816 3084 2150 3084 
Q 2853 3084 3261 2657 
Q 3669 2231 3669 1497 
Q 3669 778 3244 343 
Q 2819 -91 2113 -91 
Q 1303 -91 875 529 
Q 447 1150 447 2328 
Q 447 3434 972 4092 
Q 1497 4750 2381 4750 
Q 2619 4750 2861 4703 
Q 3103 4656 3366 4563 
z
" transform="scale(0.015625)"/>
       </defs>
       <use xlink:href="#DejaVuSans-2212"/>
       <use xlink:href="#DejaVuSans-36" transform="translate(83.789062 0)"/>
       <use xlink:href="#DejaVuSans-30" transform="translate(147.412109 0)"/>
      </g>
     </g>
    </g>
    <g id="ytick_4">
     <g id="line2d_19">
      <path d="M 59.24 126.452159 
L 629.325 126.452159 
" clip-path="url(#p1a7d99e2c2)" style="fill: none; stroke: #b0b0b0; stroke-width: 0.3; stroke-linecap: square"/>
     </g>
     <g id="line2d_20">
      <g>
       <use xlink:href="#mc03d5eba8d" x="59.24" y="126.452159" style="stroke: #000000; stroke-width: 0.8"/>
      </g>
     </g>
     <g id="text_11">
      <!-- −40 -->
      <g transform="translate(31.135313 130.251378) scale(0.1 -0.1)">
       <use xlink:href="#DejaVuSans-2212"/>
       <use xlink:href="#DejaVuSans-34" transform="translate(83.789062 0)"/>
       <use xlink:href="#DejaVuSans-30" transform="translate(147.412109 0)"/>
      </g>
     </g>
    </g>
    <g id="ytick_5">
     <g id="line2d_21">
      <path d="M 59.24 86.623295 
L 629.325 86.623295 
" clip-path="url(#p1a7d99e2c2)" style="fill: none; stroke: #b0b0b0; stroke-width: 0.3; stroke-linecap: square"/>
     </g>
     <g id="line2d_22">
      <g>
       <use xlink:href="#mc03d5eba8d" x="59.24" y="86.623295" style="stroke: #000000; stroke-width: 0.8"/>
      </g>
     </g>
     <g id="text_12">
      <!-- −20 -->
      <g transform="translate(31.135313 90.422514) scale(0.1 -0.1)">
       <use xlink:href="#DejaVuSans-2212"/>
       <use xlink:href="#DejaVuSans-32" transform="translate(83.789062 0)"/>
       <use xlink:href="#DejaVuSans-30" transform="translate(147.412109 0)"/>
      </g>
     </g>
    </g>
    <g id="ytick_6">
     <g id="line2d_23">
      <path d="M 59.24 46.794432 
L 629.325 46.794432 
" clip-path="url(#p1a7d99e2c2)" style="fill: none; stroke: #b0b0b0; stroke-width: 0.3; stroke-linecap: square"/>
     </g>
     <g id="line2d_24">
      <g>
       <use xlink:href="#mc03d5eba8d" x="59.24" y="46.794432" style="stroke: #000000; stroke-width: 0.8"/>
      </g>
     </g>
     <g id="text_13">
      <!-- 0 -->
      <g transform="translate(45.8775 50.593651) scale(0.1 -0.1)">
       <use xlink:href="#DejaVuSans-30"/>
      </g>
     </g>
    </g>
    <g id="text_14">
     <!-- Amplitude (dBFS) -->
     <g transform="translate(18.693125 180.089844) rotate(-90) scale(0.1 -0.1)">
      <defs>
       <path id="DejaVuSans-41" d="M 2188 4044 
L 1331 1722 
L 3047 1722 
L 2188 4044 
z
M 1831 4666 
L 2547 4666 
L 4325 0 
L 3669 0 
L 3244 1197 
L 1141 1197 
L 716 0 
L 50 0 
L 1831 4666 
z
" transform="scale(0.015625)"/>
       <path id="DejaVuSans-70" d="M 1159 525 
L 1159 -1331 
L 581 -1331 
L 581 3500 
L 1159 3500 
L 1159 2969 
Q 1341 3281 1617 3432 
Q 1894 3584 2278 3584 
Q 2916 3584 3314 3078 
Q 3713 2572 3713 1747 
Q 3713 922 3314 415 
Q 2916 -91 2278 -91 
Q 1894 -91 1617 61 
Q 1341 213 1159 525 
z
M 3116 1747 
Q 3116 2381 2855 2742 
Q 2594 3103 2138 3103 
Q 1681 3103 1420 2742 
Q 1159 2381 1159 1747 
Q 1159 1113 1420 752 
Q 1681 391 2138 391 
Q 2594 391 2855 752 
Q 3116 1113 3116 1747 
z
" transform="scale(0.015625)"/>
       <path id="DejaVuSans-74" d="M 1172 4494 
L 1172 3500 
L 2356 3500 
L 2356 3053 
L 1172 3053 
L 1172 1153 
Q 1172 725 1289 603 
Q 1406 481 1766 481 
L 2356 481 
L 2356 0 
L 1766 0 
Q 1100 0 847 248 
Q 594 497 594 1153 
L 594 3053 
L 172 3053 
L 172 3500 
L 594 3500 
L 594 4494 
L 1172 4494 
z
" transform="scale(0.015625)"/>
       <path id="DejaVuSans-42" d="M 1259 2228 
L 1259 519 
L 2272 519 
Q 2781 519 3026 730 
Q 3272 941 3272 1375 
Q 3272 1813 3026 2020 
Q 2781 2228 2272 2228 
L 1259 2228 
z
M 1259 4147 
L 1259 2741 
L 2194 2741 
Q 2656 2741 2882 2914 
Q 3109 3088 3109 3444 
Q 3109 3797 2882 3972 
Q 2656 4147 2194 4147 
L 1259 4147 
z
M 628 4666 
L 2241 4666 
Q 2963 4666 3353 4366 
Q 3744 4066 3744 3513 
Q 3744 3084 3544 2831 
Q 3344 2578 2956 2516 
Q 3422 2416 3680 2098 
Q 3938 1781 3938 1306 
Q 3938 681 3513 340 
Q 3088 0 2303 0 
L 628 0 
L 628 4666 
z
" transform="scale(0.015625)"/>
       <path id="DejaVuSans-46" d="M 628 4666 
L 3309 4666 
L 3309 4134 
L 1259 4134 
L 1259 2759 
L 3109 2759 
L 3109 2228 
L 1259 2228 
L 1259 0 
L 628 0 
L 628 4666 
z
" transform="scale(0.015625)"/>
       <path id="DejaVuSans-53" d="M 3425 4513 
L 3425 3897 
Q 3066 4069 2747 4153 
Q 2428 4238 2131 4238 
Q 1616 4238 1336 4038 
Q 1056 3838 1056 3469 
Q 1056 3159 1242 3001 
Q 1428 2844 1947 2747 
L 2328 2669 
Q 3034 2534 3370 2195 
Q 3706 1856 3706 1288 
Q 3706 609 3251 259 
Q 2797 -91 1919 -91 
Q 1588 -91 1214 -16 
Q 841 59 441 206 
L 441 856 
Q 825 641 1194 531 
Q 1563 422 1919 422 
Q 2459 422 2753 634 
Q 3047 847 3047 1241 
Q 3047 1584 2836 1778 
Q 2625 1972 2144 2069 
L 1759 2144 
Q 1053 2284 737 2584 
Q 422 2884 422 3419 
Q 422 4038 858 4394 
Q 1294 4750 2059 4750 
Q 2388 4750 2728 4690 
Q 3069 4631 3425 4513 
z
" transform="scale(0.015625)"/>
      </defs>
      <use xlink:href="#DejaVuSans-41"/>
      <use xlink:href="#DejaVuSans-6d" transform="translate(68.408203 0)"/>
      <use xlink:href="#DejaVuSans-70" transform="translate(165.820312 0)"/>
      <use xlink:href="#DejaVuSans-6c" transform="translate(229.296875 0)"/>
      <use xlink:href="#DejaVuSans-69" transform="translate(257.080078 0)"/>
      <use xlink:href="#DejaVuSans-74" transform="translate(284.863281 0)"/>
      <use xlink:href="#DejaVuSans-75" transform="translate(324.072266 0)"/>
      <use xlink:href="#DejaVuSans-64" transform="translate(387.451172 0)"/>
      <use xlink:href="#DejaVuSans-65" transform="translate(450.927734 0)"/>
      <use xlink:href="#DejaVuSans-20" transform="translate(512.451172 0)"/>
      <use xlink:href="#DejaVuSans-28" transform="translate(544.238281 0)"/>
      <use xlink:href="#DejaVuSans-64" transform="translate(583.251953 0)"/>
      <use xlink:href="#DejaVuSans-42" transform="translate(646.728516 0)"/>
      <use xlink:href="#DejaVuSans-46" transform="translate(715.332031 0)"/>
      <use xlink:href="#DejaVuSans-53" transform="translate(771.101562 0)"/>
      <use xlink:href="#DejaVuSans-29" transform="translate(834.578125 0)"/>
     </g>
    </g>
   </g>
   <g id="line2d_25">
    <path d="M 59.24 46.862339 
L 59.518362 195.187562 
L 59.796724 260.054693 
L 60.075085 216.391193 
L 60.353447 260.054693 
L 60.631809 237.849447 
L 60.910171 260.054693 
L 61.188533 216.992231 
L 61.466895 260.054693 
L 61.745256 198.823075 
L 62.023618 260.054693 
L 62.30198 230.25304 
L 62.580342 260.054693 
L 62.858704 262.375836 
L 63.137065 260.054693 
L 63.415427 210.631316 
L 63.693789 260.054693 
L 63.972151 223.016443 
L 64.250513 260.054693 
L 64.528875 227.835387 
L 64.807236 260.054693 
L 65.085598 204.279794 
L 65.36396 260.054693 
L 65.642322 262.915631 
L 65.920684 260.054693 
L 66.199045 212.741818 
L 66.477407 260.054693 
L 66.755769 222.333172 
L 67.034131 260.054693 
L 67.312493 46.851458 
L 67.590854 260.054693 
L 67.869216 221.049889 
L 68.147578 260.054693 
L 68.42594 213.84616 
L 68.704302 260.054693 
L 68.982664 192.209296 
L 69.261025 260.054693 
L 69.539387 204.860635 
L 69.817749 260.054693 
L 70.096111 209.329113 
L 70.374473 260.054693 
L 70.652834 203.289244 
L 70.931196 260.054693 
L 71.209558 207.285017 
L 71.48792 260.054693 
L 71.766282 205.258354 
L 72.044644 260.054693 
L 72.323005 222.268948 
L 72.601367 260.054693 
L 72.879729 250.244509 
L 73.158091 260.054693 
L 73.436453 241.419827 
L 73.714814 260.054693 
L 73.993176 203.487716 
L 74.271538 260.054693 
L 74.5499 203.096411 
L 74.828262 260.054693 
L 75.106624 220.085253 
L 75.384985 260.054693 
L 75.663347 213.78999 
L 75.941709 260.054693 
L 76.220071 204.466379 
L 76.498433 260.054693 
L 76.776794 209.922924 
L 77.055156 260.054693 
L 77.333518 209.355619 
L 77.61188 260.054693 
L 77.890242 223.387866 
L 78.168604 260.054693 
L 78.446965 279.182582 
L 79.003689 236.96785 
L 79.282051 260.054693 
L 79.560413 241.132218 
L 79.838774 260.054693 
L 80.117136 220.671124 
L 80.395498 260.054693 
L 80.67386 262.094981 
L 80.952222 260.054693 
L 81.230583 230.603402 
L 81.508945 260.054693 
L 81.787307 221.445535 
L 82.065669 260.054693 
L 82.344031 205.200911 
L 82.622393 260.054693 
L 82.900754 242.897059 
L 83.179116 260.054693 
L 83.457478 183.964502 
L 83.73584 260.054693 
L 84.014202 211.688867 
L 84.292563 260.054693 
L 84.570925 250.018406 
L 84.849287 260.054693 
L 85.127649 194.259384 
L 85.406011 260.054693 
L 85.684373 228.427932 
L 85.962734 260.054693 
L 86.241096 198.623516 
L 86.519458 260.054693 
L 86.79782 196.112085 
L 87.076182 260.054693 
L 87.354543 199.367272 
L 87.632905 260.054693 
L 87.911267 203.401822 
L 88.189629 260.054693 
L 88.467991 204.253058 
L 88.746353 260.054693 
L 89.024714 214.047582 
L 89.303076 260.054693 
L 89.581438 226.422531 
L 89.8598 260.054693 
L 90.138162 246.716462 
L 90.416523 260.054693 
L 90.694885 219.057311 
L 90.973247 260.054693 
L 91.251609 207.245423 
L 91.529971 260.054693 
L 91.808333 202.489053 
L 92.086694 260.054693 
L 92.365056 215.229837 
L 92.643418 260.054693 
L 92.92178 218.344608 
L 93.200142 260.054693 
L 93.478503 199.825584 
L 93.756865 260.054693 
L 94.035227 210.739859 
L 94.313589 260.054693 
L 94.591951 224.374362 
L 94.870312 260.054693 
L 95.148674 241.349312 
L 95.427036 260.054693 
L 95.705398 198.741498 
L 95.98376 260.054693 
L 96.262122 202.565903 
L 96.540483 260.054693 
L 96.818845 206.659794 
L 97.097207 260.054693 
L 97.375569 202.041891 
L 97.653931 260.054693 
L 97.932292 193.284252 
L 98.210654 260.054693 
L 98.489016 210.096624 
L 98.767378 260.054693 
L 99.04574 213.339396 
L 99.324102 260.054693 
L 99.602463 165.56063 
L 99.880825 260.054693 
L 100.159187 231.201555 
L 100.437549 260.054693 
L 100.715911 241.598086 
L 100.994272 260.054693 
L 101.272634 232.011311 
L 101.550996 260.054693 
L 101.829358 192.21972 
L 102.10772 260.054693 
L 102.386082 249.136755 
L 102.664443 260.054693 
L 102.942805 220.084959 
L 103.221167 260.054693 
L 103.499529 213.680681 
L 103.777891 260.054693 
L 104.056252 212.7398 
L 104.334614 260.054693 
L 104.612976 211.289487 
L 104.891338 260.054693 
L 105.1697 232.871948 
L 105.448062 260.054693 
L 105.726423 209.825212 
L 106.004785 260.054693 
L 106.283147 232.857894 
L 106.561509 260.054693 
L 106.839871 227.025618 
L 107.118232 260.054693 
L 107.396594 198.082464 
L 107.674956 260.054693 
L 107.953318 193.91849 
L 108.23168 260.054693 
L 108.510042 207.061039 
L 108.788403 260.054693 
L 109.066765 205.180295 
L 109.345127 260.054693 
L 109.623489 223.830903 
L 109.901851 260.054693 
L 110.180212 226.468173 
L 110.458574 260.054693 
L 110.736936 215.515122 
L 111.015298 260.054693 
L 111.29366 224.760382 
L 111.572021 260.054693 
L 111.850383 201.061876 
L 112.128745 260.054693 
L 112.407107 271.83966 
L 112.685469 260.054693 
L 112.963831 222.450273 
L 113.242192 260.054693 
L 113.520554 221.551301 
L 113.798916 260.054693 
L 114.077278 208.158142 
L 114.35564 260.054693 
L 114.634001 214.089161 
L 114.912363 260.054693 
L 115.190725 205.45575 
L 115.469087 260.054693 
L 115.747449 163.962867 
L 116.025811 260.054693 
L 116.304172 227.334946 
L 116.582534 260.054693 
L 116.860896 241.26787 
L 117.139258 260.054693 
L 117.41762 207.995337 
L 117.695981 260.054693 
L 117.974343 230.391633 
L 118.252705 260.054693 
L 118.531067 204.303234 
L 118.809429 260.054693 
L 119.087791 208.938303 
L 119.366152 260.054693 
L 119.644514 202.340314 
L 119.922876 260.054693 
L 120.201238 210.110702 
L 120.4796 260.054693 
L 120.757961 212.953013 
L 121.036323 260.054693 
L 121.314685 232.601001 
L 121.593047 260.054693 
L 121.871409 197.715611 
L 122.149771 260.054693 
L 122.428132 251.619492 
L 122.706494 260.054693 
L 122.984856 202.709307 
L 123.263218 260.054693 
L 123.54158 187.587301 
L 123.819941 260.054693 
L 124.098303 217.60076 
L 124.376665 260.054693 
L 124.655027 207.444886 
L 124.933389 260.054693 
L 125.21175 210.610751 
L 125.490112 260.054693 
L 125.768474 190.622345 
L 126.046836 260.054693 
L 126.325198 233.111942 
L 126.60356 260.054693 
L 126.881921 223.564531 
L 127.160283 260.054693 
L 127.438645 203.693049 
L 127.717007 260.054693 
L 127.995369 270.221216 
L 128.27373 260.054693 
L 128.552092 216.32462 
L 128.830454 260.054693 
L 129.108816 207.395677 
L 129.387178 260.054693 
L 129.66554 208.498872 
L 129.943901 260.054693 
L 130.222263 194.608822 
L 130.500625 260.054693 
L 130.778987 211.40281 
L 131.057349 260.054693 
L 131.33571 238.027682 
L 131.614072 260.054693 
L 131.892434 179.202531 
L 132.170796 260.054693 
L 132.449158 243.756304 
L 132.72752 260.054693 
L 133.005881 208.41651 
L 133.284243 260.054693 
L 133.562605 194.351603 
L 133.840967 260.054693 
L 134.119329 209.779244 
L 134.39769 260.054693 
L 134.676052 206.519815 
L 134.954414 260.054693 
L 135.232776 237.301161 
L 135.511138 260.054693 
L 135.7895 202.42415 
L 136.067861 260.054693 
L 136.346223 203.683592 
L 136.624585 260.054693 
L 136.902947 208.110844 
L 137.181309 260.054693 
L 137.45967 216.13478 
L 137.738032 260.054693 
L 138.016394 229.844208 
L 138.294756 260.054693 
L 138.573118 220.150196 
L 138.851479 260.054693 
L 139.129841 228.276275 
L 139.408203 260.054693 
L 139.686565 208.342601 
L 140.181002 289 
M 140.305575 289 
L 140.52165 260.054693 
L 140.800012 203.441868 
L 141.078374 260.054693 
L 141.356736 214.073406 
L 141.635098 260.054693 
L 141.913459 207.862054 
L 142.191821 260.054693 
L 142.470183 210.681658 
L 142.748545 260.054693 
L 143.026907 278.462672 
L 143.305269 260.054693 
L 143.58363 229.177476 
L 143.861992 260.054693 
L 144.140354 211.345498 
L 144.418716 260.054693 
L 144.697078 204.33048 
L 144.975439 260.054693 
L 145.253801 216.496373 
L 145.532163 260.054693 
L 145.810525 207.028671 
L 146.088887 260.054693 
L 146.367249 195.570647 
L 146.64561 260.054693 
L 146.923972 207.530964 
L 147.202334 260.054693 
L 147.480696 214.008946 
L 147.759058 260.054693 
L 148.037419 173.759159 
L 148.315781 260.054693 
L 148.594143 249.258104 
L 148.872505 260.054693 
L 149.150867 219.642481 
L 149.429229 260.054693 
L 149.70759 213.137091 
L 149.985952 260.054693 
L 150.264314 212.878667 
L 150.542676 260.054693 
L 150.821038 205.835654 
L 151.099399 260.054693 
L 151.377761 235.334415 
L 151.656123 260.054693 
L 151.934485 191.954738 
L 152.212847 260.054693 
L 152.491208 225.186538 
L 152.76957 260.054693 
L 153.047932 242.033643 
L 153.326294 260.054693 
L 153.604656 207.108057 
L 153.883018 260.054693 
L 154.161379 196.534036 
L 154.439741 260.054693 
L 154.718103 202.652521 
L 154.996465 260.054693 
L 155.274827 225.462324 
L 155.553188 260.054693 
L 155.83155 191.788309 
L 156.109912 260.054693 
L 156.388274 199.301472 
L 156.666636 260.054693 
L 156.944998 233.140459 
L 157.223359 260.054693 
L 157.501721 223.714172 
L 157.780083 260.054693 
L 158.058445 204.71122 
L 158.336807 260.054693 
L 158.615168 228.750811 
L 158.89353 260.054693 
L 159.171892 219.373604 
L 159.450254 260.054693 
L 159.728616 225.654263 
L 160.006978 260.054693 
L 160.285339 187.501116 
L 160.563701 260.054693 
L 160.842063 228.283072 
L 161.120425 260.054693 
L 161.398787 228.985576 
L 161.677148 260.054693 
L 161.95551 225.555291 
L 162.233872 260.054693 
L 162.512234 195.752897 
L 162.790596 260.054693 
L 163.068958 254.027644 
L 163.347319 260.054693 
L 163.625681 233.672767 
L 163.904043 260.054693 
L 164.182405 169.555216 
L 164.460767 260.054693 
L 164.739128 238.884488 
L 165.01749 260.054693 
L 165.295852 208.419658 
L 165.574214 260.054693 
L 165.852576 191.340544 
L 166.130937 260.054693 
L 166.409299 199.396321 
L 166.687661 260.054693 
L 166.966023 207.2993 
L 167.244385 260.054693 
L 167.522747 221.27237 
L 167.801108 260.054693 
L 168.07947 195.662764 
L 168.357832 260.054693 
L 168.636194 260.426306 
L 168.914556 260.054693 
L 169.192917 214.557425 
L 169.471279 260.054693 
L 169.749641 223.991408 
L 170.028003 260.054693 
L 170.306365 196.509667 
L 170.584727 260.054693 
L 170.863088 238.43306 
L 171.14145 260.054693 
L 171.419812 230.792624 
L 171.698174 260.054693 
L 171.976536 220.578741 
L 172.254897 260.054693 
L 172.533259 238.882936 
L 172.811621 260.054693 
L 173.089983 241.078289 
L 173.368345 260.054693 
L 173.646707 232.842947 
L 173.925068 260.054693 
L 174.20343 226.943063 
L 174.481792 260.054693 
L 174.760154 258.841562 
L 175.038516 260.054693 
L 175.316877 216.22276 
L 175.595239 260.054693 
L 175.873601 227.025122 
L 176.151963 260.054693 
L 176.430325 194.748445 
L 176.708687 260.054693 
L 176.987048 198.888052 
L 177.26541 260.054693 
L 177.543772 232.816128 
L 177.822134 260.054693 
L 178.100496 198.59549 
L 178.378857 260.054693 
L 178.657219 208.625994 
L 178.935581 260.054693 
L 179.213943 230.600739 
L 179.492305 260.054693 
L 179.770667 263.769857 
L 180.049028 260.054693 
L 180.32739 187.848133 
L 180.605752 260.054693 
L 180.884114 213.196116 
L 181.162476 260.054693 
L 181.440837 239.475769 
L 181.719199 260.054693 
L 181.997561 191.258715 
L 182.275923 260.054693 
L 182.554285 224.028038 
L 182.832646 260.054693 
L 183.111008 218.366157 
L 183.38937 260.054693 
L 183.667732 206.551594 
L 183.946094 260.054693 
L 184.224456 212.8237 
L 184.502817 260.054693 
L 184.781179 228.904182 
L 185.059541 260.054693 
L 185.337903 223.532899 
L 185.616265 260.054693 
L 185.894626 220.581391 
L 186.172988 260.054693 
L 186.45135 271.906446 
L 186.729712 260.054693 
L 187.008074 204.742738 
L 187.286436 260.054693 
L 187.564797 228.008616 
L 187.843159 260.054693 
L 188.121521 197.639816 
L 188.399883 260.054693 
L 188.678245 197.113977 
L 188.956606 260.054693 
L 189.234968 202.043109 
L 189.51333 260.054693 
L 189.791692 211.195697 
L 190.070054 260.054693 
L 190.348416 244.174001 
L 190.626777 260.054693 
L 190.905139 208.559417 
L 191.183501 260.054693 
L 191.461863 252.539638 
L 191.740225 260.054693 
L 192.018586 209.15656 
L 192.296948 260.054693 
L 192.57531 192.187256 
L 192.853672 260.054693 
L 193.132034 224.401169 
L 193.410396 260.054693 
L 193.688757 232.025367 
L 193.967119 260.054693 
L 194.245481 195.697479 
L 194.523843 260.054693 
L 194.802205 190.429447 
L 195.080566 260.054693 
L 195.358928 212.141007 
L 195.63729 260.054693 
L 195.915652 199.261934 
L 196.194014 260.054693 
L 196.472375 173.921752 
L 196.750737 260.054693 
L 197.029099 199.865563 
L 197.307461 260.054693 
L 197.585823 213.33512 
L 197.864185 260.054693 
L 198.142546 218.410288 
L 198.420908 260.054693 
L 198.69927 203.454541 
L 198.977632 260.054693 
L 199.255994 208.518691 
L 199.534355 260.054693 
L 199.812717 247.645475 
L 200.091079 260.054693 
L 200.369441 205.33834 
L 200.647803 260.054693 
L 200.926165 207.193694 
L 201.204526 260.054693 
L 201.482888 203.810219 
L 201.76125 260.054693 
L 202.039612 225.996419 
L 202.317974 260.054693 
L 202.596335 215.636407 
L 202.874697 260.054693 
L 203.153059 210.903493 
L 203.431421 260.054693 
L 203.709783 223.00827 
L 203.988145 260.054693 
L 204.266506 213.414333 
L 204.544868 260.054693 
L 204.82323 212.141333 
L 205.101592 260.054693 
L 205.379954 203.065895 
L 205.658315 260.054693 
L 205.936677 205.082397 
L 206.215039 260.054693 
L 206.493401 192.493947 
L 206.771763 260.054693 
L 207.050125 228.296648 
L 207.328486 260.054693 
L 207.606848 222.571882 
L 207.88521 260.054693 
L 208.163572 245.970931 
L 208.441934 260.054693 
L 208.720295 216.927139 
L 208.998657 260.054693 
L 209.277019 243.159408 
L 209.555381 260.054693 
L 209.833743 211.793086 
L 210.112104 260.054693 
L 210.390466 262.058466 
L 210.668828 260.054693 
L 210.94719 200.259264 
L 211.225552 260.054693 
L 211.503914 224.272743 
L 211.782275 260.054693 
L 212.060637 248.667455 
L 212.338999 260.054693 
L 212.617361 181.501875 
L 212.895723 260.054693 
L 213.174084 218.107398 
L 213.452446 260.054693 
L 213.730808 223.64935 
L 214.00917 260.054693 
L 214.287532 218.013648 
L 214.565894 260.054693 
L 214.844255 249.858142 
L 215.122617 260.054693 
L 215.400979 202.415885 
L 215.679341 260.054693 
L 215.957703 241.064266 
L 216.236064 260.054693 
L 216.514426 201.863114 
L 216.792788 260.054693 
L 217.07115 216.392688 
L 217.349512 260.054693 
L 217.627874 230.529143 
L 217.906235 260.054693 
L 218.184597 220.034646 
L 218.462959 260.054693 
L 218.741321 225.516967 
L 219.019683 260.054693 
L 219.298044 237.542213 
L 219.576406 260.054693 
L 219.854768 231.467025 
L 220.13313 260.054693 
L 220.411492 213.062144 
L 220.689854 260.054693 
L 220.968215 191.669248 
L 221.246577 260.054693 
L 221.524939 247.361399 
L 221.803301 260.054693 
L 222.081663 217.067457 
L 222.360024 260.054693 
L 222.638386 208.742314 
L 222.916748 260.054693 
L 223.19511 255.150365 
L 223.473472 260.054693 
L 223.751833 232.879998 
L 224.030195 260.054693 
L 224.308557 218.283721 
L 224.586919 260.054693 
L 224.865281 222.426838 
L 225.143643 260.054693 
L 225.422004 221.766531 
L 225.700366 260.054693 
L 225.978728 200.471103 
L 226.25709 260.054693 
L 226.535452 195.477373 
L 226.813813 260.054693 
L 227.092175 229.27895 
L 227.370537 260.054693 
L 227.648899 211.048124 
L 227.927261 260.054693 
L 228.205623 210.446212 
L 228.483984 260.054693 
L 228.762346 183.673006 
L 229.040708 260.054693 
L 229.31907 200.759418 
L 229.597432 260.054693 
L 229.875793 241.008561 
L 230.154155 260.054693 
L 230.432517 197.106825 
L 230.710879 260.054693 
L 230.989241 195.607248 
L 231.267603 260.054693 
L 231.545964 208.887603 
L 231.824326 260.054693 
L 232.102688 206.37564 
L 232.38105 260.054693 
L 232.659412 208.482087 
L 232.937773 260.054693 
L 233.216135 234.665948 
L 233.494497 260.054693 
L 233.772859 206.832584 
L 234.051221 260.054693 
L 234.329583 229.686796 
L 234.607944 260.054693 
L 234.886306 202.076111 
L 235.164668 260.054693 
L 235.44303 235.799522 
L 235.721392 260.054693 
L 235.999753 225.13538 
L 236.278115 260.054693 
L 236.556477 229.758266 
L 236.834839 260.054693 
L 237.113201 224.554058 
L 237.391562 260.054693 
L 237.669924 230.126139 
L 237.948286 260.054693 
L 238.226648 224.698291 
L 238.50501 260.054693 
L 238.783372 192.130971 
L 239.061733 260.054693 
L 239.340095 228.614184 
L 239.618457 260.054693 
L 239.896819 209.565881 
L 240.175181 260.054693 
L 240.453542 213.328598 
L 240.731904 260.054693 
L 241.010266 197.908752 
L 241.288628 260.054693 
L 241.56699 201.803246 
L 241.845352 260.054693 
L 242.123713 208.757611 
L 242.402075 260.054693 
L 242.680437 190.07766 
L 242.958799 260.054693 
L 243.237161 199.181239 
L 243.515522 260.054693 
L 243.793884 235.724055 
L 244.072246 260.054693 
L 244.350608 208.93867 
L 244.62897 260.054693 
L 244.907332 180.758869 
L 245.185693 260.054693 
L 245.464055 210.947301 
L 245.742417 260.054693 
L 246.020779 209.754419 
L 246.299141 260.054693 
L 246.577502 237.854654 
L 246.855864 260.054693 
L 247.134226 200.813713 
L 247.412588 260.054693 
L 247.69095 207.021728 
L 247.969312 260.054693 
L 248.247673 231.73975 
L 248.526035 260.054693 
L 248.804397 197.457666 
L 249.082759 260.054693 
L 249.361121 217.548182 
L 249.639482 260.054693 
L 249.917844 227.000193 
L 250.196206 260.054693 
L 250.474568 209.756469 
L 250.75293 260.054693 
L 251.031292 196.366185 
L 251.309653 260.054693 
L 251.588015 235.639213 
L 251.866377 260.054693 
L 252.144739 250.521375 
L 252.423101 260.054693 
L 252.701462 206.446603 
L 252.979824 260.054693 
L 253.258186 213.266066 
L 253.536548 260.054693 
L 253.81491 209.222046 
L 254.093271 260.054693 
L 254.371633 274.25283 
L 254.649995 260.054693 
L 254.928357 194.303062 
L 255.206719 260.054693 
L 255.485081 213.130799 
L 255.763442 260.054693 
L 256.041804 202.331902 
L 256.320166 260.054693 
L 256.598528 235.763162 
L 256.87689 260.054693 
L 257.155251 204.377926 
L 257.433613 260.054693 
L 257.711975 219.004654 
L 257.990337 260.054693 
L 258.268699 237.869673 
L 258.547061 260.054693 
L 258.825422 207.814569 
L 259.103784 260.054693 
L 259.382146 189.669817 
L 259.660508 260.054693 
L 259.93887 210.74242 
L 260.217231 260.054693 
L 260.495593 226.634202 
L 260.773955 260.054693 
L 261.052317 172.192885 
L 261.330679 260.054693 
L 261.609041 208.893727 
L 261.887402 260.054693 
L 262.165764 215.303538 
L 262.444126 260.054693 
L 262.722488 195.738464 
L 263.00085 260.054693 
L 263.279211 257.498241 
L 263.557573 260.054693 
L 263.835935 213.623354 
L 264.114297 260.054693 
L 264.392659 225.302901 
L 264.671021 260.054693 
L 264.949382 225.456384 
L 265.227744 260.054693 
L 265.506106 207.772433 
L 265.784468 260.054693 
L 266.06283 208.909665 
L 266.341191 260.054693 
L 266.619553 203.487191 
L 266.897915 260.054693 
L 267.176277 206.728837 
L 267.454639 260.054693 
L 267.733 214.028741 
L 268.011362 260.054693 
L 268.289724 221.847548 
L 268.568086 260.054693 
L 268.846448 231.056452 
L 269.12481 260.054693 
L 269.403171 221.119849 
L 269.681533 260.054693 
L 269.959895 213.990986 
L 270.238257 260.054693 
L 270.516619 212.652624 
L 270.79498 260.054693 
L 271.073342 202.818128 
L 271.351704 260.054693 
L 271.630066 221.006731 
L 271.908428 260.054693 
L 272.18679 255.003754 
L 272.465151 260.054693 
L 272.743513 263.081292 
L 273.021875 260.054693 
L 273.300237 229.551924 
L 273.578599 260.054693 
L 273.85696 208.555621 
L 274.135322 260.054693 
L 274.413684 218.537538 
L 274.692046 260.054693 
L 274.970408 231.135001 
L 275.24877 260.054693 
L 275.527131 190.384113 
L 275.805493 260.054693 
L 276.083855 216.048711 
L 276.362217 260.054693 
L 276.640579 204.398952 
L 276.91894 260.054693 
L 277.197302 191.504699 
L 277.475664 260.054693 
L 277.754026 229.168204 
L 278.032388 260.054693 
L 278.31075 266.15694 
L 278.589111 260.054693 
L 278.867473 193.242381 
L 279.145835 260.054693 
L 279.424197 191.492337 
L 279.702559 260.054693 
L 279.98092 233.313748 
L 280.259282 260.054693 
L 280.537644 222.666925 
L 280.816006 260.054693 
L 281.094368 210.531142 
L 281.372729 260.054693 
L 281.651091 237.94629 
L 281.929453 260.054693 
L 282.207815 218.087141 
L 282.486177 260.054693 
L 282.764539 199.007281 
L 283.0429 260.054693 
L 283.321262 188.318447 
L 283.599624 260.054693 
L 283.877986 218.531249 
L 284.156348 260.054693 
L 284.434709 216.005331 
L 284.713071 260.054693 
L 284.991433 192.314116 
L 285.269795 260.054693 
L 285.548157 199.818809 
L 285.826519 260.054693 
L 286.10488 205.193863 
L 286.383242 260.054693 
L 286.661604 215.452171 
L 286.939966 260.054693 
L 287.218328 197.112192 
L 287.496689 260.054693 
L 287.775051 202.983712 
L 288.053413 260.054693 
L 288.331775 215.76393 
L 288.610137 260.054693 
L 288.888499 220.310896 
L 289.16686 260.054693 
L 289.445222 232.065828 
L 289.723584 260.054693 
L 290.001946 249.289322 
L 290.280308 260.054693 
L 290.558669 226.029631 
L 290.837031 260.054693 
L 291.115393 225.913573 
L 291.393755 260.054693 
L 291.672117 197.262801 
L 291.950479 260.054693 
L 292.22884 218.509139 
L 292.507202 260.054693 
L 292.785564 221.572061 
L 293.063926 260.054693 
L 293.342288 181.930148 
L 293.620649 260.054693 
L 293.899011 233.84615 
L 294.177373 260.054693 
L 294.455735 218.143616 
L 294.734097 260.054693 
L 295.012458 218.751116 
L 295.29082 260.054693 
L 295.569182 191.048959 
L 295.847544 260.054693 
L 296.125906 203.002589 
L 296.404268 260.054693 
L 296.682629 216.860743 
L 296.960991 260.054693 
L 297.239353 210.180012 
L 297.517715 260.054693 
L 297.796077 212.093387 
L 298.074438 260.054693 
L 298.3528 215.017762 
L 298.631162 260.054693 
L 298.909524 216.080814 
L 299.187886 260.054693 
L 299.466248 201.24538 
L 299.744609 260.054693 
L 300.022971 220.411253 
L 300.301333 260.054693 
L 300.579695 220.108994 
L 300.858057 260.054693 
L 301.136418 207.291896 
L 301.41478 260.054693 
L 301.693142 220.572439 
L 301.971504 260.054693 
L 302.249866 222.176001 
L 302.528228 260.054693 
L 302.806589 217.104233 
L 303.084951 260.054693 
L 303.363313 251.480006 
L 303.641675 260.054693 
L 303.920037 221.356202 
L 304.198398 260.054693 
L 304.47676 205.480175 
L 304.755122 260.054693 
L 305.033484 208.675455 
L 305.311846 260.054693 
L 305.590208 198.119875 
L 305.868569 260.054693 
L 306.146931 259.082668 
L 306.425293 260.054693 
L 306.703655 206.086881 
L 306.982017 260.054693 
L 307.260378 225.949944 
L 307.53874 260.054693 
L 307.817102 195.251411 
L 308.095464 260.054693 
L 308.373826 211.734688 
L 308.652187 260.054693 
L 308.930549 222.617636 
L 309.208911 260.054693 
L 309.487273 200.479321 
L 309.765635 260.054693 
L 310.043997 224.227832 
L 310.322358 260.054693 
L 310.60072 225.453477 
L 310.879082 260.054693 
L 311.157444 195.670652 
L 311.435806 260.054693 
L 311.714167 232.480641 
L 311.992529 260.054693 
L 312.270891 206.696384 
L 312.549253 260.054693 
L 312.827615 229.687684 
L 313.105977 260.054693 
L 313.384338 205.220207 
L 313.6627 260.054693 
L 313.941062 206.370233 
L 314.219424 260.054693 
L 314.497786 209.019874 
L 314.776147 260.054693 
L 315.054509 236.381321 
L 315.332871 260.054693 
L 315.611233 192.952013 
L 315.889595 260.054693 
L 316.167957 209.134208 
L 316.446318 260.054693 
L 316.72468 209.543206 
L 317.003042 260.054693 
L 317.281404 203.671588 
L 317.559766 260.054693 
L 317.838127 191.403754 
L 318.116489 260.054693 
L 318.394851 230.832929 
L 318.673213 260.054693 
L 318.951575 246.303999 
L 319.229937 260.054693 
L 319.508298 227.505884 
L 319.78666 260.054693 
L 320.065022 259.278921 
L 320.343384 260.054693 
L 320.621746 230.716862 
L 320.900107 260.054693 
L 321.178469 201.59757 
L 321.456831 260.054693 
L 321.735193 215.289254 
L 322.013555 260.054693 
L 322.291917 233.117644 
L 322.570278 260.054693 
L 322.84864 227.028652 
L 323.127002 260.054693 
L 323.405364 207.403879 
L 323.683726 260.054693 
L 323.962087 192.391532 
L 324.240449 260.054693 
L 324.518811 266.605788 
L 324.797173 260.054693 
L 325.075535 211.081632 
L 325.353896 260.054693 
L 325.632258 185.552268 
L 325.91062 260.054693 
L 326.188982 222.093662 
L 326.467344 260.054693 
L 326.745706 211.515016 
L 327.024067 260.054693 
L 327.302429 200.725259 
L 327.580791 260.054693 
L 327.859153 211.733336 
L 328.137515 260.054693 
L 328.415876 231.241024 
L 328.694238 260.054693 
L 328.9726 238.511937 
L 329.250962 260.054693 
L 329.529324 203.056502 
L 329.807686 260.054693 
L 330.086047 287.297048 
L 330.642771 222.423278 
L 330.921133 260.054693 
L 331.199495 231.286876 
L 331.477856 260.054693 
L 331.756218 201.648403 
L 332.03458 260.054693 
L 332.312942 221.622378 
L 332.591304 260.054693 
L 332.869666 216.738028 
L 333.148027 260.054693 
L 333.426389 206.477529 
L 333.704751 260.054693 
L 333.983113 215.227165 
L 334.261475 260.054693 
L 334.539836 208.469208 
L 334.818198 260.054693 
L 335.09656 253.143007 
L 335.374922 260.054693 
L 335.653284 204.87791 
L 335.931646 260.054693 
L 336.210007 218.067307 
L 336.488369 260.054693 
L 336.766731 219.462978 
L 337.045093 260.054693 
L 337.323455 206.30959 
L 337.601816 260.054693 
L 337.880178 209.845066 
L 338.15854 260.054693 
L 338.436902 223.3491 
L 338.715264 260.054693 
L 338.993625 241.007847 
L 339.271987 260.054693 
L 339.550349 195.113542 
L 339.828711 260.054693 
L 340.107073 201.648222 
L 340.385435 260.054693 
L 340.663796 241.880478 
L 340.942158 260.054693 
L 341.22052 231.301001 
L 341.498882 260.054693 
L 341.777244 214.381978 
L 342.055605 260.054693 
L 342.333967 210.903702 
L 342.612329 260.054693 
L 342.890691 228.469146 
L 343.169053 260.054693 
L 343.447415 219.782003 
L 343.725776 260.054693 
L 344.004138 248.237626 
L 344.2825 260.054693 
L 344.560862 195.529627 
L 344.839224 260.054693 
L 345.117585 231.55469 
L 345.395947 260.054693 
L 345.674309 218.984367 
L 345.952671 260.054693 
L 346.231033 253.471249 
L 346.509395 260.054693 
L 346.787756 237.137002 
L 347.066118 260.054693 
L 347.34448 228.786971 
L 347.622842 260.054693 
L 347.901204 234.37743 
L 348.179565 260.054693 
L 348.457927 217.664798 
L 348.736289 260.054693 
L 349.014651 248.923675 
L 349.293013 260.054693 
L 349.571375 199.93309 
L 349.849736 260.054693 
L 350.128098 196.241278 
L 350.40646 260.054693 
L 350.684822 210.655811 
L 350.963184 260.054693 
L 351.241545 197.910793 
L 351.519907 260.054693 
L 351.798269 248.777903 
L 352.076631 260.054693 
L 352.354993 220.23536 
L 352.633354 260.054693 
L 352.911716 248.607036 
L 353.190078 260.054693 
L 353.46844 226.898138 
L 353.746802 260.054693 
L 354.025164 202.936193 
L 354.303525 260.054693 
L 354.581887 202.765399 
L 354.860249 260.054693 
L 355.138611 208.932659 
L 355.416973 260.054693 
L 355.695334 217.352302 
L 355.973696 260.054693 
L 356.252058 205.763517 
L 356.53042 260.054693 
L 356.808782 280.310437 
L 357.087144 260.054693 
L 357.365505 209.053192 
L 357.643867 260.054693 
L 357.922229 205.670406 
L 358.200591 260.054693 
L 358.478953 205.175406 
L 358.757314 260.054693 
L 359.035676 220.475143 
L 359.314038 260.054693 
L 359.5924 194.115027 
L 359.870762 260.054693 
L 360.149124 210.345676 
L 360.427485 260.054693 
L 360.705847 195.036326 
L 360.984209 260.054693 
L 361.262571 219.0618 
L 361.540933 260.054693 
L 361.819294 206.661594 
L 362.097656 260.054693 
L 362.376018 226.736857 
L 362.65438 260.054693 
L 362.932742 229.788808 
L 363.211104 260.054693 
L 363.489465 204.521057 
L 363.767827 260.054693 
L 364.046189 203.573342 
L 364.324551 260.054693 
L 364.602913 211.409121 
L 364.881274 260.054693 
L 365.159636 208.293748 
L 365.437998 260.054693 
L 365.71636 241.037521 
L 365.994722 260.054693 
L 366.273083 207.060294 
L 366.551445 260.054693 
L 366.829807 205.832369 
L 367.108169 260.054693 
L 367.386531 203.619955 
L 367.664893 260.054693 
L 367.943254 191.290255 
L 368.221616 260.054693 
L 368.499978 214.943327 
L 368.77834 260.054693 
L 369.056702 217.858362 
L 369.335063 260.054693 
L 369.613425 206.424623 
L 369.891787 260.054693 
L 370.170149 207.453693 
L 370.448511 260.054693 
L 370.726873 231.194944 
L 371.005234 260.054693 
L 371.283596 207.34734 
L 371.561958 260.054693 
L 371.84032 194.731062 
L 372.118682 260.054693 
L 372.397043 200.861652 
L 372.675405 260.054693 
L 372.953767 219.837665 
L 373.232129 260.054693 
L 373.510491 215.861679 
L 373.788853 260.054693 
L 374.067214 194.465552 
L 374.345576 260.054693 
L 374.623938 229.830329 
L 374.9023 260.054693 
L 375.180662 222.039721 
L 375.459023 260.054693 
L 375.737385 210.325454 
L 376.015747 260.054693 
L 376.294109 195.956664 
L 376.572471 260.054693 
L 376.850833 194.492617 
L 377.129194 260.054693 
L 377.407556 203.078994 
L 377.685918 260.054693 
L 377.96428 200.344752 
L 378.242642 260.054693 
L 378.521003 241.23567 
L 378.799365 260.054693 
L 379.077727 215.035611 
L 379.356089 260.054693 
L 379.634451 213.406017 
L 379.912812 260.054693 
L 380.191174 198.20977 
L 380.469536 260.054693 
L 380.747898 221.427112 
L 381.02626 260.054693 
L 381.304622 222.928008 
L 381.582983 260.054693 
L 381.861345 198.874669 
L 382.139707 260.054693 
L 382.418069 217.95809 
L 382.696431 260.054693 
L 382.974792 234.164768 
L 383.253154 260.054693 
L 383.531516 201.260789 
L 383.809878 260.054693 
L 384.08824 207.264791 
L 384.366602 260.054693 
L 384.644963 248.949387 
L 384.923325 260.054693 
L 385.201687 201.342104 
L 385.480049 260.054693 
L 385.758411 222.616771 
L 386.036772 260.054693 
L 386.315134 209.445686 
L 386.758861 289 
M 386.984855 289 
L 387.428582 208.826185 
L 387.706943 260.054693 
L 387.985305 191.309564 
L 388.263667 260.054693 
L 388.542029 197.353567 
L 388.820391 260.054693 
L 389.098752 211.856696 
L 389.377114 260.054693 
L 389.655476 239.092644 
L 389.933838 260.054693 
L 390.2122 224.743615 
L 390.490562 260.054693 
L 390.768923 205.23365 
L 391.047285 260.054693 
L 391.325647 200.950741 
L 391.604009 260.054693 
L 391.882371 212.487319 
L 392.160732 260.054693 
L 392.439094 216.968958 
L 392.717456 260.054693 
L 392.995818 205.570639 
L 393.27418 260.054693 
L 393.552542 240.314521 
L 393.830903 260.054693 
L 394.109265 203.640809 
L 394.387627 260.054693 
L 394.665989 218.271788 
L 394.944351 260.054693 
L 395.222712 246.091331 
L 395.501074 260.054693 
L 395.779436 255.471392 
L 396.057798 260.054693 
L 396.33616 206.743408 
L 396.614521 260.054693 
L 396.892883 208.341237 
L 397.171245 260.054693 
L 397.449607 222.462328 
L 397.727969 260.054693 
L 398.006331 195.493366 
L 398.284692 260.054693 
L 398.563054 203.669163 
L 398.841416 260.054693 
L 399.119778 211.644687 
L 399.39814 260.054693 
L 399.676501 239.386638 
L 399.954863 260.054693 
L 400.233225 189.35833 
L 400.511587 260.054693 
L 400.789949 214.914185 
L 401.068311 260.054693 
L 401.346672 212.098073 
L 401.625034 260.054693 
L 401.903396 197.324949 
L 402.181758 260.054693 
L 402.46012 212.967787 
L 402.738481 260.054693 
L 403.016843 227.957493 
L 403.295205 260.054693 
L 403.573567 217.026878 
L 403.851929 260.054693 
L 404.130291 195.738882 
L 404.408652 260.054693 
L 404.687014 192.529089 
L 404.965376 260.054693 
L 405.243738 209.896653 
L 405.5221 260.054693 
L 405.800461 199.772526 
L 406.078823 260.054693 
L 406.357185 240.690565 
L 406.635547 260.054693 
L 406.913909 231.420948 
L 407.192271 260.054693 
L 407.470632 226.610657 
L 407.748994 260.054693 
L 408.027356 191.331485 
L 408.305718 260.054693 
L 408.58408 187.901778 
L 408.862441 260.054693 
L 409.140803 219.976733 
L 409.419165 260.054693 
L 409.697527 231.276119 
L 409.975889 260.054693 
L 410.25425 238.846981 
L 410.532612 260.054693 
L 410.810974 219.586448 
L 411.089336 260.054693 
L 411.367698 212.770922 
L 411.64606 260.054693 
L 411.924421 231.536447 
L 412.202783 260.054693 
L 412.481145 191.091897 
L 412.759507 260.054693 
L 413.037869 211.199347 
L 413.31623 260.054693 
L 413.594592 237.615819 
L 413.872954 260.054693 
L 414.151316 221.897533 
L 414.429678 260.054693 
L 414.70804 213.756207 
L 414.986401 260.054693 
L 415.264763 233.890477 
L 415.543125 260.054693 
L 415.821487 213.709544 
L 416.099849 260.054693 
L 416.37821 199.61911 
L 416.656572 260.054693 
L 416.934934 224.194229 
L 417.213296 260.054693 
L 417.491658 221.434548 
L 417.77002 260.054693 
L 418.048381 190.578924 
L 418.326743 260.054693 
L 418.605105 204.111406 
L 418.883467 260.054693 
L 419.161829 204.054236 
L 419.44019 260.054693 
L 419.718552 250.422954 
L 419.996914 260.054693 
L 420.275276 205.906745 
L 420.553638 260.054693 
L 420.832 229.745789 
L 421.110361 260.054693 
L 421.388723 227.645671 
L 421.667085 260.054693 
L 421.945447 221.478094 
L 422.223809 260.054693 
L 422.50217 193.205603 
L 422.780532 260.054693 
L 423.058894 218.046429 
L 423.337256 260.054693 
L 423.615618 267.395409 
L 423.893979 260.054693 
L 424.172341 234.620506 
L 424.450703 260.054693 
L 424.729065 207.279513 
L 425.007427 260.054693 
L 425.285789 199.474222 
L 425.56415 260.054693 
L 425.842512 201.81065 
L 426.120874 260.054693 
L 426.399236 211.495079 
L 426.677598 260.054693 
L 426.955959 218.709629 
L 427.234321 260.054693 
L 427.512683 206.330321 
L 427.791045 260.054693 
L 428.069407 207.690401 
L 428.347769 260.054693 
L 428.62613 202.545232 
L 428.904492 260.054693 
L 429.182854 212.24352 
L 429.461216 260.054693 
L 429.739578 225.572018 
L 430.017939 260.054693 
L 430.296301 190.772317 
L 430.574663 260.054693 
L 430.853025 187.661254 
L 431.131387 260.054693 
L 431.409749 223.221783 
L 431.68811 260.054693 
L 431.966472 210.209266 
L 432.244834 260.054693 
L 432.523196 194.313524 
L 432.801558 260.054693 
L 433.079919 219.169038 
L 433.358281 260.054693 
L 433.636643 248.183368 
L 433.915005 260.054693 
L 434.193367 190.832632 
L 434.471729 260.054693 
L 434.75009 195.942839 
L 435.028452 260.054693 
L 435.306814 208.5765 
L 435.585176 260.054693 
L 435.863538 229.566232 
L 436.141899 260.054693 
L 436.420261 211.922956 
L 436.698623 260.054693 
L 436.976985 202.600115 
L 437.255347 260.054693 
L 437.533708 203.172674 
L 437.81207 260.054693 
L 438.090432 224.982906 
L 438.368794 260.054693 
L 438.647156 204.688648 
L 438.925518 260.054693 
L 439.203879 258.323508 
L 439.482241 260.054693 
L 439.760603 217.73221 
L 440.038965 260.054693 
L 440.317327 191.459323 
L 440.595688 260.054693 
L 440.87405 214.118137 
L 441.152412 260.054693 
L 441.430774 203.920826 
L 441.709136 260.054693 
L 441.987498 222.30939 
L 442.265859 260.054693 
L 442.544221 223.651234 
L 442.822583 260.054693 
L 443.100945 225.390357 
L 443.379307 260.054693 
L 443.657668 226.543004 
L 443.93603 260.054693 
L 444.214392 201.737386 
L 444.492754 260.054693 
L 444.771116 206.580244 
L 445.049478 260.054693 
L 445.327839 202.556966 
L 445.606201 260.054693 
L 445.884563 237.163173 
L 446.162925 260.054693 
L 446.441287 230.515223 
L 446.719648 260.054693 
L 446.99801 219.725913 
L 447.276372 260.054693 
L 447.554734 209.909745 
L 447.833096 260.054693 
L 448.111458 210.318942 
L 448.389819 260.054693 
L 448.668181 203.289418 
L 448.946543 260.054693 
L 449.224905 228.70428 
L 449.503267 260.054693 
L 449.781628 224.186584 
L 450.05999 260.054693 
L 450.338352 189.902615 
L 450.616714 260.054693 
L 450.895076 234.670221 
L 451.173437 260.054693 
L 451.451799 261.056297 
L 451.730161 260.054693 
L 452.008523 240.404685 
L 452.286885 260.054693 
L 452.565247 232.752998 
L 452.843608 260.054693 
L 453.12197 198.331383 
L 453.400332 260.054693 
L 453.678694 209.126147 
L 453.957056 260.054693 
L 454.235417 256.482751 
L 454.513779 260.054693 
L 454.792141 203.063299 
L 455.070503 260.054693 
L 455.348865 218.390564 
L 455.627227 260.054693 
L 455.905588 223.67742 
L 456.18395 260.054693 
L 456.462312 232.805149 
L 456.740674 260.054693 
L 457.019036 213.024971 
L 457.297397 260.054693 
L 457.575759 222.971472 
L 457.854121 260.054693 
L 458.132483 219.476328 
L 458.410845 260.054693 
L 458.689207 201.378344 
L 458.967568 260.054693 
L 459.24593 213.386657 
L 459.524292 260.054693 
L 459.802654 230.395481 
L 460.081016 260.054693 
L 460.359377 223.644124 
L 460.637739 260.054693 
L 460.916101 210.886131 
L 461.194463 260.054693 
L 461.472825 231.334609 
L 461.751187 260.054693 
L 462.029548 239.722792 
L 462.30791 260.054693 
L 462.586272 208.109365 
L 462.864634 260.054693 
L 463.142996 202.665063 
L 463.421357 260.054693 
L 463.699719 206.422235 
L 463.978081 260.054693 
L 464.256443 206.854329 
L 464.534805 260.054693 
L 464.813167 197.761324 
L 465.091528 260.054693 
L 465.36989 204.300363 
L 465.648252 260.054693 
L 465.926614 228.472008 
L 466.204976 260.054693 
L 466.483337 186.956672 
L 466.761699 260.054693 
L 467.040061 269.292145 
L 467.318423 260.054693 
L 467.596785 200.268172 
L 467.875146 260.054693 
L 468.153508 214.065807 
L 468.43187 260.054693 
L 468.710232 248.814851 
L 468.988594 260.054693 
L 469.266956 185.427486 
L 469.545317 260.054693 
L 469.823679 235.912163 
L 470.102041 260.054693 
L 470.380403 232.602483 
L 470.658765 260.054693 
L 470.937126 219.966708 
L 471.215488 260.054693 
L 471.49385 234.198076 
L 471.772212 260.054693 
L 472.050574 253.257874 
L 472.328936 260.054693 
L 472.607297 218.295798 
L 472.885659 260.054693 
L 473.164021 232.604051 
L 473.442383 260.054693 
L 473.720745 204.78028 
L 473.999106 260.054693 
L 474.277468 232.863813 
L 474.55583 260.054693 
L 474.834192 197.468765 
L 475.112554 260.054693 
L 475.390916 203.571195 
L 475.669277 260.054693 
L 475.947639 218.554131 
L 476.226001 260.054693 
L 476.504363 211.913828 
L 476.782725 260.054693 
L 477.061086 223.460799 
L 477.339448 260.054693 
L 477.61781 206.806027 
L 477.896172 260.054693 
L 478.174534 238.192722 
L 478.452896 260.054693 
L 478.731257 205.799856 
L 479.009619 260.054693 
L 479.287981 229.974465 
L 479.566343 260.054693 
L 479.844705 226.001154 
L 480.123066 260.054693 
L 480.401428 245.164931 
L 480.67979 260.054693 
L 480.958152 213.099077 
L 481.236514 260.054693 
L 481.514875 236.369228 
L 481.793237 260.054693 
L 482.071599 213.461563 
L 482.349961 260.054693 
L 482.628323 181.79072 
L 482.906685 260.054693 
L 483.185046 200.328286 
L 483.463408 260.054693 
L 483.74177 237.399971 
L 484.020132 260.054693 
L 484.298494 205.990195 
L 484.576855 260.054693 
L 484.855217 205.429707 
L 485.133579 260.054693 
L 485.411941 202.623679 
L 485.690303 260.054693 
L 485.968665 232.070586 
L 486.247026 260.054693 
L 486.525388 207.796062 
L 486.80375 260.054693 
L 487.082112 181.024585 
L 487.360474 260.054693 
L 487.638835 207.464013 
L 487.917197 260.054693 
L 488.195559 212.769325 
L 488.473921 260.054693 
L 488.752283 193.635251 
L 489.030645 260.054693 
L 489.309006 199.731034 
L 489.587368 260.054693 
L 489.86573 212.134283 
L 490.144092 260.054693 
L 490.422454 227.233543 
L 490.700815 260.054693 
L 490.979177 211.723029 
L 491.257539 260.054693 
L 491.535901 251.168325 
L 491.814263 260.054693 
L 492.092625 261.262219 
L 492.370986 260.054693 
L 492.649348 201.925457 
L 492.92771 260.054693 
L 493.206072 214.999659 
L 493.484434 260.054693 
L 493.762795 236.003029 
L 494.041157 260.054693 
L 494.319519 221.14997 
L 494.597881 260.054693 
L 494.876243 201.075262 
L 495.154604 260.054693 
L 495.432966 212.372715 
L 495.711328 260.054693 
L 495.98969 223.145145 
L 496.268052 260.054693 
L 496.546414 231.445187 
L 496.824775 260.054693 
L 497.103137 202.979823 
L 497.381499 260.054693 
L 497.659861 213.791623 
L 497.938223 260.054693 
L 498.216584 245.668746 
L 498.494946 260.054693 
L 498.773308 183.806178 
L 499.05167 260.054693 
L 499.330032 196.74637 
L 499.608394 260.054693 
L 499.886755 205.383393 
L 500.165117 260.054693 
L 500.443479 209.855157 
L 500.721841 260.054693 
L 501.000203 206.073123 
L 501.278564 260.054693 
L 501.556926 206.238768 
L 501.835288 260.054693 
L 502.11365 207.065203 
L 502.392012 260.054693 
L 502.670374 212.903705 
L 502.948735 260.054693 
L 503.227097 242.284499 
L 503.505459 260.054693 
L 503.783821 219.757604 
L 504.062183 260.054693 
L 504.340544 221.448653 
L 504.618906 260.054693 
L 504.897268 204.998131 
L 505.17563 260.054693 
L 505.453992 222.429883 
L 505.732354 260.054693 
L 506.010715 234.265268 
L 506.289077 260.054693 
L 506.567439 234.524041 
L 506.845801 260.054693 
L 507.124163 216.506924 
L 507.402524 260.054693 
L 507.680886 233.732327 
L 507.959248 260.054693 
L 508.23761 243.93909 
L 508.515972 260.054693 
L 508.794333 217.55197 
L 509.072695 260.054693 
L 509.351057 213.859179 
L 509.629419 260.054693 
L 509.907781 213.158405 
L 510.186143 260.054693 
L 510.464504 232.654805 
L 510.742866 260.054693 
L 511.021228 209.71382 
L 511.29959 260.054693 
L 511.577952 200.088734 
L 511.856313 260.054693 
L 512.134675 221.47858 
L 512.413037 260.054693 
L 512.691399 227.044503 
L 512.969761 260.054693 
L 513.248123 189.968292 
L 513.526484 260.054693 
L 513.804846 218.184405 
L 514.083208 260.054693 
L 514.36157 240.578763 
L 514.639932 260.054693 
L 514.918293 186.063634 
L 515.196655 260.054693 
L 515.475017 250.468714 
L 515.753379 260.054693 
L 516.031741 235.322603 
L 516.310103 260.054693 
L 516.588464 200.073299 
L 516.866826 260.054693 
L 517.145188 226.004865 
L 517.42355 260.054693 
L 517.701912 195.315155 
L 517.980273 260.054693 
L 518.258635 211.383585 
L 518.536997 260.054693 
L 518.815359 236.197578 
L 519.093721 260.054693 
L 519.372083 206.054786 
L 519.650444 260.054693 
L 519.928806 218.248019 
L 520.207168 260.054693 
L 520.48553 242.765729 
L 520.763892 260.054693 
L 521.042253 190.295084 
L 521.320615 260.054693 
L 521.598977 205.645787 
L 521.877339 260.054693 
L 522.155701 211.631576 
L 522.434062 260.054693 
L 522.712424 212.491088 
L 522.990786 260.054693 
L 523.269148 195.289203 
L 523.54751 260.054693 
L 523.825872 202.751025 
L 524.104233 260.054693 
L 524.382595 226.549503 
L 524.660957 260.054693 
L 524.939319 216.427738 
L 525.217681 260.054693 
L 525.496042 217.740464 
L 525.774404 260.054693 
L 526.052766 213.531419 
L 526.331128 260.054693 
L 526.60949 231.718087 
L 526.887852 260.054693 
L 527.166213 204.441143 
L 527.444575 260.054693 
L 527.722937 198.927137 
L 528.001299 260.054693 
L 528.279661 241.618874 
L 528.558022 260.054693 
L 528.836384 211.038503 
L 529.114746 260.054693 
L 529.393108 201.812154 
L 529.67147 260.054693 
L 529.949832 216.864955 
L 530.228193 260.054693 
L 530.506555 245.761618 
L 530.784917 260.054693 
L 531.063279 183.804841 
L 531.341641 260.054693 
L 531.620002 239.657841 
L 531.898364 260.054693 
L 532.176726 212.35105 
L 532.455088 260.054693 
L 532.73345 206.222477 
L 533.011812 260.054693 
L 533.290173 198.691811 
L 533.568535 260.054693 
L 533.846897 192.689645 
L 534.125259 260.054693 
L 534.403621 221.454023 
L 534.681982 260.054693 
L 534.960344 217.915292 
L 535.238706 260.054693 
L 535.517068 192.408606 
L 535.79543 260.054693 
L 536.073792 229.976955 
L 536.352153 260.054693 
L 536.630515 222.926636 
L 536.908877 260.054693 
L 537.187239 202.610461 
L 537.465601 260.054693 
L 537.743962 206.000587 
L 538.022324 260.054693 
L 538.300686 213.077467 
L 538.579048 260.054693 
L 538.85741 225.720858 
L 539.135771 260.054693 
L 539.414133 192.466172 
L 539.692495 260.054693 
L 539.970857 216.299544 
L 540.249219 260.054693 
L 540.527581 241.593733 
L 540.805942 260.054693 
L 541.084304 219.451416 
L 541.362666 260.054693 
L 541.641028 222.413246 
L 541.91939 260.054693 
L 542.197751 203.452188 
L 542.476113 260.054693 
L 542.754475 216.15475 
L 543.032837 260.054693 
L 543.311199 193.975007 
L 543.589561 260.054693 
L 543.867922 198.526275 
L 544.146284 260.054693 
L 544.424646 207.840822 
L 544.703008 260.054693 
L 544.98137 214.291172 
L 545.259731 260.054693 
L 545.538093 218.739749 
L 545.816455 260.054693 
L 546.094817 218.436578 
L 546.373179 260.054693 
L 546.651541 227.263435 
L 546.929902 260.054693 
L 547.208264 205.280816 
L 547.486626 260.054693 
L 547.764988 210.998472 
L 548.04335 260.054693 
L 548.321711 203.313062 
L 548.600073 260.054693 
L 548.878435 198.999938 
L 549.156797 260.054693 
L 549.435159 199.817983 
L 549.713521 260.054693 
L 549.991882 187.932613 
L 550.270244 260.054693 
L 550.548606 230.710925 
L 550.826968 260.054693 
L 551.10533 240.058205 
L 551.383691 260.054693 
L 551.662053 194.532557 
L 551.940415 260.054693 
L 552.218777 216.649194 
L 552.497139 260.054693 
L 552.7755 224.486775 
L 553.053862 260.054693 
L 553.332224 227.356469 
L 553.610586 260.054693 
L 553.888948 205.964548 
L 554.16731 260.054693 
L 554.445671 235.22441 
L 554.724033 260.054693 
L 555.002395 206.579212 
L 555.280757 260.054693 
L 555.559119 196.003105 
L 555.83748 260.054693 
L 556.115842 221.151594 
L 556.394204 260.054693 
L 556.672566 220.357239 
L 556.950928 260.054693 
L 557.22929 236.389683 
L 557.507651 260.054693 
L 557.786013 208.768222 
L 558.064375 260.054693 
L 558.342737 220.590496 
L 558.621099 260.054693 
L 558.89946 228.596413 
L 559.177822 260.054693 
L 559.456184 224.412151 
L 559.734546 260.054693 
L 560.012908 199.808074 
L 560.29127 260.054693 
L 560.569631 236.697674 
L 560.847993 260.054693 
L 561.126355 203.654229 
L 561.404717 260.054693 
L 561.683079 248.968869 
L 561.96144 260.054693 
L 562.239802 222.189881 
L 562.7727 289 
M 562.820352 289 
L 563.074888 260.054693 
L 563.35325 207.566364 
L 563.631611 260.054693 
L 563.909973 226.804161 
L 564.188335 260.054693 
L 564.466697 222.013466 
L 564.745059 260.054693 
L 565.02342 224.633477 
L 565.301782 260.054693 
L 565.580144 228.870786 
L 565.858506 260.054693 
L 566.136868 216.435853 
L 566.415229 260.054693 
L 566.693591 203.232168 
L 566.971953 260.054693 
L 567.250315 246.942199 
L 567.528677 260.054693 
L 567.807039 208.383637 
L 568.0854 260.054693 
L 568.363762 218.412183 
L 568.642124 260.054693 
L 568.920486 243.559171 
L 569.198848 260.054693 
L 569.477209 198.947899 
L 569.755571 260.054693 
L 570.033933 194.789322 
L 570.312295 260.054693 
L 570.590657 223.307421 
L 570.869019 260.054693 
L 571.14738 219.479343 
L 571.425742 260.054693 
L 571.704104 208.949453 
L 571.982466 260.054693 
L 572.260828 207.827205 
L 572.539189 260.054693 
L 572.817551 269.739985 
L 573.095913 260.054693 
L 573.374275 230.44204 
L 573.652637 260.054693 
L 573.930999 198.310681 
L 574.20936 260.054693 
L 574.487722 213.140546 
L 574.766084 260.054693 
L 575.044446 218.597131 
L 575.322808 260.054693 
L 575.601169 193.293102 
L 575.879531 260.054693 
L 576.157893 203.609053 
L 576.436255 260.054693 
L 576.714617 222.45369 
L 576.992979 260.054693 
L 577.27134 237.724124 
L 577.549702 260.054693 
L 577.828064 217.360876 
L 578.106426 260.054693 
L 578.384788 222.966832 
L 578.663149 260.054693 
L 578.941511 207.087791 
L 579.219873 260.054693 
L 579.498235 224.821338 
L 579.776597 260.054693 
L 580.054958 200.535196 
L 580.33332 260.054693 
L 580.611682 202.581318 
L 580.890044 260.054693 
L 581.168406 204.754791 
L 581.446768 260.054693 
L 581.725129 206.641671 
L 582.003491 260.054693 
L 582.281853 276.667204 
L 582.560215 260.054693 
L 582.838577 215.7056 
L 583.116938 260.054693 
L 583.3953 206.417146 
L 583.673662 260.054693 
L 583.952024 182.267564 
L 584.230386 260.054693 
L 584.508748 207.483605 
L 584.787109 260.054693 
L 585.065471 211.464753 
L 585.343833 260.054693 
L 585.622195 226.689441 
L 585.900557 260.054693 
L 586.178918 220.25844 
L 586.45728 260.054693 
L 586.735642 214.43215 
L 587.014004 260.054693 
L 587.292366 233.125087 
L 587.570728 260.054693 
L 587.849089 197.437535 
L 588.127451 260.054693 
L 588.405813 216.468058 
L 588.684175 260.054693 
L 588.962537 273.096658 
L 589.240898 260.054693 
L 589.51926 213.600687 
L 589.797622 260.054693 
L 590.075984 207.795448 
L 590.354346 260.054693 
L 590.632708 238.81883 
L 590.911069 260.054693 
L 591.189431 209.475457 
L 591.467793 260.054693 
L 591.746155 222.784489 
L 592.024517 260.054693 
L 592.302878 217.369279 
L 592.58124 260.054693 
L 592.859602 238.183225 
L 593.137964 260.054693 
L 593.288575 289 
M 593.544076 289 
L 593.694687 260.054693 
L 593.973049 258.42441 
L 594.251411 260.054693 
L 594.529773 229.465782 
L 594.808135 260.054693 
L 595.086497 214.142548 
L 595.364858 260.054693 
L 595.64322 192.128045 
L 595.921582 260.054693 
L 596.199944 207.006871 
L 596.478306 260.054693 
L 596.756667 234.899741 
L 597.035029 260.054693 
L 597.313391 220.302685 
L 597.591753 260.054693 
L 597.870115 197.103223 
L 598.148477 260.054693 
L 598.426838 211.291707 
L 598.7052 260.054693 
L 598.983562 218.607559 
L 599.261924 260.054693 
L 599.540286 212.293664 
L 599.818647 260.054693 
L 600.097009 212.24664 
L 600.375371 260.054693 
L 600.653733 270.4481 
L 600.932095 260.054693 
L 601.210457 209.676318 
L 601.488818 260.054693 
L 601.76718 195.228339 
L 602.045542 260.054693 
L 602.323904 202.343322 
L 602.602266 260.054693 
L 602.880627 237.959666 
L 603.158989 260.054693 
L 603.437351 210.204993 
L 603.715713 260.054693 
L 603.994075 224.773877 
L 604.272437 260.054693 
L 604.550798 225.134726 
L 604.82916 260.054693 
L 605.107522 259.021893 
L 605.385884 260.054693 
L 605.664246 214.231359 
L 605.942607 260.054693 
L 606.220969 195.90471 
L 606.499331 260.054693 
L 606.777693 223.71785 
L 607.056055 260.054693 
L 607.334417 225.199905 
L 607.612778 260.054693 
L 607.89114 202.945375 
L 608.169502 260.054693 
L 608.447864 191.908329 
L 608.726226 260.054693 
L 609.004587 229.940882 
L 609.282949 260.054693 
L 609.561311 258.30061 
L 609.839673 260.054693 
L 610.118035 199.967605 
L 610.396396 260.054693 
L 610.674758 201.255088 
L 610.95312 260.054693 
L 611.231482 212.344363 
L 611.509844 260.054693 
L 611.788206 195.861798 
L 612.066567 260.054693 
L 612.344929 202.58624 
L 612.623291 260.054693 
L 612.901653 228.241314 
L 613.180015 260.054693 
L 613.458376 211.679915 
L 613.736738 260.054693 
L 614.0151 196.715668 
L 614.293462 260.054693 
L 614.571824 188.426356 
L 614.850186 260.054693 
L 615.128547 245.366458 
L 615.406909 260.054693 
L 615.685271 211.343183 
L 615.963633 260.054693 
L 616.241995 231.893351 
L 616.520356 260.054693 
L 616.798718 249.641752 
L 617.07708 260.054693 
L 617.355442 243.654166 
L 617.633804 260.054693 
L 617.912166 200.433772 
L 618.190527 260.054693 
L 618.468889 204.647608 
L 618.747251 260.054693 
L 619.025613 234.788261 
L 619.303975 260.054693 
L 619.582336 246.554414 
L 619.860698 260.054693 
L 620.13906 216.985378 
L 620.417422 260.054693 
L 620.695784 215.792966 
L 620.974146 260.054693 
L 621.252507 217.066421 
L 621.530869 260.054693 
L 621.809231 236.996297 
L 622.087593 260.054693 
L 622.365955 210.374616 
L 622.644316 260.054693 
L 622.922678 237.745707 
L 623.20104 260.054693 
L 623.479402 213.205821 
L 623.757764 260.054693 
L 624.036125 208.167152 
L 624.314487 260.054693 
L 624.592849 206.294168 
L 624.871211 260.054693 
L 625.149573 234.250377 
L 625.427935 260.054693 
L 625.706296 223.068102 
L 625.984658 260.054693 
L 626.26302 187.526182 
L 626.541382 260.054693 
L 626.819744 220.764261 
L 627.098105 260.054693 
L 627.376467 238.127315 
L 627.654829 260.054693 
L 627.933191 188.308714 
L 628.211553 260.054693 
L 628.489915 211.490071 
L 628.768276 260.054693 
L 629.046638 207.950616 
L 629.325 272.044375 
L 629.325 272.044375 
" clip-path="url(#p1a7d99e2c2)" style="fill: none; stroke: #ff8c00; stroke-width: 0.7; stroke-linecap: square"/>
   </g>
   <g id="line2d_26">
    <path d="M 67.312493 245.93875 
L 67.312493 26.88 
" clip-path="url(#p1a7d99e2c2)" style="fill: none; stroke-dasharray: 2.96,1.28; stroke-dashoffset: 0; stroke: #ff6347; stroke-width: 0.8"/>
   </g>
   <g id="line2d_27">
    <path d="M 75.384985 245.93875 
L 75.384985 26.88 
" clip-path="url(#p1a7d99e2c2)" style="fill: none; stroke-dasharray: 0.6,0.99; stroke-dashoffset: 0; stroke: #800080; stroke-width: 0.6"/>
   </g>
   <g id="line2d_28">
    <path d="M 83.457478 245.93875 
L 83.457478 26.88 
" clip-path="url(#p1a7d99e2c2)" style="fill: none; stroke-dasharray: 0.6,0.99; stroke-dashoffset: 0; stroke: #800080; stroke-width: 0.6"/>
   </g>
   <g id="line2d_29">
    <path d="M 91.529971 245.93875 
L 91.529971 26.88 
" clip-path="url(#p1a7d99e2c2)" style="fill: none; stroke-dasharray: 0.6,0.99; stroke-dashoffset: 0; stroke: #800080; stroke-width: 0.6"/>
   </g>
   <g id="line2d_30">
    <path d="M 99.602463 245.93875 
L 99.602463 26.88 
" clip-path="url(#p1a7d99e2c2)" style="fill: none; stroke-dasharray: 0.6,0.99; stroke-dashoffset: 0; stroke: #800080; stroke-width: 0.6"/>
   </g>
   <g id="line2d_31">
    <path d="M 107.674956 245.93875 
L 107.674956 26.88 
" clip-path="url(#p1a7d99e2c2)" style="fill: none; stroke-dasharray: 0.6,0.99; stroke-dashoffset: 0; stroke: #800080; stroke-width: 0.6"/>
   </g>
   <g id="line2d_32">
    <path d="M 115.747449 245.93875 
L 115.747449 26.88 
" clip-path="url(#p1a7d99e2c2)" style="fill: none; stroke-dasharray: 0.6,0.99; stroke-dashoffset: 0; stroke: #800080; stroke-width: 0.6"/>
   </g>
   <g id="line2d_33">
    <path d="M 123.819941 245.93875 
L 123.819941 26.88 
" clip-path="url(#p1a7d99e2c2)" style="fill: none; stroke-dasharray: 0.6,0.99; stroke-dashoffset: 0; stroke: #800080; stroke-width: 0.6"/>
   </g>
   <g id="line2d_34">
    <path d="M 131.892434 245.93875 
L 131.892434 26.88 
" clip-path="url(#p1a7d99e2c2)" style="fill: none; stroke-dasharray: 0.6,0.99; stroke-dashoffset: 0; stroke: #800080; stroke-width: 0.6"/>
   </g>
   <g id="line2d_35">
    <path d="M 139.964927 245.93875 
L 139.964927 26.88 
" clip-path="url(#p1a7d99e2c2)" style="fill: none; stroke-dasharray: 0.6,0.99; stroke-dashoffset: 0; stroke: #800080; stroke-width: 0.6"/>
   </g>
   <g id="patch_3">
    <path d="M 59.24 245.93875 
L 59.24 26.88 
" style="fill: none; stroke: #000000; stroke-width: 0.8; stroke-linejoin: miter; stroke-linecap: square"/>
   </g>
   <g id="patch_4">
    <path d="M 629.325 245.93875 
L 629.325 26.88 
" style="fill: none; stroke: #000000; stroke-width: 0.8; stroke-linejoin: miter; stroke-linecap: square"/>
   </g>
   <g id="patch_5">
    <path d="M 59.24 245.93875 
L 629.325 245.93875 
" style="fill: none; stroke: #000000; stroke-width: 0.8; stroke-linejoin: miter; stroke-linecap: square"/>
   </g>
   <g id="patch_6">
    <path d="M 59.24 26.88 
L 629.325 26.88 
" style="fill: none; stroke: #000000; stroke-width: 0.8; stroke-linejoin: miter; stroke-linecap: square"/>
   </g>
   <g id="text_15">
    <!-- CDAC Mismatch σ = 1.0 %   |   THD = -55.6 dB   |   SNDR = 47.8 dB   |   ENOB = 7.65 bits -->
    <g transform="translate(76.152812 20.88) scale(0.12 -0.12)">
     <defs>
      <path id="DejaVuSans-43" d="M 4122 4306 
L 4122 3641 
Q 3803 3938 3442 4084 
Q 3081 4231 2675 4231 
Q 1875 4231 1450 3742 
Q 1025 3253 1025 2328 
Q 1025 1406 1450 917 
Q 1875 428 2675 428 
Q 3081 428 3442 575 
Q 3803 722 4122 1019 
L 4122 359 
Q 3791 134 3420 21 
Q 3050 -91 2638 -91 
Q 1578 -91 968 557 
Q 359 1206 359 2328 
Q 359 3453 968 4101 
Q 1578 4750 2638 4750 
Q 3056 4750 3426 4639 
Q 3797 4528 4122 4306 
z
" transform="scale(0.015625)"/>
      <path id="DejaVuSans-44" d="M 1259 4147 
L 1259 519 
L 2022 519 
Q 2988 519 3436 956 
Q 3884 1394 3884 2338 
Q 3884 3275 3436 3711 
Q 2988 4147 2022 4147 
L 1259 4147 
z
M 628 4666 
L 1925 4666 
Q 3281 4666 3915 4102 
Q 4550 3538 4550 2338 
Q 4550 1131 3912 565 
Q 3275 0 1925 0 
L 628 0 
L 628 4666 
z
" transform="scale(0.015625)"/>
      <path id="DejaVuSans-4d" d="M 628 4666 
L 1569 4666 
L 2759 1491 
L 3956 4666 
L 4897 4666 
L 4897 0 
L 4281 0 
L 4281 4097 
L 3078 897 
L 2444 897 
L 1241 4097 
L 1241 0 
L 628 0 
L 628 4666 
z
" transform="scale(0.015625)"/>
      <path id="DejaVuSans-68" d="M 3513 2113 
L 3513 0 
L 2938 0 
L 2938 2094 
Q 2938 2591 2744 2837 
Q 2550 3084 2163 3084 
Q 1697 3084 1428 2787 
Q 1159 2491 1159 1978 
L 1159 0 
L 581 0 
L 581 4863 
L 1159 4863 
L 1159 2956 
Q 1366 3272 1645 3428 
Q 1925 3584 2291 3584 
Q 2894 3584 3203 3211 
Q 3513 2838 3513 2113 
z
" transform="scale(0.015625)"/>
      <path id="DejaVuSans-3c3" d="M 1959 3044 
Q 1484 3044 1228 2700 
Q 959 2341 959 1747 
Q 959 1119 1226 758 
Q 1494 397 1959 397 
Q 2419 397 2687 759 
Q 2956 1122 2956 1747 
Q 2956 2319 2688 2700 
Q 2441 3044 1959 3044 
z
M 1959 3500 
L 3869 3500 
L 3869 2925 
L 3225 2925 
Q 3566 2438 3566 1747 
Q 3566 888 3138 400 
Q 2709 -91 1959 -91 
Q 1206 -91 781 400 
Q 353 888 353 1747 
Q 353 2613 781 3097 
Q 1134 3500 1959 3500 
z
" transform="scale(0.015625)"/>
      <path id="DejaVuSans-3d" d="M 678 2906 
L 4684 2906 
L 4684 2381 
L 678 2381 
L 678 2906 
z
M 678 1631 
L 4684 1631 
L 4684 1100 
L 678 1100 
L 678 1631 
z
" transform="scale(0.015625)"/>
      <path id="DejaVuSans-25" d="M 4653 2053 
Q 4381 2053 4226 1822 
Q 4072 1591 4072 1178 
Q 4072 772 4226 539 
Q 4381 306 4653 306 
Q 4919 306 5073 539 
Q 5228 772 5228 1178 
Q 5228 1588 5073 1820 
Q 4919 2053 4653 2053 
z
M 4653 2450 
Q 5147 2450 5437 2106 
Q 5728 1763 5728 1178 
Q 5728 594 5436 251 
Q 5144 -91 4653 -91 
Q 4153 -91 3862 251 
Q 3572 594 3572 1178 
Q 3572 1766 3864 2108 
Q 4156 2450 4653 2450 
z
M 1428 4353 
Q 1159 4353 1004 4120 
Q 850 3888 850 3481 
Q 850 3069 1003 2837 
Q 1156 2606 1428 2606 
Q 1700 2606 1854 2837 
Q 2009 3069 2009 3481 
Q 2009 3884 1853 4118 
Q 1697 4353 1428 4353 
z
M 4250 4750 
L 4750 4750 
L 1831 -91 
L 1331 -91 
L 4250 4750 
z
M 1428 4750 
Q 1922 4750 2215 4408 
Q 2509 4066 2509 3481 
Q 2509 2891 2217 2550 
Q 1925 2209 1428 2209 
Q 931 2209 642 2551 
Q 353 2894 353 3481 
Q 353 4063 643 4406 
Q 934 4750 1428 4750 
z
" transform="scale(0.015625)"/>
      <path id="DejaVuSans-7c" d="M 1344 4891 
L 1344 -1509 
L 813 -1509 
L 813 4891 
L 1344 4891 
z
" transform="scale(0.015625)"/>
      <path id="DejaVuSans-54" d="M -19 4666 
L 3928 4666 
L 3928 4134 
L 2272 4134 
L 2272 0 
L 1638 0 
L 1638 4134 
L -19 4134 
L -19 4666 
z
" transform="scale(0.015625)"/>
      <path id="DejaVuSans-48" d="M 628 4666 
L 1259 4666 
L 1259 2753 
L 3553 2753 
L 3553 4666 
L 4184 4666 
L 4184 0 
L 3553 0 
L 3553 2222 
L 1259 2222 
L 1259 0 
L 628 0 
L 628 4666 
z
" transform="scale(0.015625)"/>
      <path id="DejaVuSans-2d" d="M 313 2009 
L 1997 2009 
L 1997 1497 
L 313 1497 
L 313 2009 
z
" transform="scale(0.015625)"/>
      <path id="DejaVuSans-52" d="M 2841 2188 
Q 3044 2119 3236 1894 
Q 3428 1669 3622 1275 
L 4263 0 
L 3584 0 
L 2988 1197 
Q 2756 1666 2539 1819 
Q 2322 1972 1947 1972 
L 1259 1972 
L 1259 0 
L 628 0 
L 628 4666 
L 2053 4666 
Q 2853 4666 3247 4331 
Q 3641 3997 3641 3322 
Q 3641 2881 3436 2590 
Q 3231 2300 2841 2188 
z
M 1259 4147 
L 1259 2491 
L 2053 2491 
Q 2509 2491 2742 2702 
Q 2975 2913 2975 3322 
Q 2975 3731 2742 3939 
Q 2509 4147 2053 4147 
L 1259 4147 
z
" transform="scale(0.015625)"/>
      <path id="DejaVuSans-37" d="M 525 4666 
L 3525 4666 
L 3525 4397 
L 1831 0 
L 1172 0 
L 2766 4134 
L 525 4134 
L 525 4666 
z
" transform="scale(0.015625)"/>
      <path id="DejaVuSans-45" d="M 628 4666 
L 3578 4666 
L 3578 4134 
L 1259 4134 
L 1259 2753 
L 3481 2753 
L 3481 2222 
L 1259 2222 
L 1259 531 
L 3634 531 
L 3634 0 
L 628 0 
L 628 4666 
z
" transform="scale(0.015625)"/>
      <path id="DejaVuSans-4f" d="M 2522 4238 
Q 1834 4238 1429 3725 
Q 1025 3213 1025 2328 
Q 1025 1447 1429 934 
Q 1834 422 2522 422 
Q 3209 422 3611 934 
Q 4013 1447 4013 2328 
Q 4013 3213 3611 3725 
Q 3209 4238 2522 4238 
z
M 2522 4750 
Q 3503 4750 4090 4092 
Q 4678 3434 4678 2328 
Q 4678 1225 4090 567 
Q 3503 -91 2522 -91 
Q 1538 -91 948 565 
Q 359 1222 359 2328 
Q 359 3434 948 4092 
Q 1538 4750 2522 4750 
z
" transform="scale(0.015625)"/>
      <path id="DejaVuSans-62" d="M 3116 1747 
Q 3116 2381 2855 2742 
Q 2594 3103 2138 3103 
Q 1681 3103 1420 2742 
Q 1159 2381 1159 1747 
Q 1159 1113 1420 752 
Q 1681 391 2138 391 
Q 2594 391 2855 752 
Q 3116 1113 3116 1747 
z
M 1159 2969 
Q 1341 3281 1617 3432 
Q 1894 3584 2278 3584 
Q 2916 3584 3314 3078 
Q 3713 2572 3713 1747 
Q 3713 922 3314 415 
Q 2916 -91 2278 -91 
Q 1894 -91 1617 61 
Q 1341 213 1159 525 
L 1159 0 
L 581 0 
L 581 4863 
L 1159 4863 
L 1159 2969 
z
" transform="scale(0.015625)"/>
     </defs>
     <use xlink:href="#DejaVuSans-43"/>
     <use xlink:href="#DejaVuSans-44" transform="translate(69.824219 0)"/>
     <use xlink:href="#DejaVuSans-41" transform="translate(145.076172 0)"/>
     <use xlink:href="#DejaVuSans-43" transform="translate(211.734375 0)"/>
     <use xlink:href="#DejaVuSans-20" transform="translate(281.558594 0)"/>
     <use xlink:href="#DejaVuSans-4d" transform="translate(313.345703 0)"/>
     <use xlink:href="#DejaVuSans-69" transform="translate(399.625 0)"/>
     <use xlink:href="#DejaVuSans-73" transform="translate(427.408203 0)"/>
     <use xlink:href="#DejaVuSans-6d" transform="translate(479.507812 0)"/>
     <use xlink:href="#DejaVuSans-61" transform="translate(576.919922 0)"/>
     <use xlink:href="#DejaVuSans-74" transform="translate(638.199219 0)"/>
     <use xlink:href="#DejaVuSans-63" transform="translate(677.408203 0)"/>
     <use xlink:href="#DejaVuSans-68" transform="translate(732.388672 0)"/>
     <use xlink:href="#DejaVuSans-20" transform="translate(795.767578 0)"/>
     <use xlink:href="#DejaVuSans-3c3" transform="translate(827.554688 0)"/>
     <use xlink:href="#DejaVuSans-20" transform="translate(890.933594 0)"/>
     <use xlink:href="#DejaVuSans-3d" transform="translate(922.720703 0)"/>
     <use xlink:href="#DejaVuSans-20" transform="translate(1006.509766 0)"/>
     <use xlink:href="#DejaVuSans-31" transform="translate(1038.296875 0)"/>
     <use xlink:href="#DejaVuSans-2e" transform="translate(1101.919922 0)"/>
     <use xlink:href="#DejaVuSans-30" transform="translate(1133.707031 0)"/>
     <use xlink:href="#DejaVuSans-20" transform="translate(1197.330078 0)"/>
     <use xlink:href="#DejaVuSans-25" transform="translate(1229.117188 0)"/>
     <use xlink:href="#DejaVuSans-20" transform="translate(1324.136719 0)"/>
     <use xlink:href="#DejaVuSans-20" transform="translate(1355.923828 0)"/>
     <use xlink:href="#DejaVuSans-20" transform="translate(1387.710938 0)"/>
     <use xlink:href="#DejaVuSans-7c" transform="translate(1419.498047 0)"/>
     <use xlink:href="#DejaVuSans-20" transform="translate(1453.189453 0)"/>
     <use xlink:href="#DejaVuSans-20" transform="translate(1484.976562 0)"/>
     <use xlink:href="#DejaVuSans-20" transform="translate(1516.763672 0)"/>
     <use xlink:href="#DejaVuSans-54" transform="translate(1548.550781 0)"/>
     <use xlink:href="#DejaVuSans-48" transform="translate(1609.634766 0)"/>
     <use xlink:href="#DejaVuSans-44" transform="translate(1684.830078 0)"/>
     <use xlink:href="#DejaVuSans-20" transform="translate(1761.832031 0)"/>
     <use xlink:href="#DejaVuSans-3d" transform="translate(1793.619141 0)"/>
     <use xlink:href="#DejaVuSans-20" transform="translate(1877.408203 0)"/>
     <use xlink:href="#DejaVuSans-2d" transform="translate(1909.195312 0)"/>
     <use xlink:href="#DejaVuSans-35" transform="translate(1945.279297 0)"/>
     <use xlink:href="#DejaVuSans-35" transform="translate(2008.902344 0)"/>
     <use xlink:href="#DejaVuSans-2e" transform="translate(2072.525391 0)"/>
     <use xlink:href="#DejaVuSans-36" transform="translate(2104.3125 0)"/>
     <use xlink:href="#DejaVuSans-20" transform="translate(2167.935547 0)"/>
     <use xlink:href="#DejaVuSans-64" transform="translate(2199.722656 0)"/>
     <use xlink:href="#DejaVuSans-42" transform="translate(2263.199219 0)"/>
     <use xlink:href="#DejaVuSans-20" transform="translate(2331.802734 0)"/>
     <use xlink:href="#DejaVuSans-20" transform="translate(2363.589844 0)"/>
     <use xlink:href="#DejaVuSans-20" transform="translate(2395.376953 0)"/>
     <use xlink:href="#DejaVuSans-7c" transform="translate(2427.164062 0)"/>
     <use xlink:href="#DejaVuSans-20" transform="translate(2460.855469 0)"/>
     <use xlink:href="#DejaVuSans-20" transform="translate(2492.642578 0)"/>
     <use xlink:href="#DejaVuSans-20" transform="translate(2524.429688 0)"/>
     <use xlink:href="#DejaVuSans-53" transform="translate(2556.216797 0)"/>
     <use xlink:href="#DejaVuSans-4e" transform="translate(2619.693359 0)"/>
     <use xlink:href="#DejaVuSans-44" transform="translate(2694.498047 0)"/>
     <use xlink:href="#DejaVuSans-52" transform="translate(2771.5 0)"/>
     <use xlink:href="#DejaVuSans-20" transform="translate(2840.982422 0)"/>
     <use xlink:href="#DejaVuSans-3d" transform="translate(2872.769531 0)"/>
     <use xlink:href="#DejaVuSans-20" transform="translate(2956.558594 0)"/>
     <use xlink:href="#DejaVuSans-34" transform="translate(2988.345703 0)"/>
     <use xlink:href="#DejaVuSans-37" transform="translate(3051.96875 0)"/>
     <use xlink:href="#DejaVuSans-2e" transform="translate(3115.591797 0)"/>
     <use xlink:href="#DejaVuSans-38" transform="translate(3147.378906 0)"/>
     <use xlink:href="#DejaVuSans-20" transform="translate(3211.001953 0)"/>
     <use xlink:href="#DejaVuSans-64" transform="translate(3242.789062 0)"/>
     <use xlink:href="#DejaVuSans-42" transform="translate(3306.265625 0)"/>
     <use xlink:href="#DejaVuSans-20" transform="translate(3374.869141 0)"/>
     <use xlink:href="#DejaVuSans-20" transform="translate(3406.65625 0)"/>
     <use xlink:href="#DejaVuSans-20" transform="translate(3438.443359 0)"/>
     <use xlink:href="#DejaVuSans-7c" transform="translate(3470.230469 0)"/>
     <use xlink:href="#DejaVuSans-20" transform="translate(3503.921875 0)"/>
     <use xlink:href="#DejaVuSans-20" transform="translate(3535.708984 0)"/>
     <use xlink:href="#DejaVuSans-20" transform="translate(3567.496094 0)"/>
     <use xlink:href="#DejaVuSans-45" transform="translate(3599.283203 0)"/>
     <use xlink:href="#DejaVuSans-4e" transform="translate(3662.466797 0)"/>
     <use xlink:href="#DejaVuSans-4f" transform="translate(3737.271484 0)"/>
     <use xlink:href="#DejaVuSans-42" transform="translate(3815.982422 0)"/>
     <use xlink:href="#DejaVuSans-20" transform="translate(3884.585938 0)"/>
     <use xlink:href="#DejaVuSans-3d" transform="translate(3916.373047 0)"/>
     <use xlink:href="#DejaVuSans-20" transform="translate(4000.162109 0)"/>
     <use xlink:href="#DejaVuSans-37" transform="translate(4031.949219 0)"/>
     <use xlink:href="#DejaVuSans-2e" transform="translate(4095.572266 0)"/>
     <use xlink:href="#DejaVuSans-36" transform="translate(4127.359375 0)"/>
     <use xlink:href="#DejaVuSans-35" transform="translate(4190.982422 0)"/>
     <use xlink:href="#DejaVuSans-20" transform="translate(4254.605469 0)"/>
     <use xlink:href="#DejaVuSans-62" transform="translate(4286.392578 0)"/>
     <use xlink:href="#DejaVuSans-69" transform="translate(4349.869141 0)"/>
     <use xlink:href="#DejaVuSans-74" transform="translate(4377.652344 0)"/>
     <use xlink:href="#DejaVuSans-73" transform="translate(4416.861328 0)"/>
    </g>
   </g>
   <g id="legend_1">
    <g id="patch_7">
     <path d="M 538.9925 45.245 
L 623.725 45.245 
Q 625.325 45.245 625.325 43.645 
L 625.325 32.48 
Q 625.325 30.88 623.725 30.88 
L 538.9925 30.88 
Q 537.3925 30.88 537.3925 32.48 
L 537.3925 43.645 
Q 537.3925 45.245 538.9925 45.245 
z
" style="fill: #ffffff; opacity: 0.8; stroke: #cccccc; stroke-linejoin: miter"/>
    </g>
    <g id="line2d_36">
     <path d="M 540.5925 37.35875 
L 548.5925 37.35875 
L 556.5925 37.35875 
" style="fill: none; stroke-dasharray: 2.96,1.28; stroke-dashoffset: 0; stroke: #ff6347; stroke-width: 0.8"/>
    </g>
    <g id="text_16">
     <!-- f_in = 29/4096 -->
     <g transform="translate(562.9925 40.15875) scale(0.08 -0.08)">
      <defs>
       <path id="DejaVuSans-39" d="M 703 97 
L 703 672 
Q 941 559 1184 500 
Q 1428 441 1663 441 
Q 2288 441 2617 861 
Q 2947 1281 2994 2138 
Q 2813 1869 2534 1725 
Q 2256 1581 1919 1581 
Q 1219 1581 811 2004 
Q 403 2428 403 3163 
Q 403 3881 828 4315 
Q 1253 4750 1959 4750 
Q 2769 4750 3195 4129 
Q 3622 3509 3622 2328 
Q 3622 1225 3098 567 
Q 2575 -91 1691 -91 
Q 1453 -91 1209 -44 
Q 966 3 703 97 
z
M 1959 2075 
Q 2384 2075 2632 2365 
Q 2881 2656 2881 3163 
Q 2881 3666 2632 3958 
Q 2384 4250 1959 4250 
Q 1534 4250 1286 3958 
Q 1038 3666 1038 3163 
Q 1038 2656 1286 2365 
Q 1534 2075 1959 2075 
z
" transform="scale(0.015625)"/>
       <path id="DejaVuSans-2f" d="M 1625 4666 
L 2156 4666 
L 531 -594 
L 0 -594 
L 1625 4666 
z
" transform="scale(0.015625)"/>
      </defs>
      <use xlink:href="#DejaVuSans-66"/>
      <use xlink:href="#DejaVuSans-5f" transform="translate(35.205078 0)"/>
      <use xlink:href="#DejaVuSans-69" transform="translate(85.205078 0)"/>
      <use xlink:href="#DejaVuSans-6e" transform="translate(112.988281 0)"/>
      <use xlink:href="#DejaVuSans-20" transform="translate(176.367188 0)"/>
      <use xlink:href="#DejaVuSans-3d" transform="translate(208.154297 0)"/>
      <use xlink:href="#DejaVuSans-20" transform="translate(291.943359 0)"/>
      <use xlink:href="#DejaVuSans-32" transform="translate(323.730469 0)"/>
      <use xlink:href="#DejaVuSans-39" transform="translate(387.353516 0)"/>
      <use xlink:href="#DejaVuSans-2f" transform="translate(450.976562 0)"/>
      <use xlink:href="#DejaVuSans-34" transform="translate(484.667969 0)"/>
      <use xlink:href="#DejaVuSans-30" transform="translate(548.291016 0)"/>
      <use xlink:href="#DejaVuSans-39" transform="translate(611.914062 0)"/>
      <use xlink:href="#DejaVuSans-36" transform="translate(675.537109 0)"/>
     </g>
    </g>
   </g>
  </g>
 </g>
 <defs>
  <clipPath id="p1a7d99e2c2">
   <rect x="59.24" y="26.88" width="570.085" height="219.05875"/>
  </clipPath>
 </defs>
</svg>
