<?xml version="1.0" encoding="utf-8" standalone="no"?>
<!DOCTYPE svg PUBLIC "-//W3C//DTD SVG 1.1//EN"
  "http://www.w3.org/Graphics/SVG/1.1/DTD/svg11.dtd">
<svg xmlns:xlink="http://www.w3.org/1999/xlink" width="648pt" height="288pt" viewBox="0 0 648 288" xmlns="http://www.w3.org/2000/svg" version="1.1">
 <metadata>
  <rdf:RDF xmlns:dc="http://purl.org/dc/elements/1.1/" xmlns:cc="http://creativecommons.org/ns#" xmlns:rdf="http://www.w3.org/1999/02/22-rdf-syntax-ns#">
   <cc:Work>
    <dc:type rdf:resource="http://purl.org/dc/dcmitype/StillImage"/>
    <dc:date>2026-04-02T19:06:19.568522</dc:date>
    <dc:format>image/svg+xml</dc:format>
    <dc:creator>
     <cc:Agent>
      <dc:title>Matplotlib v3.10.8, https://matplotlib.org/</dc:title>
     </cc:Agent>
    </dc:creator>
   </cc:Work>
  </rdf:RDF>
 </metadata>
 <defs>
  <style type="text/css">*{stroke-linejoin: round; stroke-linecap: butt}</style>
 </defs>
 <g id="figure_1">
  <g id="patch_1">
   <path d="M 0 288 
L 648 288 
L 648 0 
L 0 0 
z
" style="fill: #ffffff"/>
  </g>
  <g id="axes_1">
   <g id="patch_2">
    <path d="M 81 256.32 
L 583.2 256.32 
L 583.2 34.56 
L 81 34.56 
z
" style="fill: #ffffff"/>
   </g>
   <g id="matplotlib.axis_1">
    <g id="xtick_1">
     <g id="line2d_1">
      <path d="M 103.827273 256.32 
L 103.827273 34.56 
" clip-path="url(#pdf3b564a3b)" style="fill: none; stroke: #b0b0b0; stroke-width: 0.3; stroke-linecap: square"/>
     </g>
     <g id="line2d_2">
      <defs>
       <path id="m153b346972" d="M 0 0 
L 0 3.5 
" style="stroke: #000000; stroke-width: 0.8"/>
      </defs>
      <g>
       <use xlink:href="#m153b346972" x="103.827273" y="256.32" style="stroke: #000000; stroke-width: 0.8"/>
      </g>
     </g>
     <g id="text_1">
      <!-- 0 -->
      <g transform="translate(100.646023 270.918437) scale(0.1 -0.1)">
       <defs>
        <path id="DejaVuSans-30" d="M 2034 4250 
Q 1547 4250 1301 3770 
Q 1056 3291 1056 2328 
Q 1056 1369 1301 889 
Q 1547 409 2034 409 
Q 2525 409 2770 889 
Q 3016 1369 3016 2328 
Q 3016 3291 2770 3770 
Q 2525 4250 2034 4250 
z
M 2034 4750 
Q 2819 4750 3233 4129 
Q 3647 3509 3647 2328 
Q 3647 1150 3233 529 
Q 2819 -91 2034 -91 
Q 1250 -91 836 529 
Q 422 1150 422 2328 
Q 422 3509 836 4129 
Q 1250 4750 2034 4750 
z
" transform="scale(0.015625)"/>
       </defs>
       <use xlink:href="#DejaVuSans-30"/>
      </g>
     </g>
    </g>
    <g id="xtick_2">
     <g id="line2d_3">
      <path d="M 193.698425 256.32 
L 193.698425 34.56 
" clip-path="url(#pdf3b564a3b)" style="fill: none; stroke: #b0b0b0; stroke-width: 0.3; stroke-linecap: square"/>
     </g>
     <g id="line2d_4">
      <g>
       <use xlink:href="#m153b346972" x="193.698425" y="256.32" style="stroke: #000000; stroke-width: 0.8"/>
      </g>
     </g>
     <g id="text_2">
      <!-- 50 -->
      <g transform="translate(187.335925 270.918437) scale(0.1 -0.1)">
       <defs>
        <path id="DejaVuSans-35" d="M 691 4666 
L 3169 4666 
L 3169 4134 
L 1269 4134 
L 1269 2991 
Q 1406 3038 1543 3061 
Q 1681 3084 1819 3084 
Q 2600 3084 3056 2656 
Q 3513 2228 3513 1497 
Q 3513 744 3044 326 
Q 2575 -91 1722 -91 
Q 1428 -91 1123 -41 
Q 819 9 494 109 
L 494 744 
Q 775 591 1075 516 
Q 1375 441 1709 441 
Q 2250 441 2565 725 
Q 2881 1009 2881 1497 
Q 2881 1984 2565 2268 
Q 2250 2553 1709 2553 
Q 1456 2553 1204 2497 
Q 953 2441 691 2322 
L 691 4666 
z
" transform="scale(0.015625)"/>
       </defs>
       <use xlink:href="#DejaVuSans-35"/>
       <use xlink:href="#DejaVuSans-30" transform="translate(63.623047 0)"/>
      </g>
     </g>
    </g>
    <g id="xtick_3">
     <g id="line2d_5">
      <path d="M 283.569578 256.32 
L 283.569578 34.56 
" clip-path="url(#pdf3b564a3b)" style="fill: none; stroke: #b0b0b0; stroke-width: 0.3; stroke-linecap: square"/>
     </g>
     <g id="line2d_6">
      <g>
       <use xlink:href="#m153b346972" x="283.569578" y="256.32" style="stroke: #000000; stroke-width: 0.8"/>
      </g>
     </g>
     <g id="text_3">
      <!-- 100 -->
      <g transform="translate(274.025828 270.918437) scale(0.1 -0.1)">
       <defs>
        <path id="DejaVuSans-31" d="M 794 531 
L 1825 531 
L 1825 4091 
L 703 3866 
L 703 4441 
L 1819 4666 
L 2450 4666 
L 2450 531 
L 3481 531 
L 3481 0 
L 794 0 
L 794 531 
z
" transform="scale(0.015625)"/>
       </defs>
       <use xlink:href="#DejaVuSans-31"/>
       <use xlink:href="#DejaVuSans-30" transform="translate(63.623047 0)"/>
       <use xlink:href="#DejaVuSans-30" transform="translate(127.246094 0)"/>
      </g>
     </g>
    </g>
    <g id="xtick_4">
     <g id="line2d_7">
      <path d="M 373.44073 256.32 
L 373.44073 34.56 
" clip-path="url(#pdf3b564a3b)" style="fill: none; stroke: #b0b0b0; stroke-width: 0.3; stroke-linecap: square"/>
     </g>
     <g id="line2d_8">
      <g>
       <use xlink:href="#m153b346972" x="373.44073" y="256.32" style="stroke: #000000; stroke-width: 0.8"/>
      </g>
     </g>
     <g id="text_4">
      <!-- 150 -->
      <g transform="translate(363.89698 270.918437) scale(0.1 -0.1)">
       <use xlink:href="#DejaVuSans-31"/>
       <use xlink:href="#DejaVuSans-35" transform="translate(63.623047 0)"/>
       <use xlink:href="#DejaVuSans-30" transform="translate(127.246094 0)"/>
      </g>
     </g>
    </g>
    <g id="xtick_5">
     <g id="line2d_9">
      <path d="M 463.311883 256.32 
L 463.311883 34.56 
" clip-path="url(#pdf3b564a3b)" style="fill: none; stroke: #b0b0b0; stroke-width: 0.3; stroke-linecap: square"/>
     </g>
     <g id="line2d_10">
      <g>
       <use xlink:href="#m153b346972" x="463.311883" y="256.32" style="stroke: #000000; stroke-width: 0.8"/>
      </g>
     </g>
     <g id="text_5">
      <!-- 200 -->
      <g transform="translate(453.768133 270.918437) scale(0.1 -0.1)">
       <defs>
        <path id="DejaVuSans-32" d="M 1228 531 
L 3431 531 
L 3431 0 
L 469 0 
L 469 531 
Q 828 903 1448 1529 
Q 2069 2156 2228 2338 
Q 2531 2678 2651 2914 
Q 2772 3150 2772 3378 
Q 2772 3750 2511 3984 
Q 2250 4219 1831 4219 
Q 1534 4219 1204 4116 
Q 875 4013 500 3803 
L 500 4441 
Q 881 4594 1212 4672 
Q 1544 4750 1819 4750 
Q 2544 4750 2975 4387 
Q 3406 4025 3406 3419 
Q 3406 3131 3298 2873 
Q 3191 2616 2906 2266 
Q 2828 2175 2409 1742 
Q 1991 1309 1228 531 
z
" transform="scale(0.015625)"/>
       </defs>
       <use xlink:href="#DejaVuSans-32"/>
       <use xlink:href="#DejaVuSans-30" transform="translate(63.623047 0)"/>
       <use xlink:href="#DejaVuSans-30" transform="translate(127.246094 0)"/>
      </g>
     </g>
    </g>
    <g id="xtick_6">
     <g id="line2d_11">
      <path d="M 553.183035 256.32 
L 553.183035 34.56 
" clip-path="url(#pdf3b564a3b)" style="fill: none; stroke: #b0b0b0; stroke-width: 0.3; stroke-linecap: square"/>
     </g>
     <g id="line2d_12">
      <g>
       <use xlink:href="#m153b346972" x="553.183035" y="256.32" style="stroke: #000000; stroke-width: 0.8"/>
      </g>
     </g>
     <g id="text_6">
      <!-- 250 -->
      <g transform="translate(543.639285 270.918437) scale(0.1 -0.1)">
       <use xlink:href="#DejaVuSans-32"/>
       <use xlink:href="#DejaVuSans-35" transform="translate(63.623047 0)"/>
       <use xlink:href="#DejaVuSans-30" transform="translate(127.246094 0)"/>
      </g>
     </g>
    </g>
    <g id="text_7">
     <!-- Digital code -->
     <g transform="translate(302.235938 284.596563) scale(0.1 -0.1)">
      <defs>
       <path id="DejaVuSans-44" d="M 1259 4147 
L 1259 519 
L 2022 519 
Q 2988 519 3436 956 
Q 3884 1394 3884 2338 
Q 3884 3275 3436 3711 
Q 2988 4147 2022 4147 
L 1259 4147 
z
M 628 4666 
L 1925 4666 
Q 3281 4666 3915 4102 
Q 4550 3538 4550 2338 
Q 4550 1131 3912 565 
Q 3275 0 1925 0 
L 628 0 
L 628 4666 
z
" transform="scale(0.015625)"/>
       <path id="DejaVuSans-69" d="M 603 3500 
L 1178 3500 
L 1178 0 
L 603 0 
L 603 3500 
z
M 603 4863 
L 1178 4863 
L 1178 4134 
L 603 4134 
L 603 4863 
z
" transform="scale(0.015625)"/>
       <path id="DejaVuSans-67" d="M 2906 1791 
Q 2906 2416 2648 2759 
Q 2391 3103 1925 3103 
Q 1463 3103 1205 2759 
Q 947 2416 947 1791 
Q 947 1169 1205 825 
Q 1463 481 1925 481 
Q 2391 481 2648 825 
Q 2906 1169 2906 1791 
z
M 3481 434 
Q 3481 -459 3084 -895 
Q 2688 -1331 1869 -1331 
Q 1566 -1331 1297 -1286 
Q 1028 -1241 775 -1147 
L 775 -588 
Q 1028 -725 1275 -790 
Q 1522 -856 1778 -856 
Q 2344 -856 2625 -561 
Q 2906 -266 2906 331 
L 2906 616 
Q 2728 306 2450 153 
Q 2172 0 1784 0 
Q 1141 0 747 490 
Q 353 981 353 1791 
Q 353 2603 747 3093 
Q 1141 3584 1784 3584 
Q 2172 3584 2450 3431 
Q 2728 3278 2906 2969 
L 2906 3500 
L 3481 3500 
L 3481 434 
z
" transform="scale(0.015625)"/>
       <path id="DejaVuSans-74" d="M 1172 4494 
L 1172 3500 
L 2356 3500 
L 2356 3053 
L 1172 3053 
L 1172 1153 
Q 1172 725 1289 603 
Q 1406 481 1766 481 
L 2356 481 
L 2356 0 
L 1766 0 
Q 1100 0 847 248 
Q 594 497 594 1153 
L 594 3053 
L 172 3053 
L 172 3500 
L 594 3500 
L 594 4494 
L 1172 4494 
z
" transform="scale(0.015625)"/>
       <path id="DejaVuSans-61" d="M 2194 1759 
Q 1497 1759 1228 1600 
Q 959 1441 959 1056 
Q 959 750 1161 570 
Q 1363 391 1709 391 
Q 2188 391 2477 730 
Q 2766 1069 2766 1631 
L 2766 1759 
L 2194 1759 
z
M 3341 1997 
L 3341 0 
L 2766 0 
L 2766 531 
Q 2569 213 2275 61 
Q 1981 -91 1556 -91 
Q 1019 -91 701 211 
Q 384 513 384 1019 
Q 384 1609 779 1909 
Q 1175 2209 1959 2209 
L 2766 2209 
L 2766 2266 
Q 2766 2663 2505 2880 
Q 2244 3097 1772 3097 
Q 1472 3097 1187 3025 
Q 903 2953 641 2809 
L 641 3341 
Q 956 3463 1253 3523 
Q 1550 3584 1831 3584 
Q 2591 3584 2966 3190 
Q 3341 2797 3341 1997 
z
" transform="scale(0.015625)"/>
       <path id="DejaVuSans-6c" d="M 603 4863 
L 1178 4863 
L 1178 0 
L 603 0 
L 603 4863 
z
" transform="scale(0.015625)"/>
       <path id="DejaVuSans-20" transform="scale(0.015625)"/>
       <path id="DejaVuSans-63" d="M 3122 3366 
L 3122 2828 
Q 2878 2963 2633 3030 
Q 2388 3097 2138 3097 
Q 1578 3097 1268 2742 
Q 959 2388 959 1747 
Q 959 1106 1268 751 
Q 1578 397 2138 397 
Q 2388 397 2633 464 
Q 2878 531 3122 666 
L 3122 134 
Q 2881 22 2623 -34 
Q 2366 -91 2075 -91 
Q 1284 -91 818 406 
Q 353 903 353 1747 
Q 353 2603 823 3093 
Q 1294 3584 2113 3584 
Q 2378 3584 2631 3529 
Q 2884 3475 3122 3366 
z
" transform="scale(0.015625)"/>
       <path id="DejaVuSans-6f" d="M 1959 3097 
Q 1497 3097 1228 2736 
Q 959 2375 959 1747 
Q 959 1119 1226 758 
Q 1494 397 1959 397 
Q 2419 397 2687 759 
Q 2956 1122 2956 1747 
Q 2956 2369 2687 2733 
Q 2419 3097 1959 3097 
z
M 1959 3584 
Q 2709 3584 3137 3096 
Q 3566 2609 3566 1747 
Q 3566 888 3137 398 
Q 2709 -91 1959 -91 
Q 1206 -91 779 398 
Q 353 888 353 1747 
Q 353 2609 779 3096 
Q 1206 3584 1959 3584 
z
" transform="scale(0.015625)"/>
       <path id="DejaVuSans-64" d="M 2906 2969 
L 2906 4863 
L 3481 4863 
L 3481 0 
L 2906 0 
L 2906 525 
Q 2725 213 2448 61 
Q 2172 -91 1784 -91 
Q 1150 -91 751 415 
Q 353 922 353 1747 
Q 353 2572 751 3078 
Q 1150 3584 1784 3584 
Q 2172 3584 2448 3432 
Q 2725 3281 2906 2969 
z
M 947 1747 
Q 947 1113 1208 752 
Q 1469 391 1925 391 
Q 2381 391 2643 752 
Q 2906 1113 2906 1747 
Q 2906 2381 2643 2742 
Q 2381 3103 1925 3103 
Q 1469 3103 1208 2742 
Q 947 2381 947 1747 
z
" transform="scale(0.015625)"/>
       <path id="DejaVuSans-65" d="M 3597 1894 
L 3597 1613 
L 953 1613 
Q 991 1019 1311 708 
Q 1631 397 2203 397 
Q 2534 397 2845 478 
Q 3156 559 3463 722 
L 3463 178 
Q 3153 47 2828 -22 
Q 2503 -91 2169 -91 
Q 1331 -91 842 396 
Q 353 884 353 1716 
Q 353 2575 817 3079 
Q 1281 3584 2069 3584 
Q 2775 3584 3186 3129 
Q 3597 2675 3597 1894 
z
M 3022 2063 
Q 3016 2534 2758 2815 
Q 2500 3097 2075 3097 
Q 1594 3097 1305 2825 
Q 1016 2553 972 2059 
L 3022 2063 
z
" transform="scale(0.015625)"/>
      </defs>
      <use xlink:href="#DejaVuSans-44"/>
      <use xlink:href="#DejaVuSans-69" transform="translate(77.001953 0)"/>
      <use xlink:href="#DejaVuSans-67" transform="translate(104.785156 0)"/>
      <use xlink:href="#DejaVuSans-69" transform="translate(168.261719 0)"/>
      <use xlink:href="#DejaVuSans-74" transform="translate(196.044922 0)"/>
      <use xlink:href="#DejaVuSans-61" transform="translate(235.253906 0)"/>
      <use xlink:href="#DejaVuSans-6c" transform="translate(296.533203 0)"/>
      <use xlink:href="#DejaVuSans-20" transform="translate(324.316406 0)"/>
      <use xlink:href="#DejaVuSans-63" transform="translate(356.103516 0)"/>
      <use xlink:href="#DejaVuSans-6f" transform="translate(411.083984 0)"/>
      <use xlink:href="#DejaVuSans-64" transform="translate(472.265625 0)"/>
      <use xlink:href="#DejaVuSans-65" transform="translate(535.742188 0)"/>
     </g>
    </g>
   </g>
   <g id="matplotlib.axis_2">
    <g id="ytick_1">
     <g id="line2d_13">
      <path d="M 81 246.24 
L 583.2 246.24 
" clip-path="url(#pdf3b564a3b)" style="fill: none; stroke: #b0b0b0; stroke-width: 0.3; stroke-linecap: square"/>
     </g>
     <g id="line2d_14">
      <defs>
       <path id="mc80ca44bb3" d="M 0 0 
L -3.5 0 
" style="stroke: #000000; stroke-width: 0.8"/>
      </defs>
      <g>
       <use xlink:href="#mc80ca44bb3" x="81" y="246.24" style="stroke: #000000; stroke-width: 0.8"/>
      </g>
     </g>
     <g id="text_8">
      <!-- −1.00 -->
      <g transform="translate(43.354687 250.039219) scale(0.1 -0.1)">
       <defs>
        <path id="DejaVuSans-2212" d="M 678 2272 
L 4684 2272 
L 4684 1741 
L 678 1741 
L 678 2272 
z
" transform="scale(0.015625)"/>
        <path id="DejaVuSans-2e" d="M 684 794 
L 1344 794 
L 1344 0 
L 684 0 
L 684 794 
z
" transform="scale(0.015625)"/>
       </defs>
       <use xlink:href="#DejaVuSans-2212"/>
       <use xlink:href="#DejaVuSans-31" transform="translate(83.789062 0)"/>
       <use xlink:href="#DejaVuSans-2e" transform="translate(147.412109 0)"/>
       <use xlink:href="#DejaVuSans-30" transform="translate(179.199219 0)"/>
       <use xlink:href="#DejaVuSans-30" transform="translate(242.822266 0)"/>
      </g>
     </g>
    </g>
    <g id="ytick_2">
     <g id="line2d_15">
      <path d="M 81 221.04 
L 583.2 221.04 
" clip-path="url(#pdf3b564a3b)" style="fill: none; stroke: #b0b0b0; stroke-width: 0.3; stroke-linecap: square"/>
     </g>
     <g id="line2d_16">
      <g>
       <use xlink:href="#mc80ca44bb3" x="81" y="221.04" style="stroke: #000000; stroke-width: 0.8"/>
      </g>
     </g>
     <g id="text_9">
      <!-- −0.75 -->
      <g transform="translate(43.354687 224.839219) scale(0.1 -0.1)">
       <defs>
        <path id="DejaVuSans-37" d="M 525 4666 
L 3525 4666 
L 3525 4397 
L 1831 0 
L 1172 0 
L 2766 4134 
L 525 4134 
L 525 4666 
z
" transform="scale(0.015625)"/>
       </defs>
       <use xlink:href="#DejaVuSans-2212"/>
       <use xlink:href="#DejaVuSans-30" transform="translate(83.789062 0)"/>
       <use xlink:href="#DejaVuSans-2e" transform="translate(147.412109 0)"/>
       <use xlink:href="#DejaVuSans-37" transform="translate(179.199219 0)"/>
       <use xlink:href="#DejaVuSans-35" transform="translate(242.822266 0)"/>
      </g>
     </g>
    </g>
    <g id="ytick_3">
     <g id="line2d_17">
      <path d="M 81 195.84 
L 583.2 195.84 
" clip-path="url(#pdf3b564a3b)" style="fill: none; stroke: #b0b0b0; stroke-width: 0.3; stroke-linecap: square"/>
     </g>
     <g id="line2d_18">
      <g>
       <use xlink:href="#mc80ca44bb3" x="81" y="195.84" style="stroke: #000000; stroke-width: 0.8"/>
      </g>
     </g>
     <g id="text_10">
      <!-- −0.50 -->
      <g transform="translate(43.354687 199.639219) scale(0.1 -0.1)">
       <use xlink:href="#DejaVuSans-2212"/>
       <use xlink:href="#DejaVuSans-30" transform="translate(83.789062 0)"/>
       <use xlink:href="#DejaVuSans-2e" transform="translate(147.412109 0)"/>
       <use xlink:href="#DejaVuSans-35" transform="translate(179.199219 0)"/>
       <use xlink:href="#DejaVuSans-30" transform="translate(242.822266 0)"/>
      </g>
     </g>
    </g>
    <g id="ytick_4">
     <g id="line2d_19">
      <path d="M 81 170.64 
L 583.2 170.64 
" clip-path="url(#pdf3b564a3b)" style="fill: none; stroke: #b0b0b0; stroke-width: 0.3; stroke-linecap: square"/>
     </g>
     <g id="line2d_20">
      <g>
       <use xlink:href="#mc80ca44bb3" x="81" y="170.64" style="stroke: #000000; stroke-width: 0.8"/>
      </g>
     </g>
     <g id="text_11">
      <!-- −0.25 -->
      <g transform="translate(43.354687 174.439219) scale(0.1 -0.1)">
       <use xlink:href="#DejaVuSans-2212"/>
       <use xlink:href="#DejaVuSans-30" transform="translate(83.789062 0)"/>
       <use xlink:href="#DejaVuSans-2e" transform="translate(147.412109 0)"/>
       <use xlink:href="#DejaVuSans-32" transform="translate(179.199219 0)"/>
       <use xlink:href="#DejaVuSans-35" transform="translate(242.822266 0)"/>
      </g>
     </g>
    </g>
    <g id="ytick_5">
     <g id="line2d_21">
      <path d="M 81 145.44 
L 583.2 145.44 
" clip-path="url(#pdf3b564a3b)" style="fill: none; stroke: #b0b0b0; stroke-width: 0.3; stroke-linecap: square"/>
     </g>
     <g id="line2d_22">
      <g>
       <use xlink:href="#mc80ca44bb3" x="81" y="145.44" style="stroke: #000000; stroke-width: 0.8"/>
      </g>
     </g>
     <g id="text_12">
      <!-- 0.00 -->
      <g transform="translate(51.734375 149.239219) scale(0.1 -0.1)">
       <use xlink:href="#DejaVuSans-30"/>
       <use xlink:href="#DejaVuSans-2e" transform="translate(63.623047 0)"/>
       <use xlink:href="#DejaVuSans-30" transform="translate(95.410156 0)"/>
       <use xlink:href="#DejaVuSans-30" transform="translate(159.033203 0)"/>
      </g>
     </g>
    </g>
    <g id="ytick_6">
     <g id="line2d_23">
      <path d="M 81 120.24 
L 583.2 120.24 
" clip-path="url(#pdf3b564a3b)" style="fill: none; stroke: #b0b0b0; stroke-width: 0.3; stroke-linecap: square"/>
     </g>
     <g id="line2d_24">
      <g>
       <use xlink:href="#mc80ca44bb3" x="81" y="120.24" style="stroke: #000000; stroke-width: 0.8"/>
      </g>
     </g>
     <g id="text_13">
      <!-- 0.25 -->
      <g transform="translate(51.734375 124.039219) scale(0.1 -0.1)">
       <use xlink:href="#DejaVuSans-30"/>
       <use xlink:href="#DejaVuSans-2e" transform="translate(63.623047 0)"/>
       <use xlink:href="#DejaVuSans-32" transform="translate(95.410156 0)"/>
       <use xlink:href="#DejaVuSans-35" transform="translate(159.033203 0)"/>
      </g>
     </g>
    </g>
    <g id="ytick_7">
     <g id="line2d_25">
      <path d="M 81 95.04 
L 583.2 95.04 
" clip-path="url(#pdf3b564a3b)" style="fill: none; stroke: #b0b0b0; stroke-width: 0.3; stroke-linecap: square"/>
     </g>
     <g id="line2d_26">
      <g>
       <use xlink:href="#mc80ca44bb3" x="81" y="95.04" style="stroke: #000000; stroke-width: 0.8"/>
      </g>
     </g>
     <g id="text_14">
      <!-- 0.50 -->
      <g transform="translate(51.734375 98.839219) scale(0.1 -0.1)">
       <use xlink:href="#DejaVuSans-30"/>
       <use xlink:href="#DejaVuSans-2e" transform="translate(63.623047 0)"/>
       <use xlink:href="#DejaVuSans-35" transform="translate(95.410156 0)"/>
       <use xlink:href="#DejaVuSans-30" transform="translate(159.033203 0)"/>
      </g>
     </g>
    </g>
    <g id="ytick_8">
     <g id="line2d_27">
      <path d="M 81 69.84 
L 583.2 69.84 
" clip-path="url(#pdf3b564a3b)" style="fill: none; stroke: #b0b0b0; stroke-width: 0.3; stroke-linecap: square"/>
     </g>
     <g id="line2d_28">
      <g>
       <use xlink:href="#mc80ca44bb3" x="81" y="69.84" style="stroke: #000000; stroke-width: 0.8"/>
      </g>
     </g>
     <g id="text_15">
      <!-- 0.75 -->
      <g transform="translate(51.734375 73.639219) scale(0.1 -0.1)">
       <use xlink:href="#DejaVuSans-30"/>
       <use xlink:href="#DejaVuSans-2e" transform="translate(63.623047 0)"/>
       <use xlink:href="#DejaVuSans-37" transform="translate(95.410156 0)"/>
       <use xlink:href="#DejaVuSans-35" transform="translate(159.033203 0)"/>
      </g>
     </g>
    </g>
    <g id="ytick_9">
     <g id="line2d_29">
      <path d="M 81 44.64 
L 583.2 44.64 
" clip-path="url(#pdf3b564a3b)" style="fill: none; stroke: #b0b0b0; stroke-width: 0.3; stroke-linecap: square"/>
     </g>
     <g id="line2d_30">
      <g>
       <use xlink:href="#mc80ca44bb3" x="81" y="44.64" style="stroke: #000000; stroke-width: 0.8"/>
      </g>
     </g>
     <g id="text_16">
      <!-- 1.00 -->
      <g transform="translate(51.734375 48.439219) scale(0.1 -0.1)">
       <use xlink:href="#DejaVuSans-31"/>
       <use xlink:href="#DejaVuSans-2e" transform="translate(63.623047 0)"/>
       <use xlink:href="#DejaVuSans-30" transform="translate(95.410156 0)"/>
       <use xlink:href="#DejaVuSans-30" transform="translate(159.033203 0)"/>
      </g>
     </g>
    </g>
    <g id="text_17">
     <!-- DNL (LSB) -->
     <g transform="translate(37.275 170.697812) rotate(-90) scale(0.1 -0.1)">
      <defs>
       <path id="DejaVuSans-4e" d="M 628 4666 
L 1478 4666 
L 3547 763 
L 3547 4666 
L 4159 4666 
L 4159 0 
L 3309 0 
L 1241 3903 
L 1241 0 
L 628 0 
L 628 4666 
z
" transform="scale(0.015625)"/>
       <path id="DejaVuSans-4c" d="M 628 4666 
L 1259 4666 
L 1259 531 
L 3531 531 
L 3531 0 
L 628 0 
L 628 4666 
z
" transform="scale(0.015625)"/>
       <path id="DejaVuSans-28" d="M 1984 4856 
Q 1566 4138 1362 3434 
Q 1159 2731 1159 2009 
Q 1159 1288 1364 580 
Q 1569 -128 1984 -844 
L 1484 -844 
Q 1016 -109 783 600 
Q 550 1309 550 2009 
Q 550 2706 781 3412 
Q 1013 4119 1484 4856 
L 1984 4856 
z
" transform="scale(0.015625)"/>
       <path id="DejaVuSans-53" d="M 3425 4513 
L 3425 3897 
Q 3066 4069 2747 4153 
Q 2428 4238 2131 4238 
Q 1616 4238 1336 4038 
Q 1056 3838 1056 3469 
Q 1056 3159 1242 3001 
Q 1428 2844 1947 2747 
L 2328 2669 
Q 3034 2534 3370 2195 
Q 3706 1856 3706 1288 
Q 3706 609 3251 259 
Q 2797 -91 1919 -91 
Q 1588 -91 1214 -16 
Q 841 59 441 206 
L 441 856 
Q 825 641 1194 531 
Q 1563 422 1919 422 
Q 2459 422 2753 634 
Q 3047 847 3047 1241 
Q 3047 1584 2836 1778 
Q 2625 1972 2144 2069 
L 1759 2144 
Q 1053 2284 737 2584 
Q 422 2884 422 3419 
Q 422 4038 858 4394 
Q 1294 4750 2059 4750 
Q 2388 4750 2728 4690 
Q 3069 4631 3425 4513 
z
" transform="scale(0.015625)"/>
       <path id="DejaVuSans-42" d="M 1259 2228 
L 1259 519 
L 2272 519 
Q 2781 519 3026 730 
Q 3272 941 3272 1375 
Q 3272 1813 3026 2020 
Q 2781 2228 2272 2228 
L 1259 2228 
z
M 1259 4147 
L 1259 2741 
L 2194 2741 
Q 2656 2741 2882 2914 
Q 3109 3088 3109 3444 
Q 3109 3797 2882 3972 
Q 2656 4147 2194 4147 
L 1259 4147 
z
M 628 4666 
L 2241 4666 
Q 2963 4666 3353 4366 
Q 3744 4066 3744 3513 
Q 3744 3084 3544 2831 
Q 3344 2578 2956 2516 
Q 3422 2416 3680 2098 
Q 3938 1781 3938 1306 
Q 3938 681 3513 340 
Q 3088 0 2303 0 
L 628 0 
L 628 4666 
z
" transform="scale(0.015625)"/>
       <path id="DejaVuSans-29" d="M 513 4856 
L 1013 4856 
Q 1481 4119 1714 3412 
Q 1947 2706 1947 2009 
Q 1947 1309 1714 600 
Q 1481 -109 1013 -844 
L 513 -844 
Q 928 -128 1133 580 
Q 1338 1288 1338 2009 
Q 1338 2731 1133 3434 
Q 928 4138 513 4856 
z
" transform="scale(0.015625)"/>
      </defs>
      <use xlink:href="#DejaVuSans-44"/>
      <use xlink:href="#DejaVuSans-4e" transform="translate(77.001953 0)"/>
      <use xlink:href="#DejaVuSans-4c" transform="translate(151.806641 0)"/>
      <use xlink:href="#DejaVuSans-20" transform="translate(207.519531 0)"/>
      <use xlink:href="#DejaVuSans-28" transform="translate(239.306641 0)"/>
      <use xlink:href="#DejaVuSans-4c" transform="translate(278.320312 0)"/>
      <use xlink:href="#DejaVuSans-53" transform="translate(334.033203 0)"/>
      <use xlink:href="#DejaVuSans-42" transform="translate(397.509766 0)"/>
      <use xlink:href="#DejaVuSans-29" transform="translate(466.113281 0)"/>
     </g>
    </g>
   </g>
   <g id="line2d_31">
    <path d="M 103.827273 144.750478 
L 105.624696 144.750478 
L 105.624696 147.471648 
L 107.422119 147.471648 
L 107.422119 144.750478 
L 109.219542 144.750478 
L 109.219542 140.225312 
L 111.016965 140.225312 
L 111.016965 144.750478 
L 112.814388 144.750478 
L 112.814388 147.471648 
L 114.611811 147.471648 
L 114.611811 144.750478 
L 116.409234 144.750478 
L 116.409234 138.686439 
L 118.206657 138.686439 
L 118.206657 144.750478 
L 120.00408 144.750478 
L 120.00408 147.471648 
L 121.801503 147.471648 
L 121.801503 144.750478 
L 123.598926 144.750478 
L 123.598926 140.225312 
L 125.396349 140.225312 
L 125.396349 144.750478 
L 127.193772 144.750478 
L 127.193772 147.471648 
L 128.991195 147.471648 
L 128.991195 144.750478 
L 130.788618 144.750478 
L 130.788618 185.498529 
L 132.586042 185.498529 
L 132.586042 144.750478 
L 134.383465 144.750478 
L 134.383465 147.471648 
L 136.180888 147.471648 
L 136.180888 144.750478 
L 137.978311 144.750478 
L 137.978311 140.225312 
L 139.775734 140.225312 
L 139.775734 144.750478 
L 141.573157 144.750478 
L 141.573157 147.471648 
L 143.37058 147.471648 
L 143.37058 144.750478 
L 145.168003 144.750478 
L 145.168003 138.686439 
L 146.965426 138.686439 
L 146.965426 144.750478 
L 148.762849 144.750478 
L 148.762849 147.471648 
L 150.560272 147.471648 
L 150.560272 144.750478 
L 152.357695 144.750478 
L 152.357695 140.225312 
L 154.155118 140.225312 
L 154.155118 144.750478 
L 155.952541 144.750478 
L 155.952541 147.471648 
L 157.749964 147.471648 
L 157.749964 144.750478 
L 159.547387 144.750478 
L 159.547387 164.489889 
L 161.34481 164.489889 
L 161.34481 144.750478 
L 163.142233 144.750478 
L 163.142233 147.471648 
L 164.939656 147.471648 
L 164.939656 144.750478 
L 166.737079 144.750478 
L 166.737079 140.225312 
L 168.534503 140.225312 
L 168.534503 144.750478 
L 170.331926 144.750478 
L 170.331926 147.471648 
L 172.129349 147.471648 
L 172.129349 144.750478 
L 173.926772 144.750478 
L 173.926772 138.686439 
L 175.724195 138.686439 
L 175.724195 144.750478 
L 177.521618 144.750478 
L 177.521618 147.471648 
L 179.319041 147.471648 
L 179.319041 144.750478 
L 181.116464 144.750478 
L 181.116464 140.225312 
L 182.913887 140.225312 
L 182.913887 144.750478 
L 184.71131 144.750478 
L 184.71131 147.471648 
L 186.508733 147.471648 
L 186.508733 144.750478 
L 188.306156 144.750478 
L 188.306156 185.498529 
L 190.103579 185.498529 
L 190.103579 144.750478 
L 191.901002 144.750478 
L 191.901002 147.471648 
L 193.698425 147.471648 
L 193.698425 144.750478 
L 195.495848 144.750478 
L 195.495848 140.225312 
L 197.293271 140.225312 
L 197.293271 144.750478 
L 199.090694 144.750478 
L 199.090694 147.471648 
L 200.888117 147.471648 
L 200.888117 144.750478 
L 202.68554 144.750478 
L 202.68554 138.686439 
L 204.482963 138.686439 
L 204.482963 144.750478 
L 206.280387 144.750478 
L 206.280387 147.471648 
L 208.07781 147.471648 
L 208.07781 144.750478 
L 209.875233 144.750478 
L 209.875233 140.225312 
L 211.672656 140.225312 
L 211.672656 144.750478 
L 213.470079 144.750478 
L 213.470079 147.471648 
L 215.267502 147.471648 
L 215.267502 144.750478 
L 217.064925 144.750478 
L 217.064925 71.88756 
L 218.862348 71.88756 
L 218.862348 144.750478 
L 220.659771 144.750478 
L 220.659771 147.471648 
L 222.457194 147.471648 
L 222.457194 144.750478 
L 224.254617 144.750478 
L 224.254617 140.225312 
L 226.05204 140.225312 
L 226.05204 144.750478 
L 227.849463 144.750478 
L 227.849463 147.471648 
L 229.646886 147.471648 
L 229.646886 144.750478 
L 231.444309 144.750478 
L 231.444309 138.686439 
L 233.241732 138.686439 
L 233.241732 144.750478 
L 235.039155 144.750478 
L 235.039155 147.471648 
L 236.836578 147.471648 
L 236.836578 144.750478 
L 238.634001 144.750478 
L 238.634001 140.225312 
L 240.431424 140.225312 
L 240.431424 144.750478 
L 242.228848 144.750478 
L 242.228848 147.471648 
L 244.026271 147.471648 
L 244.026271 144.750478 
L 245.823694 144.750478 
L 245.823694 185.498529 
L 247.621117 185.498529 
L 247.621117 144.750478 
L 249.41854 144.750478 
L 249.41854 147.471648 
L 251.215963 147.471648 
L 251.215963 144.750478 
L 253.013386 144.750478 
L 253.013386 140.225312 
L 254.810809 140.225312 
L 254.810809 144.750478 
L 256.608232 144.750478 
L 256.608232 147.471648 
L 258.405655 147.471648 
L 258.405655 144.750478 
L 260.203078 144.750478 
L 260.203078 138.686439 
L 262.000501 138.686439 
L 262.000501 144.750478 
L 263.797924 144.750478 
L 263.797924 147.471648 
L 265.595347 147.471648 
L 265.595347 144.750478 
L 267.39277 144.750478 
L 267.39277 140.225312 
L 269.190193 140.225312 
L 269.190193 144.750478 
L 270.987616 144.750478 
L 270.987616 147.471648 
L 272.785039 147.471648 
L 272.785039 144.750478 
L 274.582462 144.750478 
L 274.582462 164.489889 
L 276.379885 164.489889 
L 276.379885 144.750478 
L 278.177309 144.750478 
L 278.177309 147.471648 
L 279.974732 147.471648 
L 279.974732 144.750478 
L 281.772155 144.750478 
L 281.772155 140.225312 
L 283.569578 140.225312 
L 283.569578 144.750478 
L 285.367001 144.750478 
L 285.367001 147.471648 
L 287.164424 147.471648 
L 287.164424 144.750478 
L 288.961847 144.750478 
L 288.961847 138.686439 
L 290.75927 138.686439 
L 290.75927 144.750478 
L 292.556693 144.750478 
L 292.556693 147.471648 
L 294.354116 147.471648 
L 294.354116 144.750478 
L 296.151539 144.750478 
L 296.151539 140.225312 
L 297.948962 140.225312 
L 297.948962 144.750478 
L 299.746385 144.750478 
L 299.746385 147.471648 
L 301.543808 147.471648 
L 301.543808 144.750478 
L 303.341231 144.750478 
L 303.341231 185.498529 
L 305.138654 185.498529 
L 305.138654 144.750478 
L 306.936077 144.750478 
L 306.936077 147.471648 
L 308.7335 147.471648 
L 308.7335 144.750478 
L 310.530923 144.750478 
L 310.530923 140.225312 
L 312.328346 140.225312 
L 312.328346 144.750478 
L 314.12577 144.750478 
L 314.12577 147.471648 
L 315.923193 147.471648 
L 315.923193 144.750478 
L 317.720616 144.750478 
L 317.720616 138.686439 
L 319.518039 138.686439 
L 319.518039 144.750478 
L 321.315462 144.750478 
L 321.315462 147.471648 
L 323.112885 147.471648 
L 323.112885 144.750478 
L 324.910308 144.750478 
L 324.910308 140.225312 
L 326.707731 140.225312 
L 326.707731 144.750478 
L 328.505154 144.750478 
L 328.505154 147.471648 
L 330.302577 147.471648 
L 330.302577 144.750478 
L 332.1 144.750478 
L 332.1 129.401612 
L 333.897423 129.401612 
L 333.897423 144.750478 
L 335.694846 144.750478 
L 335.694846 147.471648 
L 337.492269 147.471648 
L 337.492269 144.750478 
L 339.289692 144.750478 
L 339.289692 140.225312 
L 341.087115 140.225312 
L 341.087115 144.750478 
L 342.884538 144.750478 
L 342.884538 147.471648 
L 344.681961 147.471648 
L 344.681961 144.750478 
L 346.479384 144.750478 
L 346.479384 138.686439 
L 348.276807 138.686439 
L 348.276807 144.750478 
L 350.07423 144.750478 
L 350.07423 147.471648 
L 351.871654 147.471648 
L 351.871654 144.750478 
L 353.669077 144.750478 
L 353.669077 140.225312 
L 355.4665 140.225312 
L 355.4665 144.750478 
L 357.263923 144.750478 
L 357.263923 147.471648 
L 359.061346 147.471648 
L 359.061346 144.750478 
L 360.858769 144.750478 
L 360.858769 185.498529 
L 362.656192 185.498529 
L 362.656192 144.750478 
L 364.453615 144.750478 
L 364.453615 147.471648 
L 366.251038 147.471648 
L 366.251038 144.750478 
L 368.048461 144.750478 
L 368.048461 140.225312 
L 369.845884 140.225312 
L 369.845884 144.750478 
L 371.643307 144.750478 
L 371.643307 147.471648 
L 373.44073 147.471648 
L 373.44073 144.750478 
L 375.238153 144.750478 
L 375.238153 138.686439 
L 377.035576 138.686439 
L 377.035576 144.750478 
L 378.832999 144.750478 
L 378.832999 147.471648 
L 380.630422 147.471648 
L 380.630422 144.750478 
L 382.427845 144.750478 
L 382.427845 140.225312 
L 384.225268 140.225312 
L 384.225268 144.750478 
L 386.022691 144.750478 
L 386.022691 147.471648 
L 387.820115 147.471648 
L 387.820115 144.750478 
L 389.617538 144.750478 
L 389.617538 164.489889 
L 391.414961 164.489889 
L 391.414961 144.750478 
L 393.212384 144.750478 
L 393.212384 147.471648 
L 395.009807 147.471648 
L 395.009807 144.750478 
L 396.80723 144.750478 
L 396.80723 140.225312 
L 398.604653 140.225312 
L 398.604653 144.750478 
L 400.402076 144.750478 
L 400.402076 147.471648 
L 402.199499 147.471648 
L 402.199499 144.750478 
L 403.996922 144.750478 
L 403.996922 138.686439 
L 405.794345 138.686439 
L 405.794345 144.750478 
L 407.591768 144.750478 
L 407.591768 147.471648 
L 409.389191 147.471648 
L 409.389191 144.750478 
L 411.186614 144.750478 
L 411.186614 140.225312 
L 412.984037 140.225312 
L 412.984037 144.750478 
L 414.78146 144.750478 
L 414.78146 147.471648 
L 416.578883 147.471648 
L 416.578883 144.750478 
L 418.376306 144.750478 
L 418.376306 185.498529 
L 420.173729 185.498529 
L 420.173729 144.750478 
L 421.971152 144.750478 
L 421.971152 147.471648 
L 423.768576 147.471648 
L 423.768576 144.750478 
L 425.565999 144.750478 
L 425.565999 140.225312 
L 427.363422 140.225312 
L 427.363422 144.750478 
L 429.160845 144.750478 
L 429.160845 147.471648 
L 430.958268 147.471648 
L 430.958268 144.750478 
L 432.755691 144.750478 
L 432.755691 138.686439 
L 434.553114 138.686439 
L 434.553114 144.750478 
L 436.350537 144.750478 
L 436.350537 147.471648 
L 438.14796 147.471648 
L 438.14796 144.750478 
L 439.945383 144.750478 
L 439.945383 140.225312 
L 441.742806 140.225312 
L 441.742806 144.750478 
L 443.540229 144.750478 
L 443.540229 147.471648 
L 445.337652 147.471648 
L 445.337652 144.750478 
L 447.135075 144.750478 
L 447.135075 71.88756 
L 448.932498 71.88756 
L 448.932498 144.750478 
L 450.729921 144.750478 
L 450.729921 147.471648 
L 452.527344 147.471648 
L 452.527344 144.750478 
L 454.324767 144.750478 
L 454.324767 140.225312 
L 456.12219 140.225312 
L 456.12219 144.750478 
L 457.919613 144.750478 
L 457.919613 147.471648 
L 459.717037 147.471648 
L 459.717037 144.750478 
L 461.51446 144.750478 
L 461.51446 138.686439 
L 463.311883 138.686439 
L 463.311883 144.750478 
L 465.109306 144.750478 
L 465.109306 147.471648 
L 466.906729 147.471648 
L 466.906729 144.750478 
L 468.704152 144.750478 
L 468.704152 140.225312 
L 470.501575 140.225312 
L 470.501575 144.750478 
L 472.298998 144.750478 
L 472.298998 147.471648 
L 474.096421 147.471648 
L 474.096421 144.750478 
L 475.893844 144.750478 
L 475.893844 185.498529 
L 477.691267 185.498529 
L 477.691267 144.750478 
L 479.48869 144.750478 
L 479.48869 147.471648 
L 481.286113 147.471648 
L 481.286113 144.750478 
L 483.083536 144.750478 
L 483.083536 140.225312 
L 484.880959 140.225312 
L 484.880959 144.750478 
L 486.678382 144.750478 
L 486.678382 147.471648 
L 488.475805 147.471648 
L 488.475805 144.750478 
L 490.273228 144.750478 
L 490.273228 138.686439 
L 492.070651 138.686439 
L 492.070651 144.750478 
L 493.868074 144.750478 
L 493.868074 147.471648 
L 495.665497 147.471648 
L 495.665497 144.750478 
L 497.462921 144.750478 
L 497.462921 140.225312 
L 499.260344 140.225312 
L 499.260344 144.750478 
L 501.057767 144.750478 
L 501.057767 147.471648 
L 502.85519 147.471648 
L 502.85519 144.750478 
L 504.652613 144.750478 
L 504.652613 164.489889 
L 506.450036 164.489889 
L 506.450036 144.750478 
L 508.247459 144.750478 
L 508.247459 147.471648 
L 510.044882 147.471648 
L 510.044882 144.750478 
L 511.842305 144.750478 
L 511.842305 140.225312 
L 513.639728 140.225312 
L 513.639728 144.750478 
L 515.437151 144.750478 
L 515.437151 147.471648 
L 517.234574 147.471648 
L 517.234574 144.750478 
L 519.031997 144.750478 
L 519.031997 138.686439 
L 520.82942 138.686439 
L 520.82942 144.750478 
L 522.626843 144.750478 
L 522.626843 147.471648 
L 524.424266 147.471648 
L 524.424266 144.750478 
L 526.221689 144.750478 
L 526.221689 140.225312 
L 528.019112 140.225312 
L 528.019112 144.750478 
L 529.816535 144.750478 
L 529.816535 147.471648 
L 531.613958 147.471648 
L 531.613958 144.750478 
L 533.411382 144.750478 
L 533.411382 185.498529 
L 535.208805 185.498529 
L 535.208805 144.750478 
L 537.006228 144.750478 
L 537.006228 147.471648 
L 538.803651 147.471648 
L 538.803651 144.750478 
L 540.601074 144.750478 
L 540.601074 140.225312 
L 542.398497 140.225312 
L 542.398497 144.750478 
L 544.19592 144.750478 
L 544.19592 147.471648 
L 545.993343 147.471648 
L 545.993343 144.750478 
L 547.790766 144.750478 
L 547.790766 138.686439 
L 549.588189 138.686439 
L 549.588189 144.750478 
L 551.385612 144.750478 
L 551.385612 147.471648 
L 553.183035 147.471648 
L 553.183035 144.750478 
L 554.980458 144.750478 
L 554.980458 140.225312 
L 556.777881 140.225312 
L 556.777881 144.750478 
L 558.575304 144.750478 
L 558.575304 147.471648 
L 560.372727 147.471648 
L 560.372727 144.750478 
L 560.372727 144.750478 
" clip-path="url(#pdf3b564a3b)" style="fill: none; stroke: #ff8c00; stroke-opacity: 0.85; stroke-width: 0.8; stroke-linecap: square"/>
   </g>
   <g id="line2d_32">
    <path d="M 81 145.44 
L 583.2 145.44 
" clip-path="url(#pdf3b564a3b)" style="fill: none; stroke: #000000; stroke-width: 0.5; stroke-linecap: square"/>
   </g>
   <g id="line2d_33">
    <path d="M 81 44.64 
L 583.2 44.64 
" clip-path="url(#pdf3b564a3b)" style="fill: none; stroke-dasharray: 2.22,0.96; stroke-dashoffset: 0; stroke: #ff6347; stroke-width: 0.6"/>
   </g>
   <g id="line2d_34">
    <path d="M 81 246.24 
L 583.2 246.24 
" clip-path="url(#pdf3b564a3b)" style="fill: none; stroke-dasharray: 2.22,0.96; stroke-dashoffset: 0; stroke: #ff6347; stroke-width: 0.6"/>
   </g>
   <g id="patch_3">
    <path d="M 81 256.32 
L 81 34.56 
" style="fill: none; stroke: #000000; stroke-width: 0.8; stroke-linejoin: miter; stroke-linecap: square"/>
   </g>
   <g id="patch_4">
    <path d="M 583.2 256.32 
L 583.2 34.56 
" style="fill: none; stroke: #000000; stroke-width: 0.8; stroke-linejoin: miter; stroke-linecap: square"/>
   </g>
   <g id="patch_5">
    <path d="M 81 256.32 
L 583.2 256.32 
" style="fill: none; stroke: #000000; stroke-width: 0.8; stroke-linejoin: miter; stroke-linecap: square"/>
   </g>
   <g id="patch_6">
    <path d="M 81 34.56 
L 583.2 34.56 
" style="fill: none; stroke: #000000; stroke-width: 0.8; stroke-linejoin: miter; stroke-linecap: square"/>
   </g>
   <g id="legend_1">
    <g id="patch_7">
     <path d="M 86.6 252.32 
L 227.21625 252.32 
Q 228.81625 252.32 228.81625 250.72 
L 228.81625 216.2925 
Q 228.81625 214.6925 227.21625 214.6925 
L 86.6 214.6925 
Q 85 214.6925 85 216.2925 
L 85 250.72 
Q 85 252.32 86.6 252.32 
z
" style="fill: #ffffff; opacity: 0.8; stroke: #cccccc; stroke-linejoin: miter"/>
    </g>
    <g id="line2d_35">
     <path d="M 88.2 221.17125 
L 96.2 221.17125 
L 96.2 221.17125 
L 104.2 221.17125 
L 104.2 221.17125 
" style="fill: none; stroke: #ff8c00; stroke-opacity: 0.85; stroke-width: 0.8; stroke-linecap: square"/>
    </g>
    <g id="text_18">
     <!-- Mismatch (peak 0.7297 LSB) -->
     <g transform="translate(110.6 223.97125) scale(0.08 -0.08)">
      <defs>
       <path id="DejaVuSans-4d" d="M 628 4666 
L 1569 4666 
L 2759 1491 
L 3956 4666 
L 4897 4666 
L 4897 0 
L 4281 0 
L 4281 4097 
L 3078 897 
L 2444 897 
L 1241 4097 
L 1241 0 
L 628 0 
L 628 4666 
z
" transform="scale(0.015625)"/>
       <path id="DejaVuSans-73" d="M 2834 3397 
L 2834 2853 
Q 2591 2978 2328 3040 
Q 2066 3103 1784 3103 
Q 1356 3103 1142 2972 
Q 928 2841 928 2578 
Q 928 2378 1081 2264 
Q 1234 2150 1697 2047 
L 1894 2003 
Q 2506 1872 2764 1633 
Q 3022 1394 3022 966 
Q 3022 478 2636 193 
Q 2250 -91 1575 -91 
Q 1294 -91 989 -36 
Q 684 19 347 128 
L 347 722 
Q 666 556 975 473 
Q 1284 391 1588 391 
Q 1994 391 2212 530 
Q 2431 669 2431 922 
Q 2431 1156 2273 1281 
Q 2116 1406 1581 1522 
L 1381 1569 
Q 847 1681 609 1914 
Q 372 2147 372 2553 
Q 372 3047 722 3315 
Q 1072 3584 1716 3584 
Q 2034 3584 2315 3537 
Q 2597 3491 2834 3397 
z
" transform="scale(0.015625)"/>
       <path id="DejaVuSans-6d" d="M 3328 2828 
Q 3544 3216 3844 3400 
Q 4144 3584 4550 3584 
Q 5097 3584 5394 3201 
Q 5691 2819 5691 2113 
L 5691 0 
L 5113 0 
L 5113 2094 
Q 5113 2597 4934 2840 
Q 4756 3084 4391 3084 
Q 3944 3084 3684 2787 
Q 3425 2491 3425 1978 
L 3425 0 
L 2847 0 
L 2847 2094 
Q 2847 2600 2669 2842 
Q 2491 3084 2119 3084 
Q 1678 3084 1418 2786 
Q 1159 2488 1159 1978 
L 1159 0 
L 581 0 
L 581 3500 
L 1159 3500 
L 1159 2956 
Q 1356 3278 1631 3431 
Q 1906 3584 2284 3584 
Q 2666 3584 2933 3390 
Q 3200 3197 3328 2828 
z
" transform="scale(0.015625)"/>
       <path id="DejaVuSans-68" d="M 3513 2113 
L 3513 0 
L 2938 0 
L 2938 2094 
Q 2938 2591 2744 2837 
Q 2550 3084 2163 3084 
Q 1697 3084 1428 2787 
Q 1159 2491 1159 1978 
L 1159 0 
L 581 0 
L 581 4863 
L 1159 4863 
L 1159 2956 
Q 1366 3272 1645 3428 
Q 1925 3584 2291 3584 
Q 2894 3584 3203 3211 
Q 3513 2838 3513 2113 
z
" transform="scale(0.015625)"/>
       <path id="DejaVuSans-70" d="M 1159 525 
L 1159 -1331 
L 581 -1331 
L 581 3500 
L 1159 3500 
L 1159 2969 
Q 1341 3281 1617 3432 
Q 1894 3584 2278 3584 
Q 2916 3584 3314 3078 
Q 3713 2572 3713 1747 
Q 3713 922 3314 415 
Q 2916 -91 2278 -91 
Q 1894 -91 1617 61 
Q 1341 213 1159 525 
z
M 3116 1747 
Q 3116 2381 2855 2742 
Q 2594 3103 2138 3103 
Q 1681 3103 1420 2742 
Q 1159 2381 1159 1747 
Q 1159 1113 1420 752 
Q 1681 391 2138 391 
Q 2594 391 2855 752 
Q 3116 1113 3116 1747 
z
" transform="scale(0.015625)"/>
       <path id="DejaVuSans-6b" d="M 581 4863 
L 1159 4863 
L 1159 1991 
L 2875 3500 
L 3609 3500 
L 1753 1863 
L 3688 0 
L 2938 0 
L 1159 1709 
L 1159 0 
L 581 0 
L 581 4863 
z
" transform="scale(0.015625)"/>
       <path id="DejaVuSans-39" d="M 703 97 
L 703 672 
Q 941 559 1184 500 
Q 1428 441 1663 441 
Q 2288 441 2617 861 
Q 2947 1281 2994 2138 
Q 2813 1869 2534 1725 
Q 2256 1581 1919 1581 
Q 1219 1581 811 2004 
Q 403 2428 403 3163 
Q 403 3881 828 4315 
Q 1253 4750 1959 4750 
Q 2769 4750 3195 4129 
Q 3622 3509 3622 2328 
Q 3622 1225 3098 567 
Q 2575 -91 1691 -91 
Q 1453 -91 1209 -44 
Q 966 3 703 97 
z
M 1959 2075 
Q 2384 2075 2632 2365 
Q 2881 2656 2881 3163 
Q 2881 3666 2632 3958 
Q 2384 4250 1959 4250 
Q 1534 4250 1286 3958 
Q 1038 3666 1038 3163 
Q 1038 2656 1286 2365 
Q 1534 2075 1959 2075 
z
" transform="scale(0.015625)"/>
      </defs>
      <use xlink:href="#DejaVuSans-4d"/>
      <use xlink:href="#DejaVuSans-69" transform="translate(86.279297 0)"/>
      <use xlink:href="#DejaVuSans-73" transform="translate(114.0625 0)"/>
      <use xlink:href="#DejaVuSans-6d" transform="translate(166.162109 0)"/>
      <use xlink:href="#DejaVuSans-61" transform="translate(263.574219 0)"/>
      <use xlink:href="#DejaVuSans-74" transform="translate(324.853516 0)"/>
      <use xlink:href="#DejaVuSans-63" transform="translate(364.0625 0)"/>
      <use xlink:href="#DejaVuSans-68" transform="translate(419.042969 0)"/>
      <use xlink:href="#DejaVuSans-20" transform="translate(482.421875 0)"/>
      <use xlink:href="#DejaVuSans-28" transform="translate(514.208984 0)"/>
      <use xlink:href="#DejaVuSans-70" transform="translate(553.222656 0)"/>
      <use xlink:href="#DejaVuSans-65" transform="translate(616.699219 0)"/>
      <use xlink:href="#DejaVuSans-61" transform="translate(678.222656 0)"/>
      <use xlink:href="#DejaVuSans-6b" transform="translate(739.501953 0)"/>
      <use xlink:href="#DejaVuSans-20" transform="translate(797.412109 0)"/>
      <use xlink:href="#DejaVuSans-30" transform="translate(829.199219 0)"/>
      <use xlink:href="#DejaVuSans-2e" transform="translate(892.822266 0)"/>
      <use xlink:href="#DejaVuSans-37" transform="translate(924.609375 0)"/>
      <use xlink:href="#DejaVuSans-32" transform="translate(988.232422 0)"/>
      <use xlink:href="#DejaVuSans-39" transform="translate(1051.855469 0)"/>
      <use xlink:href="#DejaVuSans-37" transform="translate(1115.478516 0)"/>
      <use xlink:href="#DejaVuSans-20" transform="translate(1179.101562 0)"/>
      <use xlink:href="#DejaVuSans-4c" transform="translate(1210.888672 0)"/>
      <use xlink:href="#DejaVuSans-53" transform="translate(1266.601562 0)"/>
      <use xlink:href="#DejaVuSans-42" transform="translate(1330.078125 0)"/>
      <use xlink:href="#DejaVuSans-29" transform="translate(1398.681641 0)"/>
     </g>
    </g>
    <g id="line2d_36">
     <path d="M 88.2 232.91375 
L 96.2 232.91375 
L 104.2 232.91375 
" style="fill: none; stroke-dasharray: 2.22,0.96; stroke-dashoffset: 0; stroke: #ff6347; stroke-width: 0.6"/>
    </g>
    <g id="text_19">
     <!-- +1 LSB -->
     <g transform="translate(110.6 235.71375) scale(0.08 -0.08)">
      <defs>
       <path id="DejaVuSans-2b" d="M 2944 4013 
L 2944 2272 
L 4684 2272 
L 4684 1741 
L 2944 1741 
L 2944 0 
L 2419 0 
L 2419 1741 
L 678 1741 
L 678 2272 
L 2419 2272 
L 2419 4013 
L 2944 4013 
z
" transform="scale(0.015625)"/>
      </defs>
      <use xlink:href="#DejaVuSans-2b"/>
      <use xlink:href="#DejaVuSans-31" transform="translate(83.789062 0)"/>
      <use xlink:href="#DejaVuSans-20" transform="translate(147.412109 0)"/>
      <use xlink:href="#DejaVuSans-4c" transform="translate(179.199219 0)"/>
      <use xlink:href="#DejaVuSans-53" transform="translate(234.912109 0)"/>
      <use xlink:href="#DejaVuSans-42" transform="translate(298.388672 0)"/>
     </g>
    </g>
    <g id="line2d_37">
     <path d="M 88.2 244.65625 
L 96.2 244.65625 
L 104.2 244.65625 
" style="fill: none; stroke-dasharray: 2.22,0.96; stroke-dashoffset: 0; stroke: #ff6347; stroke-width: 0.6"/>
    </g>
    <g id="text_20">
     <!-- −1 LSB -->
     <g transform="translate(110.6 247.45625) scale(0.08 -0.08)">
      <use xlink:href="#DejaVuSans-2212"/>
      <use xlink:href="#DejaVuSans-31" transform="translate(83.789062 0)"/>
      <use xlink:href="#DejaVuSans-20" transform="translate(147.412109 0)"/>
      <use xlink:href="#DejaVuSans-4c" transform="translate(179.199219 0)"/>
      <use xlink:href="#DejaVuSans-53" transform="translate(234.912109 0)"/>
      <use xlink:href="#DejaVuSans-42" transform="translate(298.388672 0)"/>
     </g>
    </g>
   </g>
  </g>
 </g>
 <defs>
  <clipPath id="pdf3b564a3b">
   <rect x="81" y="34.56" width="502.2" height="221.76"/>
  </clipPath>
 </defs>
</svg>
