<?xml version="1.0" encoding="utf-8" standalone="no"?>
<!DOCTYPE svg PUBLIC "-//W3C//DTD SVG 1.1//EN"
  "http://www.w3.org/Graphics/SVG/1.1/DTD/svg11.dtd">
<svg xmlns:xlink="http://www.w3.org/1999/xlink" width="648pt" height="288pt" viewBox="0 0 648 288" xmlns="http://www.w3.org/2000/svg" version="1.1">
 <metadata>
  <rdf:RDF xmlns:dc="http://purl.org/dc/elements/1.1/" xmlns:cc="http://creativecommons.org/ns#" xmlns:rdf="http://www.w3.org/1999/02/22-rdf-syntax-ns#">
   <cc:Work>
    <dc:type rdf:resource="http://purl.org/dc/dcmitype/StillImage"/>
    <dc:date>2026-04-02T19:06:19.488980</dc:date>
    <dc:format>image/svg+xml</dc:format>
    <dc:creator>
     <cc:Agent>
      <dc:title>Matplotlib v3.10.8, https://matplotlib.org/</dc:title>
     </cc:Agent>
    </dc:creator>
   </cc:Work>
  </rdf:RDF>
 </metadata>
 <defs>
  <style type="text/css">*{stroke-linejoin: round; stroke-linecap: butt}</style>
 </defs>
 <g id="figure_1">
  <g id="patch_1">
   <path d="M 0 288 
L 648 288 
L 648 0 
L 0 0 
z
" style="fill: #ffffff"/>
  </g>
  <g id="axes_1">
   <g id="patch_2">
    <path d="M 81 256.32 
L 583.2 256.32 
L 583.2 34.56 
L 81 34.56 
z
" style="fill: #ffffff"/>
   </g>
   <g id="matplotlib.axis_1">
    <g id="xtick_1">
     <g id="line2d_1">
      <path d="M 103.827273 256.32 
L 103.827273 34.56 
" clip-path="url(#p3b4e6106e5)" style="fill: none; stroke: #b0b0b0; stroke-width: 0.3; stroke-linecap: square"/>
     </g>
     <g id="line2d_2">
      <defs>
       <path id="mbddb411eb6" d="M 0 0 
L 0 3.5 
" style="stroke: #000000; stroke-width: 0.8"/>
      </defs>
      <g>
       <use xlink:href="#mbddb411eb6" x="103.827273" y="256.32" style="stroke: #000000; stroke-width: 0.8"/>
      </g>
     </g>
     <g id="text_1">
      <!-- 0 -->
      <g transform="translate(100.646023 270.918437) scale(0.1 -0.1)">
       <defs>
        <path id="DejaVuSans-30" d="M 2034 4250 
Q 1547 4250 1301 3770 
Q 1056 3291 1056 2328 
Q 1056 1369 1301 889 
Q 1547 409 2034 409 
Q 2525 409 2770 889 
Q 3016 1369 3016 2328 
Q 3016 3291 2770 3770 
Q 2525 4250 2034 4250 
z
M 2034 4750 
Q 2819 4750 3233 4129 
Q 3647 3509 3647 2328 
Q 3647 1150 3233 529 
Q 2819 -91 2034 -91 
Q 1250 -91 836 529 
Q 422 1150 422 2328 
Q 422 3509 836 4129 
Q 1250 4750 2034 4750 
z
" transform="scale(0.015625)"/>
       </defs>
       <use xlink:href="#DejaVuSans-30"/>
      </g>
     </g>
    </g>
    <g id="xtick_2">
     <g id="line2d_3">
      <path d="M 193.345989 256.32 
L 193.345989 34.56 
" clip-path="url(#p3b4e6106e5)" style="fill: none; stroke: #b0b0b0; stroke-width: 0.3; stroke-linecap: square"/>
     </g>
     <g id="line2d_4">
      <g>
       <use xlink:href="#mbddb411eb6" x="193.345989" y="256.32" style="stroke: #000000; stroke-width: 0.8"/>
      </g>
     </g>
     <g id="text_2">
      <!-- 50 -->
      <g transform="translate(186.983489 270.918437) scale(0.1 -0.1)">
       <defs>
        <path id="DejaVuSans-35" d="M 691 4666 
L 3169 4666 
L 3169 4134 
L 1269 4134 
L 1269 2991 
Q 1406 3038 1543 3061 
Q 1681 3084 1819 3084 
Q 2600 3084 3056 2656 
Q 3513 2228 3513 1497 
Q 3513 744 3044 326 
Q 2575 -91 1722 -91 
Q 1428 -91 1123 -41 
Q 819 9 494 109 
L 494 744 
Q 775 591 1075 516 
Q 1375 441 1709 441 
Q 2250 441 2565 725 
Q 2881 1009 2881 1497 
Q 2881 1984 2565 2268 
Q 2250 2553 1709 2553 
Q 1456 2553 1204 2497 
Q 953 2441 691 2322 
L 691 4666 
z
" transform="scale(0.015625)"/>
       </defs>
       <use xlink:href="#DejaVuSans-35"/>
       <use xlink:href="#DejaVuSans-30" transform="translate(63.623047 0)"/>
      </g>
     </g>
    </g>
    <g id="xtick_3">
     <g id="line2d_5">
      <path d="M 282.864706 256.32 
L 282.864706 34.56 
" clip-path="url(#p3b4e6106e5)" style="fill: none; stroke: #b0b0b0; stroke-width: 0.3; stroke-linecap: square"/>
     </g>
     <g id="line2d_6">
      <g>
       <use xlink:href="#mbddb411eb6" x="282.864706" y="256.32" style="stroke: #000000; stroke-width: 0.8"/>
      </g>
     </g>
     <g id="text_3">
      <!-- 100 -->
      <g transform="translate(273.320956 270.918437) scale(0.1 -0.1)">
       <defs>
        <path id="DejaVuSans-31" d="M 794 531 
L 1825 531 
L 1825 4091 
L 703 3866 
L 703 4441 
L 1819 4666 
L 2450 4666 
L 2450 531 
L 3481 531 
L 3481 0 
L 794 0 
L 794 531 
z
" transform="scale(0.015625)"/>
       </defs>
       <use xlink:href="#DejaVuSans-31"/>
       <use xlink:href="#DejaVuSans-30" transform="translate(63.623047 0)"/>
       <use xlink:href="#DejaVuSans-30" transform="translate(127.246094 0)"/>
      </g>
     </g>
    </g>
    <g id="xtick_4">
     <g id="line2d_7">
      <path d="M 372.383422 256.32 
L 372.383422 34.56 
" clip-path="url(#p3b4e6106e5)" style="fill: none; stroke: #b0b0b0; stroke-width: 0.3; stroke-linecap: square"/>
     </g>
     <g id="line2d_8">
      <g>
       <use xlink:href="#mbddb411eb6" x="372.383422" y="256.32" style="stroke: #000000; stroke-width: 0.8"/>
      </g>
     </g>
     <g id="text_4">
      <!-- 150 -->
      <g transform="translate(362.839672 270.918437) scale(0.1 -0.1)">
       <use xlink:href="#DejaVuSans-31"/>
       <use xlink:href="#DejaVuSans-35" transform="translate(63.623047 0)"/>
       <use xlink:href="#DejaVuSans-30" transform="translate(127.246094 0)"/>
      </g>
     </g>
    </g>
    <g id="xtick_5">
     <g id="line2d_9">
      <path d="M 461.902139 256.32 
L 461.902139 34.56 
" clip-path="url(#p3b4e6106e5)" style="fill: none; stroke: #b0b0b0; stroke-width: 0.3; stroke-linecap: square"/>
     </g>
     <g id="line2d_10">
      <g>
       <use xlink:href="#mbddb411eb6" x="461.902139" y="256.32" style="stroke: #000000; stroke-width: 0.8"/>
      </g>
     </g>
     <g id="text_5">
      <!-- 200 -->
      <g transform="translate(452.358389 270.918437) scale(0.1 -0.1)">
       <defs>
        <path id="DejaVuSans-32" d="M 1228 531 
L 3431 531 
L 3431 0 
L 469 0 
L 469 531 
Q 828 903 1448 1529 
Q 2069 2156 2228 2338 
Q 2531 2678 2651 2914 
Q 2772 3150 2772 3378 
Q 2772 3750 2511 3984 
Q 2250 4219 1831 4219 
Q 1534 4219 1204 4116 
Q 875 4013 500 3803 
L 500 4441 
Q 881 4594 1212 4672 
Q 1544 4750 1819 4750 
Q 2544 4750 2975 4387 
Q 3406 4025 3406 3419 
Q 3406 3131 3298 2873 
Q 3191 2616 2906 2266 
Q 2828 2175 2409 1742 
Q 1991 1309 1228 531 
z
" transform="scale(0.015625)"/>
       </defs>
       <use xlink:href="#DejaVuSans-32"/>
       <use xlink:href="#DejaVuSans-30" transform="translate(63.623047 0)"/>
       <use xlink:href="#DejaVuSans-30" transform="translate(127.246094 0)"/>
      </g>
     </g>
    </g>
    <g id="xtick_6">
     <g id="line2d_11">
      <path d="M 551.420856 256.32 
L 551.420856 34.56 
" clip-path="url(#p3b4e6106e5)" style="fill: none; stroke: #b0b0b0; stroke-width: 0.3; stroke-linecap: square"/>
     </g>
     <g id="line2d_12">
      <g>
       <use xlink:href="#mbddb411eb6" x="551.420856" y="256.32" style="stroke: #000000; stroke-width: 0.8"/>
      </g>
     </g>
     <g id="text_6">
      <!-- 250 -->
      <g transform="translate(541.877106 270.918437) scale(0.1 -0.1)">
       <use xlink:href="#DejaVuSans-32"/>
       <use xlink:href="#DejaVuSans-35" transform="translate(63.623047 0)"/>
       <use xlink:href="#DejaVuSans-30" transform="translate(127.246094 0)"/>
      </g>
     </g>
    </g>
    <g id="text_7">
     <!-- Digital code -->
     <g transform="translate(302.235938 284.596563) scale(0.1 -0.1)">
      <defs>
       <path id="DejaVuSans-44" d="M 1259 4147 
L 1259 519 
L 2022 519 
Q 2988 519 3436 956 
Q 3884 1394 3884 2338 
Q 3884 3275 3436 3711 
Q 2988 4147 2022 4147 
L 1259 4147 
z
M 628 4666 
L 1925 4666 
Q 3281 4666 3915 4102 
Q 4550 3538 4550 2338 
Q 4550 1131 3912 565 
Q 3275 0 1925 0 
L 628 0 
L 628 4666 
z
" transform="scale(0.015625)"/>
       <path id="DejaVuSans-69" d="M 603 3500 
L 1178 3500 
L 1178 0 
L 603 0 
L 603 3500 
z
M 603 4863 
L 1178 4863 
L 1178 4134 
L 603 4134 
L 603 4863 
z
" transform="scale(0.015625)"/>
       <path id="DejaVuSans-67" d="M 2906 1791 
Q 2906 2416 2648 2759 
Q 2391 3103 1925 3103 
Q 1463 3103 1205 2759 
Q 947 2416 947 1791 
Q 947 1169 1205 825 
Q 1463 481 1925 481 
Q 2391 481 2648 825 
Q 2906 1169 2906 1791 
z
M 3481 434 
Q 3481 -459 3084 -895 
Q 2688 -1331 1869 -1331 
Q 1566 -1331 1297 -1286 
Q 1028 -1241 775 -1147 
L 775 -588 
Q 1028 -725 1275 -790 
Q 1522 -856 1778 -856 
Q 2344 -856 2625 -561 
Q 2906 -266 2906 331 
L 2906 616 
Q 2728 306 2450 153 
Q 2172 0 1784 0 
Q 1141 0 747 490 
Q 353 981 353 1791 
Q 353 2603 747 3093 
Q 1141 3584 1784 3584 
Q 2172 3584 2450 3431 
Q 2728 3278 2906 2969 
L 2906 3500 
L 3481 3500 
L 3481 434 
z
" transform="scale(0.015625)"/>
       <path id="DejaVuSans-74" d="M 1172 4494 
L 1172 3500 
L 2356 3500 
L 2356 3053 
L 1172 3053 
L 1172 1153 
Q 1172 725 1289 603 
Q 1406 481 1766 481 
L 2356 481 
L 2356 0 
L 1766 0 
Q 1100 0 847 248 
Q 594 497 594 1153 
L 594 3053 
L 172 3053 
L 172 3500 
L 594 3500 
L 594 4494 
L 1172 4494 
z
" transform="scale(0.015625)"/>
       <path id="DejaVuSans-61" d="M 2194 1759 
Q 1497 1759 1228 1600 
Q 959 1441 959 1056 
Q 959 750 1161 570 
Q 1363 391 1709 391 
Q 2188 391 2477 730 
Q 2766 1069 2766 1631 
L 2766 1759 
L 2194 1759 
z
M 3341 1997 
L 3341 0 
L 2766 0 
L 2766 531 
Q 2569 213 2275 61 
Q 1981 -91 1556 -91 
Q 1019 -91 701 211 
Q 384 513 384 1019 
Q 384 1609 779 1909 
Q 1175 2209 1959 2209 
L 2766 2209 
L 2766 2266 
Q 2766 2663 2505 2880 
Q 2244 3097 1772 3097 
Q 1472 3097 1187 3025 
Q 903 2953 641 2809 
L 641 3341 
Q 956 3463 1253 3523 
Q 1550 3584 1831 3584 
Q 2591 3584 2966 3190 
Q 3341 2797 3341 1997 
z
" transform="scale(0.015625)"/>
       <path id="DejaVuSans-6c" d="M 603 4863 
L 1178 4863 
L 1178 0 
L 603 0 
L 603 4863 
z
" transform="scale(0.015625)"/>
       <path id="DejaVuSans-20" transform="scale(0.015625)"/>
       <path id="DejaVuSans-63" d="M 3122 3366 
L 3122 2828 
Q 2878 2963 2633 3030 
Q 2388 3097 2138 3097 
Q 1578 3097 1268 2742 
Q 959 2388 959 1747 
Q 959 1106 1268 751 
Q 1578 397 2138 397 
Q 2388 397 2633 464 
Q 2878 531 3122 666 
L 3122 134 
Q 2881 22 2623 -34 
Q 2366 -91 2075 -91 
Q 1284 -91 818 406 
Q 353 903 353 1747 
Q 353 2603 823 3093 
Q 1294 3584 2113 3584 
Q 2378 3584 2631 3529 
Q 2884 3475 3122 3366 
z
" transform="scale(0.015625)"/>
       <path id="DejaVuSans-6f" d="M 1959 3097 
Q 1497 3097 1228 2736 
Q 959 2375 959 1747 
Q 959 1119 1226 758 
Q 1494 397 1959 397 
Q 2419 397 2687 759 
Q 2956 1122 2956 1747 
Q 2956 2369 2687 2733 
Q 2419 3097 1959 3097 
z
M 1959 3584 
Q 2709 3584 3137 3096 
Q 3566 2609 3566 1747 
Q 3566 888 3137 398 
Q 2709 -91 1959 -91 
Q 1206 -91 779 398 
Q 353 888 353 1747 
Q 353 2609 779 3096 
Q 1206 3584 1959 3584 
z
" transform="scale(0.015625)"/>
       <path id="DejaVuSans-64" d="M 2906 2969 
L 2906 4863 
L 3481 4863 
L 3481 0 
L 2906 0 
L 2906 525 
Q 2725 213 2448 61 
Q 2172 -91 1784 -91 
Q 1150 -91 751 415 
Q 353 922 353 1747 
Q 353 2572 751 3078 
Q 1150 3584 1784 3584 
Q 2172 3584 2448 3432 
Q 2725 3281 2906 2969 
z
M 947 1747 
Q 947 1113 1208 752 
Q 1469 391 1925 391 
Q 2381 391 2643 752 
Q 2906 1113 2906 1747 
Q 2906 2381 2643 2742 
Q 2381 3103 1925 3103 
Q 1469 3103 1208 2742 
Q 947 2381 947 1747 
z
" transform="scale(0.015625)"/>
       <path id="DejaVuSans-65" d="M 3597 1894 
L 3597 1613 
L 953 1613 
Q 991 1019 1311 708 
Q 1631 397 2203 397 
Q 2534 397 2845 478 
Q 3156 559 3463 722 
L 3463 178 
Q 3153 47 2828 -22 
Q 2503 -91 2169 -91 
Q 1331 -91 842 396 
Q 353 884 353 1716 
Q 353 2575 817 3079 
Q 1281 3584 2069 3584 
Q 2775 3584 3186 3129 
Q 3597 2675 3597 1894 
z
M 3022 2063 
Q 3016 2534 2758 2815 
Q 2500 3097 2075 3097 
Q 1594 3097 1305 2825 
Q 1016 2553 972 2059 
L 3022 2063 
z
" transform="scale(0.015625)"/>
      </defs>
      <use xlink:href="#DejaVuSans-44"/>
      <use xlink:href="#DejaVuSans-69" transform="translate(77.001953 0)"/>
      <use xlink:href="#DejaVuSans-67" transform="translate(104.785156 0)"/>
      <use xlink:href="#DejaVuSans-69" transform="translate(168.261719 0)"/>
      <use xlink:href="#DejaVuSans-74" transform="translate(196.044922 0)"/>
      <use xlink:href="#DejaVuSans-61" transform="translate(235.253906 0)"/>
      <use xlink:href="#DejaVuSans-6c" transform="translate(296.533203 0)"/>
      <use xlink:href="#DejaVuSans-20" transform="translate(324.316406 0)"/>
      <use xlink:href="#DejaVuSans-63" transform="translate(356.103516 0)"/>
      <use xlink:href="#DejaVuSans-6f" transform="translate(411.083984 0)"/>
      <use xlink:href="#DejaVuSans-64" transform="translate(472.265625 0)"/>
      <use xlink:href="#DejaVuSans-65" transform="translate(535.742188 0)"/>
     </g>
    </g>
   </g>
   <g id="matplotlib.axis_2">
    <g id="ytick_1">
     <g id="line2d_13">
      <path d="M 81 246.24 
L 583.2 246.24 
" clip-path="url(#p3b4e6106e5)" style="fill: none; stroke: #b0b0b0; stroke-width: 0.3; stroke-linecap: square"/>
     </g>
     <g id="line2d_14">
      <defs>
       <path id="m2df36bc804" d="M 0 0 
L -3.5 0 
" style="stroke: #000000; stroke-width: 0.8"/>
      </defs>
      <g>
       <use xlink:href="#m2df36bc804" x="81" y="246.24" style="stroke: #000000; stroke-width: 0.8"/>
      </g>
     </g>
     <g id="text_8">
      <!-- 0 -->
      <g transform="translate(67.6375 250.039219) scale(0.1 -0.1)">
       <use xlink:href="#DejaVuSans-30"/>
      </g>
     </g>
    </g>
    <g id="ytick_2">
     <g id="line2d_15">
      <path d="M 81 205.761882 
L 583.2 205.761882 
" clip-path="url(#p3b4e6106e5)" style="fill: none; stroke: #b0b0b0; stroke-width: 0.3; stroke-linecap: square"/>
     </g>
     <g id="line2d_16">
      <g>
       <use xlink:href="#m2df36bc804" x="81" y="205.761882" style="stroke: #000000; stroke-width: 0.8"/>
      </g>
     </g>
     <g id="text_9">
      <!-- 200 -->
      <g transform="translate(54.9125 209.561101) scale(0.1 -0.1)">
       <use xlink:href="#DejaVuSans-32"/>
       <use xlink:href="#DejaVuSans-30" transform="translate(63.623047 0)"/>
       <use xlink:href="#DejaVuSans-30" transform="translate(127.246094 0)"/>
      </g>
     </g>
    </g>
    <g id="ytick_3">
     <g id="line2d_17">
      <path d="M 81 165.283765 
L 583.2 165.283765 
" clip-path="url(#p3b4e6106e5)" style="fill: none; stroke: #b0b0b0; stroke-width: 0.3; stroke-linecap: square"/>
     </g>
     <g id="line2d_18">
      <g>
       <use xlink:href="#m2df36bc804" x="81" y="165.283765" style="stroke: #000000; stroke-width: 0.8"/>
      </g>
     </g>
     <g id="text_10">
      <!-- 400 -->
      <g transform="translate(54.9125 169.082983) scale(0.1 -0.1)">
       <defs>
        <path id="DejaVuSans-34" d="M 2419 4116 
L 825 1625 
L 2419 1625 
L 2419 4116 
z
M 2253 4666 
L 3047 4666 
L 3047 1625 
L 3713 1625 
L 3713 1100 
L 3047 1100 
L 3047 0 
L 2419 0 
L 2419 1100 
L 313 1100 
L 313 1709 
L 2253 4666 
z
" transform="scale(0.015625)"/>
       </defs>
       <use xlink:href="#DejaVuSans-34"/>
       <use xlink:href="#DejaVuSans-30" transform="translate(63.623047 0)"/>
       <use xlink:href="#DejaVuSans-30" transform="translate(127.246094 0)"/>
      </g>
     </g>
    </g>
    <g id="ytick_4">
     <g id="line2d_19">
      <path d="M 81 124.805647 
L 583.2 124.805647 
" clip-path="url(#p3b4e6106e5)" style="fill: none; stroke: #b0b0b0; stroke-width: 0.3; stroke-linecap: square"/>
     </g>
     <g id="line2d_20">
      <g>
       <use xlink:href="#m2df36bc804" x="81" y="124.805647" style="stroke: #000000; stroke-width: 0.8"/>
      </g>
     </g>
     <g id="text_11">
      <!-- 600 -->
      <g transform="translate(54.9125 128.604866) scale(0.1 -0.1)">
       <defs>
        <path id="DejaVuSans-36" d="M 2113 2584 
Q 1688 2584 1439 2293 
Q 1191 2003 1191 1497 
Q 1191 994 1439 701 
Q 1688 409 2113 409 
Q 2538 409 2786 701 
Q 3034 994 3034 1497 
Q 3034 2003 2786 2293 
Q 2538 2584 2113 2584 
z
M 3366 4563 
L 3366 3988 
Q 3128 4100 2886 4159 
Q 2644 4219 2406 4219 
Q 1781 4219 1451 3797 
Q 1122 3375 1075 2522 
Q 1259 2794 1537 2939 
Q 1816 3084 2150 3084 
Q 2853 3084 3261 2657 
Q 3669 2231 3669 1497 
Q 3669 778 3244 343 
Q 2819 -91 2113 -91 
Q 1303 -91 875 529 
Q 447 1150 447 2328 
Q 447 3434 972 4092 
Q 1497 4750 2381 4750 
Q 2619 4750 2861 4703 
Q 3103 4656 3366 4563 
z
" transform="scale(0.015625)"/>
       </defs>
       <use xlink:href="#DejaVuSans-36"/>
       <use xlink:href="#DejaVuSans-30" transform="translate(63.623047 0)"/>
       <use xlink:href="#DejaVuSans-30" transform="translate(127.246094 0)"/>
      </g>
     </g>
    </g>
    <g id="ytick_5">
     <g id="line2d_21">
      <path d="M 81 84.327529 
L 583.2 84.327529 
" clip-path="url(#p3b4e6106e5)" style="fill: none; stroke: #b0b0b0; stroke-width: 0.3; stroke-linecap: square"/>
     </g>
     <g id="line2d_22">
      <g>
       <use xlink:href="#m2df36bc804" x="81" y="84.327529" style="stroke: #000000; stroke-width: 0.8"/>
      </g>
     </g>
     <g id="text_12">
      <!-- 800 -->
      <g transform="translate(54.9125 88.126748) scale(0.1 -0.1)">
       <defs>
        <path id="DejaVuSans-38" d="M 2034 2216 
Q 1584 2216 1326 1975 
Q 1069 1734 1069 1313 
Q 1069 891 1326 650 
Q 1584 409 2034 409 
Q 2484 409 2743 651 
Q 3003 894 3003 1313 
Q 3003 1734 2745 1975 
Q 2488 2216 2034 2216 
z
M 1403 2484 
Q 997 2584 770 2862 
Q 544 3141 544 3541 
Q 544 4100 942 4425 
Q 1341 4750 2034 4750 
Q 2731 4750 3128 4425 
Q 3525 4100 3525 3541 
Q 3525 3141 3298 2862 
Q 3072 2584 2669 2484 
Q 3125 2378 3379 2068 
Q 3634 1759 3634 1313 
Q 3634 634 3220 271 
Q 2806 -91 2034 -91 
Q 1263 -91 848 271 
Q 434 634 434 1313 
Q 434 1759 690 2068 
Q 947 2378 1403 2484 
z
M 1172 3481 
Q 1172 3119 1398 2916 
Q 1625 2713 2034 2713 
Q 2441 2713 2670 2916 
Q 2900 3119 2900 3481 
Q 2900 3844 2670 4047 
Q 2441 4250 2034 4250 
Q 1625 4250 1398 4047 
Q 1172 3844 1172 3481 
z
" transform="scale(0.015625)"/>
       </defs>
       <use xlink:href="#DejaVuSans-38"/>
       <use xlink:href="#DejaVuSans-30" transform="translate(63.623047 0)"/>
       <use xlink:href="#DejaVuSans-30" transform="translate(127.246094 0)"/>
      </g>
     </g>
    </g>
    <g id="ytick_6">
     <g id="line2d_23">
      <path d="M 81 43.849412 
L 583.2 43.849412 
" clip-path="url(#p3b4e6106e5)" style="fill: none; stroke: #b0b0b0; stroke-width: 0.3; stroke-linecap: square"/>
     </g>
     <g id="line2d_24">
      <g>
       <use xlink:href="#m2df36bc804" x="81" y="43.849412" style="stroke: #000000; stroke-width: 0.8"/>
      </g>
     </g>
     <g id="text_13">
      <!-- 1000 -->
      <g transform="translate(48.55 47.648631) scale(0.1 -0.1)">
       <use xlink:href="#DejaVuSans-31"/>
       <use xlink:href="#DejaVuSans-30" transform="translate(63.623047 0)"/>
       <use xlink:href="#DejaVuSans-30" transform="translate(127.246094 0)"/>
       <use xlink:href="#DejaVuSans-30" transform="translate(190.869141 0)"/>
      </g>
     </g>
    </g>
    <g id="text_14">
     <!-- Output voltage (mV) -->
     <g transform="translate(42.470312 196.861094) rotate(-90) scale(0.1 -0.1)">
      <defs>
       <path id="DejaVuSans-4f" d="M 2522 4238 
Q 1834 4238 1429 3725 
Q 1025 3213 1025 2328 
Q 1025 1447 1429 934 
Q 1834 422 2522 422 
Q 3209 422 3611 934 
Q 4013 1447 4013 2328 
Q 4013 3213 3611 3725 
Q 3209 4238 2522 4238 
z
M 2522 4750 
Q 3503 4750 4090 4092 
Q 4678 3434 4678 2328 
Q 4678 1225 4090 567 
Q 3503 -91 2522 -91 
Q 1538 -91 948 565 
Q 359 1222 359 2328 
Q 359 3434 948 4092 
Q 1538 4750 2522 4750 
z
" transform="scale(0.015625)"/>
       <path id="DejaVuSans-75" d="M 544 1381 
L 544 3500 
L 1119 3500 
L 1119 1403 
Q 1119 906 1312 657 
Q 1506 409 1894 409 
Q 2359 409 2629 706 
Q 2900 1003 2900 1516 
L 2900 3500 
L 3475 3500 
L 3475 0 
L 2900 0 
L 2900 538 
Q 2691 219 2414 64 
Q 2138 -91 1772 -91 
Q 1169 -91 856 284 
Q 544 659 544 1381 
z
M 1991 3584 
L 1991 3584 
z
" transform="scale(0.015625)"/>
       <path id="DejaVuSans-70" d="M 1159 525 
L 1159 -1331 
L 581 -1331 
L 581 3500 
L 1159 3500 
L 1159 2969 
Q 1341 3281 1617 3432 
Q 1894 3584 2278 3584 
Q 2916 3584 3314 3078 
Q 3713 2572 3713 1747 
Q 3713 922 3314 415 
Q 2916 -91 2278 -91 
Q 1894 -91 1617 61 
Q 1341 213 1159 525 
z
M 3116 1747 
Q 3116 2381 2855 2742 
Q 2594 3103 2138 3103 
Q 1681 3103 1420 2742 
Q 1159 2381 1159 1747 
Q 1159 1113 1420 752 
Q 1681 391 2138 391 
Q 2594 391 2855 752 
Q 3116 1113 3116 1747 
z
" transform="scale(0.015625)"/>
       <path id="DejaVuSans-76" d="M 191 3500 
L 800 3500 
L 1894 563 
L 2988 3500 
L 3597 3500 
L 2284 0 
L 1503 0 
L 191 3500 
z
" transform="scale(0.015625)"/>
       <path id="DejaVuSans-28" d="M 1984 4856 
Q 1566 4138 1362 3434 
Q 1159 2731 1159 2009 
Q 1159 1288 1364 580 
Q 1569 -128 1984 -844 
L 1484 -844 
Q 1016 -109 783 600 
Q 550 1309 550 2009 
Q 550 2706 781 3412 
Q 1013 4119 1484 4856 
L 1984 4856 
z
" transform="scale(0.015625)"/>
       <path id="DejaVuSans-6d" d="M 3328 2828 
Q 3544 3216 3844 3400 
Q 4144 3584 4550 3584 
Q 5097 3584 5394 3201 
Q 5691 2819 5691 2113 
L 5691 0 
L 5113 0 
L 5113 2094 
Q 5113 2597 4934 2840 
Q 4756 3084 4391 3084 
Q 3944 3084 3684 2787 
Q 3425 2491 3425 1978 
L 3425 0 
L 2847 0 
L 2847 2094 
Q 2847 2600 2669 2842 
Q 2491 3084 2119 3084 
Q 1678 3084 1418 2786 
Q 1159 2488 1159 1978 
L 1159 0 
L 581 0 
L 581 3500 
L 1159 3500 
L 1159 2956 
Q 1356 3278 1631 3431 
Q 1906 3584 2284 3584 
Q 2666 3584 2933 3390 
Q 3200 3197 3328 2828 
z
" transform="scale(0.015625)"/>
       <path id="DejaVuSans-56" d="M 1831 0 
L 50 4666 
L 709 4666 
L 2188 738 
L 3669 4666 
L 4325 4666 
L 2547 0 
L 1831 0 
z
" transform="scale(0.015625)"/>
       <path id="DejaVuSans-29" d="M 513 4856 
L 1013 4856 
Q 1481 4119 1714 3412 
Q 1947 2706 1947 2009 
Q 1947 1309 1714 600 
Q 1481 -109 1013 -844 
L 513 -844 
Q 928 -128 1133 580 
Q 1338 1288 1338 2009 
Q 1338 2731 1133 3434 
Q 928 4138 513 4856 
z
" transform="scale(0.015625)"/>
      </defs>
      <use xlink:href="#DejaVuSans-4f"/>
      <use xlink:href="#DejaVuSans-75" transform="translate(78.710938 0)"/>
      <use xlink:href="#DejaVuSans-74" transform="translate(142.089844 0)"/>
      <use xlink:href="#DejaVuSans-70" transform="translate(181.298828 0)"/>
      <use xlink:href="#DejaVuSans-75" transform="translate(244.775391 0)"/>
      <use xlink:href="#DejaVuSans-74" transform="translate(308.154297 0)"/>
      <use xlink:href="#DejaVuSans-20" transform="translate(347.363281 0)"/>
      <use xlink:href="#DejaVuSans-76" transform="translate(379.150391 0)"/>
      <use xlink:href="#DejaVuSans-6f" transform="translate(438.330078 0)"/>
      <use xlink:href="#DejaVuSans-6c" transform="translate(499.511719 0)"/>
      <use xlink:href="#DejaVuSans-74" transform="translate(527.294922 0)"/>
      <use xlink:href="#DejaVuSans-61" transform="translate(566.503906 0)"/>
      <use xlink:href="#DejaVuSans-67" transform="translate(627.783203 0)"/>
      <use xlink:href="#DejaVuSans-65" transform="translate(691.259766 0)"/>
      <use xlink:href="#DejaVuSans-20" transform="translate(752.783203 0)"/>
      <use xlink:href="#DejaVuSans-28" transform="translate(784.570312 0)"/>
      <use xlink:href="#DejaVuSans-6d" transform="translate(823.583984 0)"/>
      <use xlink:href="#DejaVuSans-56" transform="translate(920.996094 0)"/>
      <use xlink:href="#DejaVuSans-29" transform="translate(989.404297 0)"/>
     </g>
    </g>
   </g>
   <g id="line2d_25">
    <path d="M 103.827273 246.24 
L 105.617647 246.24 
L 105.617647 245.449412 
L 107.408021 245.449412 
L 107.408021 244.658824 
L 109.198396 244.658824 
L 109.198396 243.868235 
L 110.98877 243.868235 
L 110.98877 243.077647 
L 112.779144 243.077647 
L 112.779144 242.287059 
L 114.569519 242.287059 
L 114.569519 241.496471 
L 116.359893 241.496471 
L 116.359893 240.705882 
L 118.150267 240.705882 
L 118.150267 239.915294 
L 119.940642 239.915294 
L 119.940642 239.124706 
L 121.731016 239.124706 
L 121.731016 238.334118 
L 123.52139 238.334118 
L 123.52139 237.543529 
L 125.311765 237.543529 
L 125.311765 236.752941 
L 127.102139 236.752941 
L 127.102139 235.962353 
L 128.892513 235.962353 
L 128.892513 235.171765 
L 130.682888 235.171765 
L 130.682888 234.381176 
L 132.473262 234.381176 
L 132.473262 233.590588 
L 134.263636 233.590588 
L 134.263636 232.8 
L 136.054011 232.8 
L 136.054011 232.009412 
L 137.844385 232.009412 
L 137.844385 231.218824 
L 139.634759 231.218824 
L 139.634759 230.428235 
L 141.425134 230.428235 
L 141.425134 229.637647 
L 143.215508 229.637647 
L 143.215508 228.847059 
L 145.005882 228.847059 
L 145.005882 228.056471 
L 146.796257 228.056471 
L 146.796257 227.265882 
L 148.586631 227.265882 
L 148.586631 226.475294 
L 150.377005 226.475294 
L 150.377005 225.684706 
L 152.16738 225.684706 
L 152.16738 224.894118 
L 153.957754 224.894118 
L 153.957754 224.103529 
L 155.748128 224.103529 
L 155.748128 223.312941 
L 157.538503 223.312941 
L 157.538503 222.522353 
L 159.328877 222.522353 
L 159.328877 221.731765 
L 161.119251 221.731765 
L 161.119251 220.941176 
L 162.909626 220.941176 
L 162.909626 220.150588 
L 164.7 220.150588 
L 164.7 219.36 
L 166.490374 219.36 
L 166.490374 218.569412 
L 168.280749 218.569412 
L 168.280749 217.778824 
L 170.071123 217.778824 
L 170.071123 216.988235 
L 171.861497 216.988235 
L 171.861497 216.197647 
L 173.651872 216.197647 
L 173.651872 215.407059 
L 175.442246 215.407059 
L 175.442246 214.616471 
L 177.23262 214.616471 
L 177.23262 213.825882 
L 179.022995 213.825882 
L 179.022995 213.035294 
L 180.813369 213.035294 
L 180.813369 212.244706 
L 182.603743 212.244706 
L 182.603743 211.454118 
L 184.394118 211.454118 
L 184.394118 210.663529 
L 186.184492 210.663529 
L 186.184492 209.872941 
L 187.974866 209.872941 
L 187.974866 209.082353 
L 189.765241 209.082353 
L 189.765241 208.291765 
L 191.555615 208.291765 
L 191.555615 207.501176 
L 193.345989 207.501176 
L 193.345989 206.710588 
L 195.136364 206.710588 
L 195.136364 205.92 
L 196.926738 205.92 
L 196.926738 205.129412 
L 198.717112 205.129412 
L 198.717112 204.338824 
L 200.507487 204.338824 
L 200.507487 203.548235 
L 202.297861 203.548235 
L 202.297861 202.757647 
L 204.088235 202.757647 
L 204.088235 201.967059 
L 205.87861 201.967059 
L 205.87861 201.176471 
L 207.668984 201.176471 
L 207.668984 200.385882 
L 209.459358 200.385882 
L 209.459358 199.595294 
L 211.249733 199.595294 
L 211.249733 198.804706 
L 213.040107 198.804706 
L 213.040107 198.014118 
L 214.830481 198.014118 
L 214.830481 197.223529 
L 216.620856 197.223529 
L 216.620856 196.432941 
L 218.41123 196.432941 
L 218.41123 195.642353 
L 220.201604 195.642353 
L 220.201604 194.851765 
L 221.991979 194.851765 
L 221.991979 194.061176 
L 223.782353 194.061176 
L 223.782353 193.270588 
L 225.572727 193.270588 
L 225.572727 192.48 
L 227.363102 192.48 
L 227.363102 191.689412 
L 229.153476 191.689412 
L 229.153476 190.898824 
L 230.94385 190.898824 
L 230.94385 190.108235 
L 232.734225 190.108235 
L 232.734225 189.317647 
L 234.524599 189.317647 
L 234.524599 188.527059 
L 236.314973 188.527059 
L 236.314973 187.736471 
L 238.105348 187.736471 
L 238.105348 186.945882 
L 239.895722 186.945882 
L 239.895722 186.155294 
L 241.686096 186.155294 
L 241.686096 185.364706 
L 243.476471 185.364706 
L 243.476471 184.574118 
L 245.266845 184.574118 
L 245.266845 183.783529 
L 247.057219 183.783529 
L 247.057219 182.992941 
L 248.847594 182.992941 
L 248.847594 182.202353 
L 250.637968 182.202353 
L 250.637968 181.411765 
L 252.428342 181.411765 
L 252.428342 180.621176 
L 254.218717 180.621176 
L 254.218717 179.830588 
L 256.009091 179.830588 
L 256.009091 179.04 
L 257.799465 179.04 
L 257.799465 178.249412 
L 259.58984 178.249412 
L 259.58984 177.458824 
L 261.380214 177.458824 
L 261.380214 176.668235 
L 263.170588 176.668235 
L 263.170588 175.877647 
L 264.960963 175.877647 
L 264.960963 175.087059 
L 266.751337 175.087059 
L 266.751337 174.296471 
L 268.541711 174.296471 
L 268.541711 173.505882 
L 270.332086 173.505882 
L 270.332086 172.715294 
L 272.12246 172.715294 
L 272.12246 171.924706 
L 273.912834 171.924706 
L 273.912834 171.134118 
L 275.703209 171.134118 
L 275.703209 170.343529 
L 277.493583 170.343529 
L 277.493583 169.552941 
L 279.283957 169.552941 
L 279.283957 168.762353 
L 281.074332 168.762353 
L 281.074332 167.971765 
L 282.864706 167.971765 
L 282.864706 167.181176 
L 284.65508 167.181176 
L 284.65508 166.390588 
L 286.445455 166.390588 
L 286.445455 165.6 
L 288.235829 165.6 
L 288.235829 164.809412 
L 290.026203 164.809412 
L 290.026203 164.018824 
L 291.816578 164.018824 
L 291.816578 163.228235 
L 293.606952 163.228235 
L 293.606952 162.437647 
L 295.397326 162.437647 
L 295.397326 161.647059 
L 297.187701 161.647059 
L 297.187701 160.856471 
L 298.978075 160.856471 
L 298.978075 160.065882 
L 300.768449 160.065882 
L 300.768449 159.275294 
L 302.558824 159.275294 
L 302.558824 158.484706 
L 304.349198 158.484706 
L 304.349198 157.694118 
L 306.139572 157.694118 
L 306.139572 156.903529 
L 307.929947 156.903529 
L 307.929947 156.112941 
L 309.720321 156.112941 
L 309.720321 155.322353 
L 311.510695 155.322353 
L 311.510695 154.531765 
L 313.30107 154.531765 
L 313.30107 153.741176 
L 315.091444 153.741176 
L 315.091444 152.950588 
L 316.881818 152.950588 
L 316.881818 152.16 
L 318.672193 152.16 
L 318.672193 151.369412 
L 320.462567 151.369412 
L 320.462567 150.578824 
L 322.252941 150.578824 
L 322.252941 149.788235 
L 324.043316 149.788235 
L 324.043316 148.997647 
L 325.83369 148.997647 
L 325.83369 148.207059 
L 327.624064 148.207059 
L 327.624064 147.416471 
L 329.414439 147.416471 
L 329.414439 146.625882 
L 331.204813 146.625882 
L 331.204813 145.835294 
L 332.995187 145.835294 
L 332.995187 145.044706 
L 334.785561 145.044706 
L 334.785561 144.254118 
L 336.575936 144.254118 
L 336.575936 143.463529 
L 338.36631 143.463529 
L 338.36631 142.672941 
L 340.156684 142.672941 
L 340.156684 141.882353 
L 341.947059 141.882353 
L 341.947059 141.091765 
L 343.737433 141.091765 
L 343.737433 140.301176 
L 345.527807 140.301176 
L 345.527807 139.510588 
L 347.318182 139.510588 
L 347.318182 138.72 
L 349.108556 138.72 
L 349.108556 137.929412 
L 350.89893 137.929412 
L 350.89893 137.138824 
L 352.689305 137.138824 
L 352.689305 136.348235 
L 354.479679 136.348235 
L 354.479679 135.557647 
L 356.270053 135.557647 
L 356.270053 134.767059 
L 358.060428 134.767059 
L 358.060428 133.976471 
L 359.850802 133.976471 
L 359.850802 133.185882 
L 361.641176 133.185882 
L 361.641176 132.395294 
L 363.431551 132.395294 
L 363.431551 131.604706 
L 365.221925 131.604706 
L 365.221925 130.814118 
L 367.012299 130.814118 
L 367.012299 130.023529 
L 368.802674 130.023529 
L 368.802674 129.232941 
L 370.593048 129.232941 
L 370.593048 128.442353 
L 372.383422 128.442353 
L 372.383422 127.651765 
L 374.173797 127.651765 
L 374.173797 126.861176 
L 375.964171 126.861176 
L 375.964171 126.070588 
L 377.754545 126.070588 
L 377.754545 125.28 
L 379.54492 125.28 
L 379.54492 124.489412 
L 381.335294 124.489412 
L 381.335294 123.698824 
L 383.125668 123.698824 
L 383.125668 122.908235 
L 384.916043 122.908235 
L 384.916043 122.117647 
L 386.706417 122.117647 
L 386.706417 121.327059 
L 388.496791 121.327059 
L 388.496791 120.536471 
L 390.287166 120.536471 
L 390.287166 119.745882 
L 392.07754 119.745882 
L 392.07754 118.955294 
L 393.867914 118.955294 
L 393.867914 118.164706 
L 395.658289 118.164706 
L 395.658289 117.374118 
L 397.448663 117.374118 
L 397.448663 116.583529 
L 399.239037 116.583529 
L 399.239037 115.792941 
L 401.029412 115.792941 
L 401.029412 115.002353 
L 402.819786 115.002353 
L 402.819786 114.211765 
L 404.61016 114.211765 
L 404.61016 113.421176 
L 406.400535 113.421176 
L 406.400535 112.630588 
L 408.190909 112.630588 
L 408.190909 111.84 
L 409.981283 111.84 
L 409.981283 111.049412 
L 411.771658 111.049412 
L 411.771658 110.258824 
L 413.562032 110.258824 
L 413.562032 109.468235 
L 415.352406 109.468235 
L 415.352406 108.677647 
L 417.142781 108.677647 
L 417.142781 107.887059 
L 418.933155 107.887059 
L 418.933155 107.096471 
L 420.723529 107.096471 
L 420.723529 106.305882 
L 422.513904 106.305882 
L 422.513904 105.515294 
L 424.304278 105.515294 
L 424.304278 104.724706 
L 426.094652 104.724706 
L 426.094652 103.934118 
L 427.885027 103.934118 
L 427.885027 103.143529 
L 429.675401 103.143529 
L 429.675401 102.352941 
L 431.465775 102.352941 
L 431.465775 101.562353 
L 433.25615 101.562353 
L 433.25615 100.771765 
L 435.046524 100.771765 
L 435.046524 99.981176 
L 436.836898 99.981176 
L 436.836898 99.190588 
L 438.627273 99.190588 
L 438.627273 98.4 
L 440.417647 98.4 
L 440.417647 97.609412 
L 442.208021 97.609412 
L 442.208021 96.818824 
L 443.998396 96.818824 
L 443.998396 96.028235 
L 445.78877 96.028235 
L 445.78877 95.237647 
L 447.579144 95.237647 
L 447.579144 94.447059 
L 449.369519 94.447059 
L 449.369519 93.656471 
L 451.159893 93.656471 
L 451.159893 92.865882 
L 452.950267 92.865882 
L 452.950267 92.075294 
L 454.740642 92.075294 
L 454.740642 91.284706 
L 456.531016 91.284706 
L 456.531016 90.494118 
L 458.32139 90.494118 
L 458.32139 89.703529 
L 460.111765 89.703529 
L 460.111765 88.912941 
L 461.902139 88.912941 
L 461.902139 88.122353 
L 463.692513 88.122353 
L 463.692513 87.331765 
L 465.482888 87.331765 
L 465.482888 86.541176 
L 467.273262 86.541176 
L 467.273262 85.750588 
L 469.063636 85.750588 
L 469.063636 84.96 
L 470.854011 84.96 
L 470.854011 84.169412 
L 472.644385 84.169412 
L 472.644385 83.378824 
L 474.434759 83.378824 
L 474.434759 82.588235 
L 476.225134 82.588235 
L 476.225134 81.797647 
L 478.015508 81.797647 
L 478.015508 81.007059 
L 479.805882 81.007059 
L 479.805882 80.216471 
L 481.596257 80.216471 
L 481.596257 79.425882 
L 483.386631 79.425882 
L 483.386631 78.635294 
L 485.177005 78.635294 
L 485.177005 77.844706 
L 486.96738 77.844706 
L 486.96738 77.054118 
L 488.757754 77.054118 
L 488.757754 76.263529 
L 490.548128 76.263529 
L 490.548128 75.472941 
L 492.338503 75.472941 
L 492.338503 74.682353 
L 494.128877 74.682353 
L 494.128877 73.891765 
L 495.919251 73.891765 
L 495.919251 73.101176 
L 497.709626 73.101176 
L 497.709626 72.310588 
L 499.5 72.310588 
L 499.5 71.52 
L 501.290374 71.52 
L 501.290374 70.729412 
L 503.080749 70.729412 
L 503.080749 69.938824 
L 504.871123 69.938824 
L 504.871123 69.148235 
L 506.661497 69.148235 
L 506.661497 68.357647 
L 508.451872 68.357647 
L 508.451872 67.567059 
L 510.242246 67.567059 
L 510.242246 66.776471 
L 512.03262 66.776471 
L 512.03262 65.985882 
L 513.822995 65.985882 
L 513.822995 65.195294 
L 515.613369 65.195294 
L 515.613369 64.404706 
L 517.403743 64.404706 
L 517.403743 63.614118 
L 519.194118 63.614118 
L 519.194118 62.823529 
L 520.984492 62.823529 
L 520.984492 62.032941 
L 522.774866 62.032941 
L 522.774866 61.242353 
L 524.565241 61.242353 
L 524.565241 60.451765 
L 526.355615 60.451765 
L 526.355615 59.661176 
L 528.145989 59.661176 
L 528.145989 58.870588 
L 529.936364 58.870588 
L 529.936364 58.08 
L 531.726738 58.08 
L 531.726738 57.289412 
L 533.517112 57.289412 
L 533.517112 56.498824 
L 535.307487 56.498824 
L 535.307487 55.708235 
L 537.097861 55.708235 
L 537.097861 54.917647 
L 538.888235 54.917647 
L 538.888235 54.127059 
L 540.67861 54.127059 
L 540.67861 53.336471 
L 542.468984 53.336471 
L 542.468984 52.545882 
L 544.259358 52.545882 
L 544.259358 51.755294 
L 546.049733 51.755294 
L 546.049733 50.964706 
L 547.840107 50.964706 
L 547.840107 50.174118 
L 549.630481 50.174118 
L 549.630481 49.383529 
L 551.420856 49.383529 
L 551.420856 48.592941 
L 553.21123 48.592941 
L 553.21123 47.802353 
L 555.001604 47.802353 
L 555.001604 47.011765 
L 556.791979 47.011765 
L 556.791979 46.221176 
L 558.582353 46.221176 
L 558.582353 45.430588 
L 560.372727 45.430588 
L 560.372727 44.64 
L 560.372727 44.64 
" clip-path="url(#p3b4e6106e5)" style="fill: none; stroke: #4682b4; stroke-opacity: 0.85; stroke-linecap: square"/>
   </g>
   <g id="line2d_26">
    <path d="M 103.827273 246.24 
L 105.617647 246.24 
L 105.617647 245.444004 
L 107.408021 245.444004 
L 107.408021 244.66935 
L 109.198396 244.66935 
L 109.198396 243.873354 
L 110.98877 243.873354 
L 110.98877 243.041866 
L 112.779144 243.041866 
L 112.779144 242.24587 
L 114.569519 242.24587 
L 114.569519 241.471216 
L 116.359893 241.471216 
L 116.359893 240.67522 
L 118.150267 240.67522 
L 118.150267 239.831662 
L 119.940642 239.831662 
L 119.940642 239.035666 
L 121.731016 239.035666 
L 121.731016 238.261012 
L 123.52139 238.261012 
L 123.52139 237.465016 
L 125.311765 237.465016 
L 125.311765 236.633528 
L 127.102139 236.633528 
L 127.102139 235.837532 
L 128.892513 235.837532 
L 128.892513 235.062878 
L 130.682888 235.062878 
L 130.682888 234.266882 
L 132.473262 234.266882 
L 132.473262 233.790479 
L 134.263636 233.790479 
L 134.263636 232.994482 
L 136.054011 232.994482 
L 136.054011 232.219829 
L 137.844385 232.219829 
L 137.844385 231.423832 
L 139.634759 231.423832 
L 139.634759 230.592345 
L 141.425134 230.592345 
L 141.425134 229.796348 
L 143.215508 229.796348 
L 143.215508 229.021695 
L 145.005882 229.021695 
L 145.005882 228.225698 
L 146.796257 228.225698 
L 146.796257 227.382141 
L 148.586631 227.382141 
L 148.586631 226.586145 
L 150.377005 226.586145 
L 150.377005 225.811491 
L 152.16738 225.811491 
L 152.16738 225.015495 
L 153.957754 225.015495 
L 153.957754 224.184007 
L 155.748128 224.184007 
L 155.748128 223.388011 
L 157.538503 223.388011 
L 157.538503 222.613357 
L 159.328877 222.613357 
L 159.328877 221.817361 
L 161.119251 221.817361 
L 161.119251 221.176183 
L 162.909626 221.176183 
L 162.909626 220.380187 
L 164.7 220.380187 
L 164.7 219.605533 
L 166.490374 219.605533 
L 166.490374 218.809537 
L 168.280749 218.809537 
L 168.280749 217.978049 
L 170.071123 217.978049 
L 170.071123 217.182053 
L 171.861497 217.182053 
L 171.861497 216.407399 
L 173.651872 216.407399 
L 173.651872 215.611403 
L 175.442246 215.611403 
L 175.442246 214.767846 
L 177.23262 214.767846 
L 177.23262 213.97185 
L 179.022995 213.97185 
L 179.022995 213.197196 
L 180.813369 213.197196 
L 180.813369 212.4012 
L 182.603743 212.4012 
L 182.603743 211.569712 
L 184.394118 211.569712 
L 184.394118 210.773716 
L 186.184492 210.773716 
L 186.184492 209.999062 
L 187.974866 209.999062 
L 187.974866 209.203066 
L 189.765241 209.203066 
L 189.765241 208.726662 
L 191.555615 208.726662 
L 191.555615 207.930666 
L 193.345989 207.930666 
L 193.345989 207.156012 
L 195.136364 207.156012 
L 195.136364 206.360016 
L 196.926738 206.360016 
L 196.926738 205.528528 
L 198.717112 205.528528 
L 198.717112 204.732532 
L 200.507487 204.732532 
L 200.507487 203.957878 
L 202.297861 203.957878 
L 202.297861 203.161882 
L 204.088235 203.161882 
L 204.088235 202.318324 
L 205.87861 202.318324 
L 205.87861 201.522328 
L 207.668984 201.522328 
L 207.668984 200.747674 
L 209.459358 200.747674 
L 209.459358 199.951678 
L 211.249733 199.951678 
L 211.249733 199.12019 
L 213.040107 199.12019 
L 213.040107 198.324194 
L 214.830481 198.324194 
L 214.830481 197.54954 
L 216.620856 197.54954 
L 216.620856 196.753544 
L 218.41123 196.753544 
L 218.41123 195.386074 
L 220.201604 195.386074 
L 220.201604 194.590078 
L 221.991979 194.590078 
L 221.991979 193.815424 
L 223.782353 193.815424 
L 223.782353 193.019428 
L 225.572727 193.019428 
L 225.572727 192.18794 
L 227.363102 192.18794 
L 227.363102 191.391944 
L 229.153476 191.391944 
L 229.153476 190.61729 
L 230.94385 190.61729 
L 230.94385 189.821294 
L 232.734225 189.821294 
L 232.734225 188.977736 
L 234.524599 188.977736 
L 234.524599 188.18174 
L 236.314973 188.18174 
L 236.314973 187.407086 
L 238.105348 187.407086 
L 238.105348 186.61109 
L 239.895722 186.61109 
L 239.895722 185.779602 
L 241.686096 185.779602 
L 241.686096 184.983606 
L 243.476471 184.983606 
L 243.476471 184.208952 
L 245.266845 184.208952 
L 245.266845 183.412956 
L 247.057219 183.412956 
L 247.057219 182.936552 
L 248.847594 182.936552 
L 248.847594 182.140556 
L 250.637968 182.140556 
L 250.637968 181.365902 
L 252.428342 181.365902 
L 252.428342 180.569906 
L 254.218717 180.569906 
L 254.218717 179.738418 
L 256.009091 179.738418 
L 256.009091 178.942422 
L 257.799465 178.942422 
L 257.799465 178.167768 
L 259.58984 178.167768 
L 259.58984 177.371772 
L 261.380214 177.371772 
L 261.380214 176.528215 
L 263.170588 176.528215 
L 263.170588 175.732219 
L 264.960963 175.732219 
L 264.960963 174.957565 
L 266.751337 174.957565 
L 266.751337 174.161569 
L 268.541711 174.161569 
L 268.541711 173.330081 
L 270.332086 173.330081 
L 270.332086 172.534085 
L 272.12246 172.534085 
L 272.12246 171.759431 
L 273.912834 171.759431 
L 273.912834 170.963435 
L 275.703209 170.963435 
L 275.703209 170.322257 
L 277.493583 170.322257 
L 277.493583 169.526261 
L 279.283957 169.526261 
L 279.283957 168.751607 
L 281.074332 168.751607 
L 281.074332 167.955611 
L 282.864706 167.955611 
L 282.864706 167.124123 
L 284.65508 167.124123 
L 284.65508 166.328127 
L 286.445455 166.328127 
L 286.445455 165.553473 
L 288.235829 165.553473 
L 288.235829 164.757477 
L 290.026203 164.757477 
L 290.026203 163.91392 
L 291.816578 163.91392 
L 291.816578 163.117923 
L 293.606952 163.117923 
L 293.606952 162.34327 
L 295.397326 162.34327 
L 295.397326 161.547273 
L 297.187701 161.547273 
L 297.187701 160.715786 
L 298.978075 160.715786 
L 298.978075 159.91979 
L 300.768449 159.91979 
L 300.768449 159.145136 
L 302.558824 159.145136 
L 302.558824 158.34914 
L 304.349198 158.34914 
L 304.349198 157.872736 
L 306.139572 157.872736 
L 306.139572 157.07674 
L 307.929947 157.07674 
L 307.929947 156.302086 
L 309.720321 156.302086 
L 309.720321 155.50609 
L 311.510695 155.50609 
L 311.510695 154.674602 
L 313.30107 154.674602 
L 313.30107 153.878606 
L 315.091444 153.878606 
L 315.091444 153.103952 
L 316.881818 153.103952 
L 316.881818 152.307956 
L 318.672193 152.307956 
L 318.672193 151.464398 
L 320.462567 151.464398 
L 320.462567 150.668402 
L 322.252941 150.668402 
L 322.252941 149.893748 
L 324.043316 149.893748 
L 324.043316 149.097752 
L 325.83369 149.097752 
L 325.83369 148.266264 
L 327.624064 148.266264 
L 327.624064 147.470268 
L 329.414439 147.470268 
L 329.414439 146.695614 
L 331.204813 146.695614 
L 331.204813 145.899618 
L 332.995187 145.899618 
L 332.995187 144.983239 
L 334.785561 144.983239 
L 334.785561 144.187242 
L 336.575936 144.187242 
L 336.575936 143.412589 
L 338.36631 143.412589 
L 338.36631 142.616592 
L 340.156684 142.616592 
L 340.156684 141.785105 
L 341.947059 141.785105 
L 341.947059 140.989108 
L 343.737433 140.989108 
L 343.737433 140.214455 
L 345.527807 140.214455 
L 345.527807 139.418458 
L 347.318182 139.418458 
L 347.318182 138.574901 
L 349.108556 138.574901 
L 349.108556 137.778905 
L 350.89893 137.778905 
L 350.89893 137.004251 
L 352.689305 137.004251 
L 352.689305 136.208255 
L 354.479679 136.208255 
L 354.479679 135.376767 
L 356.270053 135.376767 
L 356.270053 134.580771 
L 358.060428 134.580771 
L 358.060428 133.806117 
L 359.850802 133.806117 
L 359.850802 133.010121 
L 361.641176 133.010121 
L 361.641176 132.533717 
L 363.431551 132.533717 
L 363.431551 131.737721 
L 365.221925 131.737721 
L 365.221925 130.963067 
L 367.012299 130.963067 
L 367.012299 130.167071 
L 368.802674 130.167071 
L 368.802674 129.335583 
L 370.593048 129.335583 
L 370.593048 128.539587 
L 372.383422 128.539587 
L 372.383422 127.764933 
L 374.173797 127.764933 
L 374.173797 126.968937 
L 375.964171 126.968937 
L 375.964171 126.125379 
L 377.754545 126.125379 
L 377.754545 125.329383 
L 379.54492 125.329383 
L 379.54492 124.554729 
L 381.335294 124.554729 
L 381.335294 123.758733 
L 383.125668 123.758733 
L 383.125668 122.927245 
L 384.916043 122.927245 
L 384.916043 122.131249 
L 386.706417 122.131249 
L 386.706417 121.356595 
L 388.496791 121.356595 
L 388.496791 120.560599 
L 390.287166 120.560599 
L 390.287166 119.919422 
L 392.07754 119.919422 
L 392.07754 119.123426 
L 393.867914 119.123426 
L 393.867914 118.348772 
L 395.658289 118.348772 
L 395.658289 117.552776 
L 397.448663 117.552776 
L 397.448663 116.721288 
L 399.239037 116.721288 
L 399.239037 115.925292 
L 401.029412 115.925292 
L 401.029412 115.150638 
L 402.819786 115.150638 
L 402.819786 114.354642 
L 404.61016 114.354642 
L 404.61016 113.511084 
L 406.400535 113.511084 
L 406.400535 112.715088 
L 408.190909 112.715088 
L 408.190909 111.940434 
L 409.981283 111.940434 
L 409.981283 111.144438 
L 411.771658 111.144438 
L 411.771658 110.31295 
L 413.562032 110.31295 
L 413.562032 109.516954 
L 415.352406 109.516954 
L 415.352406 108.7423 
L 417.142781 108.7423 
L 417.142781 107.946304 
L 418.933155 107.946304 
L 418.933155 107.4699 
L 420.723529 107.4699 
L 420.723529 106.673904 
L 422.513904 106.673904 
L 422.513904 105.89925 
L 424.304278 105.89925 
L 424.304278 105.103254 
L 426.094652 105.103254 
L 426.094652 104.271766 
L 427.885027 104.271766 
L 427.885027 103.47577 
L 429.675401 103.47577 
L 429.675401 102.701116 
L 431.465775 102.701116 
L 431.465775 101.90512 
L 433.25615 101.90512 
L 433.25615 101.061563 
L 435.046524 101.061563 
L 435.046524 100.265567 
L 436.836898 100.265567 
L 436.836898 99.490913 
L 438.627273 99.490913 
L 438.627273 98.694917 
L 440.417647 98.694917 
L 440.417647 97.863429 
L 442.208021 97.863429 
L 442.208021 97.067433 
L 443.998396 97.067433 
L 443.998396 96.292779 
L 445.78877 96.292779 
L 445.78877 95.496783 
L 447.579144 95.496783 
L 447.579144 94.129312 
L 449.369519 94.129312 
L 449.369519 93.333316 
L 451.159893 93.333316 
L 451.159893 92.558662 
L 452.950267 92.558662 
L 452.950267 91.762666 
L 454.740642 91.762666 
L 454.740642 90.931178 
L 456.531016 90.931178 
L 456.531016 90.135182 
L 458.32139 90.135182 
L 458.32139 89.360528 
L 460.111765 89.360528 
L 460.111765 88.564532 
L 461.902139 88.564532 
L 461.902139 87.720975 
L 463.692513 87.720975 
L 463.692513 86.924979 
L 465.482888 86.924979 
L 465.482888 86.150325 
L 467.273262 86.150325 
L 467.273262 85.354329 
L 469.063636 85.354329 
L 469.063636 84.522841 
L 470.854011 84.522841 
L 470.854011 83.726845 
L 472.644385 83.726845 
L 472.644385 82.952191 
L 474.434759 82.952191 
L 474.434759 82.156195 
L 476.225134 82.156195 
L 476.225134 81.679791 
L 478.015508 81.679791 
L 478.015508 80.883795 
L 479.805882 80.883795 
L 479.805882 80.109141 
L 481.596257 80.109141 
L 481.596257 79.313145 
L 483.386631 79.313145 
L 483.386631 78.481657 
L 485.177005 78.481657 
L 485.177005 77.685661 
L 486.96738 77.685661 
L 486.96738 76.911007 
L 488.757754 76.911007 
L 488.757754 76.115011 
L 490.548128 76.115011 
L 490.548128 75.271453 
L 492.338503 75.271453 
L 492.338503 74.475457 
L 494.128877 74.475457 
L 494.128877 73.700803 
L 495.919251 73.700803 
L 495.919251 72.904807 
L 497.709626 72.904807 
L 497.709626 72.073319 
L 499.5 72.073319 
L 499.5 71.277323 
L 501.290374 71.277323 
L 501.290374 70.502669 
L 503.080749 70.502669 
L 503.080749 69.706673 
L 504.871123 69.706673 
L 504.871123 69.065496 
L 506.661497 69.065496 
L 506.661497 68.2695 
L 508.451872 68.2695 
L 508.451872 67.494846 
L 510.242246 67.494846 
L 510.242246 66.69885 
L 512.03262 66.69885 
L 512.03262 65.867362 
L 513.822995 65.867362 
L 513.822995 65.071366 
L 515.613369 65.071366 
L 515.613369 64.296712 
L 517.403743 64.296712 
L 517.403743 63.500716 
L 519.194118 63.500716 
L 519.194118 62.657158 
L 520.984492 62.657158 
L 520.984492 61.861162 
L 522.774866 61.861162 
L 522.774866 61.086508 
L 524.565241 61.086508 
L 524.565241 60.290512 
L 526.355615 60.290512 
L 526.355615 59.459024 
L 528.145989 59.459024 
L 528.145989 58.663028 
L 529.936364 58.663028 
L 529.936364 57.888374 
L 531.726738 57.888374 
L 531.726738 57.092378 
L 533.517112 57.092378 
L 533.517112 56.615974 
L 535.307487 56.615974 
L 535.307487 55.819978 
L 537.097861 55.819978 
L 537.097861 55.045324 
L 538.888235 55.045324 
L 538.888235 54.249328 
L 540.67861 54.249328 
L 540.67861 53.41784 
L 542.468984 53.41784 
L 542.468984 52.621844 
L 544.259358 52.621844 
L 544.259358 51.84719 
L 546.049733 51.84719 
L 546.049733 51.051194 
L 547.840107 51.051194 
L 547.840107 50.207637 
L 549.630481 50.207637 
L 549.630481 49.41164 
L 551.420856 49.41164 
L 551.420856 48.636987 
L 553.21123 48.636987 
L 553.21123 47.840991 
L 555.001604 47.840991 
L 555.001604 47.009503 
L 556.791979 47.009503 
L 556.791979 46.213507 
L 558.582353 46.213507 
L 558.582353 45.438853 
L 560.372727 45.438853 
L 560.372727 44.642857 
L 560.372727 44.642857 
" clip-path="url(#p3b4e6106e5)" style="fill: none; stroke: #ff8c00; stroke-opacity: 0.85; stroke-linecap: square"/>
   </g>
   <g id="line2d_27">
    <path d="M 103.827273 246.24 
L 560.372727 44.64 
L 560.372727 44.64 
" clip-path="url(#p3b4e6106e5)" style="fill: none; stroke-dasharray: 2.96,1.28; stroke-dashoffset: 0; stroke: #ff6347; stroke-width: 0.8"/>
   </g>
   <g id="patch_3">
    <path d="M 81 256.32 
L 81 34.56 
" style="fill: none; stroke: #000000; stroke-width: 0.8; stroke-linejoin: miter; stroke-linecap: square"/>
   </g>
   <g id="patch_4">
    <path d="M 583.2 256.32 
L 583.2 34.56 
" style="fill: none; stroke: #000000; stroke-width: 0.8; stroke-linejoin: miter; stroke-linecap: square"/>
   </g>
   <g id="patch_5">
    <path d="M 81 256.32 
L 583.2 256.32 
" style="fill: none; stroke: #000000; stroke-width: 0.8; stroke-linejoin: miter; stroke-linecap: square"/>
   </g>
   <g id="patch_6">
    <path d="M 81 34.56 
L 583.2 34.56 
" style="fill: none; stroke: #000000; stroke-width: 0.8; stroke-linejoin: miter; stroke-linecap: square"/>
   </g>
   <g id="patch_7">
    <path d="M 354.479679 135.952941 
L 372.383422 135.952941 
L 372.383422 127.256471 
L 354.479679 127.256471 
L 354.479679 135.952941 
z
" clip-path="url(#p3b4e6106e5)" style="fill: none; stroke-dasharray: 3.7,1.6; stroke-dashoffset: 0; stroke: #000000; stroke-linejoin: miter"/>
   </g>
   <g id="patch_8">
    <path d="M 364.905864 128.60885 
Q 385.432117 147.437466 405.299245 165.661471 
" style="fill: none; stroke: #000000; stroke-width: 0.8; stroke-linecap: round"/>
    <path d="M 403.703503 161.48372 
L 405.299245 165.661471 
L 400.999599 164.431414 
" style="fill: none; stroke: #000000; stroke-width: 0.8; stroke-linecap: round"/>
   </g>
   <g id="text_15">
    <!-- Voltage Transfer Curve (VTC) -->
    <g transform="translate(245.76 28.56) scale(0.12 -0.12)">
     <defs>
      <path id="DejaVuSans-54" d="M -19 4666 
L 3928 4666 
L 3928 4134 
L 2272 4134 
L 2272 0 
L 1638 0 
L 1638 4134 
L -19 4134 
L -19 4666 
z
" transform="scale(0.015625)"/>
      <path id="DejaVuSans-72" d="M 2631 2963 
Q 2534 3019 2420 3045 
Q 2306 3072 2169 3072 
Q 1681 3072 1420 2755 
Q 1159 2438 1159 1844 
L 1159 0 
L 581 0 
L 581 3500 
L 1159 3500 
L 1159 2956 
Q 1341 3275 1631 3429 
Q 1922 3584 2338 3584 
Q 2397 3584 2469 3576 
Q 2541 3569 2628 3553 
L 2631 2963 
z
" transform="scale(0.015625)"/>
      <path id="DejaVuSans-6e" d="M 3513 2113 
L 3513 0 
L 2938 0 
L 2938 2094 
Q 2938 2591 2744 2837 
Q 2550 3084 2163 3084 
Q 1697 3084 1428 2787 
Q 1159 2491 1159 1978 
L 1159 0 
L 581 0 
L 581 3500 
L 1159 3500 
L 1159 2956 
Q 1366 3272 1645 3428 
Q 1925 3584 2291 3584 
Q 2894 3584 3203 3211 
Q 3513 2838 3513 2113 
z
" transform="scale(0.015625)"/>
      <path id="DejaVuSans-73" d="M 2834 3397 
L 2834 2853 
Q 2591 2978 2328 3040 
Q 2066 3103 1784 3103 
Q 1356 3103 1142 2972 
Q 928 2841 928 2578 
Q 928 2378 1081 2264 
Q 1234 2150 1697 2047 
L 1894 2003 
Q 2506 1872 2764 1633 
Q 3022 1394 3022 966 
Q 3022 478 2636 193 
Q 2250 -91 1575 -91 
Q 1294 -91 989 -36 
Q 684 19 347 128 
L 347 722 
Q 666 556 975 473 
Q 1284 391 1588 391 
Q 1994 391 2212 530 
Q 2431 669 2431 922 
Q 2431 1156 2273 1281 
Q 2116 1406 1581 1522 
L 1381 1569 
Q 847 1681 609 1914 
Q 372 2147 372 2553 
Q 372 3047 722 3315 
Q 1072 3584 1716 3584 
Q 2034 3584 2315 3537 
Q 2597 3491 2834 3397 
z
" transform="scale(0.015625)"/>
      <path id="DejaVuSans-66" d="M 2375 4863 
L 2375 4384 
L 1825 4384 
Q 1516 4384 1395 4259 
Q 1275 4134 1275 3809 
L 1275 3500 
L 2222 3500 
L 2222 3053 
L 1275 3053 
L 1275 0 
L 697 0 
L 697 3053 
L 147 3053 
L 147 3500 
L 697 3500 
L 697 3744 
Q 697 4328 969 4595 
Q 1241 4863 1831 4863 
L 2375 4863 
z
" transform="scale(0.015625)"/>
      <path id="DejaVuSans-43" d="M 4122 4306 
L 4122 3641 
Q 3803 3938 3442 4084 
Q 3081 4231 2675 4231 
Q 1875 4231 1450 3742 
Q 1025 3253 1025 2328 
Q 1025 1406 1450 917 
Q 1875 428 2675 428 
Q 3081 428 3442 575 
Q 3803 722 4122 1019 
L 4122 359 
Q 3791 134 3420 21 
Q 3050 -91 2638 -91 
Q 1578 -91 968 557 
Q 359 1206 359 2328 
Q 359 3453 968 4101 
Q 1578 4750 2638 4750 
Q 3056 4750 3426 4639 
Q 3797 4528 4122 4306 
z
" transform="scale(0.015625)"/>
     </defs>
     <use xlink:href="#DejaVuSans-56"/>
     <use xlink:href="#DejaVuSans-6f" transform="translate(60.658203 0)"/>
     <use xlink:href="#DejaVuSans-6c" transform="translate(121.839844 0)"/>
     <use xlink:href="#DejaVuSans-74" transform="translate(149.623047 0)"/>
     <use xlink:href="#DejaVuSans-61" transform="translate(188.832031 0)"/>
     <use xlink:href="#DejaVuSans-67" transform="translate(250.111328 0)"/>
     <use xlink:href="#DejaVuSans-65" transform="translate(313.587891 0)"/>
     <use xlink:href="#DejaVuSans-20" transform="translate(375.111328 0)"/>
     <use xlink:href="#DejaVuSans-54" transform="translate(406.898438 0)"/>
     <use xlink:href="#DejaVuSans-72" transform="translate(453.232422 0)"/>
     <use xlink:href="#DejaVuSans-61" transform="translate(494.345703 0)"/>
     <use xlink:href="#DejaVuSans-6e" transform="translate(555.625 0)"/>
     <use xlink:href="#DejaVuSans-73" transform="translate(619.003906 0)"/>
     <use xlink:href="#DejaVuSans-66" transform="translate(671.103516 0)"/>
     <use xlink:href="#DejaVuSans-65" transform="translate(706.308594 0)"/>
     <use xlink:href="#DejaVuSans-72" transform="translate(767.832031 0)"/>
     <use xlink:href="#DejaVuSans-20" transform="translate(808.945312 0)"/>
     <use xlink:href="#DejaVuSans-43" transform="translate(840.732422 0)"/>
     <use xlink:href="#DejaVuSans-75" transform="translate(910.556641 0)"/>
     <use xlink:href="#DejaVuSans-72" transform="translate(973.935547 0)"/>
     <use xlink:href="#DejaVuSans-76" transform="translate(1015.048828 0)"/>
     <use xlink:href="#DejaVuSans-65" transform="translate(1074.228516 0)"/>
     <use xlink:href="#DejaVuSans-20" transform="translate(1135.751953 0)"/>
     <use xlink:href="#DejaVuSans-28" transform="translate(1167.539062 0)"/>
     <use xlink:href="#DejaVuSans-56" transform="translate(1206.552734 0)"/>
     <use xlink:href="#DejaVuSans-54" transform="translate(1274.960938 0)"/>
     <use xlink:href="#DejaVuSans-43" transform="translate(1330.169922 0)"/>
     <use xlink:href="#DejaVuSans-29" transform="translate(1399.994141 0)"/>
    </g>
   </g>
   <g id="axes_2">
    <g id="patch_9">
     <path d="M 432.54 223.056 
L 532.98 223.056 
L 532.98 112.176 
L 432.54 112.176 
z
" style="fill: #ffffff"/>
    </g>
    <g id="matplotlib.axis_3">
     <g id="xtick_7">
      <g id="line2d_28">
       <path d="M 432.54 223.056 
L 432.54 112.176 
" clip-path="url(#pf1be3f8cf7)" style="fill: none; stroke: #b0b0b0; stroke-width: 0.25; stroke-linecap: square"/>
      </g>
      <g id="line2d_29">
       <g>
        <use xlink:href="#mbddb411eb6" x="432.54" y="223.056" style="stroke: #000000; stroke-width: 0.8"/>
       </g>
      </g>
      <g id="text_16">
       <!-- 140 -->
       <g transform="translate(427.768125 233.855219) scale(0.05 -0.05)">
        <use xlink:href="#DejaVuSans-31"/>
        <use xlink:href="#DejaVuSans-34" transform="translate(63.623047 0)"/>
        <use xlink:href="#DejaVuSans-30" transform="translate(127.246094 0)"/>
       </g>
      </g>
     </g>
     <g id="xtick_8">
      <g id="line2d_30">
       <path d="M 452.628 223.056 
L 452.628 112.176 
" clip-path="url(#pf1be3f8cf7)" style="fill: none; stroke: #b0b0b0; stroke-width: 0.25; stroke-linecap: square"/>
      </g>
      <g id="line2d_31">
       <g>
        <use xlink:href="#mbddb411eb6" x="452.628" y="223.056" style="stroke: #000000; stroke-width: 0.8"/>
       </g>
      </g>
      <g id="text_17">
       <!-- 142 -->
       <g transform="translate(447.856125 233.855219) scale(0.05 -0.05)">
        <use xlink:href="#DejaVuSans-31"/>
        <use xlink:href="#DejaVuSans-34" transform="translate(63.623047 0)"/>
        <use xlink:href="#DejaVuSans-32" transform="translate(127.246094 0)"/>
       </g>
      </g>
     </g>
     <g id="xtick_9">
      <g id="line2d_32">
       <path d="M 472.716 223.056 
L 472.716 112.176 
" clip-path="url(#pf1be3f8cf7)" style="fill: none; stroke: #b0b0b0; stroke-width: 0.25; stroke-linecap: square"/>
      </g>
      <g id="line2d_33">
       <g>
        <use xlink:href="#mbddb411eb6" x="472.716" y="223.056" style="stroke: #000000; stroke-width: 0.8"/>
       </g>
      </g>
      <g id="text_18">
       <!-- 144 -->
       <g transform="translate(467.944125 233.855219) scale(0.05 -0.05)">
        <use xlink:href="#DejaVuSans-31"/>
        <use xlink:href="#DejaVuSans-34" transform="translate(63.623047 0)"/>
        <use xlink:href="#DejaVuSans-34" transform="translate(127.246094 0)"/>
       </g>
      </g>
     </g>
     <g id="xtick_10">
      <g id="line2d_34">
       <path d="M 492.804 223.056 
L 492.804 112.176 
" clip-path="url(#pf1be3f8cf7)" style="fill: none; stroke: #b0b0b0; stroke-width: 0.25; stroke-linecap: square"/>
      </g>
      <g id="line2d_35">
       <g>
        <use xlink:href="#mbddb411eb6" x="492.804" y="223.056" style="stroke: #000000; stroke-width: 0.8"/>
       </g>
      </g>
      <g id="text_19">
       <!-- 146 -->
       <g transform="translate(488.032125 233.855219) scale(0.05 -0.05)">
        <use xlink:href="#DejaVuSans-31"/>
        <use xlink:href="#DejaVuSans-34" transform="translate(63.623047 0)"/>
        <use xlink:href="#DejaVuSans-36" transform="translate(127.246094 0)"/>
       </g>
      </g>
     </g>
     <g id="xtick_11">
      <g id="line2d_36">
       <path d="M 512.892 223.056 
L 512.892 112.176 
" clip-path="url(#pf1be3f8cf7)" style="fill: none; stroke: #b0b0b0; stroke-width: 0.25; stroke-linecap: square"/>
      </g>
      <g id="line2d_37">
       <g>
        <use xlink:href="#mbddb411eb6" x="512.892" y="223.056" style="stroke: #000000; stroke-width: 0.8"/>
       </g>
      </g>
      <g id="text_20">
       <!-- 148 -->
       <g transform="translate(508.120125 233.855219) scale(0.05 -0.05)">
        <use xlink:href="#DejaVuSans-31"/>
        <use xlink:href="#DejaVuSans-34" transform="translate(63.623047 0)"/>
        <use xlink:href="#DejaVuSans-38" transform="translate(127.246094 0)"/>
       </g>
      </g>
     </g>
     <g id="xtick_12">
      <g id="line2d_38">
       <path d="M 532.98 223.056 
L 532.98 112.176 
" clip-path="url(#pf1be3f8cf7)" style="fill: none; stroke: #b0b0b0; stroke-width: 0.25; stroke-linecap: square"/>
      </g>
      <g id="line2d_39">
       <g>
        <use xlink:href="#mbddb411eb6" x="532.98" y="223.056" style="stroke: #000000; stroke-width: 0.8"/>
       </g>
      </g>
      <g id="text_21">
       <!-- 150 -->
       <g transform="translate(528.208125 233.855219) scale(0.05 -0.05)">
        <use xlink:href="#DejaVuSans-31"/>
        <use xlink:href="#DejaVuSans-35" transform="translate(63.623047 0)"/>
        <use xlink:href="#DejaVuSans-30" transform="translate(127.246094 0)"/>
       </g>
      </g>
     </g>
     <g id="text_22">
      <!-- Code -->
      <g transform="translate(475.079062 243.454125) scale(0.06 -0.06)">
       <use xlink:href="#DejaVuSans-43"/>
       <use xlink:href="#DejaVuSans-6f" transform="translate(69.824219 0)"/>
       <use xlink:href="#DejaVuSans-64" transform="translate(131.005859 0)"/>
       <use xlink:href="#DejaVuSans-65" transform="translate(194.482422 0)"/>
      </g>
     </g>
    </g>
    <g id="matplotlib.axis_4">
     <g id="ytick_7">
      <g id="line2d_40">
       <path d="M 432.54 222.8544 
L 532.98 222.8544 
" clip-path="url(#pf1be3f8cf7)" style="fill: none; stroke: #b0b0b0; stroke-width: 0.25; stroke-linecap: square"/>
      </g>
      <g id="line2d_41">
       <g>
        <use xlink:href="#m2df36bc804" x="432.54" y="222.8544" style="stroke: #000000; stroke-width: 0.8"/>
       </g>
      </g>
      <g id="text_23">
       <!-- 545 -->
       <g transform="translate(415.99625 224.754009) scale(0.05 -0.05)">
        <use xlink:href="#DejaVuSans-35"/>
        <use xlink:href="#DejaVuSans-34" transform="translate(63.623047 0)"/>
        <use xlink:href="#DejaVuSans-35" transform="translate(127.246094 0)"/>
       </g>
      </g>
     </g>
     <g id="ytick_8">
      <g id="line2d_42">
       <path d="M 432.54 209.952 
L 532.98 209.952 
" clip-path="url(#pf1be3f8cf7)" style="fill: none; stroke: #b0b0b0; stroke-width: 0.25; stroke-linecap: square"/>
      </g>
      <g id="line2d_43">
       <g>
        <use xlink:href="#m2df36bc804" x="432.54" y="209.952" style="stroke: #000000; stroke-width: 0.8"/>
       </g>
      </g>
      <g id="text_24">
       <!-- 550 -->
       <g transform="translate(415.99625 211.851609) scale(0.05 -0.05)">
        <use xlink:href="#DejaVuSans-35"/>
        <use xlink:href="#DejaVuSans-35" transform="translate(63.623047 0)"/>
        <use xlink:href="#DejaVuSans-30" transform="translate(127.246094 0)"/>
       </g>
      </g>
     </g>
     <g id="ytick_9">
      <g id="line2d_44">
       <path d="M 432.54 197.0496 
L 532.98 197.0496 
" clip-path="url(#pf1be3f8cf7)" style="fill: none; stroke: #b0b0b0; stroke-width: 0.25; stroke-linecap: square"/>
      </g>
      <g id="line2d_45">
       <g>
        <use xlink:href="#m2df36bc804" x="432.54" y="197.0496" style="stroke: #000000; stroke-width: 0.8"/>
       </g>
      </g>
      <g id="text_25">
       <!-- 555 -->
       <g transform="translate(415.99625 198.949209) scale(0.05 -0.05)">
        <use xlink:href="#DejaVuSans-35"/>
        <use xlink:href="#DejaVuSans-35" transform="translate(63.623047 0)"/>
        <use xlink:href="#DejaVuSans-35" transform="translate(127.246094 0)"/>
       </g>
      </g>
     </g>
     <g id="ytick_10">
      <g id="line2d_46">
       <path d="M 432.54 184.1472 
L 532.98 184.1472 
" clip-path="url(#pf1be3f8cf7)" style="fill: none; stroke: #b0b0b0; stroke-width: 0.25; stroke-linecap: square"/>
      </g>
      <g id="line2d_47">
       <g>
        <use xlink:href="#m2df36bc804" x="432.54" y="184.1472" style="stroke: #000000; stroke-width: 0.8"/>
       </g>
      </g>
      <g id="text_26">
       <!-- 560 -->
       <g transform="translate(415.99625 186.046809) scale(0.05 -0.05)">
        <use xlink:href="#DejaVuSans-35"/>
        <use xlink:href="#DejaVuSans-36" transform="translate(63.623047 0)"/>
        <use xlink:href="#DejaVuSans-30" transform="translate(127.246094 0)"/>
       </g>
      </g>
     </g>
     <g id="ytick_11">
      <g id="line2d_48">
       <path d="M 432.54 171.2448 
L 532.98 171.2448 
" clip-path="url(#pf1be3f8cf7)" style="fill: none; stroke: #b0b0b0; stroke-width: 0.25; stroke-linecap: square"/>
      </g>
      <g id="line2d_49">
       <g>
        <use xlink:href="#m2df36bc804" x="432.54" y="171.2448" style="stroke: #000000; stroke-width: 0.8"/>
       </g>
      </g>
      <g id="text_27">
       <!-- 565 -->
       <g transform="translate(415.99625 173.144409) scale(0.05 -0.05)">
        <use xlink:href="#DejaVuSans-35"/>
        <use xlink:href="#DejaVuSans-36" transform="translate(63.623047 0)"/>
        <use xlink:href="#DejaVuSans-35" transform="translate(127.246094 0)"/>
       </g>
      </g>
     </g>
     <g id="ytick_12">
      <g id="line2d_50">
       <path d="M 432.54 158.3424 
L 532.98 158.3424 
" clip-path="url(#pf1be3f8cf7)" style="fill: none; stroke: #b0b0b0; stroke-width: 0.25; stroke-linecap: square"/>
      </g>
      <g id="line2d_51">
       <g>
        <use xlink:href="#m2df36bc804" x="432.54" y="158.3424" style="stroke: #000000; stroke-width: 0.8"/>
       </g>
      </g>
      <g id="text_28">
       <!-- 570 -->
       <g transform="translate(415.99625 160.242009) scale(0.05 -0.05)">
        <defs>
         <path id="DejaVuSans-37" d="M 525 4666 
L 3525 4666 
L 3525 4397 
L 1831 0 
L 1172 0 
L 2766 4134 
L 525 4134 
L 525 4666 
z
" transform="scale(0.015625)"/>
        </defs>
        <use xlink:href="#DejaVuSans-35"/>
        <use xlink:href="#DejaVuSans-37" transform="translate(63.623047 0)"/>
        <use xlink:href="#DejaVuSans-30" transform="translate(127.246094 0)"/>
       </g>
      </g>
     </g>
     <g id="ytick_13">
      <g id="line2d_52">
       <path d="M 432.54 145.44 
L 532.98 145.44 
" clip-path="url(#pf1be3f8cf7)" style="fill: none; stroke: #b0b0b0; stroke-width: 0.25; stroke-linecap: square"/>
      </g>
      <g id="line2d_53">
       <g>
        <use xlink:href="#m2df36bc804" x="432.54" y="145.44" style="stroke: #000000; stroke-width: 0.8"/>
       </g>
      </g>
      <g id="text_29">
       <!-- 575 -->
       <g transform="translate(415.99625 147.339609) scale(0.05 -0.05)">
        <use xlink:href="#DejaVuSans-35"/>
        <use xlink:href="#DejaVuSans-37" transform="translate(63.623047 0)"/>
        <use xlink:href="#DejaVuSans-35" transform="translate(127.246094 0)"/>
       </g>
      </g>
     </g>
     <g id="ytick_14">
      <g id="line2d_54">
       <path d="M 432.54 132.5376 
L 532.98 132.5376 
" clip-path="url(#pf1be3f8cf7)" style="fill: none; stroke: #b0b0b0; stroke-width: 0.25; stroke-linecap: square"/>
      </g>
      <g id="line2d_55">
       <g>
        <use xlink:href="#m2df36bc804" x="432.54" y="132.5376" style="stroke: #000000; stroke-width: 0.8"/>
       </g>
      </g>
      <g id="text_30">
       <!-- 580 -->
       <g transform="translate(415.99625 134.437209) scale(0.05 -0.05)">
        <use xlink:href="#DejaVuSans-35"/>
        <use xlink:href="#DejaVuSans-38" transform="translate(63.623047 0)"/>
        <use xlink:href="#DejaVuSans-30" transform="translate(127.246094 0)"/>
       </g>
      </g>
     </g>
     <g id="ytick_15">
      <g id="line2d_56">
       <path d="M 432.54 119.6352 
L 532.98 119.6352 
" clip-path="url(#pf1be3f8cf7)" style="fill: none; stroke: #b0b0b0; stroke-width: 0.25; stroke-linecap: square"/>
      </g>
      <g id="line2d_57">
       <g>
        <use xlink:href="#m2df36bc804" x="432.54" y="119.6352" style="stroke: #000000; stroke-width: 0.8"/>
       </g>
      </g>
      <g id="text_31">
       <!-- 585 -->
       <g transform="translate(415.99625 121.534809) scale(0.05 -0.05)">
        <use xlink:href="#DejaVuSans-35"/>
        <use xlink:href="#DejaVuSans-38" transform="translate(63.623047 0)"/>
        <use xlink:href="#DejaVuSans-35" transform="translate(127.246094 0)"/>
       </g>
      </g>
     </g>
     <g id="text_32">
      <!-- mV -->
      <g transform="translate(410.748437 172.590375) rotate(-90) scale(0.06 -0.06)">
       <use xlink:href="#DejaVuSans-6d"/>
       <use xlink:href="#DejaVuSans-56" transform="translate(97.412109 0)"/>
      </g>
     </g>
    </g>
    <g id="line2d_58">
     <path d="M 432.54 218.016 
L 442.584 218.016 
L 442.584 207.936 
L 452.628 207.936 
L 452.628 197.856 
L 462.672 197.856 
L 462.672 187.776 
L 472.716 187.776 
L 472.716 177.696 
L 482.76 177.696 
L 482.76 167.616 
L 492.804 167.616 
L 492.804 157.536 
L 502.848 157.536 
L 502.848 147.456 
L 512.892 147.456 
L 512.892 137.376 
L 522.936 137.376 
L 522.936 127.296 
L 532.98 127.296 
L 532.98 117.216 
" clip-path="url(#pf1be3f8cf7)" style="fill: none; stroke: #4682b4; stroke-opacity: 0.85; stroke-linecap: square"/>
    </g>
    <g id="line2d_59">
     <path d="M 432.54 215.709778 
L 442.584 215.709778 
L 442.584 205.560826 
L 452.628 205.560826 
L 452.628 195.683991 
L 462.672 195.683991 
L 462.672 185.535039 
L 472.716 185.535039 
L 472.716 179.460892 
L 482.76 179.460892 
L 482.76 169.31194 
L 492.804 169.31194 
L 492.804 159.435104 
L 502.848 159.435104 
L 502.848 149.286152 
L 512.892 149.286152 
L 512.892 138.684683 
L 522.936 138.684683 
L 522.936 128.535731 
L 532.98 128.535731 
L 532.98 118.658896 
" clip-path="url(#pf1be3f8cf7)" style="fill: none; stroke: #ff8c00; stroke-opacity: 0.85; stroke-linecap: square"/>
    </g>
    <g id="line2d_60">
     <path d="M 432.54 218.016 
L 442.584 207.936 
L 452.628 197.856 
L 462.672 187.776 
L 472.716 177.696 
L 482.76 167.616 
L 492.804 157.536 
L 502.848 147.456 
L 512.892 137.376 
L 522.936 127.296 
L 532.98 117.216 
" clip-path="url(#pf1be3f8cf7)" style="fill: none; stroke-dasharray: 2.96,1.28; stroke-dashoffset: 0; stroke: #ff6347; stroke-width: 0.8"/>
    </g>
    <g id="patch_10">
     <path d="M 432.54 223.056 
L 432.54 112.176 
" style="fill: none; stroke: #000000; stroke-width: 0.8; stroke-linejoin: miter; stroke-linecap: square"/>
    </g>
    <g id="patch_11">
     <path d="M 532.98 223.056 
L 532.98 112.176 
" style="fill: none; stroke: #000000; stroke-width: 0.8; stroke-linejoin: miter; stroke-linecap: square"/>
    </g>
    <g id="patch_12">
     <path d="M 432.54 223.056 
L 532.98 223.056 
" style="fill: none; stroke: #000000; stroke-width: 0.8; stroke-linejoin: miter; stroke-linecap: square"/>
    </g>
    <g id="patch_13">
     <path d="M 432.54 112.176 
L 532.98 112.176 
" style="fill: none; stroke: #000000; stroke-width: 0.8; stroke-linejoin: miter; stroke-linecap: square"/>
    </g>
   </g>
   <g id="legend_1">
    <g id="patch_14">
     <path d="M 86.6 76.1875 
L 231.82875 76.1875 
Q 233.42875 76.1875 233.42875 74.5875 
L 233.42875 40.16 
Q 233.42875 38.56 231.82875 38.56 
L 86.6 38.56 
Q 85 38.56 85 40.16 
L 85 74.5875 
Q 85 76.1875 86.6 76.1875 
z
" style="fill: #ffffff; opacity: 0.8; stroke: #cccccc; stroke-linejoin: miter"/>
    </g>
    <g id="line2d_61">
     <path d="M 88.2 45.03875 
L 96.2 45.03875 
L 96.2 45.03875 
L 104.2 45.03875 
L 104.2 45.03875 
" style="fill: none; stroke: #4682b4; stroke-opacity: 0.85; stroke-linecap: square"/>
    </g>
    <g id="text_33">
     <!-- Ideal CDAC output -->
     <g transform="translate(110.6 47.83875) scale(0.08 -0.08)">
      <defs>
       <path id="DejaVuSans-49" d="M 628 4666 
L 1259 4666 
L 1259 0 
L 628 0 
L 628 4666 
z
" transform="scale(0.015625)"/>
       <path id="DejaVuSans-41" d="M 2188 4044 
L 1331 1722 
L 3047 1722 
L 2188 4044 
z
M 1831 4666 
L 2547 4666 
L 4325 0 
L 3669 0 
L 3244 1197 
L 1141 1197 
L 716 0 
L 50 0 
L 1831 4666 
z
" transform="scale(0.015625)"/>
      </defs>
      <use xlink:href="#DejaVuSans-49"/>
      <use xlink:href="#DejaVuSans-64" transform="translate(29.492188 0)"/>
      <use xlink:href="#DejaVuSans-65" transform="translate(92.96875 0)"/>
      <use xlink:href="#DejaVuSans-61" transform="translate(154.492188 0)"/>
      <use xlink:href="#DejaVuSans-6c" transform="translate(215.771484 0)"/>
      <use xlink:href="#DejaVuSans-20" transform="translate(243.554688 0)"/>
      <use xlink:href="#DejaVuSans-43" transform="translate(275.341797 0)"/>
      <use xlink:href="#DejaVuSans-44" transform="translate(345.166016 0)"/>
      <use xlink:href="#DejaVuSans-41" transform="translate(420.417969 0)"/>
      <use xlink:href="#DejaVuSans-43" transform="translate(487.076172 0)"/>
      <use xlink:href="#DejaVuSans-20" transform="translate(556.900391 0)"/>
      <use xlink:href="#DejaVuSans-6f" transform="translate(588.6875 0)"/>
      <use xlink:href="#DejaVuSans-75" transform="translate(649.869141 0)"/>
      <use xlink:href="#DejaVuSans-74" transform="translate(713.248047 0)"/>
      <use xlink:href="#DejaVuSans-70" transform="translate(752.457031 0)"/>
      <use xlink:href="#DejaVuSans-75" transform="translate(815.933594 0)"/>
      <use xlink:href="#DejaVuSans-74" transform="translate(879.3125 0)"/>
     </g>
    </g>
    <g id="line2d_62">
     <path d="M 88.2 56.78125 
L 96.2 56.78125 
L 96.2 56.78125 
L 104.2 56.78125 
L 104.2 56.78125 
" style="fill: none; stroke: #ff8c00; stroke-opacity: 0.85; stroke-linecap: square"/>
    </g>
    <g id="text_34">
     <!-- Mismatched CDAC  (σ=1.0 %) -->
     <g transform="translate(110.6 59.58125) scale(0.08 -0.08)">
      <defs>
       <path id="DejaVuSans-4d" d="M 628 4666 
L 1569 4666 
L 2759 1491 
L 3956 4666 
L 4897 4666 
L 4897 0 
L 4281 0 
L 4281 4097 
L 3078 897 
L 2444 897 
L 1241 4097 
L 1241 0 
L 628 0 
L 628 4666 
z
" transform="scale(0.015625)"/>
       <path id="DejaVuSans-68" d="M 3513 2113 
L 3513 0 
L 2938 0 
L 2938 2094 
Q 2938 2591 2744 2837 
Q 2550 3084 2163 3084 
Q 1697 3084 1428 2787 
Q 1159 2491 1159 1978 
L 1159 0 
L 581 0 
L 581 4863 
L 1159 4863 
L 1159 2956 
Q 1366 3272 1645 3428 
Q 1925 3584 2291 3584 
Q 2894 3584 3203 3211 
Q 3513 2838 3513 2113 
z
" transform="scale(0.015625)"/>
       <path id="DejaVuSans-3c3" d="M 1959 3044 
Q 1484 3044 1228 2700 
Q 959 2341 959 1747 
Q 959 1119 1226 758 
Q 1494 397 1959 397 
Q 2419 397 2687 759 
Q 2956 1122 2956 1747 
Q 2956 2319 2688 2700 
Q 2441 3044 1959 3044 
z
M 1959 3500 
L 3869 3500 
L 3869 2925 
L 3225 2925 
Q 3566 2438 3566 1747 
Q 3566 888 3138 400 
Q 2709 -91 1959 -91 
Q 1206 -91 781 400 
Q 353 888 353 1747 
Q 353 2613 781 3097 
Q 1134 3500 1959 3500 
z
" transform="scale(0.015625)"/>
       <path id="DejaVuSans-3d" d="M 678 2906 
L 4684 2906 
L 4684 2381 
L 678 2381 
L 678 2906 
z
M 678 1631 
L 4684 1631 
L 4684 1100 
L 678 1100 
L 678 1631 
z
" transform="scale(0.015625)"/>
       <path id="DejaVuSans-2e" d="M 684 794 
L 1344 794 
L 1344 0 
L 684 0 
L 684 794 
z
" transform="scale(0.015625)"/>
       <path id="DejaVuSans-25" d="M 4653 2053 
Q 4381 2053 4226 1822 
Q 4072 1591 4072 1178 
Q 4072 772 4226 539 
Q 4381 306 4653 306 
Q 4919 306 5073 539 
Q 5228 772 5228 1178 
Q 5228 1588 5073 1820 
Q 4919 2053 4653 2053 
z
M 4653 2450 
Q 5147 2450 5437 2106 
Q 5728 1763 5728 1178 
Q 5728 594 5436 251 
Q 5144 -91 4653 -91 
Q 4153 -91 3862 251 
Q 3572 594 3572 1178 
Q 3572 1766 3864 2108 
Q 4156 2450 4653 2450 
z
M 1428 4353 
Q 1159 4353 1004 4120 
Q 850 3888 850 3481 
Q 850 3069 1003 2837 
Q 1156 2606 1428 2606 
Q 1700 2606 1854 2837 
Q 2009 3069 2009 3481 
Q 2009 3884 1853 4118 
Q 1697 4353 1428 4353 
z
M 4250 4750 
L 4750 4750 
L 1831 -91 
L 1331 -91 
L 4250 4750 
z
M 1428 4750 
Q 1922 4750 2215 4408 
Q 2509 4066 2509 3481 
Q 2509 2891 2217 2550 
Q 1925 2209 1428 2209 
Q 931 2209 642 2551 
Q 353 2894 353 3481 
Q 353 4063 643 4406 
Q 934 4750 1428 4750 
z
" transform="scale(0.015625)"/>
      </defs>
      <use xlink:href="#DejaVuSans-4d"/>
      <use xlink:href="#DejaVuSans-69" transform="translate(86.279297 0)"/>
      <use xlink:href="#DejaVuSans-73" transform="translate(114.0625 0)"/>
      <use xlink:href="#DejaVuSans-6d" transform="translate(166.162109 0)"/>
      <use xlink:href="#DejaVuSans-61" transform="translate(263.574219 0)"/>
      <use xlink:href="#DejaVuSans-74" transform="translate(324.853516 0)"/>
      <use xlink:href="#DejaVuSans-63" transform="translate(364.0625 0)"/>
      <use xlink:href="#DejaVuSans-68" transform="translate(419.042969 0)"/>
      <use xlink:href="#DejaVuSans-65" transform="translate(482.421875 0)"/>
      <use xlink:href="#DejaVuSans-64" transform="translate(543.945312 0)"/>
      <use xlink:href="#DejaVuSans-20" transform="translate(607.421875 0)"/>
      <use xlink:href="#DejaVuSans-43" transform="translate(639.208984 0)"/>
      <use xlink:href="#DejaVuSans-44" transform="translate(709.033203 0)"/>
      <use xlink:href="#DejaVuSans-41" transform="translate(784.285156 0)"/>
      <use xlink:href="#DejaVuSans-43" transform="translate(850.943359 0)"/>
      <use xlink:href="#DejaVuSans-20" transform="translate(920.767578 0)"/>
      <use xlink:href="#DejaVuSans-20" transform="translate(952.554688 0)"/>
      <use xlink:href="#DejaVuSans-28" transform="translate(984.341797 0)"/>
      <use xlink:href="#DejaVuSans-3c3" transform="translate(1023.355469 0)"/>
      <use xlink:href="#DejaVuSans-3d" transform="translate(1086.734375 0)"/>
      <use xlink:href="#DejaVuSans-31" transform="translate(1170.523438 0)"/>
      <use xlink:href="#DejaVuSans-2e" transform="translate(1234.146484 0)"/>
      <use xlink:href="#DejaVuSans-30" transform="translate(1265.933594 0)"/>
      <use xlink:href="#DejaVuSans-20" transform="translate(1329.556641 0)"/>
      <use xlink:href="#DejaVuSans-25" transform="translate(1361.34375 0)"/>
      <use xlink:href="#DejaVuSans-29" transform="translate(1456.363281 0)"/>
     </g>
    </g>
    <g id="line2d_63">
     <path d="M 88.2 68.52375 
L 96.2 68.52375 
L 104.2 68.52375 
" style="fill: none; stroke-dasharray: 2.96,1.28; stroke-dashoffset: 0; stroke: #ff6347; stroke-width: 0.8"/>
    </g>
    <g id="text_35">
     <!-- Ideal reference line -->
     <g transform="translate(110.6 71.32375) scale(0.08 -0.08)">
      <use xlink:href="#DejaVuSans-49"/>
      <use xlink:href="#DejaVuSans-64" transform="translate(29.492188 0)"/>
      <use xlink:href="#DejaVuSans-65" transform="translate(92.96875 0)"/>
      <use xlink:href="#DejaVuSans-61" transform="translate(154.492188 0)"/>
      <use xlink:href="#DejaVuSans-6c" transform="translate(215.771484 0)"/>
      <use xlink:href="#DejaVuSans-20" transform="translate(243.554688 0)"/>
      <use xlink:href="#DejaVuSans-72" transform="translate(275.341797 0)"/>
      <use xlink:href="#DejaVuSans-65" transform="translate(314.205078 0)"/>
      <use xlink:href="#DejaVuSans-66" transform="translate(375.728516 0)"/>
      <use xlink:href="#DejaVuSans-65" transform="translate(410.933594 0)"/>
      <use xlink:href="#DejaVuSans-72" transform="translate(472.457031 0)"/>
      <use xlink:href="#DejaVuSans-65" transform="translate(511.320312 0)"/>
      <use xlink:href="#DejaVuSans-6e" transform="translate(572.84375 0)"/>
      <use xlink:href="#DejaVuSans-63" transform="translate(636.222656 0)"/>
      <use xlink:href="#DejaVuSans-65" transform="translate(691.203125 0)"/>
      <use xlink:href="#DejaVuSans-20" transform="translate(752.726562 0)"/>
      <use xlink:href="#DejaVuSans-6c" transform="translate(784.513672 0)"/>
      <use xlink:href="#DejaVuSans-69" transform="translate(812.296875 0)"/>
      <use xlink:href="#DejaVuSans-6e" transform="translate(840.080078 0)"/>
      <use xlink:href="#DejaVuSans-65" transform="translate(903.458984 0)"/>
     </g>
    </g>
   </g>
  </g>
 </g>
 <defs>
  <clipPath id="p3b4e6106e5">
   <rect x="81" y="34.56" width="502.2" height="221.76"/>
  </clipPath>
  <clipPath id="pf1be3f8cf7">
   <rect x="432.54" y="112.176" width="100.44" height="110.88"/>
  </clipPath>
 </defs>
</svg>
